<svg width="40" height="40" viewBox="0 0 40 40" fill="none" xmlns="http://www.w3.org/2000/svg">
<rect width="40" height="40" rx="4" fill="white"/>
<path fill-rule="evenodd" clip-rule="evenodd" d="M19.9996 12.3477C20.4967 12.3477 20.8996 12.7506 20.8996 13.2477V20.0749L23.1132 17.8613C23.4647 17.5098 24.0345 17.5098 24.386 17.8613C24.7375 18.2127 24.7375 18.7826 24.386 19.1341L20.636 22.8841C20.2845 23.2355 19.7147 23.2355 19.3632 22.8841L15.6132 19.1341C15.2617 18.7826 15.2617 18.2127 15.6132 17.8613C15.9647 17.5098 16.5345 17.5098 16.886 17.8613L19.0996 20.0749V13.2477C19.0996 12.7506 19.5026 12.3477 19.9996 12.3477ZM13.2496 21.3477C13.7467 21.3477 14.1496 21.7506 14.1496 22.2477V23.1477C14.1496 23.7926 14.1503 24.2221 14.1773 24.5522C14.2034 24.8717 14.2496 25.0179 14.2968 25.1105C14.4262 25.3646 14.6327 25.5711 14.8867 25.7005C14.9794 25.7477 15.1256 25.7939 15.4451 25.82C15.7751 25.847 16.2047 25.8477 16.8496 25.8477H23.1496C23.7945 25.8477 24.2241 25.847 24.5541 25.82C24.8737 25.7939 25.0199 25.7477 25.1125 25.7005C25.3665 25.5711 25.573 25.3646 25.7025 25.1105C25.7497 25.0179 25.7958 24.8717 25.8219 24.5522C25.8489 24.2221 25.8496 23.7926 25.8496 23.1477V22.2477C25.8496 21.7506 26.2526 21.3477 26.7496 21.3477C27.2467 21.3477 27.6496 21.7506 27.6496 22.2477V23.1838C27.6496 23.7831 27.6496 24.2867 27.616 24.6987C27.5808 25.1296 27.5043 25.5391 27.3063 25.9277C27.0043 26.5204 26.5224 27.0023 25.9297 27.3043C25.541 27.5024 25.1315 27.5788 24.7007 27.614C24.2886 27.6477 23.785 27.6477 23.1858 27.6477H16.8134C16.2142 27.6477 15.7106 27.6477 15.2985 27.614C14.8677 27.5788 14.4582 27.5024 14.0695 27.3043C13.4768 27.0023 12.9949 26.5204 12.6929 25.9277C12.4949 25.5391 12.4185 25.1296 12.3833 24.6987C12.3496 24.2867 12.3496 23.7831 12.3496 23.1838L12.3496 22.2477C12.3496 21.7506 12.7526 21.3477 13.2496 21.3477Z" fill="#403E5B" fill-opacity="0.898039"/>
</svg>
