<svg width="60" height="60" viewBox="0 0 60 60" fill="none" xmlns="http://www.w3.org/2000/svg">
<path d="M32.3379 0.0705809C39.5918 0.73855 46.1895 3.78542 51.1348 8.73074C55.8223 13.43 58.752 19.3362 59.7832 26.1917C60.041 27.9378 59.9707 32.5198 59.666 34.4534C58.2598 43.1253 53.6074 50.3675 46.4004 55.1136C43.5996 56.9534 39.5215 58.6526 36.2637 59.344C31.1426 60.4221 25.8106 60.1526 20.877 58.5706C18.3106 57.7503 15.1348 56.2503 13.7402 55.1956C11.666 53.637 12.5566 50.3206 15.1348 49.969C15.8496 49.8753 16.541 50.0862 17.666 50.7659C22.6934 53.7893 28.9629 54.8557 34.8574 53.6604C40.0371 52.6175 45.0645 49.6175 48.4863 45.5276C51.2988 42.1761 53.0684 38.2737 53.8535 33.6917C54.1465 32.0393 54.1465 27.9378 53.8652 26.3089C52.3535 17.6253 46.7754 10.6995 38.748 7.55886C32.4434 5.09792 25.5527 5.37917 19.3887 8.36746C12.3926 11.7659 7.63476 18.094 6.18164 25.969C5.95898 27.1761 5.92383 27.7971 5.91211 30.6448C5.90039 32.7659 5.85351 34.0315 5.77148 34.2307C5.56055 34.7229 4.92774 35.3792 4.40039 35.6604C3.73243 36.012 2.4668 36.012 1.79883 35.6604C1.08399 35.2854 0.498051 34.5706 0.263676 33.7854C0.0996135 33.2229 0.0644531 32.6136 0.0527344 30.2346C0.0527344 27.1292 0.146484 26.1331 0.697266 23.5901C3.12305 12.3753 11.8418 3.49245 23.0215 0.820578C25.3301 0.269797 26.6895 0.105734 29.3496 0.0588591C30.6973 0.0471404 32.0449 0.0471434 32.3379 0.0705809Z" fill="#F44336"/>
<g clip-path="url(#clip0_12576_19807)">
<path d="M18.3227 37.8976L36.4904 19.73C37.2827 18.9377 38.5673 18.9377 39.3584 19.73L40.3159 20.686C41.1082 21.4786 41.1082 22.7632 40.3159 23.5543L22.1483 41.7219C21.3557 42.5142 20.0711 42.5142 19.28 41.7219L18.324 40.7659C17.5302 39.9748 17.5302 38.69 18.3227 37.8976Z" fill="#F44336"/>
<path d="M22.1483 19.7298L40.3159 37.8974C41.1082 38.6898 41.1082 39.9746 40.3159 40.7657L39.3599 41.7217C38.5673 42.5141 37.2827 42.5141 36.4916 41.7217L18.3227 23.5553C17.5302 22.763 17.5302 21.4784 18.3227 20.6873L19.2788 19.7313C20.0711 18.9375 21.3557 18.9375 22.1483 19.7298Z" fill="#F44336"/>
</g>
<defs>
<clipPath id="clip0_12576_19807">
<rect width="23.1818" height="23.1818" fill="white" transform="matrix(-1 0 0 1 40.9102 19.0898)"/>
</clipPath>
</defs>
</svg>
