<svg width="28" height="28" viewBox="0 0 28 28" fill="none" xmlns="http://www.w3.org/2000/svg">
<rect width="28" height="28" rx="4" fill="#635BFE"/>
<path fill-rule="evenodd" clip-rule="evenodd" d="M9.24408 9.24408C9.56951 8.91864 10.0972 8.91864 10.4226 9.24408L14 12.8215L17.5774 9.24408C17.9028 8.91864 18.4305 8.91864 18.7559 9.24408C19.0814 9.56951 19.0814 10.0972 18.7559 10.4226L15.1785 14L18.7559 17.5774C19.0814 17.9028 19.0814 18.4305 18.7559 18.7559C18.4305 19.0814 17.9028 19.0814 17.5774 18.7559L14 15.1785L10.4226 18.7559C10.0972 19.0814 9.56951 19.0814 9.24408 18.7559C8.91864 18.4305 8.91864 17.9028 9.24408 17.5774L12.8215 14L9.24408 10.4226C8.91864 10.0972 8.91864 9.56951 9.24408 9.24408Z" fill="white"/>
</svg>
