<svg width="174" height="44" viewBox="0 0 174 44" fill="none" xmlns="http://www.w3.org/2000/svg">
<path d="M0 6.2269V25.9604H4.51052V19.7585H7.47055C9.41571 19.7585 11.0508 19.1101 12.3757 17.7851C13.7007 16.4601 14.3773 14.8815 14.3773 12.9927C14.3773 11.1039 13.7007 9.52522 12.3757 8.20025C11.0508 6.87529 9.41571 6.2269 7.47055 6.2269H0ZM4.51052 15.5298V10.4555H7.47055C8.8519 10.4555 9.86676 11.5549 9.86676 12.9927C9.86676 14.4304 8.8519 15.5298 7.47055 15.5298H4.51052Z" fill="white"/>
<path d="M25.867 13.19C24.8803 12.0342 23.4708 11.4704 21.6666 11.4704C19.806 11.4704 18.2273 12.2033 16.9023 13.6411C15.5774 15.0788 14.929 16.8266 14.929 18.9127C14.929 20.9989 15.5774 22.7749 16.9023 24.2126C18.2273 25.6503 19.806 26.3551 21.6666 26.3551C23.4708 26.3551 24.8803 25.7913 25.867 24.6355V25.9604H30.0956V11.865H25.867V13.19ZM20.0879 21.4217C19.4677 20.8015 19.1576 19.9558 19.1576 18.9127C19.1576 17.8697 19.4677 17.024 20.0879 16.4038C20.7081 15.7836 21.5256 15.4735 22.5123 15.4735C23.499 15.4735 24.3165 15.7836 24.9367 16.4038C25.5569 17.024 25.867 17.8697 25.867 18.9127C25.867 19.9558 25.5569 20.8015 24.9367 21.4217C24.3165 22.0419 23.499 22.352 22.5123 22.352C21.5256 22.352 20.7081 22.0419 20.0879 21.4217Z" fill="white"/>
<path d="M39.4281 20.4914L36.2989 11.865H31.6474L37.2574 25.312C36.609 27.0317 35.6787 27.6519 33.7335 27.6519V31.5986C37.7084 31.7959 40.1892 29.9635 41.7679 25.5376L46.5885 11.865H42.078L39.4281 20.4914Z" fill="white"/>
<path d="M158.383 30.3866C158.119 29.6075 158.314 29.2523 158.646 29.0804C159.162 28.8169 159.758 29.0575 159.953 29.0804C160.067 29.0918 163.103 30.1574 168.408 32.449C171.869 29.0116 174 24.2451 174 18.9859C174 8.50183 165.498 0 155.014 0H72.7916C62.3075 0 53.8057 8.50183 53.8057 18.9859C53.8057 29.47 62.3075 37.9718 72.7916 37.9718H155.014C157.122 37.9718 159.15 37.628 161.041 36.9864C159.162 32.6553 158.417 30.4783 158.383 30.3866Z" fill="#635BFE"/>
<path d="M160.419 31.105C160.196 31.1635 160.179 31.301 160.196 31.4236C160.16 31.6596 165.352 43.3284 165.438 43.4464C165.591 43.6527 165.925 43.6298 166.041 43.4052C166.061 43.3685 166.308 42.5722 166.595 41.6361C167.187 39.6882 167.232 39.5519 167.344 39.3307C167.587 38.846 168.018 38.4141 168.502 38.1723C168.722 38.06 168.86 38.0153 170.808 37.423C171.744 37.1365 172.54 36.889 172.577 36.8695C172.802 36.755 172.824 36.4192 172.618 36.2669C172.486 36.1718 160.835 31.1761 160.717 31.1635C160.717 31.1623 160.483 31.0649 160.419 31.105Z" fill="#FFAF30"/>
<path d="M86.405 11.8311C84.5444 11.8311 83.1912 12.4513 82.3173 13.6917C81.4998 12.4513 80.2594 11.8311 78.6243 11.8311C76.8765 11.8311 75.6079 12.3949 74.8468 13.5226V12.2258H70.6182V26.3212H74.8468V18.3714C74.8468 16.7081 75.6643 15.7214 77.0457 15.7214C78.3706 15.7214 79.0754 16.5954 79.0754 18.0331V26.3212H83.304V18.3714C83.304 16.7081 84.1215 15.7214 85.5029 15.7214C86.8278 15.7214 87.5326 16.5954 87.5326 18.0331V26.3212H91.7612V17.6666C91.7612 15.8906 91.282 14.481 90.2953 13.438C89.3086 12.3667 88.0119 11.8311 86.405 11.8311Z" fill="white"/>
<path d="M106.718 24.5733C108.155 23.1356 108.888 21.3596 108.888 19.2735C108.888 17.1874 108.155 15.4395 106.718 14.0018C105.28 12.5641 103.504 11.8311 101.418 11.8311C99.3315 11.8311 97.5555 12.5641 96.1178 14.0018C94.6801 15.4395 93.9471 17.1874 93.9471 19.2735C93.9471 21.3596 94.6801 23.1356 96.1178 24.5733C97.5555 26.0111 99.3315 26.7158 101.418 26.7158C103.504 26.7158 105.28 26.0111 106.718 24.5733ZM99.106 21.6697C98.4858 21.0495 98.1757 20.2602 98.1757 19.2735C98.1757 18.2868 98.4858 17.4975 99.106 16.8773C99.7262 16.2571 100.487 15.947 101.418 15.947C102.348 15.947 103.109 16.2571 103.729 16.8773C104.349 17.4975 104.66 18.2868 104.66 19.2735C104.66 20.2602 104.349 21.0495 103.729 21.6697C103.109 22.2899 102.348 22.6 101.418 22.6C100.487 22.6 99.7262 22.2899 99.106 21.6697Z" fill="white"/>
<path d="M119.54 11.8311C117.708 11.8311 116.354 12.3949 115.509 13.5508V12.2258H111.28V26.3212H115.509V18.6251C115.509 16.7081 116.523 15.7214 118.13 15.7214C119.568 15.7214 120.583 16.6235 120.583 18.2868V26.3212H124.812V17.6666C124.812 15.8342 124.304 14.4247 123.289 13.3816C122.303 12.3385 121.034 11.8311 119.54 11.8311Z" fill="white"/>
<path d="M141.501 20.9649C141.613 20.4293 141.67 19.8655 141.67 19.2735C141.67 17.1592 140.993 15.3832 139.612 13.9736C138.259 12.5359 136.567 11.8311 134.509 11.8311C132.311 11.8311 130.506 12.5359 129.097 13.9736C127.715 15.3832 127.011 17.1592 127.011 19.2735C127.011 21.416 127.715 23.192 129.125 24.6015C130.563 26.0111 132.451 26.7158 134.82 26.7158C137.526 26.7158 139.584 25.7573 140.965 23.8122L137.582 21.867C136.934 22.5718 136.032 22.9383 134.876 22.9383C133.1 22.9383 131.972 22.2899 131.493 20.9649H141.501ZM131.408 17.8076C131.831 16.3134 132.846 15.5805 134.481 15.5805C136.06 15.5805 137.047 16.3134 137.469 17.8076H131.408Z" fill="white"/>
<path d="M149.748 20.8522L146.619 12.2258H141.967L147.577 25.6728C146.929 27.3924 145.998 28.0126 144.053 28.0126V31.9593C148.028 32.1566 150.509 30.3242 152.088 25.8983L156.908 12.2258H152.398L149.748 20.8522Z" fill="white"/>
</svg>
