<svg width="254" height="73" viewBox="0 0 254 73" fill="none" xmlns="http://www.w3.org/2000/svg">
<path d="M252.589 64.5806C252.589 68.4709 249.356 71.6221 245.356 71.6221H8.65385C4.65627 71.6221 1.41142 68.4709 1.41142 64.5806V8.42742C1.41142 4.539 4.65627 1.37679 8.65385 1.37679H245.354C249.356 1.37679 252.587 4.539 252.587 8.42742L252.589 64.5806Z" fill="black"/>
<path d="M244.593 1.46228C248.948 1.46228 252.492 4.90013 252.492 9.125V63.875C252.492 68.0999 248.948 71.5377 244.593 71.5377H9.40741C5.05178 71.5377 1.50754 68.0999 1.50754 63.875V9.125C1.50754 4.90013 5.05178 1.46228 9.40741 1.46228H244.593ZM244.593 0H9.40741C4.23569 0 0 4.10853 0 9.125V63.875C0 68.8915 4.23569 73 9.40741 73H244.593C249.764 73 254 68.8915 254 63.875V9.125C254 4.10853 249.764 0 244.593 0Z" fill="#A6A6A6"/>
<path d="M56.6851 36.1055C56.6305 30.2236 61.6503 27.362 61.8799 27.2287C59.0369 23.2083 54.6305 22.6589 53.082 22.6151C49.3812 22.2374 45.7913 24.7632 43.9061 24.7632C41.9832 24.7632 39.0801 22.6516 35.9512 22.7137C31.9248 22.7739 28.1581 25.0351 26.0922 28.5464C21.8288 35.7059 25.0085 46.227 29.0932 52.0141C31.1364 54.8483 33.524 58.0128 36.6492 57.9015C39.7066 57.7792 40.8487 56.0108 44.5382 56.0108C48.194 56.0108 49.2664 57.9015 52.4536 57.8303C55.7349 57.7792 57.8008 54.9833 59.7726 52.1236C62.1339 48.8751 63.0821 45.6758 63.1198 45.5116C63.0426 45.486 56.7472 43.1555 56.6851 36.1055Z" fill="white"/>
<path d="M50.6643 18.8082C52.3088 16.8135 53.4339 14.0997 53.1216 11.3458C50.7415 11.448 47.765 12.9426 46.0509 14.8936C44.5345 16.6127 43.1798 19.4305 43.5298 22.0804C46.2034 22.2739 48.9484 20.7719 50.6643 18.8082Z" fill="white"/>
<path d="M100.933 57.4946H96.6598L94.3193 50.3607H86.1838L83.9542 57.4946H79.7943L87.8545 33.2075H92.8329L100.933 57.4946ZM93.6137 47.3677L91.4971 41.0258C91.2732 40.3779 90.8536 38.8522 90.2346 36.4505H90.1593C89.9128 37.4835 89.5159 39.0092 88.9702 41.0258L86.8912 47.3677H93.6137Z" fill="white"/>
<path d="M121.661 48.5223C121.661 51.5007 120.831 53.8549 119.172 55.5832C117.685 57.1217 115.84 57.89 113.636 57.89C111.258 57.89 109.55 57.0615 108.509 55.4044H108.434V64.6298H104.423V45.7465C104.423 43.874 104.372 41.9523 104.274 39.9813H107.802L108.026 42.7571H108.101C109.439 40.6657 111.469 39.6218 114.193 39.6218C116.323 39.6218 118.101 40.4375 119.523 42.0709C120.95 43.7061 121.661 45.856 121.661 48.5223ZM117.574 48.6646C117.574 46.9601 117.179 45.5548 116.385 44.4489C115.518 43.2955 114.353 42.7188 112.893 42.7188C111.903 42.7188 111.004 43.04 110.201 43.6733C109.395 44.312 108.869 45.146 108.622 46.179C108.498 46.6608 108.436 47.055 108.436 47.3652V50.2853C108.436 51.5591 108.839 52.634 109.644 53.5118C110.449 54.3897 111.495 54.8277 112.782 54.8277C114.293 54.8277 115.469 54.2619 116.31 53.1341C117.153 52.0044 117.574 50.5152 117.574 48.6646Z" fill="white"/>
<path d="M142.428 48.5223C142.428 51.5007 141.599 53.8549 139.937 55.5832C138.453 57.1217 136.607 57.89 134.404 57.89C132.026 57.89 130.317 57.0615 129.279 55.4044H129.204V64.6298H125.192V45.7465C125.192 43.874 125.141 41.9523 125.044 39.9813H128.571L128.795 42.7571H128.871C130.206 40.6657 132.237 39.6218 134.963 39.6218C137.091 39.6218 138.869 40.4375 140.295 42.0709C141.715 43.7061 142.428 45.856 142.428 48.5223ZM138.342 48.6646C138.342 46.9601 137.945 45.5548 137.151 44.4489C136.284 43.2955 135.123 42.7188 133.661 42.7188C132.669 42.7188 131.772 43.04 130.967 43.6733C130.161 44.312 129.636 45.146 129.39 46.179C129.268 46.6608 129.204 47.055 129.204 47.3652V50.2853C129.204 51.5591 129.606 52.634 130.408 53.5118C131.213 54.3878 132.259 54.8277 133.55 54.8277C135.061 54.8277 136.237 54.2619 137.078 53.1341C137.92 52.0044 138.342 50.5152 138.342 48.6646Z" fill="white"/>
<path d="M165.644 50.6833C165.644 52.7492 164.904 54.43 163.42 55.7276C161.789 57.1456 159.518 57.8538 156.6 57.8538C153.905 57.8538 151.745 57.35 150.11 56.3408L151.04 53.0978C152.801 54.1307 154.733 54.649 156.839 54.649C158.349 54.649 159.525 54.3169 160.37 53.6562C161.211 52.9956 161.631 52.1086 161.631 51.0027C161.631 50.0172 161.284 49.1868 160.59 48.5134C159.9 47.84 158.746 47.214 157.136 46.6355C152.752 45.0495 150.562 42.7263 150.562 39.6713C150.562 37.6747 151.33 36.0377 152.867 34.7638C154.398 33.4882 156.441 32.8512 158.997 32.8512C161.275 32.8512 163.168 33.2363 164.679 34.0046L163.676 37.1765C162.265 36.4319 160.669 36.0596 158.884 36.0596C157.473 36.0596 156.37 36.3972 155.58 37.0688C154.912 37.6692 154.577 38.4011 154.577 39.2679C154.577 40.2279 154.959 41.0218 155.727 41.6459C156.394 42.2226 157.608 42.8468 159.369 43.5202C161.523 44.3615 163.106 45.3452 164.124 46.473C165.138 47.5972 165.644 49.0043 165.644 50.6833Z" fill="white"/>
<path d="M178.906 42.9014H174.484V51.4041C174.484 53.5667 175.263 54.6471 176.825 54.6471C177.542 54.6471 178.136 54.5869 178.607 54.4664L178.718 57.4211C177.927 57.7076 176.887 57.8518 175.598 57.8518C174.014 57.8518 172.776 57.3828 171.882 56.4466C170.992 55.5085 170.544 53.9354 170.544 51.7253V42.8978H167.91V39.9778H170.544V36.7712L174.484 35.6178V39.9778H178.906V42.9014Z" fill="white"/>
<path d="M198.856 48.5934C198.856 51.2853 198.062 53.4953 196.478 55.2236C194.817 57.003 192.611 57.8899 189.863 57.8899C187.214 57.8899 185.104 57.0377 183.531 55.3331C181.959 53.6286 181.172 51.4769 181.172 48.8836C181.172 46.1698 181.981 43.9469 183.605 42.2187C185.225 40.4886 187.411 39.6235 190.16 39.6235C192.809 39.6235 194.941 40.4758 196.549 42.1822C198.088 43.8374 198.856 45.9745 198.856 48.5934ZM194.694 48.7193C194.694 47.1042 194.339 45.719 193.618 44.5638C192.777 43.1658 191.575 42.4687 190.017 42.4687C188.404 42.4687 187.18 43.1677 186.339 44.5638C185.618 45.7208 185.262 47.1279 185.262 48.7923C185.262 50.4074 185.618 51.7926 186.339 52.946C187.206 54.344 188.418 55.0411 189.981 55.0411C191.513 55.0411 192.715 54.3294 193.582 52.9095C194.322 51.7324 194.694 50.3326 194.694 48.7193Z" fill="white"/>
<path d="M211.895 43.4032C211.498 43.332 211.074 43.2955 210.63 43.2955C209.219 43.2955 208.128 43.812 207.36 44.8467C206.692 45.7592 206.357 46.9126 206.357 48.3051V57.494H202.348L202.386 45.4964C202.386 43.478 202.335 41.6402 202.235 39.9831H205.729L205.876 43.3338H205.987C206.41 42.1823 207.078 41.2551 207.992 40.5598C208.886 39.9338 209.851 39.6218 210.892 39.6218C211.262 39.6218 211.597 39.6473 211.895 39.6929V43.4032Z" fill="white"/>
<path d="M229.834 47.9089C229.834 48.6061 229.787 49.1937 229.687 49.6737H217.653C217.7 51.4038 218.281 52.7269 219.399 53.6394C220.413 54.4552 221.725 54.864 223.335 54.864C225.117 54.864 226.742 54.5884 228.204 54.0354L228.833 56.7365C227.124 57.4592 225.107 57.8187 222.78 57.8187C219.98 57.8187 217.783 57.0193 216.184 55.4224C214.588 53.8256 213.788 51.6812 213.788 48.9912C213.788 46.3504 214.532 44.1513 216.02 42.3974C217.578 40.525 219.683 39.5888 222.332 39.5888C224.934 39.5888 226.904 40.525 228.242 42.3974C229.301 43.8848 229.834 45.7244 229.834 47.9089ZM226.009 46.8997C226.035 45.7463 225.774 44.7499 225.23 43.9085C224.536 42.8263 223.469 42.2861 222.033 42.2861C220.722 42.2861 219.655 42.8135 218.84 43.872C218.172 44.7134 217.775 45.7226 217.653 46.8979H226.009V46.8997Z" fill="white"/>
<path d="M92.288 18.2662C92.288 20.4142 91.6238 22.0312 90.2974 23.1171C89.0688 24.119 87.3228 24.6209 85.0612 24.6209C83.9398 24.6209 82.9803 24.5734 82.1769 24.4785V12.7419C83.2249 12.5777 84.3538 12.4937 85.573 12.4937C87.7273 12.4937 89.351 12.9482 90.446 13.857C91.6727 14.8845 92.288 16.3536 92.288 18.2662ZM90.209 18.3191C90.209 16.9267 89.8289 15.859 89.0688 15.1144C88.3087 14.3717 87.1986 13.9994 85.7367 13.9994C85.1158 13.9994 84.5871 14.0395 84.1487 14.1235V23.0459C84.3914 23.0824 84.8354 23.0988 85.4808 23.0988C86.9897 23.0988 88.1544 22.6918 88.9747 21.8779C89.795 21.0639 90.209 19.8777 90.209 18.3191Z" fill="white"/>
<path d="M103.311 20.1428C103.311 21.4659 102.922 22.55 102.143 23.4004C101.326 24.2746 100.245 24.7108 98.8937 24.7108C97.5918 24.7108 96.5551 24.2928 95.7818 23.4533C95.0104 22.6157 94.6247 21.559 94.6247 20.2851C94.6247 18.9529 95.0217 17.8597 95.8194 17.0111C96.6171 16.1625 97.6896 15.7372 99.0405 15.7372C100.342 15.7372 101.389 16.1552 102.181 16.9928C102.933 17.8068 103.311 18.858 103.311 20.1428ZM101.266 20.2048C101.266 19.411 101.089 18.7302 100.738 18.1627C100.324 17.4765 99.7348 17.1334 98.969 17.1334C98.1769 17.1334 97.5748 17.4765 97.1609 18.1627C96.8072 18.7302 96.6322 19.4219 96.6322 20.2395C96.6322 21.0334 96.8091 21.7141 97.1609 22.2817C97.588 22.9679 98.1825 23.311 98.9502 23.311C99.7028 23.311 100.294 22.9624 100.719 22.2634C101.084 21.6849 101.266 20.9987 101.266 20.2048Z" fill="white"/>
<path d="M118.092 15.9119L115.317 24.515H113.511L112.361 20.7792C112.07 19.8466 111.833 18.9195 111.648 17.9997H111.613C111.441 18.9451 111.204 19.8703 110.9 20.7792L109.678 24.515H107.852L105.242 15.9119H107.268L108.271 20.0017C108.514 20.969 108.713 21.8906 108.873 22.763H108.909C109.056 22.0439 109.298 21.1278 109.641 20.02L110.9 15.9137H112.506L113.712 19.9324C114.004 20.9124 114.241 21.8559 114.424 22.7648H114.478C114.612 21.8797 114.813 20.9361 115.08 19.9324L116.156 15.9137H118.092V15.9119Z" fill="white"/>
<path d="M128.315 24.515H126.343V19.5875C126.343 18.0691 125.748 17.3099 124.555 17.3099C123.97 17.3099 123.498 17.518 123.131 17.9359C122.768 18.3538 122.584 18.8466 122.584 19.4105V24.5132H120.612V18.3702C120.612 17.6147 120.587 16.7953 120.54 15.9083H122.273L122.365 17.2533H122.42C122.649 16.8354 122.992 16.4905 123.442 16.2149C123.976 15.8937 124.574 15.7313 125.229 15.7313C126.057 15.7313 126.745 15.9904 127.293 16.5106C127.974 17.1475 128.315 18.0983 128.315 19.3612V24.515Z" fill="white"/>
<path d="M133.751 24.515H131.781V11.9644H133.751V24.515Z" fill="white"/>
<path d="M145.361 20.1419C145.361 21.465 144.971 22.5491 144.192 23.3995C143.376 24.2737 142.292 24.7099 140.943 24.7099C139.639 24.7099 138.602 24.292 137.831 23.4525C137.06 22.6148 136.674 21.5581 136.674 20.2843C136.674 18.952 137.071 17.8588 137.869 17.0102C138.666 16.1616 139.739 15.7364 141.088 15.7364C142.392 15.7364 143.436 16.1543 144.23 16.992C144.982 17.8059 145.361 18.8571 145.361 20.1419ZM143.314 20.204C143.314 19.4101 143.137 18.7294 142.785 18.1618C142.373 17.4756 141.782 17.1325 141.018 17.1325C140.224 17.1325 139.622 17.4756 139.21 18.1618C138.856 18.7294 138.681 19.421 138.681 20.2386C138.681 21.0325 138.858 21.7132 139.21 22.2808C139.637 22.967 140.232 23.3101 140.999 23.3101C141.752 23.3101 142.341 22.9615 142.766 22.2626C143.133 21.684 143.314 20.9978 143.314 20.204Z" fill="white"/>
<path d="M154.904 24.5155H153.134L152.987 23.5245H152.932C152.327 24.3147 151.463 24.7108 150.342 24.7108C149.504 24.7108 148.827 24.4498 148.317 23.9315C147.854 23.4606 147.623 22.8748 147.623 22.1795C147.623 21.1283 148.074 20.3271 148.983 19.7723C149.89 19.2175 151.166 18.9456 152.808 18.9584V18.7978C152.808 17.6644 152.195 17.0987 150.966 17.0987C150.091 17.0987 149.32 17.3122 148.654 17.7356L148.253 16.48C149.077 15.9854 150.095 15.7372 151.296 15.7372C153.613 15.7372 154.776 16.9235 154.776 19.296V22.4642C154.776 23.3238 154.82 24.0081 154.904 24.5155ZM152.857 21.559V20.2322C150.682 20.1957 149.595 20.7742 149.595 21.966C149.595 22.4149 149.719 22.7507 149.973 22.9752C150.227 23.1997 150.55 23.311 150.936 23.311C151.369 23.311 151.773 23.1778 152.142 22.9131C152.513 22.6467 152.74 22.3091 152.825 21.8948C152.846 21.8017 152.857 21.6886 152.857 21.559Z" fill="white"/>
<path d="M166.109 24.515H164.359L164.267 23.1334H164.213C163.654 24.1846 162.702 24.7102 161.364 24.7102C160.295 24.7102 159.405 24.3033 158.7 23.4893C157.994 22.6754 157.643 21.6187 157.643 20.3211C157.643 18.9286 158.024 17.8008 158.792 16.9394C159.535 16.1364 160.446 15.7349 161.53 15.7349C162.721 15.7349 163.554 16.1236 164.028 16.9029H164.066V11.9644H166.04V22.1972C166.04 23.0349 166.062 23.8069 166.109 24.515ZM164.066 20.8869V19.4524C164.066 19.2042 164.047 19.0035 164.011 18.8502C163.9 18.3903 163.661 18.0034 163.298 17.6913C162.931 17.3792 162.489 17.2223 161.979 17.2223C161.244 17.2223 160.668 17.5051 160.245 18.0727C159.825 18.6403 159.612 19.3648 159.612 20.2499C159.612 21.1004 159.814 21.7902 160.218 22.3213C160.645 22.8871 161.221 23.1699 161.942 23.1699C162.589 23.1699 163.106 22.9345 163.5 22.4618C163.88 22.0257 164.066 21.5001 164.066 20.8869Z" fill="white"/>
<path d="M182.973 20.1428C182.973 21.4659 182.583 22.55 181.805 23.4004C180.988 24.2746 179.908 24.7108 178.555 24.7108C177.255 24.7108 176.218 24.2928 175.443 23.4533C174.672 22.6157 174.286 21.559 174.286 20.2851C174.286 18.9529 174.683 17.8597 175.481 17.0111C176.279 16.1625 177.351 15.7372 178.704 15.7372C180.004 15.7372 181.052 16.1552 181.842 16.9928C182.595 17.8068 182.973 18.858 182.973 20.1428ZM180.93 20.2048C180.93 19.411 180.753 18.7302 180.401 18.1627C179.985 17.4765 179.398 17.1334 178.63 17.1334C177.84 17.1334 177.238 17.4765 176.822 18.1627C176.469 18.7302 176.294 19.4219 176.294 20.2395C176.294 21.0334 176.471 21.7141 176.822 22.2817C177.249 22.9679 177.844 23.311 178.612 23.311C179.364 23.311 179.957 22.9624 180.382 22.2634C180.745 21.6849 180.93 20.9987 180.93 20.2048Z" fill="white"/>
<path d="M193.574 24.515H191.604V19.5875C191.604 18.0691 191.009 17.3099 189.814 17.3099C189.229 17.3099 188.757 17.518 188.392 17.9359C188.027 18.3538 187.844 18.8466 187.844 19.4105V24.5132H185.871V18.3703C185.871 17.6147 185.848 16.7953 185.801 15.9083H187.532L187.624 17.2534H187.679C187.91 16.8354 188.253 16.4905 188.7 16.2149C189.237 15.8937 189.833 15.7313 190.49 15.7313C191.316 15.7313 192.004 15.9905 192.552 16.5106C193.235 17.1475 193.574 18.0983 193.574 19.3612V24.515Z" fill="white"/>
<path d="M206.844 17.3443H204.673V21.5236C204.673 22.5857 205.058 23.1168 205.822 23.1168C206.176 23.1168 206.469 23.0876 206.701 23.0274L206.752 24.4783C206.362 24.6206 205.85 24.6918 205.22 24.6918C204.441 24.6918 203.835 24.4618 203.397 24.0019C202.957 23.542 202.738 22.7682 202.738 21.6824V17.3443H201.442V15.9117H202.738V14.3349L204.671 13.7692V15.9099H206.842V17.3443H206.844Z" fill="white"/>
<path d="M217.282 24.515H215.308V19.624C215.308 18.0818 214.713 17.3099 213.522 17.3099C212.608 17.3099 211.983 17.757 211.641 18.6512C211.582 18.8392 211.549 19.0692 211.549 19.3393V24.5131H209.579V11.9644H211.549V17.1493H211.586C212.207 16.2057 213.097 15.7349 214.25 15.7349C215.067 15.7349 215.742 15.994 216.279 16.5142C216.947 17.162 217.282 18.1256 217.282 19.3995V24.515Z" fill="white"/>
<path d="M228.05 19.806C228.05 20.1491 228.023 20.4375 227.976 20.6729H222.063C222.089 21.5234 222.371 22.1712 222.919 22.6202C223.419 23.0217 224.065 23.2224 224.855 23.2224C225.73 23.2224 226.528 23.0874 227.246 22.8155L227.555 24.1441C226.714 24.4981 225.724 24.6751 224.578 24.6751C223.205 24.6751 222.123 24.2828 221.34 23.498C220.554 22.7133 220.164 21.6602 220.164 20.3389C220.164 19.0414 220.527 17.961 221.259 17.0996C222.023 16.1798 223.056 15.7199 224.36 15.7199C225.636 15.7199 226.605 16.1798 227.259 17.0996C227.788 17.8296 228.05 18.7329 228.05 19.806ZM226.168 19.3115C226.183 18.7439 226.053 18.2548 225.786 17.8423C225.444 17.3113 224.923 17.0448 224.217 17.0448C223.574 17.0448 223.049 17.304 222.648 17.8241C222.321 18.2384 222.127 18.7329 222.063 19.3115H226.168Z" fill="white"/>
</svg>
