<svg width="20" height="11" viewBox="0 0 20 11" fill="none" xmlns="http://www.w3.org/2000/svg">
<path fill-rule="evenodd" clip-rule="evenodd" d="M19.25 5.50006C19.25 5.12037 18.9422 4.81256 18.5625 4.81256L0.6875 4.81256C0.307804 4.81256 0 5.12037 0 5.50006C0 5.87976 0.307804 6.18756 0.6875 6.18756L18.5625 6.18756C18.9422 6.18756 19.25 5.87976 19.25 5.50006Z" fill="white"/>
<path fill-rule="evenodd" clip-rule="evenodd" d="M5.98614 0.201364C5.71765 -0.0671214 5.28235 -0.0671214 5.01386 0.201364L0.201364 5.01386C-0.0671215 5.28235 -0.0671215 5.71765 0.201364 5.98614L5.01386 10.7986C5.28235 11.0671 5.71765 11.0671 5.98614 10.7986C6.25462 10.5302 6.25462 10.0948 5.98614 9.82636L1.65977 5.5L5.98614 1.17364C6.25462 0.905151 6.25462 0.46985 5.98614 0.201364Z" fill="white"/>
</svg>
