<svg width="66" height="24" viewBox="0 0 66 24" fill="none" xmlns="http://www.w3.org/2000/svg">
<path fill-rule="evenodd" clip-rule="evenodd" d="M9.85425 3.69338C9.95112 3.68489 10.0486 3.68489 10.1454 3.69338C10.2569 3.70316 10.3631 3.72693 10.4475 3.74581C10.4551 3.74752 10.4626 3.74919 10.4699 3.7508L16.6587 5.12611C16.8257 5.1632 16.9918 5.20007 17.1321 5.24226C17.2888 5.28935 17.4671 5.35776 17.6407 5.48288C17.886 5.6596 18.0786 5.8997 18.1979 6.17748C18.2824 6.37417 18.3105 6.56304 18.3225 6.72618C18.3332 6.87235 18.3332 7.04242 18.3332 7.2135V8.19328C18.3332 8.40359 18.3332 8.60841 18.3191 8.78188C18.3035 8.97237 18.2668 9.19715 18.1515 9.42333C17.9917 9.73694 17.7368 9.99191 17.4232 10.1517C17.197 10.2669 16.9722 10.3037 16.7817 10.3192C16.7446 10.3223 16.7062 10.3246 16.6665 10.3265V15.3402C16.7062 15.3421 16.7446 15.3444 16.7817 15.3475C16.9722 15.363 17.197 15.3998 17.4232 15.515C17.7368 15.6748 17.9917 15.9298 18.1515 16.2434C18.2668 16.4696 18.3035 16.6943 18.3191 16.8848C18.3332 17.0583 18.3332 17.2631 18.3332 17.4734V18.1933C18.3332 18.4036 18.3332 18.6084 18.3191 18.7819C18.3035 18.9724 18.2668 19.1971 18.1515 19.4233C17.9917 19.7369 17.7368 19.9919 17.4232 20.1517C17.197 20.2669 16.9722 20.3037 16.7817 20.3192C16.6082 20.3334 16.4034 20.3334 16.1931 20.3334H3.80658C3.59626 20.3334 3.39144 20.3334 3.21798 20.3192C3.02749 20.3037 2.80271 20.2669 2.57652 20.1517C2.26292 19.9919 2.00795 19.7369 1.84816 19.4233C1.73292 19.1971 1.69619 18.9724 1.68063 18.7819C1.66646 18.6084 1.66648 18.4036 1.66651 18.1933L1.66651 17.4734C1.66648 17.2631 1.66646 17.0583 1.68063 16.8848C1.69619 16.6943 1.73292 16.4696 1.84816 16.2434C2.00795 15.9298 2.26292 15.6748 2.57652 15.515C2.80271 15.3998 3.02749 15.363 3.21798 15.3475C3.25503 15.3444 3.29351 15.3421 3.33317 15.3402V10.3265C3.29351 10.3246 3.25503 10.3223 3.21798 10.3192C3.02749 10.3037 2.80271 10.2669 2.57652 10.1517C2.26292 9.99191 2.00795 9.73694 1.84816 9.42333C1.73292 9.19715 1.69619 8.97237 1.68063 8.78187C1.66646 8.60841 1.66648 8.40358 1.66651 8.19326C1.66651 8.18441 1.66651 8.17555 1.66651 8.16668L1.66651 7.23625C1.66651 7.22866 1.66651 7.22108 1.66651 7.2135C1.66649 7.04242 1.66646 6.87235 1.6772 6.72618C1.68918 6.56304 1.71729 6.37417 1.80176 6.17748C1.92105 5.8997 2.11366 5.65959 2.35895 5.48288C2.53263 5.35776 2.71091 5.28934 2.86756 5.24226C3.00792 5.20007 3.17394 5.1632 3.34095 5.12611C3.34835 5.12446 3.35576 5.12282 3.36316 5.12117L9.52983 3.7508C9.53709 3.74919 9.54455 3.74752 9.55219 3.74581C9.63654 3.72693 9.7428 3.70316 9.85425 3.69338ZM4.99984 10.3333V15.3334H7.08317V10.3333H4.99984ZM3.83317 8.66668C3.58607 8.66668 3.45086 8.66604 3.3537 8.6581C3.34983 8.65778 3.34617 8.65746 3.34272 8.65714C3.3424 8.65368 3.34208 8.65002 3.34176 8.64615C3.33382 8.549 3.33317 8.41379 3.33317 8.16668V7.23625C3.33317 7.03332 3.33369 6.9258 3.33939 6.84826C3.33959 6.84558 3.33978 6.84304 3.33998 6.84062C3.3423 6.8399 3.34474 6.83916 3.34731 6.83838C3.42177 6.81601 3.52661 6.79217 3.72471 6.74815L9.89138 5.37778C9.94932 5.36491 9.97766 5.35867 9.99841 5.35462C9.99891 5.35453 9.99938 5.35444 9.99984 5.35435C10.0003 5.35444 10.0008 5.35453 10.0013 5.35462C10.022 5.35867 10.0504 5.36491 10.1083 5.37778L16.275 6.74815C16.4731 6.79217 16.5779 6.81601 16.6524 6.83839C16.6549 6.83916 16.6574 6.8399 16.6597 6.84062C16.6599 6.84304 16.6601 6.84559 16.6603 6.84826C16.666 6.9258 16.6665 7.03332 16.6665 7.23625V8.16668C16.6665 8.41379 16.6659 8.549 16.6579 8.64616C16.6576 8.65002 16.6573 8.65368 16.657 8.65714C16.6535 8.65745 16.6498 8.65778 16.646 8.6581C16.5488 8.66604 16.4136 8.66668 16.1665 8.66668H3.83317ZM8.74984 10.3333V15.3334H11.2498V10.3333H8.74984ZM12.9165 10.3333V15.3334H14.9998V10.3333H12.9165ZM3.83317 17C3.58607 17 3.45086 17.0007 3.3537 17.0086C3.34983 17.0089 3.34617 17.0092 3.34272 17.0096C3.3424 17.013 3.34208 17.0167 3.34176 17.0205C3.33382 17.1177 3.33317 17.2529 3.33317 17.5V18.1667C3.33317 18.4138 3.33382 18.549 3.34176 18.6462C3.34208 18.65 3.3424 18.6537 3.34271 18.6571C3.34617 18.6575 3.34984 18.6578 3.3537 18.6581C3.45086 18.666 3.58607 18.6667 3.83317 18.6667H16.1665C16.4136 18.6667 16.5488 18.666 16.646 18.6581C16.6498 18.6578 16.6535 18.6575 16.657 18.6571C16.6573 18.6537 16.6576 18.65 16.6579 18.6462C16.6659 18.549 16.6665 18.4138 16.6665 18.1667V17.5C16.6665 17.2529 16.6659 17.1177 16.6579 17.0205C16.6576 17.0167 16.6573 17.013 16.657 17.0096C16.6535 17.0092 16.6498 17.0089 16.646 17.0086C16.5488 17.0007 16.4136 17 16.1665 17H3.83317Z" fill="#403E5B"/>
<path d="M32.992 12.176C33.6747 12.3147 34.224 12.64 34.64 13.152C35.0667 13.664 35.28 14.2613 35.28 14.944C35.28 15.8827 34.9653 16.6293 34.336 17.184C33.7067 17.728 32.7947 18 31.6 18H27.104V6.704H31.52C32.6507 6.704 33.5147 6.96 34.112 7.472C34.72 7.97333 35.024 8.66667 35.024 9.552C35.024 10.2667 34.8373 10.848 34.464 11.296C34.0907 11.7333 33.6 12.0267 32.992 12.176ZM28.928 11.568H31.184C31.824 11.568 32.3093 11.4187 32.64 11.12C32.9813 10.8213 33.152 10.4053 33.152 9.872C33.152 9.34933 32.9813 8.93867 32.64 8.64C32.3093 8.34133 31.8027 8.192 31.12 8.192H28.928V11.568ZM31.232 16.496C31.9253 16.496 32.4587 16.3413 32.832 16.032C33.216 15.712 33.408 15.2693 33.408 14.704C33.408 14.1387 33.216 13.696 32.832 13.376C32.448 13.056 31.9093 12.896 31.216 12.896H28.928V16.496H31.232ZM40.5306 9.072C41.3306 9.072 42.0133 9.26933 42.5786 9.664C43.144 10.0587 43.544 10.5813 43.7786 11.232V9.184H45.6026V18H43.7786V15.952C43.544 16.6027 43.144 17.1253 42.5786 17.52C42.0133 17.9147 41.3306 18.112 40.5306 18.112C39.7626 18.112 39.0746 17.9307 38.4666 17.568C37.8693 17.2053 37.4 16.6827 37.0586 16C36.7173 15.3173 36.5466 14.512 36.5466 13.584C36.5466 12.6667 36.7173 11.8667 37.0586 11.184C37.4 10.5013 37.8693 9.97867 38.4666 9.616C39.0746 9.25333 39.7626 9.072 40.5306 9.072ZM41.0906 10.672C40.28 10.672 39.6293 10.9333 39.1386 11.456C38.6586 11.968 38.4186 12.6773 38.4186 13.584C38.4186 14.4907 38.6586 15.2053 39.1386 15.728C39.6293 16.24 40.28 16.496 41.0906 16.496C41.6026 16.496 42.0613 16.3787 42.4666 16.144C42.872 15.8987 43.192 15.5573 43.4266 15.12C43.6613 14.6827 43.7786 14.1707 43.7786 13.584C43.7786 13.008 43.6613 12.5013 43.4266 12.064C43.192 11.616 42.872 11.2747 42.4666 11.04C42.0613 10.7947 41.6026 10.672 41.0906 10.672ZM52.7195 9.04C53.7435 9.04 54.5648 9.37067 55.1835 10.032C55.8022 10.6933 56.1115 11.6373 56.1115 12.864V18H54.2875V13.056C54.2875 12.2667 54.0848 11.6587 53.6795 11.232C53.2742 10.7947 52.7195 10.576 52.0155 10.576C51.2902 10.576 50.7088 10.8107 50.2715 11.28C49.8342 11.7387 49.6155 12.416 49.6155 13.312V18H47.7915V9.184H49.6155V11.12C49.8502 10.4587 50.2448 9.94667 50.7995 9.584C51.3542 9.22133 51.9942 9.04 52.7195 9.04ZM63.2366 18L60.0686 14.08V18H58.2446V6.16H60.0686V12.944L63.2046 9.184H65.3966L61.5566 13.568L65.4926 18H63.2366Z" fill="#403E5B"/>
</svg>
