<svg width="30" height="30" viewBox="0 0 30 30" fill="none" xmlns="http://www.w3.org/2000/svg">
<g clip-path="url(#clip0_261_5257)">
<path fill-rule="evenodd" clip-rule="evenodd" d="M29.8727 14.9995C29.8727 23.2838 23.1905 29.9995 14.9473 29.9995C6.70421 29.9995 0.0219727 23.2838 0.0219727 14.9995C0.0219727 6.71512 6.70421 -0.000534058 14.9473 -0.000534058C23.1905 -0.000534058 29.8727 6.71512 29.8727 14.9995Z" fill="#F7931A"/>
<path fill-rule="evenodd" clip-rule="evenodd" d="M18.5712 19.3833C18.4463 19.8053 18.1652 20.153 17.7799 20.3624C17.3945 20.5721 16.9512 20.6183 16.5314 20.4926L12.3282 19.2345L13.2646 16.0751L17.4675 17.3333H17.4676C18.3342 17.5926 18.8294 18.5123 18.5712 19.3833ZM19.9888 12.9086C20.1972 13.2959 20.2432 13.7414 20.1182 14.1635C19.86 15.0342 18.9445 15.5316 18.0784 15.2727H18.0782L13.8752 14.0147L14.8114 10.8552L19.0145 12.1133C19.4343 12.239 19.7803 12.5213 19.9888 12.9086ZM21.8703 11.8856C21.3899 10.9932 20.5924 10.3422 19.6251 10.0527L19.069 9.88636L19.8475 7.25926L17.85 6.66136L17.0715 9.28846L15.3661 8.77801L16.1448 6.15091L15.6663 6.00766L13.7278 5.42746L12.9773 7.95976L10.6149 7.25266L9.94822 9.50266L12.3106 10.2099L9.8836 18.3996L7.52121 17.6925L6.85449 19.9427L9.21673 20.6496L8.58345 22.787L9.06181 22.9302L11.0003 23.5104L11.6618 21.2783L13.3712 21.7899L12.7097 24.0222L14.6991 24.6177L15.3606 22.3854L15.9206 22.553C16.2776 22.6598 16.6423 22.7127 17.0046 22.7127C17.624 22.7127 18.2376 22.5581 18.7978 22.2534C19.6857 21.7706 20.3333 20.9693 20.6215 19.9968C20.9245 18.974 20.7749 17.9232 20.293 17.0583C21.1679 16.5995 21.8651 15.8004 22.1684 14.7771C22.4566 13.8047 22.3506 12.7778 21.8703 11.8856Z" fill="white"/>
</g>
<defs>
<clipPath id="clip0_261_5257">
<rect width="30" height="30" fill="white"/>
</clipPath>
</defs>
</svg>
