<svg width="238" height="166" viewBox="0 0 238 166" fill="none"
                                xmlns="http://www.w3.org/2000/svg">
                                <g opacity="0.5">
                                    <ellipse cx="113.703" cy="1.69118" rx="1.7027" ry="1.69118" fill="#9D80F8" />
                                    <ellipse cx="113.703" cy="11.8382" rx="1.7027" ry="1.69118" fill="#9D80F8" />
                                    <ellipse cx="113.703" cy="21.9852" rx="1.7027" ry="1.69118" fill="#9D80F8" />
                                    <ellipse cx="113.703" cy="32.1323" rx="1.7027" ry="1.69118" fill="#9D80F8" />
                                    <ellipse cx="113.703" cy="42.2794" rx="1.7027" ry="1.69118" fill="#9D80F8" />
                                    <ellipse cx="113.703" cy="52.4265" rx="1.7027" ry="1.69118" fill="#9D80F8" />
                                    <ellipse cx="113.703" cy="62.5735" rx="1.7027" ry="1.69118" fill="#9D80F8" />
                                    <ellipse cx="113.703" cy="72.7206" rx="1.7027" ry="1.69118" fill="#9D80F8" />
                                    <ellipse cx="113.703" cy="82.8676" rx="1.7027" ry="1.69117" fill="#9D80F8" />
                                    <ellipse cx="113.703" cy="93.0147" rx="1.7027" ry="1.69118" fill="#9D80F8" />
                                    <ellipse cx="113.703" cy="103.162" rx="1.7027" ry="1.69117" fill="#9D80F8" />
                                    <ellipse cx="113.703" cy="113.309" rx="1.7027" ry="1.69118" fill="#9D80F8" />
                                    <ellipse cx="123.919" cy="1.69118" rx="1.7027" ry="1.69118" fill="#9D80F8" />
                                    <ellipse cx="123.919" cy="11.8382" rx="1.7027" ry="1.69118" fill="#9D80F8" />
                                    <ellipse cx="123.919" cy="21.9852" rx="1.7027" ry="1.69118" fill="#9D80F8" />
                                    <ellipse cx="123.919" cy="32.1323" rx="1.7027" ry="1.69118" fill="#9D80F8" />
                                    <ellipse cx="123.919" cy="42.2794" rx="1.7027" ry="1.69118" fill="#9D80F8" />
                                    <ellipse cx="123.919" cy="52.4265" rx="1.7027" ry="1.69118" fill="#9D80F8" />
                                    <ellipse cx="123.919" cy="62.5735" rx="1.7027" ry="1.69118" fill="#9D80F8" />
                                    <ellipse cx="123.919" cy="72.7206" rx="1.7027" ry="1.69118" fill="#9D80F8" />
                                    <ellipse cx="123.919" cy="82.8676" rx="1.7027" ry="1.69117" fill="#9D80F8" />
                                    <ellipse cx="123.919" cy="93.0147" rx="1.7027" ry="1.69118" fill="#9D80F8" />
                                    <ellipse cx="123.919" cy="103.162" rx="1.7027" ry="1.69117" fill="#9D80F8" />
                                    <ellipse cx="123.919" cy="113.309" rx="1.7027" ry="1.69118" fill="#9D80F8" />
                                    <ellipse cx="134.135" cy="1.69118" rx="1.7027" ry="1.69118" fill="#9D80F8" />
                                    <ellipse cx="134.135" cy="11.8382" rx="1.7027" ry="1.69118" fill="#9D80F8" />
                                    <ellipse cx="134.135" cy="21.9852" rx="1.7027" ry="1.69118" fill="#9D80F8" />
                                    <ellipse cx="134.135" cy="32.1323" rx="1.7027" ry="1.69118" fill="#9D80F8" />
                                    <ellipse cx="134.135" cy="42.2794" rx="1.7027" ry="1.69118" fill="#9D80F8" />
                                    <ellipse cx="134.135" cy="52.4265" rx="1.7027" ry="1.69118" fill="#9D80F8" />
                                    <ellipse cx="134.135" cy="62.5735" rx="1.7027" ry="1.69118" fill="#9D80F8" />
                                    <ellipse cx="134.135" cy="72.7206" rx="1.7027" ry="1.69118" fill="#9D80F8" />
                                    <ellipse cx="134.135" cy="82.8676" rx="1.7027" ry="1.69117" fill="#9D80F8" />
                                    <ellipse cx="134.135" cy="93.0147" rx="1.7027" ry="1.69118" fill="#9D80F8" />
                                    <ellipse cx="134.135" cy="103.162" rx="1.7027" ry="1.69117" fill="#9D80F8" />
                                    <ellipse cx="134.135" cy="113.309" rx="1.7027" ry="1.69118" fill="#9D80F8" />
                                    <ellipse cx="144.351" cy="1.69118" rx="1.7027" ry="1.69118" fill="#9D80F8" />
                                    <ellipse cx="144.351" cy="11.8382" rx="1.7027" ry="1.69118" fill="#9D80F8" />
                                    <ellipse cx="144.351" cy="21.9852" rx="1.7027" ry="1.69118" fill="#9D80F8" />
                                    <ellipse cx="144.351" cy="32.1323" rx="1.7027" ry="1.69118" fill="#9D80F8" />
                                    <ellipse cx="144.351" cy="42.2794" rx="1.7027" ry="1.69118" fill="#9D80F8" />
                                    <ellipse cx="144.351" cy="52.4265" rx="1.7027" ry="1.69118" fill="#9D80F8" />
                                    <ellipse cx="144.351" cy="62.5735" rx="1.7027" ry="1.69118" fill="#9D80F8" />
                                    <ellipse cx="144.351" cy="72.7206" rx="1.7027" ry="1.69118" fill="#9D80F8" />
                                    <ellipse cx="144.351" cy="82.8676" rx="1.7027" ry="1.69117" fill="#9D80F8" />
                                    <ellipse cx="144.351" cy="93.0147" rx="1.7027" ry="1.69118" fill="#9D80F8" />
                                    <ellipse cx="144.351" cy="103.162" rx="1.7027" ry="1.69117" fill="#9D80F8" />
                                    <ellipse cx="144.351" cy="113.309" rx="1.7027" ry="1.69118" fill="#9D80F8" />
                                    <ellipse cx="154.567" cy="1.69118" rx="1.7027" ry="1.69118" fill="#9D80F8" />
                                    <ellipse cx="154.567" cy="11.8382" rx="1.7027" ry="1.69118" fill="#9D80F8" />
                                    <ellipse cx="154.567" cy="21.9852" rx="1.7027" ry="1.69118" fill="#9D80F8" />
                                    <ellipse cx="154.567" cy="32.1323" rx="1.7027" ry="1.69118" fill="#9D80F8" />
                                    <ellipse cx="154.567" cy="42.2794" rx="1.7027" ry="1.69118" fill="#9D80F8" />
                                    <ellipse cx="154.567" cy="52.4265" rx="1.7027" ry="1.69118" fill="#9D80F8" />
                                    <ellipse cx="154.567" cy="62.5735" rx="1.7027" ry="1.69118" fill="#9D80F8" />
                                    <ellipse cx="154.567" cy="72.7206" rx="1.7027" ry="1.69118" fill="#9D80F8" />
                                    <ellipse cx="154.567" cy="82.8676" rx="1.7027" ry="1.69117" fill="#9D80F8" />
                                    <ellipse cx="154.567" cy="93.0147" rx="1.7027" ry="1.69118" fill="#9D80F8" />
                                    <ellipse cx="154.567" cy="103.162" rx="1.7027" ry="1.69117" fill="#9D80F8" />
                                    <ellipse cx="154.567" cy="113.309" rx="1.7027" ry="1.69118" fill="#9D80F8" />
                                    <ellipse cx="164.784" cy="1.69118" rx="1.7027" ry="1.69118" fill="#9D80F8" />
                                    <ellipse cx="164.784" cy="11.8382" rx="1.7027" ry="1.69118" fill="#9D80F8" />
                                    <ellipse cx="164.784" cy="21.9852" rx="1.7027" ry="1.69118" fill="#9D80F8" />
                                    <ellipse cx="164.784" cy="32.1323" rx="1.7027" ry="1.69118" fill="#9D80F8" />
                                    <ellipse cx="164.784" cy="42.2794" rx="1.7027" ry="1.69118" fill="#9D80F8" />
                                    <ellipse cx="164.784" cy="52.4265" rx="1.7027" ry="1.69118" fill="#9D80F8" />
                                    <ellipse cx="164.784" cy="62.5735" rx="1.7027" ry="1.69118" fill="#9D80F8" />
                                    <ellipse cx="164.784" cy="72.7206" rx="1.7027" ry="1.69118" fill="#9D80F8" />
                                    <ellipse cx="164.784" cy="82.8676" rx="1.7027" ry="1.69117" fill="#9D80F8" />
                                    <ellipse cx="164.784" cy="93.0147" rx="1.7027" ry="1.69118" fill="#9D80F8" />
                                    <ellipse cx="164.784" cy="103.162" rx="1.7027" ry="1.69117" fill="#9D80F8" />
                                    <ellipse cx="164.784" cy="113.309" rx="1.7027" ry="1.69118" fill="#9D80F8" />
                                    <ellipse cx="175" cy="1.69118" rx="1.70271" ry="1.69118" fill="#9D80F8" />
                                    <ellipse cx="175" cy="11.8382" rx="1.70271" ry="1.69118" fill="#9D80F8" />
                                    <ellipse cx="175" cy="21.9852" rx="1.70271" ry="1.69118" fill="#9D80F8" />
                                    <ellipse cx="175" cy="32.1323" rx="1.70271" ry="1.69118" fill="#9D80F8" />
                                    <ellipse cx="175" cy="42.2794" rx="1.70271" ry="1.69118" fill="#9D80F8" />
                                    <ellipse cx="175" cy="52.4265" rx="1.70271" ry="1.69118" fill="#9D80F8" />
                                    <ellipse cx="175" cy="62.5735" rx="1.70271" ry="1.69118" fill="#9D80F8" />
                                    <ellipse cx="175" cy="72.7206" rx="1.70271" ry="1.69118" fill="#9D80F8" />
                                    <ellipse cx="175" cy="82.8676" rx="1.70271" ry="1.69117" fill="#9D80F8" />
                                    <ellipse cx="175" cy="93.0147" rx="1.70271" ry="1.69118" fill="#9D80F8" />
                                    <ellipse cx="175" cy="103.162" rx="1.70271" ry="1.69117" fill="#9D80F8" />
                                    <ellipse cx="175" cy="113.309" rx="1.70271" ry="1.69118" fill="#9D80F8" />
                                    <ellipse cx="185.216" cy="1.69118" rx="1.7027" ry="1.69118" fill="#9D80F8" />
                                    <ellipse cx="195.432" cy="1.69118" rx="1.7027" ry="1.69118" fill="#9D80F8" />
                                    <ellipse cx="205.649" cy="1.69118" rx="1.70271" ry="1.69118" fill="#9D80F8" />
                                    <ellipse cx="215.865" cy="1.69118" rx="1.7027" ry="1.69118" fill="#9D80F8" />
                                    <ellipse cx="226.081" cy="1.69118" rx="1.70271" ry="1.69118" fill="#9D80F8" />
                                    <ellipse cx="236.297" cy="1.69118" rx="1.70271" ry="1.69118" fill="#9D80F8" />
                                    <ellipse cx="185.216" cy="11.8382" rx="1.7027" ry="1.69118" fill="#9D80F8" />
                                    <ellipse cx="195.432" cy="11.8382" rx="1.7027" ry="1.69118" fill="#9D80F8" />
                                    <ellipse cx="205.649" cy="11.8382" rx="1.70271" ry="1.69118" fill="#9D80F8" />
                                    <ellipse cx="215.865" cy="11.8382" rx="1.7027" ry="1.69118" fill="#9D80F8" />
                                    <ellipse cx="226.081" cy="11.8382" rx="1.70271" ry="1.69118" fill="#9D80F8" />
                                    <ellipse cx="236.297" cy="11.8382" rx="1.70271" ry="1.69118" fill="#9D80F8" />
                                    <ellipse cx="185.216" cy="21.9852" rx="1.7027" ry="1.69118" fill="#9D80F8" />
                                    <ellipse cx="195.432" cy="21.9852" rx="1.7027" ry="1.69118" fill="#9D80F8" />
                                    <ellipse cx="205.649" cy="21.9852" rx="1.70271" ry="1.69118" fill="#9D80F8" />
                                    <ellipse cx="215.865" cy="21.9852" rx="1.7027" ry="1.69118" fill="#9D80F8" />
                                    <ellipse cx="226.081" cy="21.9852" rx="1.70271" ry="1.69118" fill="#9D80F8" />
                                    <ellipse cx="236.297" cy="21.9852" rx="1.70271" ry="1.69118" fill="#9D80F8" />
                                    <ellipse cx="185.216" cy="32.1323" rx="1.7027" ry="1.69118" fill="#9D80F8" />
                                    <ellipse cx="195.432" cy="32.1323" rx="1.7027" ry="1.69118" fill="#9D80F8" />
                                    <ellipse cx="205.649" cy="32.1323" rx="1.70271" ry="1.69118" fill="#9D80F8" />
                                    <ellipse cx="215.865" cy="32.1323" rx="1.7027" ry="1.69118" fill="#9D80F8" />
                                    <ellipse cx="226.081" cy="32.1323" rx="1.70271" ry="1.69118" fill="#9D80F8" />
                                    <ellipse cx="236.297" cy="32.1323" rx="1.70271" ry="1.69118" fill="#9D80F8" />
                                    <ellipse cx="185.216" cy="42.2794" rx="1.7027" ry="1.69118" fill="#9D80F8" />
                                    <ellipse cx="195.432" cy="42.2794" rx="1.7027" ry="1.69118" fill="#9D80F8" />
                                    <ellipse cx="205.649" cy="42.2794" rx="1.70271" ry="1.69118" fill="#9D80F8" />
                                    <ellipse cx="215.865" cy="42.2794" rx="1.7027" ry="1.69118" fill="#9D80F8" />
                                    <ellipse cx="226.081" cy="42.2794" rx="1.70271" ry="1.69118" fill="#9D80F8" />
                                    <ellipse cx="236.297" cy="42.2794" rx="1.70271" ry="1.69118" fill="#9D80F8" />
                                    <ellipse cx="185.216" cy="52.4265" rx="1.7027" ry="1.69118" fill="#9D80F8" />
                                    <ellipse cx="195.432" cy="52.4265" rx="1.7027" ry="1.69118" fill="#9D80F8" />
                                    <ellipse cx="205.649" cy="52.4265" rx="1.70271" ry="1.69118" fill="#9D80F8" />
                                    <ellipse cx="215.865" cy="52.4265" rx="1.7027" ry="1.69118" fill="#9D80F8" />
                                    <ellipse cx="226.081" cy="52.4265" rx="1.70271" ry="1.69118" fill="#9D80F8" />
                                    <ellipse cx="236.297" cy="52.4265" rx="1.70271" ry="1.69118" fill="#9D80F8" />
                                    <ellipse cx="185.216" cy="62.5735" rx="1.7027" ry="1.69118" fill="#9D80F8" />
                                    <ellipse cx="195.432" cy="62.5735" rx="1.7027" ry="1.69118" fill="#9D80F8" />
                                    <ellipse cx="205.649" cy="62.5735" rx="1.70271" ry="1.69118" fill="#9D80F8" />
                                    <ellipse cx="215.865" cy="62.5735" rx="1.7027" ry="1.69118" fill="#9D80F8" />
                                    <ellipse cx="226.081" cy="62.5735" rx="1.70271" ry="1.69118" fill="#9D80F8" />
                                    <ellipse cx="236.297" cy="62.5735" rx="1.70271" ry="1.69118" fill="#9D80F8" />
                                    <ellipse cx="185.216" cy="72.7206" rx="1.7027" ry="1.69118" fill="#9D80F8" />
                                    <ellipse cx="195.432" cy="72.7206" rx="1.7027" ry="1.69118" fill="#9D80F8" />
                                    <ellipse cx="205.649" cy="72.7206" rx="1.70271" ry="1.69118" fill="#9D80F8" />
                                    <ellipse cx="215.865" cy="72.7206" rx="1.7027" ry="1.69118" fill="#9D80F8" />
                                    <ellipse cx="226.081" cy="72.7206" rx="1.70271" ry="1.69118" fill="#9D80F8" />
                                    <ellipse cx="236.297" cy="72.7206" rx="1.70271" ry="1.69118" fill="#9D80F8" />
                                    <ellipse cx="185.216" cy="82.8676" rx="1.7027" ry="1.69117" fill="#9D80F8" />
                                    <ellipse cx="195.432" cy="82.8676" rx="1.7027" ry="1.69117" fill="#9D80F8" />
                                    <ellipse cx="205.649" cy="82.8676" rx="1.70271" ry="1.69117" fill="#9D80F8" />
                                    <ellipse cx="215.865" cy="82.8676" rx="1.7027" ry="1.69117" fill="#9D80F8" />
                                    <ellipse cx="226.081" cy="82.8676" rx="1.70271" ry="1.69117" fill="#9D80F8" />
                                    <ellipse cx="236.297" cy="82.8676" rx="1.70271" ry="1.69117" fill="#9D80F8" />
                                    <ellipse cx="185.216" cy="93.0147" rx="1.7027" ry="1.69118" fill="#9D80F8" />
                                    <ellipse cx="195.432" cy="93.0147" rx="1.7027" ry="1.69118" fill="#9D80F8" />
                                    <ellipse cx="205.649" cy="93.0147" rx="1.70271" ry="1.69118" fill="#9D80F8" />
                                    <ellipse cx="215.865" cy="93.0147" rx="1.7027" ry="1.69118" fill="#9D80F8" />
                                    <ellipse cx="226.081" cy="93.0147" rx="1.70271" ry="1.69118" fill="#9D80F8" />
                                    <ellipse cx="236.297" cy="93.0147" rx="1.70271" ry="1.69118" fill="#9D80F8" />
                                    <ellipse cx="185.216" cy="103.162" rx="1.7027" ry="1.69117" fill="#9D80F8" />
                                    <ellipse cx="195.432" cy="103.162" rx="1.7027" ry="1.69117" fill="#9D80F8" />
                                    <ellipse cx="205.649" cy="103.162" rx="1.70271" ry="1.69117" fill="#9D80F8" />
                                    <ellipse cx="215.865" cy="103.162" rx="1.7027" ry="1.69117" fill="#9D80F8" />
                                    <ellipse cx="226.081" cy="103.162" rx="1.70271" ry="1.69117" fill="#9D80F8" />
                                    <ellipse cx="236.297" cy="103.162" rx="1.70271" ry="1.69117" fill="#9D80F8" />
                                    <ellipse cx="185.216" cy="113.309" rx="1.7027" ry="1.69118" fill="#9D80F8" />
                                    <ellipse cx="195.432" cy="113.309" rx="1.7027" ry="1.69118" fill="#9D80F8" />
                                    <ellipse cx="205.649" cy="113.309" rx="1.70271" ry="1.69118" fill="#9D80F8" />
                                    <ellipse cx="215.865" cy="113.309" rx="1.7027" ry="1.69118" fill="#9D80F8" />
                                    <ellipse cx="226.081" cy="113.309" rx="1.70271" ry="1.69118" fill="#9D80F8" />
                                    <ellipse cx="236.297" cy="113.309" rx="1.70271" ry="1.69118" fill="#9D80F8" />
                                </g>
                                <path
                                    d="M55.0131 38.7044L47.0195 52.5525L147.53 110.594L155.524 96.7455L55.0131 38.7044Z"
                                    fill="#9D80F8" />
                                <path fill-rule="evenodd" clip-rule="evenodd"
                                    d="M144.452 110.792C145.766 111.551 146.216 113.231 145.458 114.545L128.059 144.685C127.165 146.234 125.692 147.365 123.965 147.828C122.237 148.291 120.396 148.049 118.847 147.154L24.826 92.8604C23.277 91.9659 22.1468 90.4927 21.6839 88.7648C21.221 87.0368 21.4633 85.1957 22.3576 83.6465L39.7557 53.5063C40.5143 52.1922 42.1943 51.7419 43.5082 52.5006C44.8221 53.2593 45.2723 54.9397 44.5137 56.2539L27.1156 86.3941C26.9499 86.6812 26.905 87.0223 26.9908 87.3425C27.0766 87.6627 27.286 87.9357 27.573 88.1014L121.594 142.395C121.881 142.561 122.222 142.606 122.543 142.52C122.863 142.434 123.136 142.225 123.301 141.938L140.699 111.797C141.458 110.483 143.138 110.033 144.452 110.792Z"
                                    fill="#403E5B" />
                                <path fill-rule="evenodd" clip-rule="evenodd"
                                    d="M44.3311 45.5797C45.0896 44.2656 46.7697 43.8153 48.0836 44.5741L149.027 102.865C150.341 103.624 150.791 105.304 150.033 106.619C149.274 107.933 147.594 108.383 146.28 107.624L45.3366 49.333C44.0227 48.5743 43.5725 46.8939 44.3311 45.5797Z"
                                    fill="#403E5B" />
                                <path fill-rule="evenodd" clip-rule="evenodd"
                                    d="M51.9253 32.4243C52.6839 31.1102 54.364 30.6599 55.6779 31.4187L156.622 89.7098C157.936 90.4686 158.386 92.149 157.627 93.4631C156.869 94.7773 155.188 95.2275 153.875 94.4688L52.9308 36.1776C51.6169 35.4189 51.1667 33.7385 51.9253 32.4243Z"
                                    fill="#403E5B" />
                                <path fill-rule="evenodd" clip-rule="evenodd"
                                    d="M57.3351 28.5485C56.0212 27.7898 55.571 26.1093 56.3296 24.7952L58.9418 20.2699C59.8365 18.7215 61.3094 17.592 63.0366 17.1295C64.7638 16.667 66.6039 16.9095 68.1523 17.8037L162.173 72.0969C162.173 72.097 162.173 72.0969 162.173 72.0969C163.721 72.991 164.852 74.4638 165.315 76.1911C165.779 77.9185 165.537 79.7593 164.644 81.3087L162.031 85.834C161.273 87.1481 159.593 87.5984 158.279 86.8397C156.965 86.0809 156.515 84.4005 157.273 83.0864L159.884 78.5633C160.05 78.2762 160.095 77.9351 160.009 77.615C159.923 77.2949 159.713 77.022 159.426 76.8563L65.4053 22.5627C65.1183 22.397 64.7774 22.3521 64.4573 22.4378C64.1374 22.5234 63.8646 22.7326 63.6988 23.0193C63.6987 23.0194 63.6989 23.0192 63.6988 23.0193L61.0876 27.5428C60.3291 28.8569 58.649 29.3072 57.3351 28.5485Z"
                                    fill="#403E5B" />
                                <path fill-rule="evenodd" clip-rule="evenodd"
                                    d="M43.6357 81.1831C44.3943 79.869 46.0744 79.4187 47.3883 80.1774L68.1562 92.1701C69.4701 92.9288 69.9202 94.6092 69.1617 95.9234C68.4031 97.2375 66.723 97.6878 65.4091 96.9291L44.6412 84.9364C43.3273 84.1777 42.8772 82.4973 43.6357 81.1831Z"
                                    fill="#403E5B" />
                                <path fill-rule="evenodd" clip-rule="evenodd"
                                    d="M49.6318 70.7972C50.3904 69.4831 52.0705 69.0328 53.3844 69.7915L74.1523 81.7842C75.4662 82.5429 75.9163 84.2233 75.1578 85.5375C74.3992 86.8516 72.7191 87.3019 71.4052 86.5432L50.6373 74.5505C49.3234 73.7918 48.8733 72.1114 49.6318 70.7972Z"
                                    fill="#403E5B" />
                                <path fill-rule="evenodd" clip-rule="evenodd"
                                    d="M122.907 113.718C123.396 114.568 123.395 115.613 122.905 116.461L120.085 121.346C119.595 122.195 118.69 122.718 117.711 122.72L112.09 122.731C110.572 122.734 109.34 121.506 109.337 119.988C109.335 118.471 110.562 117.238 112.079 117.236L116.118 117.228L117.355 115.084L116.137 112.963L112.108 112.971C110.591 112.974 109.359 111.746 109.356 110.229C109.353 108.711 110.58 107.479 112.098 107.476L117.719 107.465C118.704 107.463 119.615 107.989 120.106 108.843L122.907 113.718Z"
                                    fill="#403E5B" />
                                <path fill-rule="evenodd" clip-rule="evenodd"
                                    d="M98.5945 111.68C98.1064 110.831 98.1074 109.786 98.5972 108.937L101.417 104.052C101.907 103.204 102.811 102.68 103.791 102.678L109.412 102.668C110.93 102.665 112.162 103.893 112.165 105.41C112.167 106.928 110.94 108.16 109.423 108.163L105.384 108.171L104.146 110.314L105.365 112.435L109.394 112.428C110.911 112.425 112.143 113.652 112.146 115.17C112.149 116.687 110.922 117.92 109.404 117.923L103.783 117.934C102.798 117.936 101.887 117.41 101.396 116.555L98.5945 111.68Z"
                                    fill="#403E5B" />
                            </svg>