<svg width="184" height="173" viewBox="0 0 184 173" fill="none"
                                xmlns="http://www.w3.org/2000/svg">
                                <g opacity="0.5">
                                    <ellipse cx="1.74324" cy="1.76471" rx="1.74324" ry="1.76471" fill="#9D80F8" />
                                    <ellipse cx="1.74324" cy="12.353" rx="1.74324" ry="1.76471" fill="#9D80F8" />
                                    <ellipse cx="1.74324" cy="22.9411" rx="1.74324" ry="1.76471" fill="#9D80F8" />
                                    <ellipse cx="1.74324" cy="33.5294" rx="1.74324" ry="1.7647" fill="#9D80F8" />
                                    <ellipse cx="1.74324" cy="44.1177" rx="1.74324" ry="1.76471" fill="#9D80F8" />
                                    <ellipse cx="1.74324" cy="54.7059" rx="1.74324" ry="1.7647" fill="#9D80F8" />
                                    <ellipse cx="1.74324" cy="65.2941" rx="1.74324" ry="1.76471" fill="#9D80F8" />
                                    <ellipse cx="1.74324" cy="75.8824" rx="1.74324" ry="1.76471" fill="#9D80F8" />
                                    <ellipse cx="1.74324" cy="86.4706" rx="1.74324" ry="1.76471" fill="#9D80F8" />
                                    <ellipse cx="1.74324" cy="97.0588" rx="1.74324" ry="1.76471" fill="#9D80F8" />
                                    <ellipse cx="1.74324" cy="107.647" rx="1.74324" ry="1.76471" fill="#9D80F8" />
                                    <ellipse cx="1.74324" cy="118.235" rx="1.74324" ry="1.76471" fill="#9D80F8" />
                                    <ellipse cx="12.2027" cy="1.76471" rx="1.74324" ry="1.76471" fill="#9D80F8" />
                                    <ellipse cx="12.2027" cy="12.353" rx="1.74324" ry="1.76471" fill="#9D80F8" />
                                    <ellipse cx="12.2027" cy="22.9411" rx="1.74324" ry="1.76471" fill="#9D80F8" />
                                    <ellipse cx="12.2027" cy="33.5294" rx="1.74324" ry="1.7647" fill="#9D80F8" />
                                    <ellipse cx="12.2027" cy="44.1177" rx="1.74324" ry="1.76471" fill="#9D80F8" />
                                    <ellipse cx="12.2027" cy="54.7059" rx="1.74324" ry="1.7647" fill="#9D80F8" />
                                    <ellipse cx="12.2027" cy="65.2941" rx="1.74324" ry="1.76471" fill="#9D80F8" />
                                    <ellipse cx="12.2027" cy="75.8824" rx="1.74324" ry="1.76471" fill="#9D80F8" />
                                    <ellipse cx="12.2027" cy="86.4706" rx="1.74324" ry="1.76471" fill="#9D80F8" />
                                    <ellipse cx="12.2027" cy="97.0588" rx="1.74324" ry="1.76471" fill="#9D80F8" />
                                    <ellipse cx="12.2027" cy="107.647" rx="1.74324" ry="1.76471" fill="#9D80F8" />
                                    <ellipse cx="12.2027" cy="118.235" rx="1.74324" ry="1.76471" fill="#9D80F8" />
                                    <ellipse cx="22.6622" cy="1.76471" rx="1.74324" ry="1.76471" fill="#9D80F8" />
                                    <ellipse cx="22.6622" cy="12.353" rx="1.74324" ry="1.76471" fill="#9D80F8" />
                                    <ellipse cx="22.6622" cy="22.9411" rx="1.74324" ry="1.76471" fill="#9D80F8" />
                                    <ellipse cx="22.6622" cy="33.5294" rx="1.74324" ry="1.7647" fill="#9D80F8" />
                                    <ellipse cx="22.6622" cy="44.1177" rx="1.74324" ry="1.76471" fill="#9D80F8" />
                                    <ellipse cx="22.6622" cy="54.7059" rx="1.74324" ry="1.7647" fill="#9D80F8" />
                                    <ellipse cx="22.6622" cy="65.2941" rx="1.74324" ry="1.76471" fill="#9D80F8" />
                                    <ellipse cx="22.6622" cy="75.8824" rx="1.74324" ry="1.76471" fill="#9D80F8" />
                                    <ellipse cx="22.6622" cy="86.4706" rx="1.74324" ry="1.76471" fill="#9D80F8" />
                                    <ellipse cx="22.6622" cy="97.0588" rx="1.74324" ry="1.76471" fill="#9D80F8" />
                                    <ellipse cx="22.6622" cy="107.647" rx="1.74324" ry="1.76471" fill="#9D80F8" />
                                    <ellipse cx="22.6622" cy="118.235" rx="1.74324" ry="1.76471" fill="#9D80F8" />
                                    <ellipse cx="33.1217" cy="1.76471" rx="1.74325" ry="1.76471" fill="#9D80F8" />
                                    <ellipse cx="33.1217" cy="12.353" rx="1.74325" ry="1.76471" fill="#9D80F8" />
                                    <ellipse cx="33.1217" cy="22.9411" rx="1.74325" ry="1.76471" fill="#9D80F8" />
                                    <ellipse cx="33.1217" cy="33.5294" rx="1.74325" ry="1.7647" fill="#9D80F8" />
                                    <ellipse cx="33.1217" cy="44.1177" rx="1.74325" ry="1.76471" fill="#9D80F8" />
                                    <ellipse cx="33.1217" cy="54.7059" rx="1.74325" ry="1.7647" fill="#9D80F8" />
                                    <ellipse cx="33.1217" cy="65.2941" rx="1.74325" ry="1.76471" fill="#9D80F8" />
                                    <ellipse cx="33.1217" cy="75.8824" rx="1.74325" ry="1.76471" fill="#9D80F8" />
                                    <ellipse cx="33.1217" cy="86.4706" rx="1.74325" ry="1.76471" fill="#9D80F8" />
                                    <ellipse cx="33.1217" cy="97.0588" rx="1.74325" ry="1.76471" fill="#9D80F8" />
                                    <ellipse cx="33.1217" cy="107.647" rx="1.74325" ry="1.76471" fill="#9D80F8" />
                                    <ellipse cx="33.1217" cy="118.235" rx="1.74325" ry="1.76471" fill="#9D80F8" />
                                    <ellipse cx="43.5811" cy="1.76471" rx="1.74324" ry="1.76471" fill="#9D80F8" />
                                    <ellipse cx="43.5811" cy="12.353" rx="1.74324" ry="1.76471" fill="#9D80F8" />
                                    <ellipse cx="43.5811" cy="22.9411" rx="1.74324" ry="1.76471" fill="#9D80F8" />
                                    <ellipse cx="43.5811" cy="33.5294" rx="1.74324" ry="1.7647" fill="#9D80F8" />
                                    <ellipse cx="43.5811" cy="44.1177" rx="1.74324" ry="1.76471" fill="#9D80F8" />
                                    <ellipse cx="43.5811" cy="54.7059" rx="1.74324" ry="1.7647" fill="#9D80F8" />
                                    <ellipse cx="43.5811" cy="65.2941" rx="1.74324" ry="1.76471" fill="#9D80F8" />
                                    <ellipse cx="43.5811" cy="75.8824" rx="1.74324" ry="1.76471" fill="#9D80F8" />
                                    <ellipse cx="43.5811" cy="86.4706" rx="1.74324" ry="1.76471" fill="#9D80F8" />
                                    <ellipse cx="43.5811" cy="97.0588" rx="1.74324" ry="1.76471" fill="#9D80F8" />
                                    <ellipse cx="43.5811" cy="107.647" rx="1.74324" ry="1.76471" fill="#9D80F8" />
                                    <ellipse cx="43.5811" cy="118.235" rx="1.74324" ry="1.76471" fill="#9D80F8" />
                                    <ellipse cx="54.0406" cy="1.76471" rx="1.74324" ry="1.76471" fill="#9D80F8" />
                                    <ellipse cx="54.0406" cy="12.353" rx="1.74324" ry="1.76471" fill="#9D80F8" />
                                    <ellipse cx="54.0406" cy="22.9411" rx="1.74324" ry="1.76471" fill="#9D80F8" />
                                    <ellipse cx="54.0406" cy="33.5294" rx="1.74324" ry="1.7647" fill="#9D80F8" />
                                    <ellipse cx="54.0406" cy="44.1177" rx="1.74324" ry="1.76471" fill="#9D80F8" />
                                    <ellipse cx="54.0406" cy="54.7059" rx="1.74324" ry="1.7647" fill="#9D80F8" />
                                    <ellipse cx="54.0406" cy="65.2941" rx="1.74324" ry="1.76471" fill="#9D80F8" />
                                    <ellipse cx="54.0406" cy="75.8824" rx="1.74324" ry="1.76471" fill="#9D80F8" />
                                    <ellipse cx="54.0406" cy="86.4706" rx="1.74324" ry="1.76471" fill="#9D80F8" />
                                    <ellipse cx="54.0406" cy="97.0588" rx="1.74324" ry="1.76471" fill="#9D80F8" />
                                    <ellipse cx="54.0406" cy="107.647" rx="1.74324" ry="1.76471" fill="#9D80F8" />
                                    <ellipse cx="54.0406" cy="118.235" rx="1.74324" ry="1.76471" fill="#9D80F8" />
                                    <ellipse cx="64.5001" cy="1.76471" rx="1.74325" ry="1.76471" fill="#9D80F8" />
                                    <ellipse cx="64.5001" cy="12.353" rx="1.74325" ry="1.76471" fill="#9D80F8" />
                                    <ellipse cx="64.5001" cy="22.9411" rx="1.74324" ry="1.76471" fill="#9D80F8" />
                                    <ellipse cx="64.5001" cy="33.5294" rx="1.74325" ry="1.7647" fill="#9D80F8" />
                                    <ellipse cx="64.5001" cy="44.1177" rx="1.74325" ry="1.76471" fill="#9D80F8" />
                                    <ellipse cx="64.5001" cy="54.7059" rx="1.74325" ry="1.7647" fill="#9D80F8" />
                                    <ellipse cx="64.5001" cy="65.2941" rx="1.74325" ry="1.76471" fill="#9D80F8" />
                                    <ellipse cx="64.5001" cy="75.8824" rx="1.74325" ry="1.76471" fill="#9D80F8" />
                                    <ellipse cx="64.5001" cy="86.4706" rx="1.74325" ry="1.76471" fill="#9D80F8" />
                                    <ellipse cx="64.5001" cy="97.0588" rx="1.74325" ry="1.76471" fill="#9D80F8" />
                                    <ellipse cx="64.5001" cy="107.647" rx="1.74325" ry="1.76471" fill="#9D80F8" />
                                    <ellipse cx="64.5001" cy="118.235" rx="1.74324" ry="1.76471" fill="#9D80F8" />
                                    <ellipse cx="74.9595" cy="1.76471" rx="1.74324" ry="1.76471" fill="#9D80F8" />
                                    <ellipse cx="85.419" cy="1.76471" rx="1.74324" ry="1.76471" fill="#9D80F8" />
                                    <ellipse cx="95.8785" cy="1.76471" rx="1.74325" ry="1.76471" fill="#9D80F8" />
                                    <ellipse cx="106.338" cy="1.76471" rx="1.74324" ry="1.76471" fill="#9D80F8" />
                                    <ellipse cx="116.797" cy="1.76471" rx="1.74325" ry="1.76471" fill="#9D80F8" />
                                    <ellipse cx="127.257" cy="1.76471" rx="1.74324" ry="1.76471" fill="#9D80F8" />
                                    <ellipse cx="74.9595" cy="12.353" rx="1.74324" ry="1.76471" fill="#9D80F8" />
                                    <ellipse cx="85.419" cy="12.353" rx="1.74324" ry="1.76471" fill="#9D80F8" />
                                    <ellipse cx="95.8785" cy="12.353" rx="1.74325" ry="1.76471" fill="#9D80F8" />
                                    <ellipse cx="106.338" cy="12.353" rx="1.74324" ry="1.76471" fill="#9D80F8" />
                                    <ellipse cx="116.797" cy="12.353" rx="1.74325" ry="1.76471" fill="#9D80F8" />
                                    <ellipse cx="127.257" cy="12.353" rx="1.74324" ry="1.76471" fill="#9D80F8" />
                                    <ellipse cx="74.9595" cy="22.9411" rx="1.74324" ry="1.76471" fill="#9D80F8" />
                                    <ellipse cx="85.419" cy="22.9411" rx="1.74324" ry="1.76471" fill="#9D80F8" />
                                    <ellipse cx="95.8785" cy="22.9411" rx="1.74325" ry="1.76471" fill="#9D80F8" />
                                    <ellipse cx="106.338" cy="22.9411" rx="1.74324" ry="1.76471" fill="#9D80F8" />
                                    <ellipse cx="116.797" cy="22.9411" rx="1.74325" ry="1.76471" fill="#9D80F8" />
                                    <ellipse cx="127.257" cy="22.9411" rx="1.74324" ry="1.76471" fill="#9D80F8" />
                                    <ellipse cx="74.9595" cy="33.5294" rx="1.74324" ry="1.7647" fill="#9D80F8" />
                                    <ellipse cx="85.419" cy="33.5294" rx="1.74324" ry="1.7647" fill="#9D80F8" />
                                    <ellipse cx="95.8785" cy="33.5294" rx="1.74325" ry="1.7647" fill="#9D80F8" />
                                    <ellipse cx="106.338" cy="33.5294" rx="1.74324" ry="1.7647" fill="#9D80F8" />
                                    <ellipse cx="116.797" cy="33.5294" rx="1.74325" ry="1.7647" fill="#9D80F8" />
                                    <ellipse cx="127.257" cy="33.5294" rx="1.74324" ry="1.7647" fill="#9D80F8" />
                                    <ellipse cx="74.9595" cy="44.1177" rx="1.74324" ry="1.76471" fill="#9D80F8" />
                                    <ellipse cx="85.419" cy="44.1177" rx="1.74324" ry="1.76471" fill="#9D80F8" />
                                    <ellipse cx="95.8785" cy="44.1177" rx="1.74325" ry="1.76471" fill="#9D80F8" />
                                    <ellipse cx="106.338" cy="44.1177" rx="1.74324" ry="1.76471" fill="#9D80F8" />
                                    <ellipse cx="116.797" cy="44.1177" rx="1.74325" ry="1.76471" fill="#9D80F8" />
                                    <ellipse cx="127.257" cy="44.1177" rx="1.74324" ry="1.76471" fill="#9D80F8" />
                                    <ellipse cx="74.9595" cy="54.7059" rx="1.74324" ry="1.7647" fill="#9D80F8" />
                                    <ellipse cx="85.419" cy="54.7059" rx="1.74324" ry="1.7647" fill="#9D80F8" />
                                    <ellipse cx="95.8785" cy="54.7059" rx="1.74325" ry="1.7647" fill="#9D80F8" />
                                    <ellipse cx="106.338" cy="54.7059" rx="1.74324" ry="1.7647" fill="#9D80F8" />
                                    <ellipse cx="116.797" cy="54.7059" rx="1.74325" ry="1.7647" fill="#9D80F8" />
                                    <ellipse cx="127.257" cy="54.7059" rx="1.74324" ry="1.7647" fill="#9D80F8" />
                                    <ellipse cx="74.9595" cy="65.2941" rx="1.74324" ry="1.76471" fill="#9D80F8" />
                                    <ellipse cx="85.419" cy="65.2941" rx="1.74324" ry="1.76471" fill="#9D80F8" />
                                    <ellipse cx="95.8785" cy="65.2941" rx="1.74325" ry="1.76471" fill="#9D80F8" />
                                    <ellipse cx="106.338" cy="65.2941" rx="1.74324" ry="1.76471" fill="#9D80F8" />
                                    <ellipse cx="116.797" cy="65.2941" rx="1.74325" ry="1.76471" fill="#9D80F8" />
                                    <ellipse cx="127.257" cy="65.2941" rx="1.74324" ry="1.76471" fill="#9D80F8" />
                                    <ellipse cx="74.9595" cy="75.8824" rx="1.74324" ry="1.76471" fill="#9D80F8" />
                                    <ellipse cx="85.419" cy="75.8824" rx="1.74324" ry="1.76471" fill="#9D80F8" />
                                    <ellipse cx="95.8785" cy="75.8824" rx="1.74325" ry="1.76471" fill="#9D80F8" />
                                    <ellipse cx="106.338" cy="75.8824" rx="1.74324" ry="1.76471" fill="#9D80F8" />
                                    <ellipse cx="116.797" cy="75.8824" rx="1.74325" ry="1.76471" fill="#9D80F8" />
                                    <ellipse cx="127.257" cy="75.8824" rx="1.74324" ry="1.76471" fill="#9D80F8" />
                                    <ellipse cx="74.9595" cy="86.4706" rx="1.74324" ry="1.76471" fill="#9D80F8" />
                                    <ellipse cx="85.419" cy="86.4706" rx="1.74324" ry="1.76471" fill="#9D80F8" />
                                    <ellipse cx="95.8785" cy="86.4706" rx="1.74325" ry="1.76471" fill="#9D80F8" />
                                    <ellipse cx="106.338" cy="86.4706" rx="1.74324" ry="1.76471" fill="#9D80F8" />
                                    <ellipse cx="116.797" cy="86.4706" rx="1.74325" ry="1.76471" fill="#9D80F8" />
                                    <ellipse cx="127.257" cy="86.4706" rx="1.74324" ry="1.76471" fill="#9D80F8" />
                                    <ellipse cx="74.9595" cy="97.0588" rx="1.74324" ry="1.76471" fill="#9D80F8" />
                                    <ellipse cx="85.419" cy="97.0588" rx="1.74324" ry="1.76471" fill="#9D80F8" />
                                    <ellipse cx="95.8785" cy="97.0588" rx="1.74325" ry="1.76471" fill="#9D80F8" />
                                    <ellipse cx="106.338" cy="97.0588" rx="1.74324" ry="1.76471" fill="#9D80F8" />
                                    <ellipse cx="116.797" cy="97.0588" rx="1.74325" ry="1.76471" fill="#9D80F8" />
                                    <ellipse cx="127.257" cy="97.0588" rx="1.74324" ry="1.76471" fill="#9D80F8" />
                                    <ellipse cx="74.9595" cy="107.647" rx="1.74324" ry="1.76471" fill="#9D80F8" />
                                    <ellipse cx="85.419" cy="107.647" rx="1.74324" ry="1.76471" fill="#9D80F8" />
                                    <ellipse cx="95.8785" cy="107.647" rx="1.74325" ry="1.76471" fill="#9D80F8" />
                                    <ellipse cx="106.338" cy="107.647" rx="1.74324" ry="1.76471" fill="#9D80F8" />
                                    <ellipse cx="116.797" cy="107.647" rx="1.74325" ry="1.76471" fill="#9D80F8" />
                                    <ellipse cx="127.257" cy="107.647" rx="1.74324" ry="1.76471" fill="#9D80F8" />
                                    <ellipse cx="74.9595" cy="118.235" rx="1.74324" ry="1.76471" fill="#9D80F8" />
                                    <ellipse cx="85.419" cy="118.235" rx="1.74324" ry="1.76471" fill="#9D80F8" />
                                    <ellipse cx="95.8785" cy="118.235" rx="1.74325" ry="1.76471" fill="#9D80F8" />
                                    <ellipse cx="106.338" cy="118.235" rx="1.74324" ry="1.76471" fill="#9D80F8" />
                                    <ellipse cx="116.797" cy="118.235" rx="1.74325" ry="1.76471" fill="#9D80F8" />
                                    <ellipse cx="127.257" cy="118.235" rx="1.74324" ry="1.76471" fill="#9D80F8" />
                                </g>
                                <g clip-path="url(#clip0_0_1)">
                                    <path
                                        d="M130.362 172.999C159.985 172.999 183.999 149.086 183.999 119.588C183.999 90.0893 159.985 66.1761 130.362 66.1761C100.739 66.1761 76.7251 90.0893 76.7251 119.588C76.7251 149.086 100.739 172.999 130.362 172.999Z"
                                        fill="#CABFEC" />
                                    <path fill-rule="evenodd" clip-rule="evenodd"
                                        d="M91.7847 60.7326C91.7847 59.2234 93.0133 58 94.5288 58H124.92C139.805 58 154.08 63.8881 164.606 74.369C175.131 84.85 181.044 99.0652 181.044 113.887C181.044 128.71 175.131 142.925 164.606 153.406C154.08 163.887 139.805 169.775 124.92 169.775H98.9787C97.4631 169.775 96.2345 168.551 96.2345 167.042C96.2345 165.533 97.4631 164.31 98.9787 164.31H124.92C138.35 164.31 151.229 158.997 160.725 149.541C170.221 140.085 175.555 127.26 175.555 113.887C175.555 100.515 170.221 87.6896 160.725 78.2336C151.229 68.7776 138.35 63.4653 124.92 63.4653H94.5288C93.0133 63.4653 91.7847 62.2418 91.7847 60.7326Z"
                                        fill="#403E5B" />
                                    <path fill-rule="evenodd" clip-rule="evenodd"
                                        d="M113.045 109.283H130.1C133.096 109.283 135.969 110.468 138.088 112.578C140.206 114.688 141.396 117.549 141.396 120.533C141.396 123.516 140.206 126.377 138.088 128.487C135.969 130.597 133.096 131.782 130.1 131.782H113.045V109.283ZM118.534 114.748V126.317H130.1C131.64 126.317 133.118 125.707 134.207 124.623C135.296 123.538 135.908 122.067 135.908 120.533C135.908 118.999 135.296 117.527 134.207 116.443C133.118 115.358 131.64 114.748 130.1 114.748H118.534Z"
                                        fill="#403E5B" />
                                    <path fill-rule="evenodd" clip-rule="evenodd"
                                        d="M124.602 84.5073C126.117 84.5073 127.346 85.7307 127.346 87.2399V90.4462C127.346 91.9554 126.117 93.1789 124.602 93.1789C123.086 93.1789 121.857 91.9554 121.857 90.4462V87.2399C121.857 85.7307 123.086 84.5073 124.602 84.5073Z"
                                        fill="#403E5B" />
                                    <path fill-rule="evenodd" clip-rule="evenodd"
                                        d="M124.602 133.951C126.117 133.951 127.346 135.174 127.346 136.683V139.962C127.346 141.472 126.117 142.695 124.602 142.695C123.086 142.695 121.857 141.472 121.857 139.962V136.683C121.857 135.174 123.086 133.951 124.602 133.951Z"
                                        fill="#403E5B" />
                                    <path fill-rule="evenodd" clip-rule="evenodd"
                                        d="M110.454 98.0794C110.454 96.5702 111.682 95.3467 113.198 95.3467H117.345C118.86 95.3467 120.089 96.5702 120.089 98.0794C120.089 99.5886 118.86 100.812 117.345 100.812H113.198C111.682 100.812 110.454 99.5886 110.454 98.0794Z"
                                        fill="#403E5B" />
                                    <path fill-rule="evenodd" clip-rule="evenodd"
                                        d="M110.454 129.05C110.454 127.541 111.682 126.317 113.198 126.317H117.345C118.86 126.317 120.089 127.541 120.089 129.05C120.089 130.559 118.86 131.783 117.345 131.783H113.198C111.682 131.783 110.454 130.559 110.454 129.05Z"
                                        fill="#403E5B" />
                                    <path fill-rule="evenodd" clip-rule="evenodd"
                                        d="M130.873 102.032C130.031 101.227 128.903 100.788 127.736 100.812L127.709 100.812H118.534V109.283H127.681V112.016L127.736 109.284C128.903 109.307 130.031 108.868 130.873 108.063C131.701 107.271 132.185 106.189 132.223 105.048C132.185 103.906 131.701 102.824 130.873 102.032ZM127.656 114.749C130.267 114.793 132.79 113.807 134.674 112.005C136.565 110.197 137.658 107.714 137.712 105.104L137.713 105.048L137.712 104.992C137.658 102.381 136.565 99.8986 134.674 98.0901C132.79 96.2885 130.267 95.3025 127.656 95.3468H113.045V114.749H127.656Z"
                                        fill="#403E5B" />
                                    <path fill-rule="evenodd" clip-rule="evenodd"
                                        d="M69.7476 153.161C69.7476 151.652 70.9762 150.428 72.4917 150.428H89.1751C90.6907 150.428 91.9193 151.652 91.9193 153.161C91.9193 154.67 90.6907 155.894 89.1751 155.894H72.4917C70.9762 155.894 69.7476 154.67 69.7476 153.161Z"
                                        fill="#403E5B" />
                                    <path fill-rule="evenodd" clip-rule="evenodd"
                                        d="M65.9917 140.441C65.9917 141.951 64.7631 143.174 63.2475 143.174H58.7995C57.2839 143.174 56.0553 141.951 56.0553 140.441C56.0553 138.932 57.2839 137.709 58.7995 137.709H63.2475C64.7631 137.709 65.9917 138.932 65.9917 140.441Z"
                                        fill="#403E5B" />
                                    <path fill-rule="evenodd" clip-rule="evenodd"
                                        d="M57.2712 127.141C57.2712 125.632 58.4999 124.408 60.0154 124.408H73.3601C74.8756 124.408 76.1043 125.632 76.1043 127.141C76.1043 128.65 74.8756 129.873 73.3601 129.873H60.0154C58.4999 129.873 57.2712 128.65 57.2712 127.141Z"
                                        fill="#403E5B" />
                                    <path fill-rule="evenodd" clip-rule="evenodd"
                                        d="M61.5693 113.841C61.5693 112.331 62.7979 111.108 64.3135 111.108H71.5447C73.0603 111.108 74.2889 112.331 74.2889 113.841C74.2889 115.35 73.0603 116.573 71.5447 116.573H64.3135C62.7979 116.573 61.5693 115.35 61.5693 113.841Z"
                                        fill="#403E5B" />
                                    <path fill-rule="evenodd" clip-rule="evenodd"
                                        d="M52.4463 100.54C52.4463 99.0308 53.6749 97.8074 55.1905 97.8074H73.363C74.8786 97.8074 76.1072 99.0308 76.1072 100.54C76.1072 102.049 74.8786 103.273 73.363 103.273H55.1905C53.6749 103.273 52.4463 102.049 52.4463 100.54Z"
                                        fill="#403E5B" />
                                    <path fill-rule="evenodd" clip-rule="evenodd"
                                        d="M67.1753 87.2399C67.1753 85.7307 68.4039 84.5073 69.9195 84.5073H78.8161C80.3317 84.5073 81.5603 85.7307 81.5603 87.2399C81.5603 88.7491 80.3317 89.9726 78.8161 89.9726H69.9195C68.4039 89.9726 67.1753 88.7491 67.1753 87.2399Z"
                                        fill="#403E5B" />
                                    <path fill-rule="evenodd" clip-rule="evenodd"
                                        d="M74.9023 74.5204C74.9023 73.0112 76.131 71.7877 77.6465 71.7877H88.211C89.7266 71.7877 90.9552 73.0112 90.9552 74.5204C90.9552 76.0296 89.7266 77.253 88.211 77.253H77.6465C76.131 77.253 74.9023 76.0296 74.9023 74.5204Z"
                                        fill="#403E5B" />
                                    <path fill-rule="evenodd" clip-rule="evenodd"
                                        d="M81.5605 140.441C81.5605 141.951 80.3319 143.174 78.8164 143.174H69.9197C68.4042 143.174 67.1755 141.951 67.1755 140.441C67.1755 138.932 68.4042 137.709 69.9197 137.709H78.8164C80.3319 137.709 81.5605 138.932 81.5605 140.441Z"
                                        fill="#403E5B" />
                                    <path fill-rule="evenodd" clip-rule="evenodd"
                                        d="M47.5642 127.141C47.5642 125.632 48.7928 124.408 50.3084 124.408H50.6615C52.177 124.408 53.4057 125.632 53.4057 127.141C53.4057 128.65 52.177 129.873 50.6615 129.873H50.3084C48.7928 129.873 47.5642 128.65 47.5642 127.141Z"
                                        fill="#403E5B" />
                                    <path fill-rule="evenodd" clip-rule="evenodd"
                                        d="M46 113.841C46 112.331 47.2286 111.108 48.7442 111.108H55.9754C57.491 111.108 58.7196 112.331 58.7196 113.841C58.7196 115.35 57.491 116.573 55.9754 116.573H48.7442C47.2286 116.573 46 115.35 46 113.841Z"
                                        fill="#403E5B" />
                                    <path fill-rule="evenodd" clip-rule="evenodd"
                                        d="M57.2358 87.2399C57.2358 85.7307 58.4645 84.5073 59.98 84.5073H62.1351C63.6507 84.5073 64.8793 85.7307 64.8793 87.2399C64.8793 88.7491 63.6507 89.9726 62.1351 89.9726H59.98C58.4645 89.9726 57.2358 88.7491 57.2358 87.2399Z"
                                        fill="#403E5B" />
                                    <path fill-rule="evenodd" clip-rule="evenodd"
                                        d="M86.6592 167.042C86.6592 165.533 87.8878 164.31 89.4034 164.31H91.5585C93.074 164.31 94.3026 165.533 94.3026 167.042C94.3026 168.551 93.074 169.775 91.5585 169.775H89.4034C87.8878 169.775 86.6592 168.551 86.6592 167.042Z"
                                        fill="#403E5B" />
                                </g>
                                <defs>
                                    <clipPath id="clip0_0_1">
                                        <rect width="138" height="115" fill="white" transform="translate(46 58)" />
                                    </clipPath>
                                </defs>

                            </svg>