<svg width="222" height="204" viewBox="0 0 222 204" fill="none" xmlns="http://www.w3.org/2000/svg">
<g opacity="0.5">
<ellipse cx="3" cy="3" rx="3" ry="3" fill="#9D80F8"/>
<ellipse cx="3" cy="21" rx="3" ry="3" fill="#9D80F8"/>
<ellipse cx="3" cy="39" rx="3" ry="3" fill="#9D80F8"/>
<ellipse cx="3" cy="57" rx="3" ry="3" fill="#9D80F8"/>
<ellipse cx="3" cy="75" rx="3" ry="3" fill="#9D80F8"/>
<ellipse cx="3" cy="93" rx="3" ry="3" fill="#9D80F8"/>
<ellipse cx="3" cy="111" rx="3" ry="3" fill="#9D80F8"/>
<ellipse cx="3" cy="129" rx="3" ry="3" fill="#9D80F8"/>
<ellipse cx="3" cy="147" rx="3" ry="2.99999" fill="#9D80F8"/>
<ellipse cx="3" cy="165" rx="3" ry="3" fill="#9D80F8"/>
<ellipse cx="3" cy="183" rx="3" ry="3" fill="#9D80F8"/>
<ellipse cx="3" cy="201" rx="3" ry="3.00001" fill="#9D80F8"/>
<ellipse cx="21" cy="3" rx="3" ry="3" fill="#9D80F8"/>
<ellipse cx="21" cy="21" rx="3" ry="3" fill="#9D80F8"/>
<circle cx="21" cy="39" r="3" fill="#9D80F8"/>
<ellipse cx="21" cy="57" rx="3" ry="3" fill="#9D80F8"/>
<ellipse cx="21" cy="75" rx="3" ry="3" fill="#9D80F8"/>
<ellipse cx="21" cy="93" rx="3" ry="3" fill="#9D80F8"/>
<ellipse cx="21" cy="111" rx="3" ry="3" fill="#9D80F8"/>
<ellipse cx="21" cy="129" rx="3" ry="3" fill="#9D80F8"/>
<ellipse cx="21" cy="147" rx="3" ry="2.99999" fill="#9D80F8"/>
<ellipse cx="21" cy="165" rx="3" ry="3" fill="#9D80F8"/>
<ellipse cx="21" cy="183" rx="3" ry="3" fill="#9D80F8"/>
<ellipse cx="21" cy="201" rx="3" ry="3.00001" fill="#9D80F8"/>
<ellipse cx="39" cy="3" rx="3" ry="3" fill="#9D80F8"/>
<ellipse cx="39" cy="21" rx="3" ry="3" fill="#9D80F8"/>
<ellipse cx="39" cy="39" rx="3" ry="3" fill="#9D80F8"/>
<circle cx="39" cy="57" r="3" fill="#9D80F8"/>
<ellipse cx="39" cy="75" rx="3" ry="3" fill="#9D80F8"/>
<ellipse cx="39" cy="93" rx="3" ry="3" fill="#9D80F8"/>
<ellipse cx="39" cy="111" rx="3" ry="3" fill="#9D80F8"/>
<ellipse cx="39" cy="129" rx="3" ry="3" fill="#9D80F8"/>
<ellipse cx="39" cy="147" rx="3" ry="2.99999" fill="#9D80F8"/>
<circle cx="39" cy="165" r="3" fill="#9D80F8"/>
<circle cx="39" cy="183" r="3" fill="#9D80F8"/>
<ellipse cx="39" cy="201" rx="3" ry="3.00001" fill="#9D80F8"/>
<ellipse cx="57" cy="3" rx="3" ry="3" fill="#9D80F8"/>
<ellipse cx="57" cy="21" rx="3" ry="3" fill="#9D80F8"/>
<ellipse cx="57" cy="39" rx="3" ry="3" fill="#9D80F8"/>
<ellipse cx="57" cy="57" rx="3" ry="3" fill="#9D80F8"/>
<ellipse cx="57" cy="75" rx="3" ry="3" fill="#9D80F8"/>
<ellipse cx="57" cy="93" rx="3" ry="3" fill="#9D80F8"/>
<ellipse cx="57" cy="111" rx="3" ry="3" fill="#9D80F8"/>
<ellipse cx="57" cy="129" rx="3" ry="3" fill="#9D80F8"/>
<ellipse cx="57" cy="147" rx="3" ry="2.99999" fill="#9D80F8"/>
<ellipse cx="57" cy="165" rx="3" ry="3" fill="#9D80F8"/>
<ellipse cx="57" cy="183" rx="3" ry="3" fill="#9D80F8"/>
<ellipse cx="57" cy="201" rx="3" ry="3.00001" fill="#9D80F8"/>
<ellipse cx="75" cy="3" rx="3" ry="3" fill="#9D80F8"/>
<ellipse cx="75" cy="21" rx="3" ry="3" fill="#9D80F8"/>
<ellipse cx="75" cy="39" rx="3" ry="3" fill="#9D80F8"/>
<circle cx="75" cy="57" r="3" fill="#9D80F8"/>
<ellipse cx="75" cy="75" rx="3" ry="3" fill="#9D80F8"/>
<ellipse cx="75" cy="93" rx="3" ry="3" fill="#9D80F8"/>
<ellipse cx="75" cy="111" rx="3" ry="3" fill="#9D80F8"/>
<ellipse cx="75" cy="129" rx="3" ry="3" fill="#9D80F8"/>
<ellipse cx="75" cy="147" rx="3" ry="2.99999" fill="#9D80F8"/>
<circle cx="75" cy="165" r="3" fill="#9D80F8"/>
<circle cx="75" cy="183" r="3" fill="#9D80F8"/>
<ellipse cx="75" cy="201" rx="3" ry="3.00001" fill="#9D80F8"/>
<ellipse cx="93" cy="3" rx="3" ry="3" fill="#9D80F8"/>
<ellipse cx="93" cy="21" rx="3" ry="3" fill="#9D80F8"/>
<circle cx="93" cy="39" r="3" fill="#9D80F8"/>
<ellipse cx="93" cy="57" rx="3" ry="3" fill="#9D80F8"/>
<circle cx="93" cy="75" r="3" fill="#9D80F8"/>
<ellipse cx="93" cy="93" rx="3" ry="3" fill="#9D80F8"/>
<circle cx="93" cy="111" r="3" fill="#9D80F8"/>
<circle cx="93" cy="129" r="3" fill="#9D80F8"/>
<ellipse cx="93" cy="147" rx="3" ry="2.99999" fill="#9D80F8"/>
<ellipse cx="93" cy="165" rx="3" ry="3" fill="#9D80F8"/>
<ellipse cx="93" cy="183" rx="3" ry="3" fill="#9D80F8"/>
<ellipse cx="93" cy="201" rx="3" ry="3.00001" fill="#9D80F8"/>
<ellipse cx="111" cy="3" rx="3" ry="3" fill="#9D80F8"/>
<ellipse cx="111" cy="21" rx="3" ry="3" fill="#9D80F8"/>
<ellipse cx="111" cy="39" rx="3" ry="3" fill="#9D80F8"/>
<circle cx="111" cy="57" r="3" fill="#9D80F8"/>
<ellipse cx="111" cy="75" rx="3" ry="3" fill="#9D80F8"/>
<ellipse cx="111" cy="93" rx="3" ry="3" fill="#9D80F8"/>
<ellipse cx="111" cy="111" rx="3" ry="3" fill="#9D80F8"/>
<ellipse cx="111" cy="129" rx="3" ry="3" fill="#9D80F8"/>
<ellipse cx="111" cy="147" rx="3" ry="2.99999" fill="#9D80F8"/>
<circle cx="111" cy="165" r="3" fill="#9D80F8"/>
<circle cx="111" cy="183" r="3" fill="#9D80F8"/>
<ellipse cx="111" cy="201" rx="3" ry="3.00001" fill="#9D80F8"/>
<ellipse cx="129" cy="3" rx="3" ry="3" fill="#9D80F8"/>
<ellipse cx="147" cy="3" rx="3" ry="3" fill="#9D80F8"/>
<ellipse cx="165" cy="3" rx="3.00001" ry="3" fill="#9D80F8"/>
<ellipse cx="183" cy="3" rx="2.99999" ry="3" fill="#9D80F8"/>
<ellipse cx="201" cy="3" rx="3.00001" ry="3" fill="#9D80F8"/>
<ellipse cx="219" cy="3" rx="3" ry="3" fill="#9D80F8"/>
<ellipse cx="129" cy="21" rx="3" ry="3" fill="#9D80F8"/>
<ellipse cx="147" cy="21" rx="3" ry="3" fill="#9D80F8"/>
<ellipse cx="165" cy="21" rx="3.00001" ry="3" fill="#9D80F8"/>
<ellipse cx="183" cy="21" rx="2.99999" ry="3" fill="#9D80F8"/>
<ellipse cx="201" cy="21" rx="3.00001" ry="3" fill="#9D80F8"/>
<ellipse cx="219" cy="21" rx="3" ry="3" fill="#9D80F8"/>
<ellipse cx="129" cy="39" rx="3" ry="3" fill="#9D80F8"/>
<ellipse cx="147" cy="39" rx="2.99999" ry="3" fill="#9D80F8"/>
<ellipse cx="165" cy="39" rx="3.00001" ry="3" fill="#9D80F8"/>
<ellipse cx="183" cy="39" rx="2.99999" ry="3" fill="#9D80F8"/>
<ellipse cx="201" cy="39" rx="3.00001" ry="3" fill="#9D80F8"/>
<ellipse cx="219" cy="39" rx="3.00001" ry="3" fill="#9D80F8"/>
<ellipse cx="129" cy="57" rx="3" ry="3" fill="#9D80F8"/>
<circle cx="147" cy="57" r="3" fill="#9D80F8"/>
<ellipse cx="165" cy="57" rx="3.00001" ry="3" fill="#9D80F8"/>
<ellipse cx="183" cy="57" rx="2.99999" ry="3" fill="#9D80F8"/>
<ellipse cx="201" cy="57" rx="3.00001" ry="3" fill="#9D80F8"/>
<circle cx="219" cy="57" r="3" fill="#9D80F8"/>
<ellipse cx="129" cy="75" rx="3" ry="3" fill="#9D80F8"/>
<ellipse cx="147" cy="75" rx="3" ry="3" fill="#9D80F8"/>
<ellipse cx="165" cy="75" rx="3.00001" ry="3" fill="#9D80F8"/>
<ellipse cx="183" cy="75" rx="2.99999" ry="3" fill="#9D80F8"/>
<ellipse cx="201" cy="75" rx="3.00001" ry="3" fill="#9D80F8"/>
<ellipse cx="219" cy="75" rx="3" ry="3" fill="#9D80F8"/>
<circle cx="129" cy="93" r="3" fill="#9D80F8"/>
<ellipse cx="147" cy="93" rx="3" ry="3" fill="#9D80F8"/>
<ellipse cx="165" cy="93" rx="3.00001" ry="3" fill="#9D80F8"/>
<ellipse cx="183" cy="93" rx="2.99999" ry="3" fill="#9D80F8"/>
<ellipse cx="201" cy="93" rx="3.00001" ry="3" fill="#9D80F8"/>
<ellipse cx="219" cy="93" rx="3" ry="3" fill="#9D80F8"/>
<ellipse cx="129" cy="111" rx="3" ry="3" fill="#9D80F8"/>
<ellipse cx="147" cy="111" rx="3" ry="3" fill="#9D80F8"/>
<ellipse cx="165" cy="111" rx="3.00001" ry="3" fill="#9D80F8"/>
<ellipse cx="183" cy="111" rx="2.99999" ry="3" fill="#9D80F8"/>
<ellipse cx="201" cy="111" rx="3.00001" ry="3" fill="#9D80F8"/>
<ellipse cx="219" cy="111" rx="3" ry="3" fill="#9D80F8"/>
<ellipse cx="129" cy="129" rx="3" ry="3" fill="#9D80F8"/>
<ellipse cx="147" cy="129" rx="3" ry="3" fill="#9D80F8"/>
<ellipse cx="165" cy="129" rx="3.00001" ry="3" fill="#9D80F8"/>
<ellipse cx="183" cy="129" rx="2.99999" ry="3" fill="#9D80F8"/>
<ellipse cx="201" cy="129" rx="3.00001" ry="3" fill="#9D80F8"/>
<ellipse cx="219" cy="129" rx="3" ry="3" fill="#9D80F8"/>
<ellipse cx="129" cy="147" rx="3" ry="2.99999" fill="#9D80F8"/>
<ellipse cx="147" cy="147" rx="3" ry="2.99999" fill="#9D80F8"/>
<ellipse cx="165" cy="147" rx="3.00001" ry="2.99999" fill="#9D80F8"/>
<circle cx="183" cy="147" r="2.99999" fill="#9D80F8"/>
<ellipse cx="201" cy="147" rx="3.00001" ry="2.99999" fill="#9D80F8"/>
<ellipse cx="219" cy="147" rx="3" ry="2.99999" fill="#9D80F8"/>
<ellipse cx="129" cy="165" rx="3" ry="3" fill="#9D80F8"/>
<circle cx="147" cy="165" r="3" fill="#9D80F8"/>
<ellipse cx="165" cy="165" rx="3.00001" ry="3" fill="#9D80F8"/>
<ellipse cx="183" cy="165" rx="2.99999" ry="3" fill="#9D80F8"/>
<ellipse cx="201" cy="165" rx="3.00001" ry="3" fill="#9D80F8"/>
<circle cx="219" cy="165" r="3" fill="#9D80F8"/>
<ellipse cx="129" cy="183" rx="3" ry="3" fill="#9D80F8"/>
<circle cx="147" cy="183" r="3" fill="#9D80F8"/>
<ellipse cx="165" cy="183" rx="3.00001" ry="3" fill="#9D80F8"/>
<ellipse cx="183" cy="183" rx="2.99999" ry="3" fill="#9D80F8"/>
<ellipse cx="201" cy="183" rx="3.00001" ry="3" fill="#9D80F8"/>
<circle cx="219" cy="183" r="3" fill="#9D80F8"/>
<ellipse cx="129" cy="201" rx="3" ry="3.00001" fill="#9D80F8"/>
<ellipse cx="147" cy="201" rx="2.99999" ry="3.00001" fill="#9D80F8"/>
<circle cx="165" cy="201" r="3.00001" fill="#9D80F8"/>
<ellipse cx="183" cy="201" rx="2.99999" ry="3.00001" fill="#9D80F8"/>
<circle cx="201" cy="201" r="3.00001" fill="#9D80F8"/>
<circle cx="219" cy="201" r="3.00001" fill="#9D80F8"/>
</g>
</svg>
