<svg width="202" height="186" viewBox="0 0 202 186" fill="none" xmlns="http://www.w3.org/2000/svg">
<g opacity="0.5">
<ellipse cx="2.72973" cy="2.73529" rx="2.72973" ry="2.73529" fill="#9D80F8" fill-opacity="0.35"/>
<ellipse cx="2.72973" cy="19.1469" rx="2.72973" ry="2.73529" fill="#9D80F8" fill-opacity="0.35"/>
<ellipse cx="2.72973" cy="35.5585" rx="2.72973" ry="2.73529" fill="#9D80F8" fill-opacity="0.35"/>
<ellipse cx="2.72973" cy="51.9706" rx="2.72973" ry="2.73529" fill="#9D80F8" fill-opacity="0.35"/>
<ellipse cx="2.72973" cy="68.3823" rx="2.72973" ry="2.7353" fill="#9D80F8" fill-opacity="0.35"/>
<ellipse cx="2.72973" cy="84.7939" rx="2.72973" ry="2.73529" fill="#9D80F8" fill-opacity="0.35"/>
<ellipse cx="2.72973" cy="101.206" rx="2.72973" ry="2.7353" fill="#9D80F8" fill-opacity="0.35"/>
<ellipse cx="2.72973" cy="117.618" rx="2.72973" ry="2.7353" fill="#9D80F8" fill-opacity="0.35"/>
<ellipse cx="2.72973" cy="134.029" rx="2.72973" ry="2.73529" fill="#9D80F8" fill-opacity="0.35"/>
<ellipse cx="2.72973" cy="150.441" rx="2.72973" ry="2.7353" fill="#9D80F8" fill-opacity="0.35"/>
<ellipse cx="2.72973" cy="166.853" rx="2.72973" ry="2.73529" fill="#9D80F8" fill-opacity="0.35"/>
<ellipse cx="2.72973" cy="183.265" rx="2.72973" ry="2.73531" fill="#9D80F8" fill-opacity="0.35"/>
<ellipse cx="19.1081" cy="2.73529" rx="2.72973" ry="2.73529" fill="#9D80F8" fill-opacity="0.35"/>
<ellipse cx="19.1081" cy="19.1469" rx="2.72973" ry="2.73529" fill="#9D80F8" fill-opacity="0.35"/>
<ellipse cx="19.1081" cy="35.5585" rx="2.72973" ry="2.73529" fill="#9D80F8" fill-opacity="0.35"/>
<ellipse cx="19.1081" cy="51.9706" rx="2.72973" ry="2.73529" fill="#9D80F8" fill-opacity="0.35"/>
<ellipse cx="19.1081" cy="68.3823" rx="2.72973" ry="2.7353" fill="#9D80F8" fill-opacity="0.35"/>
<ellipse cx="19.1081" cy="84.7939" rx="2.72973" ry="2.73529" fill="#9D80F8" fill-opacity="0.35"/>
<ellipse cx="19.1081" cy="101.206" rx="2.72973" ry="2.7353" fill="#9D80F8" fill-opacity="0.35"/>
<ellipse cx="19.1081" cy="117.618" rx="2.72973" ry="2.7353" fill="#9D80F8" fill-opacity="0.35"/>
<ellipse cx="19.1081" cy="134.029" rx="2.72973" ry="2.73529" fill="#9D80F8" fill-opacity="0.35"/>
<ellipse cx="19.1081" cy="150.441" rx="2.72973" ry="2.7353" fill="#9D80F8" fill-opacity="0.35"/>
<ellipse cx="19.1081" cy="166.853" rx="2.72973" ry="2.73529" fill="#9D80F8" fill-opacity="0.35"/>
<ellipse cx="19.1081" cy="183.265" rx="2.72973" ry="2.73531" fill="#9D80F8" fill-opacity="0.35"/>
<ellipse cx="35.4864" cy="2.73529" rx="2.72973" ry="2.73529" fill="#9D80F8" fill-opacity="0.35"/>
<ellipse cx="35.4864" cy="19.1469" rx="2.72973" ry="2.73529" fill="#9D80F8" fill-opacity="0.35"/>
<ellipse cx="35.4866" cy="35.5585" rx="2.72973" ry="2.73529" fill="#9D80F8" fill-opacity="0.35"/>
<ellipse cx="35.4864" cy="51.9706" rx="2.72973" ry="2.73529" fill="#9D80F8" fill-opacity="0.35"/>
<ellipse cx="35.4864" cy="68.3823" rx="2.72973" ry="2.7353" fill="#9D80F8" fill-opacity="0.35"/>
<ellipse cx="35.4864" cy="84.7939" rx="2.72973" ry="2.73529" fill="#9D80F8" fill-opacity="0.35"/>
<ellipse cx="35.4864" cy="101.206" rx="2.72973" ry="2.7353" fill="#9D80F8" fill-opacity="0.35"/>
<ellipse cx="35.4864" cy="117.618" rx="2.72973" ry="2.7353" fill="#9D80F8" fill-opacity="0.35"/>
<ellipse cx="35.4864" cy="134.029" rx="2.72973" ry="2.73529" fill="#9D80F8" fill-opacity="0.35"/>
<ellipse cx="35.4864" cy="150.441" rx="2.72973" ry="2.7353" fill="#9D80F8" fill-opacity="0.35"/>
<ellipse cx="35.4864" cy="166.853" rx="2.72973" ry="2.73529" fill="#9D80F8" fill-opacity="0.35"/>
<ellipse cx="35.4866" cy="183.265" rx="2.72973" ry="2.73531" fill="#9D80F8" fill-opacity="0.35"/>
<ellipse cx="51.8649" cy="2.73529" rx="2.72973" ry="2.73529" fill="#9D80F8" fill-opacity="0.35"/>
<ellipse cx="51.8649" cy="19.1469" rx="2.72973" ry="2.73529" fill="#9D80F8" fill-opacity="0.35"/>
<ellipse cx="51.8649" cy="35.5585" rx="2.72973" ry="2.73529" fill="#9D80F8" fill-opacity="0.35"/>
<ellipse cx="51.8649" cy="51.9706" rx="2.72973" ry="2.73529" fill="#9D80F8" fill-opacity="0.35"/>
<ellipse cx="51.8649" cy="68.3823" rx="2.72973" ry="2.7353" fill="#9D80F8" fill-opacity="0.35"/>
<ellipse cx="51.8649" cy="84.7939" rx="2.72973" ry="2.73529" fill="#9D80F8" fill-opacity="0.35"/>
<ellipse cx="51.8649" cy="101.206" rx="2.72973" ry="2.7353" fill="#9D80F8" fill-opacity="0.35"/>
<ellipse cx="51.8649" cy="117.618" rx="2.72973" ry="2.7353" fill="#9D80F8" fill-opacity="0.35"/>
<ellipse cx="51.8649" cy="134.029" rx="2.72973" ry="2.73529" fill="#9D80F8" fill-opacity="0.35"/>
<ellipse cx="51.8649" cy="150.441" rx="2.72973" ry="2.7353" fill="#9D80F8" fill-opacity="0.35"/>
<ellipse cx="51.8649" cy="166.853" rx="2.72973" ry="2.73529" fill="#9D80F8" fill-opacity="0.35"/>
<ellipse cx="51.8649" cy="183.265" rx="2.72973" ry="2.73531" fill="#9D80F8" fill-opacity="0.35"/>
<ellipse cx="68.2433" cy="2.73529" rx="2.72973" ry="2.73529" fill="#9D80F8" fill-opacity="0.35"/>
<ellipse cx="68.2433" cy="19.1469" rx="2.72973" ry="2.73529" fill="#9D80F8" fill-opacity="0.35"/>
<ellipse cx="68.2433" cy="35.5585" rx="2.72973" ry="2.73529" fill="#9D80F8" fill-opacity="0.35"/>
<ellipse cx="68.2433" cy="51.9706" rx="2.72973" ry="2.73529" fill="#9D80F8" fill-opacity="0.35"/>
<ellipse cx="68.2433" cy="68.3823" rx="2.72973" ry="2.7353" fill="#9D80F8" fill-opacity="0.35"/>
<ellipse cx="68.2433" cy="84.7939" rx="2.72973" ry="2.73529" fill="#9D80F8" fill-opacity="0.35"/>
<ellipse cx="68.2433" cy="101.206" rx="2.72973" ry="2.7353" fill="#9D80F8" fill-opacity="0.35"/>
<ellipse cx="68.2433" cy="117.618" rx="2.72973" ry="2.7353" fill="#9D80F8" fill-opacity="0.35"/>
<ellipse cx="68.2433" cy="134.029" rx="2.72973" ry="2.73529" fill="#9D80F8" fill-opacity="0.35"/>
<ellipse cx="68.2433" cy="150.441" rx="2.72973" ry="2.7353" fill="#9D80F8" fill-opacity="0.35"/>
<ellipse cx="68.2433" cy="166.853" rx="2.72973" ry="2.73529" fill="#9D80F8" fill-opacity="0.35"/>
<ellipse cx="68.2433" cy="183.265" rx="2.72973" ry="2.73531" fill="#9D80F8" fill-opacity="0.35"/>
<ellipse cx="84.6216" cy="2.73529" rx="2.72973" ry="2.73529" fill="#9D80F8" fill-opacity="0.35"/>
<ellipse cx="84.6216" cy="19.1469" rx="2.72973" ry="2.73529" fill="#9D80F8" fill-opacity="0.35"/>
<ellipse cx="84.6216" cy="35.5585" rx="2.72973" ry="2.73529" fill="#9D80F8" fill-opacity="0.35"/>
<ellipse cx="84.6216" cy="51.9706" rx="2.72973" ry="2.73529" fill="#9D80F8" fill-opacity="0.35"/>
<ellipse cx="84.6216" cy="68.3823" rx="2.72973" ry="2.7353" fill="#9D80F8" fill-opacity="0.35"/>
<ellipse cx="84.6216" cy="84.7939" rx="2.72973" ry="2.73529" fill="#9D80F8" fill-opacity="0.35"/>
<ellipse cx="84.6216" cy="101.206" rx="2.72973" ry="2.7353" fill="#9D80F8" fill-opacity="0.35"/>
<ellipse cx="84.6216" cy="117.618" rx="2.72973" ry="2.7353" fill="#9D80F8" fill-opacity="0.35"/>
<ellipse cx="84.6216" cy="134.029" rx="2.72973" ry="2.73529" fill="#9D80F8" fill-opacity="0.35"/>
<ellipse cx="84.6216" cy="150.441" rx="2.72973" ry="2.7353" fill="#9D80F8" fill-opacity="0.35"/>
<ellipse cx="84.6216" cy="166.853" rx="2.72973" ry="2.73529" fill="#9D80F8" fill-opacity="0.35"/>
<ellipse cx="84.6216" cy="183.265" rx="2.72973" ry="2.73531" fill="#9D80F8" fill-opacity="0.35"/>
<ellipse cx="101" cy="2.73529" rx="2.72973" ry="2.73529" fill="#9D80F8" fill-opacity="0.35"/>
<ellipse cx="101" cy="19.1469" rx="2.72973" ry="2.73529" fill="#9D80F8" fill-opacity="0.35"/>
<ellipse cx="101" cy="35.5585" rx="2.72973" ry="2.73529" fill="#9D80F8" fill-opacity="0.35"/>
<ellipse cx="101" cy="51.9706" rx="2.72973" ry="2.73529" fill="#9D80F8" fill-opacity="0.35"/>
<ellipse cx="101" cy="68.3823" rx="2.72973" ry="2.7353" fill="#9D80F8" fill-opacity="0.35"/>
<ellipse cx="101" cy="84.7939" rx="2.72973" ry="2.73529" fill="#9D80F8" fill-opacity="0.35"/>
<ellipse cx="101" cy="101.206" rx="2.72973" ry="2.7353" fill="#9D80F8" fill-opacity="0.35"/>
<ellipse cx="101" cy="117.618" rx="2.72973" ry="2.7353" fill="#9D80F8" fill-opacity="0.35"/>
<ellipse cx="101" cy="134.029" rx="2.72973" ry="2.73529" fill="#9D80F8" fill-opacity="0.35"/>
<ellipse cx="101" cy="150.441" rx="2.72973" ry="2.7353" fill="#9D80F8" fill-opacity="0.35"/>
<ellipse cx="101" cy="166.853" rx="2.72973" ry="2.73529" fill="#9D80F8" fill-opacity="0.35"/>
<ellipse cx="101" cy="183.265" rx="2.72973" ry="2.73531" fill="#9D80F8" fill-opacity="0.35"/>
<ellipse cx="117.378" cy="2.73529" rx="2.72972" ry="2.73529" fill="#9D80F8" fill-opacity="0.35"/>
<ellipse cx="133.757" cy="2.73529" rx="2.72972" ry="2.73529" fill="#9D80F8" fill-opacity="0.35"/>
<ellipse cx="150.135" cy="2.73529" rx="2.72974" ry="2.73529" fill="#9D80F8" fill-opacity="0.35"/>
<ellipse cx="166.514" cy="2.73529" rx="2.72973" ry="2.73529" fill="#9D80F8" fill-opacity="0.35"/>
<ellipse cx="182.892" cy="2.73529" rx="2.72974" ry="2.73529" fill="#9D80F8" fill-opacity="0.35"/>
<ellipse cx="199.27" cy="2.73529" rx="2.72973" ry="2.73529" fill="#9D80F8" fill-opacity="0.35"/>
<ellipse cx="117.378" cy="19.1469" rx="2.72972" ry="2.73529" fill="#9D80F8" fill-opacity="0.35"/>
<ellipse cx="133.757" cy="19.1469" rx="2.72972" ry="2.73529" fill="#9D80F8" fill-opacity="0.35"/>
<ellipse cx="150.135" cy="19.1469" rx="2.72974" ry="2.73529" fill="#9D80F8" fill-opacity="0.35"/>
<ellipse cx="166.514" cy="19.1469" rx="2.72973" ry="2.73529" fill="#9D80F8" fill-opacity="0.35"/>
<ellipse cx="182.892" cy="19.1469" rx="2.72974" ry="2.73529" fill="#9D80F8" fill-opacity="0.35"/>
<ellipse cx="199.27" cy="19.1469" rx="2.72973" ry="2.73529" fill="#9D80F8" fill-opacity="0.35"/>
<ellipse cx="117.378" cy="35.5585" rx="2.72972" ry="2.73529" fill="#9D80F8" fill-opacity="0.35"/>
<ellipse cx="133.757" cy="35.5585" rx="2.72973" ry="2.73529" fill="#9D80F8" fill-opacity="0.35"/>
<ellipse cx="150.135" cy="35.5585" rx="2.72974" ry="2.73529" fill="#9D80F8" fill-opacity="0.35"/>
<ellipse cx="166.514" cy="35.5585" rx="2.72973" ry="2.73529" fill="#9D80F8" fill-opacity="0.35"/>
<ellipse cx="182.892" cy="35.5585" rx="2.72974" ry="2.73529" fill="#9D80F8" fill-opacity="0.35"/>
<ellipse cx="199.27" cy="35.5585" rx="2.72974" ry="2.73529" fill="#9D80F8" fill-opacity="0.35"/>
<ellipse cx="117.378" cy="51.9706" rx="2.72972" ry="2.73529" fill="#9D80F8" fill-opacity="0.35"/>
<ellipse cx="133.757" cy="51.9706" rx="2.72972" ry="2.73529" fill="#9D80F8" fill-opacity="0.35"/>
<ellipse cx="150.135" cy="51.9706" rx="2.72974" ry="2.73529" fill="#9D80F8" fill-opacity="0.35"/>
<ellipse cx="166.514" cy="51.9706" rx="2.72973" ry="2.73529" fill="#9D80F8" fill-opacity="0.35"/>
<ellipse cx="182.892" cy="51.9706" rx="2.72974" ry="2.73529" fill="#9D80F8" fill-opacity="0.35"/>
<ellipse cx="199.27" cy="51.9706" rx="2.72973" ry="2.73529" fill="#9D80F8" fill-opacity="0.35"/>
<ellipse cx="117.378" cy="68.3823" rx="2.72972" ry="2.7353" fill="#9D80F8" fill-opacity="0.35"/>
<ellipse cx="133.757" cy="68.3823" rx="2.72972" ry="2.7353" fill="#9D80F8" fill-opacity="0.35"/>
<ellipse cx="150.135" cy="68.3823" rx="2.72974" ry="2.7353" fill="#9D80F8" fill-opacity="0.35"/>
<ellipse cx="166.514" cy="68.3823" rx="2.72973" ry="2.7353" fill="#9D80F8" fill-opacity="0.35"/>
<ellipse cx="182.892" cy="68.3823" rx="2.72974" ry="2.7353" fill="#9D80F8" fill-opacity="0.35"/>
<ellipse cx="199.27" cy="68.3823" rx="2.72973" ry="2.7353" fill="#9D80F8" fill-opacity="0.35"/>
<ellipse cx="117.378" cy="84.7939" rx="2.72972" ry="2.73529" fill="#9D80F8" fill-opacity="0.35"/>
<ellipse cx="133.757" cy="84.7939" rx="2.72972" ry="2.73529" fill="#9D80F8" fill-opacity="0.35"/>
<ellipse cx="150.135" cy="84.7939" rx="2.72974" ry="2.73529" fill="#9D80F8" fill-opacity="0.35"/>
<ellipse cx="166.514" cy="84.7939" rx="2.72973" ry="2.73529" fill="#9D80F8" fill-opacity="0.35"/>
<ellipse cx="182.892" cy="84.7939" rx="2.72974" ry="2.73529" fill="#9D80F8" fill-opacity="0.35"/>
<ellipse cx="199.27" cy="84.7939" rx="2.72973" ry="2.73529" fill="#9D80F8" fill-opacity="0.35"/>
<ellipse cx="117.378" cy="101.206" rx="2.72972" ry="2.7353" fill="#9D80F8" fill-opacity="0.35"/>
<ellipse cx="133.757" cy="101.206" rx="2.72972" ry="2.7353" fill="#9D80F8" fill-opacity="0.35"/>
<ellipse cx="150.135" cy="101.206" rx="2.72974" ry="2.7353" fill="#9D80F8" fill-opacity="0.35"/>
<ellipse cx="166.514" cy="101.206" rx="2.72973" ry="2.7353" fill="#9D80F8" fill-opacity="0.35"/>
<ellipse cx="182.892" cy="101.206" rx="2.72974" ry="2.7353" fill="#9D80F8" fill-opacity="0.35"/>
<ellipse cx="199.27" cy="101.206" rx="2.72973" ry="2.7353" fill="#9D80F8" fill-opacity="0.35"/>
<ellipse cx="117.378" cy="117.618" rx="2.72972" ry="2.7353" fill="#9D80F8" fill-opacity="0.35"/>
<ellipse cx="133.757" cy="117.618" rx="2.72972" ry="2.7353" fill="#9D80F8" fill-opacity="0.35"/>
<ellipse cx="150.135" cy="117.618" rx="2.72974" ry="2.7353" fill="#9D80F8" fill-opacity="0.35"/>
<ellipse cx="166.514" cy="117.618" rx="2.72973" ry="2.7353" fill="#9D80F8" fill-opacity="0.35"/>
<ellipse cx="182.892" cy="117.618" rx="2.72974" ry="2.7353" fill="#9D80F8" fill-opacity="0.35"/>
<ellipse cx="199.27" cy="117.618" rx="2.72973" ry="2.7353" fill="#9D80F8" fill-opacity="0.35"/>
<ellipse cx="117.378" cy="134.029" rx="2.72972" ry="2.73529" fill="#9D80F8" fill-opacity="0.35"/>
<ellipse cx="133.757" cy="134.029" rx="2.72972" ry="2.73529" fill="#9D80F8" fill-opacity="0.35"/>
<ellipse cx="150.135" cy="134.029" rx="2.72974" ry="2.73529" fill="#9D80F8" fill-opacity="0.35"/>
<ellipse cx="166.514" cy="134.029" rx="2.72973" ry="2.73529" fill="#9D80F8" fill-opacity="0.35"/>
<ellipse cx="182.892" cy="134.029" rx="2.72974" ry="2.73529" fill="#9D80F8" fill-opacity="0.35"/>
<ellipse cx="199.27" cy="134.029" rx="2.72973" ry="2.73529" fill="#9D80F8" fill-opacity="0.35"/>
<ellipse cx="117.378" cy="150.441" rx="2.72972" ry="2.7353" fill="#9D80F8" fill-opacity="0.35"/>
<ellipse cx="133.757" cy="150.441" rx="2.72972" ry="2.7353" fill="#9D80F8" fill-opacity="0.35"/>
<ellipse cx="150.135" cy="150.441" rx="2.72974" ry="2.7353" fill="#9D80F8" fill-opacity="0.35"/>
<ellipse cx="166.514" cy="150.441" rx="2.72973" ry="2.7353" fill="#9D80F8" fill-opacity="0.35"/>
<ellipse cx="182.892" cy="150.441" rx="2.72974" ry="2.7353" fill="#9D80F8" fill-opacity="0.35"/>
<ellipse cx="199.27" cy="150.441" rx="2.72973" ry="2.7353" fill="#9D80F8" fill-opacity="0.35"/>
<ellipse cx="117.378" cy="166.853" rx="2.72972" ry="2.73529" fill="#9D80F8" fill-opacity="0.35"/>
<ellipse cx="133.757" cy="166.853" rx="2.72972" ry="2.73529" fill="#9D80F8" fill-opacity="0.35"/>
<ellipse cx="150.135" cy="166.853" rx="2.72974" ry="2.73529" fill="#9D80F8" fill-opacity="0.35"/>
<ellipse cx="166.514" cy="166.853" rx="2.72973" ry="2.73529" fill="#9D80F8" fill-opacity="0.35"/>
<ellipse cx="182.892" cy="166.853" rx="2.72974" ry="2.73529" fill="#9D80F8" fill-opacity="0.35"/>
<ellipse cx="199.27" cy="166.853" rx="2.72973" ry="2.73529" fill="#9D80F8" fill-opacity="0.35"/>
<ellipse cx="117.378" cy="183.265" rx="2.72972" ry="2.73531" fill="#9D80F8" fill-opacity="0.35"/>
<ellipse cx="133.757" cy="183.265" rx="2.72973" ry="2.73531" fill="#9D80F8" fill-opacity="0.35"/>
<ellipse cx="150.135" cy="183.265" rx="2.72974" ry="2.73531" fill="#9D80F8" fill-opacity="0.35"/>
<ellipse cx="166.514" cy="183.265" rx="2.72973" ry="2.73531" fill="#9D80F8" fill-opacity="0.35"/>
<ellipse cx="182.892" cy="183.265" rx="2.72974" ry="2.73531" fill="#9D80F8" fill-opacity="0.35"/>
<ellipse cx="199.27" cy="183.265" rx="2.72974" ry="2.73531" fill="#9D80F8" fill-opacity="0.35"/>
</g>
</svg>
