<svg width="253" height="73" viewBox="0 0 253 73" fill="none" xmlns="http://www.w3.org/2000/svg">
<path d="M243.63 73H9.37037C4.21901 73 0 68.8915 0 63.875V9.125C0 4.10853 4.21901 0 9.37037 0H243.63C248.781 0 253 4.10853 253 9.125V63.875C253 68.8915 248.781 73 243.63 73Z" fill="black"/>
<path d="M243.63 1.46228C247.968 1.46228 251.498 4.90012 251.498 9.125V63.875C251.498 68.0999 247.968 71.5377 243.63 71.5377H9.37037C5.03189 71.5377 1.5016 68.0999 1.5016 63.875V9.125C1.5016 4.90012 5.03189 1.46228 9.37037 1.46228H243.63ZM243.63 0H9.37037C4.21901 0 0 4.10853 0 9.125V63.875C0 68.8915 4.21901 73 9.37037 73H243.63C248.781 73 253 68.8915 253 63.875V9.125C253 4.10853 248.781 0 243.63 0Z" fill="#A6A6A6"/>
<path d="M88.8632 18.6948C88.8632 20.2187 88.3947 21.4391 87.4717 22.3493C86.4105 23.4284 85.0284 23.9713 83.3347 23.9713C81.716 23.9713 80.3338 23.4192 79.2 22.3311C78.0639 21.227 77.497 19.8719 77.497 18.2499C77.497 16.628 78.0639 15.2729 79.2 14.1779C80.3338 13.0806 81.716 12.5286 83.3347 12.5286C84.1406 12.5286 84.9089 12.6905 85.6421 12.9917C86.373 13.2951 86.9681 13.7057 87.3991 14.2121L86.4199 15.1748C85.6679 14.3102 84.6442 13.8836 83.3347 13.8836C82.154 13.8836 81.1303 14.2851 80.2612 15.095C79.4015 15.9071 78.9704 16.9588 78.9704 18.2499C78.9704 19.5411 79.4015 20.6019 80.2612 21.414C81.1303 22.2147 82.154 22.6254 83.3347 22.6254C84.588 22.6254 85.6422 22.2148 86.4738 21.4049C87.0219 20.8688 87.3335 20.1297 87.4155 19.1853H83.3347V17.8667H88.7789C88.8445 18.1518 88.8632 18.4279 88.8632 18.6948Z" fill="white"/>
<path d="M97.5006 14.1231H92.3867V17.5906H96.997V18.9092H92.3867V22.3767H97.5006V23.7203H90.939V12.7795H97.5006V14.1231Z" fill="white"/>
<path d="M103.596 23.7203H102.148V14.1231H99.0112V12.7795H106.735V14.1231H103.596V23.7203Z" fill="white"/>
<path d="M112.326 23.7203V12.7795H113.771V23.7203H112.326Z" fill="white"/>
<path d="M120.177 23.7204H118.741V14.1232H115.593V12.7796H123.326V14.1232H120.177V23.7204Z" fill="white"/>
<path d="M137.949 22.3126C136.841 23.419 135.468 23.9711 133.831 23.9711C132.184 23.9711 130.811 23.419 129.703 22.3126C128.598 21.2085 128.047 19.8534 128.047 18.2497C128.047 16.646 128.598 15.2909 129.703 14.1868C130.811 13.0804 132.184 12.5283 133.831 12.5283C135.459 12.5283 136.832 13.0804 137.94 14.1959C139.055 15.3092 139.605 16.6551 139.605 18.2497C139.605 19.8534 139.055 21.2085 137.949 22.3126ZM130.774 21.3956C131.608 22.2145 132.622 22.6252 133.831 22.6252C135.03 22.6252 136.054 22.2145 136.879 21.3956C137.71 20.5766 138.132 19.5249 138.132 18.2497C138.132 16.9745 137.71 15.9228 136.879 15.1039C136.054 14.2849 135.03 13.8743 133.831 13.8743C132.622 13.8743 131.608 14.2849 130.774 15.1039C129.942 15.9228 129.521 16.9745 129.521 18.2497C129.521 19.5249 129.942 20.5766 130.774 21.3956Z" fill="white"/>
<path d="M141.636 23.7204V12.7796H143.393L148.856 21.2886H148.919L148.856 19.1853V12.7796H150.301V23.7204H148.792L143.072 14.7916H143.008L143.072 16.9041V23.7204H141.636Z" fill="white"/>
<path d="M127.691 39.6985C123.29 39.6985 119.694 42.9607 119.694 47.4616C119.694 51.926 123.29 55.2224 127.691 55.2224C132.102 55.2224 135.698 51.926 135.698 47.4616C135.698 42.9607 132.102 39.6985 127.691 39.6985ZM127.691 52.1656C125.276 52.1656 123.198 50.2242 123.198 47.4616C123.198 44.6625 125.276 42.7554 127.691 42.7554C130.106 42.7554 132.194 44.6625 132.194 47.4616C132.194 50.2242 130.106 52.1656 127.691 52.1656ZM110.241 39.6985C105.83 39.6985 102.244 42.9607 102.244 47.4616C102.244 51.926 105.83 55.2224 110.241 55.2224C114.65 55.2224 118.239 51.926 118.239 47.4616C118.239 42.9607 114.65 39.6985 110.241 39.6985ZM110.241 52.1656C107.824 52.1656 105.739 50.2242 105.739 47.4616C105.739 44.6625 107.824 42.7554 110.241 42.7554C112.657 42.7554 114.734 44.6625 114.734 47.4616C114.734 50.2242 112.657 52.1656 110.241 52.1656ZM89.4766 42.0779V45.3766H97.5656C97.329 47.2198 96.6965 48.5749 95.7266 49.5193C94.546 50.6599 92.707 51.926 89.4766 51.926C84.4986 51.926 80.6005 48.0137 80.6005 43.166C80.6005 38.3184 84.4986 34.406 89.4766 34.406C92.1682 34.406 94.1266 35.4303 95.572 36.758L97.9591 34.4334C95.9375 32.5537 93.2482 31.1096 89.4766 31.1096C82.6503 31.1096 76.9133 36.5185 76.9133 43.166C76.9133 49.8136 82.6503 55.2224 89.4766 55.2224C93.1662 55.2224 95.9375 54.0453 98.1161 51.8371C100.349 49.663 101.044 46.6062 101.044 44.1378C101.044 43.3713 100.979 42.6664 100.862 42.0779H89.4766ZM174.386 44.6352C173.728 42.8991 171.697 39.6985 167.56 39.6985C163.46 39.6985 160.047 42.8444 160.047 47.4616C160.047 51.8097 163.425 55.2224 167.953 55.2224C171.615 55.2224 173.728 53.0484 174.597 51.7823L171.88 50.0189C170.973 51.3101 169.738 52.1656 167.953 52.1656C166.18 52.1656 164.908 51.374 164.093 49.8136L174.754 45.518L174.386 44.6352ZM163.517 47.2198C163.425 44.2268 165.904 42.6938 167.679 42.6938C169.071 42.6938 170.251 43.3713 170.645 44.3409L163.517 47.2198ZM154.851 54.7502H158.356V31.9377H154.851V54.7502ZM149.112 41.4277H148.995C148.208 40.5198 146.706 39.6985 144.804 39.6985C140.812 39.6985 137.162 43.1113 137.162 47.4867C137.162 51.8371 140.812 55.2224 144.804 55.2224C146.706 55.2224 148.208 54.3943 148.995 53.459H149.112V54.5723C149.112 57.5402 147.484 59.1348 144.858 59.1348C142.717 59.1348 141.388 57.6292 140.84 56.3631L137.793 57.6018C138.671 59.6595 140.997 62.1917 144.858 62.1917C148.967 62.1917 152.434 59.8374 152.434 54.1092V40.1708H149.112V41.4277ZM145.104 52.1656C142.689 52.1656 140.667 50.1968 140.667 47.4867C140.667 44.7515 142.689 42.7554 145.104 42.7554C147.484 42.7554 149.36 44.7515 149.36 47.4867C149.36 50.1968 147.484 52.1656 145.104 52.1656ZM190.794 31.9377H182.412V54.7502H185.907V46.1066H190.794C194.675 46.1066 198.482 43.3713 198.482 39.021C198.482 34.6729 194.666 31.9377 190.794 31.9377ZM190.885 42.9333H185.907V35.1109H190.885C193.495 35.1109 194.985 37.2211 194.985 39.021C194.985 40.7867 193.495 42.9333 190.885 42.9333ZM212.491 39.6552C209.965 39.6552 207.339 40.7411 206.259 43.1478L209.361 44.4139C210.029 43.1478 211.256 42.7372 212.554 42.7372C214.367 42.7372 216.206 43.7979 216.234 45.6708V45.9104C215.602 45.5545 214.248 45.0275 212.582 45.0275C209.242 45.0275 205.838 46.8183 205.838 50.1603C205.838 53.2172 208.574 55.1859 211.65 55.1859C214.002 55.1859 215.3 54.1525 216.115 52.9503H216.234V54.7137H219.61V45.9628C219.61 41.9182 216.508 39.6552 212.491 39.6552ZM212.069 52.1564C210.926 52.1564 209.333 51.6044 209.333 50.2242C209.333 48.4585 211.319 47.781 213.039 47.781C214.578 47.781 215.3 48.1118 216.234 48.5475C215.96 50.6599 214.093 52.1564 212.069 52.1564ZM231.909 40.1548L227.891 50.044H227.771L223.618 40.1548H219.849L226.089 53.9746L222.529 61.6647H226.181L235.797 40.1548H231.909ZM200.403 54.7502H203.907V31.9377H200.403V54.7502Z" fill="white"/>
<path d="M19.5556 13.7579C19.005 14.3191 18.6865 15.1928 18.6865 16.3243V56.6842C18.6865 57.8157 19.005 58.6894 19.5556 59.2506L19.6914 59.3738L42.9159 36.7666V36.2328L19.6914 13.6256L19.5556 13.7579Z" fill="url(#paint0_linear_131_3596)"/>
<path d="M50.6482 44.3069L42.9159 36.7666V36.2328L50.6575 28.694L50.8309 28.7921L59.9998 33.8725C62.6165 35.3142 62.6165 37.6867 59.9998 39.1376L50.8309 44.2088L50.6482 44.3069Z" fill="url(#paint1_linear_131_3596)"/>
<path d="M50.8309 44.2088L42.9161 36.5L19.5556 59.2506C20.4247 60.1403 21.8422 60.2478 23.4539 59.3581L50.8309 44.2088Z" fill="url(#paint2_linear_131_3596)"/>
<path d="M50.8309 28.7921L23.4539 13.6419C21.8422 12.7613 20.4247 12.8682 19.5556 13.7579L42.9161 36.5L50.8309 28.7921Z" fill="url(#paint3_linear_131_3596)"/>
<defs>
<linearGradient id="paint0_linear_131_3596" x1="231.468" y1="3.6211" x2="217.238" y2="99.2486" gradientUnits="userSpaceOnUse">
<stop stop-color="#00A0FF"/>
<stop offset="0.0066" stop-color="#00A1FF"/>
<stop offset="0.2601" stop-color="#00BEFF"/>
<stop offset="0.5122" stop-color="#00D2FF"/>
<stop offset="0.7604" stop-color="#00DFFF"/>
<stop offset="1" stop-color="#00E3FF"/>
</linearGradient>
<linearGradient id="paint1_linear_131_3596" x1="272.192" y1="36.5119" x2="-330.145" y2="36.5119" gradientUnits="userSpaceOnUse">
<stop stop-color="#FFE000"/>
<stop offset="0.4087" stop-color="#FFBD00"/>
<stop offset="0.7754" stop-color="#FFA500"/>
<stop offset="1" stop-color="#FF9C00"/>
</linearGradient>
<linearGradient id="paint2_linear_131_3596" x1="218.181" y1="86.0312" x2="133.361" y2="312.601" gradientUnits="userSpaceOnUse">
<stop stop-color="#FF3A44"/>
<stop offset="1" stop-color="#C31162"/>
</linearGradient>
<linearGradient id="paint3_linear_131_3596" x1="-47.5673" y1="-112.545" x2="-9.66889" y2="-11.3462" gradientUnits="userSpaceOnUse">
<stop stop-color="#32A071"/>
<stop offset="0.0685" stop-color="#2DA771"/>
<stop offset="0.4762" stop-color="#15CF74"/>
<stop offset="0.8009" stop-color="#06E775"/>
<stop offset="1" stop-color="#00F076"/>
</linearGradient>
</defs>
</svg>
