<svg width="189" height="241" viewBox="0 0 189 241" fill="none" xmlns="http://www.w3.org/2000/svg">
<g opacity="0.5">
<ellipse cx="15.5136" cy="3.54412" rx="3.54054" ry="3.54412" fill="#9D80F8" fill-opacity="0.35"/>
<ellipse cx="15.5136" cy="24.8088" rx="3.54054" ry="3.54412" fill="#9D80F8" fill-opacity="0.35"/>
<ellipse cx="15.5134" cy="46.0734" rx="3.54054" ry="3.54412" fill="#9D80F8" fill-opacity="0.35"/>
<ellipse cx="15.5136" cy="67.3383" rx="3.54054" ry="3.54412" fill="#9D80F8" fill-opacity="0.35"/>
<ellipse cx="15.5136" cy="88.603" rx="3.54054" ry="3.54412" fill="#9D80F8" fill-opacity="0.35"/>
<ellipse cx="15.5136" cy="109.868" rx="3.54054" ry="3.54411" fill="#9D80F8" fill-opacity="0.35"/>
<ellipse cx="15.5136" cy="131.132" rx="3.54054" ry="3.54412" fill="#9D80F8" fill-opacity="0.35"/>
<ellipse cx="15.5136" cy="152.397" rx="3.54054" ry="3.54412" fill="#9D80F8" fill-opacity="0.35"/>
<ellipse cx="15.5136" cy="173.662" rx="3.54054" ry="3.54411" fill="#9D80F8" fill-opacity="0.35"/>
<ellipse cx="15.5136" cy="194.926" rx="3.54054" ry="3.54412" fill="#9D80F8" fill-opacity="0.35"/>
<ellipse cx="15.5136" cy="216.191" rx="3.54054" ry="3.54411" fill="#9D80F8" fill-opacity="0.35"/>
<ellipse cx="15.5134" cy="237.456" rx="3.54054" ry="3.54413" fill="#9D80F8" fill-opacity="0.35"/>
<ellipse cx="36.7567" cy="3.54412" rx="3.54054" ry="3.54412" fill="#9D80F8" fill-opacity="0.35"/>
<ellipse cx="36.7567" cy="24.8088" rx="3.54054" ry="3.54412" fill="#9D80F8" fill-opacity="0.35"/>
<ellipse cx="36.7567" cy="46.0734" rx="3.54054" ry="3.54412" fill="#9D80F8" fill-opacity="0.35"/>
<ellipse cx="36.7567" cy="67.3383" rx="3.54054" ry="3.54412" fill="#9D80F8" fill-opacity="0.35"/>
<ellipse cx="36.7567" cy="88.603" rx="3.54054" ry="3.54412" fill="#9D80F8" fill-opacity="0.35"/>
<ellipse cx="36.7567" cy="109.868" rx="3.54054" ry="3.54411" fill="#9D80F8" fill-opacity="0.35"/>
<ellipse cx="36.7567" cy="131.132" rx="3.54054" ry="3.54412" fill="#9D80F8" fill-opacity="0.35"/>
<ellipse cx="36.7567" cy="152.397" rx="3.54054" ry="3.54412" fill="#9D80F8" fill-opacity="0.35"/>
<ellipse cx="36.7567" cy="173.662" rx="3.54054" ry="3.54411" fill="#9D80F8" fill-opacity="0.35"/>
<ellipse cx="36.7567" cy="194.926" rx="3.54054" ry="3.54412" fill="#9D80F8" fill-opacity="0.35"/>
<ellipse cx="36.7567" cy="216.191" rx="3.54054" ry="3.54411" fill="#9D80F8" fill-opacity="0.35"/>
<ellipse cx="36.7567" cy="237.456" rx="3.54054" ry="3.54413" fill="#9D80F8" fill-opacity="0.35"/>
<ellipse cx="58" cy="3.54412" rx="3.54054" ry="3.54412" fill="#9D80F8" fill-opacity="0.35"/>
<ellipse cx="58" cy="24.8088" rx="3.54054" ry="3.54412" fill="#9D80F8" fill-opacity="0.35"/>
<ellipse cx="58" cy="46.0734" rx="3.54054" ry="3.54412" fill="#9D80F8" fill-opacity="0.35"/>
<ellipse cx="58" cy="67.3383" rx="3.54054" ry="3.54412" fill="#9D80F8" fill-opacity="0.35"/>
<ellipse cx="58" cy="88.603" rx="3.54054" ry="3.54412" fill="#9D80F8" fill-opacity="0.35"/>
<ellipse cx="58" cy="109.868" rx="3.54054" ry="3.54411" fill="#9D80F8" fill-opacity="0.35"/>
<ellipse cx="58" cy="131.132" rx="3.54054" ry="3.54412" fill="#9D80F8" fill-opacity="0.35"/>
<ellipse cx="58" cy="152.397" rx="3.54054" ry="3.54412" fill="#9D80F8" fill-opacity="0.35"/>
<ellipse cx="58" cy="173.662" rx="3.54054" ry="3.54411" fill="#9D80F8" fill-opacity="0.35"/>
<ellipse cx="58" cy="194.926" rx="3.54054" ry="3.54412" fill="#9D80F8" fill-opacity="0.35"/>
<ellipse cx="58" cy="216.191" rx="3.54054" ry="3.54411" fill="#9D80F8" fill-opacity="0.35"/>
<ellipse cx="58" cy="237.456" rx="3.54054" ry="3.54413" fill="#9D80F8" fill-opacity="0.35"/>
<ellipse cx="79.2433" cy="3.54412" rx="3.54053" ry="3.54412" fill="#9D80F8" fill-opacity="0.35"/>
<ellipse cx="100.486" cy="3.54412" rx="3.54053" ry="3.54412" fill="#9D80F8" fill-opacity="0.35"/>
<ellipse cx="121.73" cy="3.54412" rx="3.54055" ry="3.54412" fill="#9D80F8" fill-opacity="0.35"/>
<ellipse cx="142.973" cy="3.54412" rx="3.54053" ry="3.54412" fill="#9D80F8" fill-opacity="0.35"/>
<ellipse cx="164.216" cy="3.54412" rx="3.54055" ry="3.54412" fill="#9D80F8" fill-opacity="0.35"/>
<ellipse cx="185.459" cy="3.54412" rx="3.54054" ry="3.54412" fill="#9D80F8" fill-opacity="0.35"/>
<ellipse cx="79.2433" cy="24.8088" rx="3.54053" ry="3.54412" fill="#9D80F8" fill-opacity="0.35"/>
<ellipse cx="100.486" cy="24.8088" rx="3.54053" ry="3.54412" fill="#9D80F8" fill-opacity="0.35"/>
<ellipse cx="121.73" cy="24.8088" rx="3.54055" ry="3.54412" fill="#9D80F8" fill-opacity="0.35"/>
<ellipse cx="142.973" cy="24.8088" rx="3.54053" ry="3.54412" fill="#9D80F8" fill-opacity="0.35"/>
<ellipse cx="164.216" cy="24.8088" rx="3.54055" ry="3.54412" fill="#9D80F8" fill-opacity="0.35"/>
<ellipse cx="185.459" cy="24.8088" rx="3.54054" ry="3.54412" fill="#9D80F8" fill-opacity="0.35"/>
<ellipse cx="79.2432" cy="46.0734" rx="3.54053" ry="3.54412" fill="#9D80F8" fill-opacity="0.35"/>
<ellipse cx="100.486" cy="46.0734" rx="3.54053" ry="3.54412" fill="#9D80F8" fill-opacity="0.35"/>
<ellipse cx="121.73" cy="46.0734" rx="3.54055" ry="3.54412" fill="#9D80F8" fill-opacity="0.35"/>
<ellipse cx="142.973" cy="46.0734" rx="3.54053" ry="3.54412" fill="#9D80F8" fill-opacity="0.35"/>
<ellipse cx="164.216" cy="46.0734" rx="3.54055" ry="3.54412" fill="#9D80F8" fill-opacity="0.35"/>
<ellipse cx="185.459" cy="46.0734" rx="3.54054" ry="3.54412" fill="#9D80F8" fill-opacity="0.35"/>
<ellipse cx="79.2433" cy="67.3383" rx="3.54053" ry="3.54412" fill="#9D80F8" fill-opacity="0.35"/>
<ellipse cx="100.486" cy="67.3383" rx="3.54053" ry="3.54412" fill="#9D80F8" fill-opacity="0.35"/>
<ellipse cx="121.73" cy="67.3383" rx="3.54055" ry="3.54412" fill="#9D80F8" fill-opacity="0.35"/>
<ellipse cx="142.973" cy="67.3383" rx="3.54053" ry="3.54412" fill="#9D80F8" fill-opacity="0.35"/>
<ellipse cx="164.216" cy="67.3383" rx="3.54055" ry="3.54412" fill="#9D80F8" fill-opacity="0.35"/>
<ellipse cx="185.459" cy="67.3383" rx="3.54054" ry="3.54412" fill="#9D80F8" fill-opacity="0.35"/>
<ellipse cx="79.2433" cy="88.603" rx="3.54053" ry="3.54412" fill="#9D80F8" fill-opacity="0.35"/>
<ellipse cx="100.486" cy="88.603" rx="3.54053" ry="3.54412" fill="#9D80F8" fill-opacity="0.35"/>
<ellipse cx="121.73" cy="88.603" rx="3.54055" ry="3.54412" fill="#9D80F8" fill-opacity="0.35"/>
<ellipse cx="142.973" cy="88.603" rx="3.54053" ry="3.54412" fill="#9D80F8" fill-opacity="0.35"/>
<ellipse cx="164.216" cy="88.603" rx="3.54055" ry="3.54412" fill="#9D80F8" fill-opacity="0.35"/>
<ellipse cx="185.459" cy="88.603" rx="3.54054" ry="3.54412" fill="#9D80F8" fill-opacity="0.35"/>
<ellipse cx="79.2433" cy="109.868" rx="3.54053" ry="3.54411" fill="#9D80F8" fill-opacity="0.35"/>
<ellipse cx="100.486" cy="109.868" rx="3.54053" ry="3.54411" fill="#9D80F8" fill-opacity="0.35"/>
<ellipse cx="121.73" cy="109.868" rx="3.54055" ry="3.54411" fill="#9D80F8" fill-opacity="0.35"/>
<ellipse cx="142.973" cy="109.868" rx="3.54053" ry="3.54411" fill="#9D80F8" fill-opacity="0.35"/>
<ellipse cx="164.216" cy="109.868" rx="3.54055" ry="3.54411" fill="#9D80F8" fill-opacity="0.35"/>
<ellipse cx="185.459" cy="109.868" rx="3.54054" ry="3.54411" fill="#9D80F8" fill-opacity="0.35"/>
<ellipse cx="79.2433" cy="131.132" rx="3.54053" ry="3.54412" fill="#9D80F8" fill-opacity="0.35"/>
<ellipse cx="100.486" cy="131.132" rx="3.54053" ry="3.54412" fill="#9D80F8" fill-opacity="0.35"/>
<ellipse cx="121.73" cy="131.132" rx="3.54055" ry="3.54412" fill="#9D80F8" fill-opacity="0.35"/>
<ellipse cx="142.973" cy="131.132" rx="3.54053" ry="3.54412" fill="#9D80F8" fill-opacity="0.35"/>
<ellipse cx="164.216" cy="131.132" rx="3.54055" ry="3.54412" fill="#9D80F8" fill-opacity="0.35"/>
<ellipse cx="185.459" cy="131.132" rx="3.54054" ry="3.54412" fill="#9D80F8" fill-opacity="0.35"/>
<ellipse cx="79.2433" cy="152.397" rx="3.54053" ry="3.54412" fill="#9D80F8" fill-opacity="0.35"/>
<ellipse cx="100.486" cy="152.397" rx="3.54053" ry="3.54412" fill="#9D80F8" fill-opacity="0.35"/>
<ellipse cx="121.73" cy="152.397" rx="3.54055" ry="3.54412" fill="#9D80F8" fill-opacity="0.35"/>
<ellipse cx="142.973" cy="152.397" rx="3.54053" ry="3.54412" fill="#9D80F8" fill-opacity="0.35"/>
<ellipse cx="164.216" cy="152.397" rx="3.54055" ry="3.54412" fill="#9D80F8" fill-opacity="0.35"/>
<ellipse cx="185.459" cy="152.397" rx="3.54054" ry="3.54412" fill="#9D80F8" fill-opacity="0.35"/>
<ellipse cx="79.2433" cy="173.662" rx="3.54053" ry="3.54411" fill="#9D80F8" fill-opacity="0.35"/>
<ellipse cx="100.486" cy="173.662" rx="3.54053" ry="3.54411" fill="#9D80F8" fill-opacity="0.35"/>
<ellipse cx="121.73" cy="173.662" rx="3.54055" ry="3.54411" fill="#9D80F8" fill-opacity="0.35"/>
<ellipse cx="142.973" cy="173.662" rx="3.54053" ry="3.54411" fill="#9D80F8" fill-opacity="0.35"/>
<ellipse cx="164.216" cy="173.662" rx="3.54055" ry="3.54411" fill="#9D80F8" fill-opacity="0.35"/>
<ellipse cx="185.459" cy="173.662" rx="3.54054" ry="3.54411" fill="#9D80F8" fill-opacity="0.35"/>
<ellipse cx="79.2433" cy="194.926" rx="3.54053" ry="3.54412" fill="#9D80F8" fill-opacity="0.35"/>
<ellipse cx="100.486" cy="194.926" rx="3.54053" ry="3.54412" fill="#9D80F8" fill-opacity="0.35"/>
<ellipse cx="121.73" cy="194.926" rx="3.54055" ry="3.54412" fill="#9D80F8" fill-opacity="0.35"/>
<ellipse cx="142.973" cy="194.926" rx="3.54053" ry="3.54412" fill="#9D80F8" fill-opacity="0.35"/>
<ellipse cx="164.216" cy="194.926" rx="3.54055" ry="3.54412" fill="#9D80F8" fill-opacity="0.35"/>
<ellipse cx="185.459" cy="194.926" rx="3.54054" ry="3.54412" fill="#9D80F8" fill-opacity="0.35"/>
<ellipse cx="79.2433" cy="216.191" rx="3.54053" ry="3.54411" fill="#9D80F8" fill-opacity="0.35"/>
<ellipse cx="100.486" cy="216.191" rx="3.54053" ry="3.54411" fill="#9D80F8" fill-opacity="0.35"/>
<ellipse cx="121.73" cy="216.191" rx="3.54055" ry="3.54411" fill="#9D80F8" fill-opacity="0.35"/>
<ellipse cx="142.973" cy="216.191" rx="3.54053" ry="3.54411" fill="#9D80F8" fill-opacity="0.35"/>
<ellipse cx="164.216" cy="216.191" rx="3.54055" ry="3.54411" fill="#9D80F8" fill-opacity="0.35"/>
<ellipse cx="185.459" cy="216.191" rx="3.54054" ry="3.54411" fill="#9D80F8" fill-opacity="0.35"/>
<ellipse cx="79.2432" cy="237.456" rx="3.54053" ry="3.54413" fill="#9D80F8" fill-opacity="0.35"/>
<ellipse cx="100.486" cy="237.456" rx="3.54053" ry="3.54413" fill="#9D80F8" fill-opacity="0.35"/>
<ellipse cx="121.73" cy="237.456" rx="3.54055" ry="3.54413" fill="#9D80F8" fill-opacity="0.35"/>
<ellipse cx="142.973" cy="237.456" rx="3.54053" ry="3.54413" fill="#9D80F8" fill-opacity="0.35"/>
<ellipse cx="164.216" cy="237.456" rx="3.54055" ry="3.54413" fill="#9D80F8" fill-opacity="0.35"/>
<ellipse cx="185.459" cy="237.456" rx="3.54054" ry="3.54413" fill="#9D80F8" fill-opacity="0.35"/>
</g>
</svg>
