<svg width="110" height="135" viewBox="0 0 110 135" fill="none" xmlns="http://www.w3.org/2000/svg">
<g clip-path="url(#clip0_187_5517)">
<path d="M104.536 64.6985H14.1626C11.145 64.6985 8.69873 67.1389 8.69873 70.1493V129.549C8.69873 132.56 11.145 135 14.1626 135H104.536C107.554 135 110 132.56 110 129.549V70.1493C110 67.1389 107.554 64.6985 104.536 64.6985Z" fill="#CABFEC"/>
<path fill-rule="evenodd" clip-rule="evenodd" d="M50.7554 17.4817C50.7554 16.127 51.8562 15.0289 53.2141 15.0289C56.4287 15.0289 59.6117 15.6605 62.5816 16.8877C65.5514 18.1149 68.2499 19.9136 70.5229 22.1812C72.7959 24.4487 74.599 27.1407 75.8292 30.1034C77.0593 33.0661 77.6925 36.2415 77.6925 39.4484V56.3267C77.6925 57.6814 76.5916 58.7795 75.2337 58.7795C73.8758 58.7795 72.7749 57.6814 72.7749 56.3267V39.4484C72.7749 36.8858 72.269 34.3483 71.286 31.9808C70.3029 29.6132 68.8621 27.4621 67.0457 25.65C65.2293 23.838 63.0729 22.4006 60.6997 21.42C58.3265 20.4393 55.7829 19.9346 53.2141 19.9346C51.8562 19.9346 50.7554 18.8364 50.7554 17.4817Z" fill="#403E5B"/>
<path fill-rule="evenodd" clip-rule="evenodd" d="M37.1634 22.1812C41.754 17.6016 47.9802 15.0289 54.4722 15.0289C55.8302 15.0289 56.931 16.127 56.931 17.4817C56.931 18.8364 55.8302 19.9346 54.4722 19.9346C49.2844 19.9346 44.309 21.9905 40.6407 25.65C36.9723 29.3096 34.9114 34.273 34.9114 39.4484L34.8907 56.4578C34.889 57.8125 33.7868 58.9093 32.4289 58.9076C31.071 58.906 29.9715 57.8065 29.9731 56.4518L29.9939 39.4484C29.9939 39.4479 29.9939 39.4473 29.9939 39.4468C29.9943 32.9709 32.5732 26.7604 37.1634 22.1812Z" fill="#403E5B"/>
<path fill-rule="evenodd" clip-rule="evenodd" d="M51.3848 2.45285C51.3848 1.09818 52.4856 0 53.8435 0C75.4992 0 93.0056 17.7078 93.0056 39.492V57.624C93.0056 58.9787 91.9047 60.0769 90.5468 60.0769C89.1889 60.0769 88.088 58.9787 88.088 57.624V39.492C88.088 20.3637 72.7301 4.9057 53.8435 4.9057C52.4856 4.9057 51.3848 3.80752 51.3848 2.45285Z" fill="#403E5B"/>
<path fill-rule="evenodd" clip-rule="evenodd" d="M50.5443 0.138396C51.7711 0.0412093 52.7998 0 53.8437 0C55.2016 0 56.3024 1.09818 56.3024 2.45285C56.3024 3.80752 55.2016 4.9057 53.8437 4.9057C52.9418 4.9057 52.0432 4.94077 50.9321 5.02882L50.9306 5.02894C33.5282 6.39671 19.5992 21.2747 19.5992 39.492V57.5782C19.5992 58.9329 18.4983 60.0311 17.1404 60.0311C15.7825 60.0311 14.6816 58.9329 14.6816 57.5782V39.492C14.6816 18.7608 30.5378 1.71168 50.5427 0.138522" fill="#403E5B"/>
<path fill-rule="evenodd" clip-rule="evenodd" d="M71.7254 93.9572C71.7254 92.6026 72.8263 91.5044 74.1842 91.5044H105.228C106.586 91.5044 107.687 92.6026 107.687 93.9572V122.255C107.687 123.539 107.434 124.81 106.941 125.996C106.449 127.182 105.727 128.26 104.817 129.168C103.907 130.075 102.827 130.795 101.638 131.287C100.449 131.778 99.1746 132.031 97.8877 132.031H51.6751C50.3171 132.031 49.2163 130.933 49.2163 129.578C49.2163 128.223 50.3171 127.125 51.6751 127.125H97.8877C98.5288 127.125 99.1637 126.999 99.756 126.755C100.348 126.51 100.886 126.151 101.34 125.699C101.793 125.247 102.153 124.71 102.398 124.119C102.643 123.528 102.77 122.895 102.77 122.255V96.4101H74.1842C72.8263 96.4101 71.7254 95.3119 71.7254 93.9572Z" fill="#403E5B"/>
<path fill-rule="evenodd" clip-rule="evenodd" d="M2.45876 102.566C3.81669 102.566 4.91752 103.664 4.91752 105.019V122.255C4.91752 123.547 5.43187 124.785 6.34742 125.699C7.26298 126.612 8.50474 127.125 9.79952 127.125H39.0281L48.2555 111.851C48.9564 110.69 50.4675 110.317 51.6305 111.016C52.7936 111.715 53.1682 113.223 52.4673 114.383L42.523 130.844C42.0781 131.581 41.2791 132.031 40.4171 132.031H9.79952C7.20053 132.031 4.70798 131.001 2.87021 129.168C1.03245 127.334 0 124.848 0 122.255V105.019C0 103.664 1.10082 102.566 2.45876 102.566Z" fill="#403E5B"/>
<path fill-rule="evenodd" clip-rule="evenodd" d="M95.3541 57.802C95.3641 56.4474 96.4731 55.3574 97.831 55.3674C100.154 55.3846 102.053 55.9586 103.553 56.9516C105.044 57.9387 105.988 59.2378 106.577 60.4697C107.16 61.688 107.412 62.8723 107.524 63.729C107.58 64.1635 107.603 64.5308 107.611 64.7994C107.615 64.9341 107.616 65.0453 107.615 65.1292C107.615 65.1671 107.614 65.1996 107.613 65.2262V82.6371C107.613 83.9917 106.513 85.0899 105.155 85.0899C103.797 85.0899 102.696 83.9917 102.696 82.6371V65.1886C102.696 65.1586 102.696 65.1285 102.698 65.0985C102.698 65.0959 102.698 65.0909 102.698 65.0837C102.698 65.0604 102.698 65.0145 102.696 64.9492C102.692 64.8177 102.68 64.6133 102.647 64.3615C102.58 63.8455 102.434 63.1983 102.139 62.5816C101.851 61.9785 101.438 61.4391 100.834 61.0393C100.239 60.6454 99.3038 60.2842 97.7945 60.273C96.4366 60.263 95.344 59.1567 95.3541 57.802ZM102.698 65.0838C102.698 65.0834 102.698 65.0831 102.698 65.0828C102.698 65.0828 102.698 65.0828 102.698 65.0829L102.698 65.0838ZM105.155 65.1886C102.712 65.081 102.698 65.0816 102.698 65.0828C102.698 65.082 102.698 65.0812 102.698 65.0804L105.155 65.1886Z" fill="#403E5B"/>
<path fill-rule="evenodd" clip-rule="evenodd" d="M2.87021 58.2225C4.70798 56.3892 7.20053 55.3592 9.79953 55.3592H57.0766C58.4345 55.3592 59.5353 56.4574 59.5353 57.812C59.5353 59.1667 58.4345 60.2649 57.0766 60.2649H9.79953C8.50474 60.2649 7.26298 60.778 6.34743 61.6914C5.43212 62.6045 4.9178 63.8428 4.91752 65.1341C4.91752 65.1345 4.91752 65.1348 4.91752 65.1352L4.94401 91.4559H32.2486C33.6065 91.4559 34.7073 92.5541 34.7073 93.9087C34.7073 95.2634 33.6065 96.3616 32.2486 96.3616H2.48772C1.13075 96.3616 0.0303224 95.2649 0.02896 93.9112L0 65.1352C0 62.5424 1.03245 60.0559 2.87021 58.2225Z" fill="#403E5B"/>
<path fill-rule="evenodd" clip-rule="evenodd" d="M99.9225 57.8352C99.9226 59.1898 98.8217 60.288 97.4638 60.288L68.9304 60.2881L59.58 76.528C58.9037 77.7027 57.4009 78.108 56.2233 77.4332C55.0458 76.7585 54.6395 75.2593 55.3159 74.0846L65.3751 56.6135C65.8136 55.852 66.6268 55.3824 67.5072 55.3824L97.4638 55.3823C98.8217 55.3823 99.9225 56.4805 99.9225 57.8352Z" fill="#403E5B"/>
<path fill-rule="evenodd" clip-rule="evenodd" d="M49.5497 74.5789C49.9896 73.8223 50.8 73.3566 51.6767 73.3566H56.8581C57.7351 73.3566 58.5457 73.8226 58.9855 74.5796L61.5759 79.0388C62.0182 79.8002 62.0178 80.7395 61.5748 81.5005L58.9852 85.9535C58.5454 86.7101 57.7351 87.1758 56.8584 87.1759L51.677 87.1765C50.8001 87.1766 49.9896 86.7108 49.5497 85.9541L46.9587 81.497C46.5164 80.736 46.5164 79.797 46.9587 79.036L49.5497 74.5789ZM53.0931 78.2623L51.928 80.2665L53.093 82.2706L55.4416 82.2704L56.606 80.2674L55.4412 78.2623H53.0931Z" fill="#403E5B"/>
<path fill-rule="evenodd" clip-rule="evenodd" d="M33.6484 88.2784C34.0882 87.5218 34.8986 87.056 35.7753 87.056H40.9568C41.8338 87.056 42.6444 87.522 43.0841 88.279L45.6746 92.7383C46.1168 93.4996 46.1164 94.439 45.6734 95.1999L43.0838 99.653C42.644 100.41 41.8337 100.875 40.957 100.875L35.7756 100.876C34.8988 100.876 34.0882 100.41 33.6484 99.6536L31.0574 95.1965C30.615 94.4355 30.615 93.4965 31.0574 92.7355L33.6484 88.2784ZM37.1917 91.9617L36.0266 93.966L37.1917 95.9701L39.5402 95.9698L40.7047 93.9669L39.5399 91.9617H37.1917Z" fill="#403E5B"/>
<path fill-rule="evenodd" clip-rule="evenodd" d="M64.0048 88.2784C64.4446 87.5218 65.255 87.056 66.1318 87.056H71.3132C72.1902 87.056 73.0008 87.522 73.4405 88.279L76.031 92.7383C76.4733 93.4996 76.4728 94.439 76.0299 95.1999L73.4402 99.653C73.0005 100.41 72.1901 100.875 71.3135 100.875L66.132 100.876C65.2552 100.876 64.4447 100.41 64.0048 99.6536L61.4138 95.1965C60.9714 94.4355 60.9714 93.4965 61.4138 92.7355L64.0048 88.2784ZM67.5482 91.9617L66.3831 93.966L67.5481 95.9701L69.8966 95.9698L71.0611 93.9669L69.8963 91.9617H67.5482Z" fill="#403E5B"/>
<path fill-rule="evenodd" clip-rule="evenodd" d="M48.1044 102.699C48.5442 101.942 49.3546 101.477 50.2314 101.477H55.4128C56.2898 101.477 57.1004 101.943 57.5402 102.7L60.1306 107.159C60.5729 107.92 60.5724 108.86 60.1295 109.62L57.5398 114.073C57.1001 114.83 56.2898 115.296 55.4131 115.296L50.2316 115.296C49.3548 115.297 48.5443 114.831 48.1044 114.074L45.5134 109.617C45.071 108.856 45.071 107.917 45.5134 107.156L48.1044 102.699ZM51.6478 106.382L50.4827 108.387L51.6477 110.391L53.9962 110.39L55.1607 108.387L53.9959 106.382H51.6478Z" fill="#403E5B"/>
</g>
<defs>
<clipPath id="clip0_187_5517">
<rect width="110" height="135" fill="white"/>
</clipPath>
</defs>
</svg>
