<svg width="30" height="30" viewBox="0 0 30 30" fill="none" xmlns="http://www.w3.org/2000/svg">
<path fill-rule="evenodd" clip-rule="evenodd" d="M14.9351 0.116005C6.692 0.116005 0.00976562 6.79824 0.00976562 15.0414C0.00976562 23.2845 6.692 29.9668 14.9351 29.9668C23.1783 29.9668 29.8605 23.2845 29.8605 15.0414C29.8605 6.79824 23.1783 0.116005 14.9351 0.116005Z" fill="#3D3E3C"/>
<path fill-rule="evenodd" clip-rule="evenodd" d="M14.9351 1.35981C22.4791 1.35981 28.6167 7.49742 28.6167 15.0414C28.6167 22.5853 22.4791 28.7229 14.9351 28.7229C7.39103 28.7229 1.25342 22.5853 1.25342 15.0414C1.25342 7.49742 7.39103 1.35981 14.9351 1.35981Z" fill="white"/>
<path fill-rule="evenodd" clip-rule="evenodd" d="M24.3407 9.49538C24.01 8.93523 23.6219 8.40001 23.1824 7.89389L7.7876 23.2887C8.29372 23.7281 8.82894 24.1163 9.38909 24.447L24.3407 9.49538Z" fill="#B6B7BA"/>
<path fill-rule="evenodd" clip-rule="evenodd" d="M21.9164 6.65117C21.3999 6.22027 20.8525 5.8455 20.2828 5.52505L5.41895 20.3888C5.73939 20.9586 6.11417 21.5058 6.54522 22.0224L21.9164 6.65117Z" fill="#B6B7BA"/>
<path fill-rule="evenodd" clip-rule="evenodd" d="M18.5576 4.74111C17.83 4.48589 17.0806 4.3123 16.323 4.21589L4.10986 16.4292C4.20643 17.1865 4.37971 17.936 4.63509 18.6637L18.5576 4.74111Z" fill="#B6B7BA"/>
<path fill-rule="evenodd" clip-rule="evenodd" d="M13.8501 4.17959C11.4282 4.42004 9.07131 5.46705 7.21608 7.32228C5.36085 9.1775 4.31369 11.5345 4.07324 13.9565L13.8501 4.17959Z" fill="#B6B7BA"/>
<path fill-rule="evenodd" clip-rule="evenodd" d="M25.7236 13.3816C25.6099 12.6386 25.4181 11.9058 25.1508 11.1946L11.0884 25.2568C11.7996 25.5241 12.5324 25.7161 13.2754 25.8297L25.7236 13.3816Z" fill="#B6B7BA"/>
<path fill-rule="evenodd" clip-rule="evenodd" d="M25.823 15.7911L15.6851 25.9291C18.2237 25.7553 20.7137 24.7011 22.6543 22.7604C24.5951 20.8197 25.6492 18.3299 25.823 15.7911Z" fill="#B6B7BA"/>
<path fill-rule="evenodd" clip-rule="evenodd" d="M13.7249 18.8576L14.3642 14.2627L18.3992 11.3585V8.57239L14.795 11.1657L15.534 5.85418H11.1241L10.178 14.4876L7.37012 16.5079V19.2963L9.84639 17.5142L9.31504 22.3628H13.7249H23.7437V18.8576H13.7249Z" fill="#F8F9F7"/>
<path fill-rule="evenodd" clip-rule="evenodd" d="M9.68959 22.0272H23.4082V19.1932H13.3393L14.0517 14.0742L18.0639 11.1866V9.22736L14.3547 11.896L15.1485 6.18975H11.4253L10.4956 14.6727L7.70586 16.68V18.6412L10.2623 16.8014L9.68959 22.0272ZM24.0793 22.6984H8.94079L9.43094 18.2269L7.03467 19.9512V16.336L9.86079 14.3026L10.8235 5.51856H15.9197L15.2353 10.4354L18.735 7.91766V11.5303L14.6766 14.4511L14.1106 18.5221H24.0793V22.6984Z" fill="#3D3E3C"/>
</svg>
