<svg width="548" height="406" viewBox="0 0 548 406" fill="none" xmlns="http://www.w3.org/2000/svg">
<path d="M35.9754 358.524C-7.83519 365.953 -19.2474 379.739 53.5149 390.309C139.145 402.717 236.646 387.858 295.392 395.671C354.061 403.483 425.139 407.849 464.66 405.245C542.477 400.036 558.332 347.035 496.369 336.465C440.151 326.891 267.206 360.898 225.847 358.983C183.415 356.992 89.4365 349.486 35.9754 358.524Z" fill="#4E49B3"/>
<path d="M146.498 44.882C146.268 44.882 146.115 44.8054 145.961 44.6522L139.834 38.5249C139.528 38.2185 139.528 37.7589 139.834 37.4526C140.14 37.1462 140.6 37.1462 140.906 37.4526L146.191 42.7374L150.097 33.4698C150.174 33.24 150.404 33.0868 150.633 33.0102C150.863 32.9336 151.17 33.0102 151.323 33.1634L156.071 37.6057L161.127 26.8829C161.203 26.6531 161.433 26.4999 161.739 26.4233C161.969 26.4233 162.275 26.4999 162.429 26.6531L167.024 32.0145C167.331 32.3209 167.254 32.8571 166.948 33.0868C166.641 33.3932 166.105 33.3166 165.875 33.0102L162.046 28.5679L157.067 39.2142C156.991 39.444 156.761 39.5971 156.531 39.6737C156.301 39.7503 156.071 39.6737 155.842 39.444L151.17 35.0016L147.263 44.3458C147.187 44.5756 146.957 44.7288 146.727 44.8054C146.651 44.882 146.574 44.882 146.498 44.882Z" fill="#2E3433"/>
<path d="M429.887 87.2396C429.811 87.0864 429.734 86.8566 429.811 86.6269L432.108 78.2784C432.185 77.8954 432.644 77.6656 433.027 77.7422C433.41 77.8188 433.64 78.2784 433.564 78.6613L431.572 85.9375L441.529 84.7121C441.759 84.7121 442.065 84.7887 442.218 84.9418C442.372 85.095 442.448 85.4014 442.372 85.6312L440.84 91.9117L452.635 90.9926C452.865 90.9926 453.171 91.0692 453.324 91.299C453.477 91.5288 453.554 91.7585 453.401 91.9883L451.026 98.6518C450.873 99.0348 450.414 99.2645 450.031 99.1113C449.648 98.9582 449.418 98.4986 449.571 98.1156L451.563 92.601L439.844 93.5201C439.614 93.5201 439.385 93.4436 439.231 93.2904C439.078 93.1372 439.002 92.8308 439.078 92.601L440.61 86.3205L430.576 87.546C430.347 87.546 430.04 87.4694 429.887 87.3162C429.964 87.3162 429.964 87.2396 429.887 87.2396Z" fill="white"/>
<path d="M384.775 119.483C381.788 119.483 379.414 117.108 379.414 114.121C379.414 111.134 381.788 108.76 384.775 108.76C387.762 108.76 390.136 111.134 390.136 114.121C390.136 117.108 387.762 119.483 384.775 119.483ZM384.775 110.292C382.63 110.292 380.945 111.977 380.945 114.121C380.945 116.266 382.63 117.951 384.775 117.951C386.92 117.951 388.605 116.266 388.605 114.121C388.605 112.053 386.92 110.292 384.775 110.292Z" fill="white"/>
<path d="M81.0116 131.048C78.0245 131.048 75.6501 128.674 75.6501 125.687C75.6501 122.7 78.0245 120.325 81.0116 120.325C83.9987 120.325 86.373 122.7 86.373 125.687C86.373 128.674 83.9987 131.048 81.0116 131.048ZM81.0116 121.857C78.867 121.857 77.182 123.542 77.182 125.687C77.182 127.831 78.867 129.516 81.0116 129.516C83.1562 129.516 84.8412 127.831 84.8412 125.687C84.8412 123.619 83.1562 121.857 81.0116 121.857Z" fill="white"/>
<path d="M18.3593 79.2713L14.2233 76.5905L18.3593 73.9864C18.7423 73.7566 18.8189 73.2971 18.5891 72.9141C18.3593 72.5312 17.8998 72.4546 17.5168 72.6844L12.7681 75.6714L8.01941 72.6078C7.63645 72.378 7.17689 72.4546 6.94712 72.8375C6.71734 73.2205 6.79394 73.6801 7.1769 73.9098L11.3129 76.5905L7.1769 79.1947C6.79394 79.4244 6.71734 79.884 6.94712 80.267C7.1003 80.4967 7.33008 80.6499 7.55986 80.6499C7.71304 80.6499 7.86622 80.6499 7.94282 80.4967L12.6915 77.5096L17.4402 80.5733C17.5934 80.6499 17.7466 80.7265 17.8232 80.7265C18.0529 80.7265 18.2827 80.5733 18.4359 80.3435C18.8189 79.9606 18.7423 79.501 18.3593 79.2713Z" fill="#2E3433"/>
<path d="M316.531 35.0022L312.395 32.3215L316.531 29.7174C316.914 29.4876 316.991 29.028 316.761 28.6451C316.531 28.2621 316.072 28.1855 315.689 28.4153L310.94 31.4024L306.191 28.3387C305.808 28.1089 305.349 28.1855 305.119 28.5685C304.889 28.9515 304.966 29.411 305.349 29.6408L309.485 32.3215L305.349 34.9256C304.966 35.1554 304.889 35.6149 305.119 35.9979C305.272 36.2277 305.502 36.3809 305.732 36.3809C305.885 36.3809 306.038 36.3809 306.115 36.2277L310.863 33.2406L315.612 36.3043C315.765 36.3809 315.918 36.4575 315.995 36.4575C316.225 36.4575 316.455 36.3043 316.608 36.0745C316.991 35.6915 316.838 35.232 316.531 35.0022Z" fill="#2E3433"/>
<path d="M160.667 115.886C160.591 115.886 160.514 115.886 160.514 115.886C145.655 115.656 135.239 96.7378 125.205 78.4324C116.857 63.1906 108.891 48.7913 100.313 49.4806C94.8748 49.9402 83.8455 55.991 62.3232 82.6449C49.3792 98.7292 38.6563 114.814 38.5797 114.967L36.8181 114.354C38.5797 111.75 79.8627 49.6338 100.16 48.102C110.27 47.3361 118.082 61.5056 127.12 77.9728C136.464 94.9762 147.11 114.354 160.591 114.507C160.667 114.507 160.667 114.507 160.744 114.507C166.948 114.507 173.381 108.303 180.275 95.5124C186.555 83.947 192.223 68.7818 197.738 54.0762C206.546 30.639 214.205 10.4188 222.63 7.73808C224.162 7.27853 225.77 7.27853 227.379 7.81467C237.412 10.9549 248.441 32.4773 259.088 53.3102C263.607 62.0417 267.819 70.3136 271.572 76.2878C276.78 84.6363 279.155 85.1725 279.921 85.0193C288.805 83.2577 353.526 31.022 386.46 3.67871L387.915 4.67441C384.009 7.89127 292.099 84.1002 280.457 86.4745C274.866 87.6234 268.279 75.4453 257.25 53.8464C247.216 34.2389 235.88 12.1038 226.613 9.19333C225.464 8.81037 224.392 8.81037 223.396 9.11673C215.813 11.4911 207.924 32.4007 199.652 54.5357C188.164 84.6363 176.369 115.886 160.667 115.886Z" fill="#2E3433"/>
<path d="M374.895 26.1178L373.056 25.5051L386.766 4.13596L364.555 15.1652L363.482 13.9397L391.592 0L374.895 26.1178Z" fill="#2E3433"/>
<path d="M210.835 132.503C210.605 132.503 210.452 132.427 210.299 132.274L204.171 126.146C203.865 125.84 203.865 125.38 204.171 125.074C204.478 124.768 204.937 124.768 205.243 125.074L210.528 130.359L214.434 121.091C214.511 120.861 214.741 120.708 214.971 120.632C215.2 120.555 215.507 120.632 215.66 120.785L220.409 125.227L225.464 114.504C225.54 114.274 225.77 114.121 226.076 114.045C226.306 114.045 226.613 114.121 226.766 114.274L231.361 119.636C231.668 119.942 231.591 120.478 231.285 120.708C230.978 121.015 230.442 120.938 230.212 120.632L226.383 116.189L221.404 126.836C221.328 127.065 221.098 127.218 220.868 127.295C220.638 127.372 220.409 127.295 220.179 127.065L215.507 122.623L211.601 131.967C211.524 132.197 211.294 132.35 211.064 132.427C210.911 132.503 210.911 132.503 210.835 132.503Z" fill="white"/>
<path d="M160.362 123.238C159.903 126.531 158.83 129.671 157.145 132.352C156.303 133.654 155.384 134.956 154.311 136.028C153.239 137.101 152.09 138.096 150.865 139.015C149.256 140.164 147.495 141.083 145.656 141.773C142.746 142.845 139.529 143.381 136.236 143.151C135.7 143.151 135.24 143.075 134.704 142.998C131.564 142.615 128.73 141.62 126.126 140.088C124.67 139.245 123.368 138.25 122.143 137.177C116.858 132.352 113.947 125.076 114.867 117.417C115.173 114.966 115.862 112.744 116.858 110.6C118.237 107.689 120.228 105.085 122.602 103.017C124.058 101.715 125.743 100.643 127.504 99.8005C130.185 98.4984 133.249 97.6559 136.389 97.5027C137.768 97.4261 139.146 97.5027 140.525 97.6559C153.162 99.2643 161.971 110.753 160.362 123.238Z" fill="#FFAF30" stroke="#2E3433" stroke-width="1.5" stroke-miterlimit="10"/>
<path d="M148.507 134.592C156.384 128.599 157.911 117.355 151.917 109.478C145.924 101.6 134.68 100.073 126.803 106.067C118.925 112.06 117.398 123.305 123.392 131.182C129.385 139.059 140.63 140.586 148.507 134.592Z" fill="#FFAF30"/>
<path d="M144.2 121.944C143.511 120.948 142.515 120.259 141.29 119.723V119.493C143.664 118.88 144.889 117.578 145.196 115.51C145.349 114.591 145.196 113.749 144.889 112.983C144.583 112.37 144.123 111.834 143.434 111.374C143.128 111.145 142.821 110.991 142.438 110.838L142.975 106.779L140.447 106.472L139.987 110.149C139.451 110.072 138.839 109.919 138.226 109.842H138.073L138.532 106.243L136.005 105.936L135.545 109.536L131.026 108.923C130.95 108.923 130.873 108.923 130.873 109.077L130.796 109.842C130.796 109.919 130.796 109.996 130.95 109.996L133.554 110.608C133.63 110.608 133.707 110.685 133.707 110.762L131.409 128.378C131.409 128.454 131.333 128.531 131.256 128.531L128.652 128.454C128.575 128.454 128.499 128.454 128.499 128.607L128.422 129.373C128.422 129.45 128.422 129.527 128.575 129.527L133.094 130.139L132.635 134.045L135.162 134.352L135.622 130.446L136.464 130.522C136.847 130.599 137.23 130.599 137.537 130.599L137 134.505L139.528 134.811L140.064 130.522C141.826 130.293 143.128 129.68 144.047 128.684C144.813 127.842 145.272 126.846 145.426 125.697C145.426 124.395 145.043 123.093 144.2 121.944ZM138.762 111.374C139.145 111.451 139.451 111.527 139.758 111.604C140.447 111.834 141.06 112.14 141.519 112.6C141.749 112.83 141.979 113.059 142.132 113.366C142.438 113.978 142.515 114.668 142.438 115.434C142.362 116.276 142.055 116.966 141.596 117.425C141.29 117.808 140.83 118.114 140.294 118.344C139.911 118.497 139.375 118.651 138.839 118.727C138.302 118.804 137.613 118.804 136.924 118.727C136.771 118.727 136.617 118.727 136.464 118.651L135.545 118.497C135.469 118.497 135.392 118.421 135.392 118.344L136.311 111.068C136.311 110.991 136.388 110.915 136.464 110.915L137.613 111.068L137.92 111.145L138.762 111.374ZM140.141 128.684C139.451 128.99 138.532 129.22 137.537 129.144C137.077 129.144 136.617 129.144 136.158 129.067L135.698 128.99L134.243 128.837C134.167 128.837 134.09 128.761 134.09 128.684L135.239 119.953C135.239 119.876 135.315 119.799 135.392 119.799L136.771 119.953H136.847C137.537 120.029 138.149 120.182 138.685 120.336C139.681 120.642 140.524 121.101 141.06 121.714C141.979 122.633 142.362 123.935 142.132 125.62C141.979 127.152 141.29 128.148 140.141 128.684Z" fill="#2E3433"/>
<path d="M192.836 74.6062C193.142 76.5976 192.989 78.5124 192.453 80.274C192.223 81.1931 191.84 82.0356 191.457 82.8015C191.074 83.5675 190.538 84.3334 190.002 85.0227C189.236 85.9418 188.393 86.7077 187.474 87.397C186.019 88.4693 184.257 89.3118 182.342 89.6948C182.036 89.7714 181.73 89.848 181.423 89.848C179.585 90.1544 177.824 90.0012 176.138 89.6182C175.219 89.3884 174.3 89.0055 173.381 88.6225C169.628 86.7077 166.794 83.0313 166.105 78.589C165.875 77.1337 165.875 75.7551 166.105 74.453C166.411 72.5382 167.101 70.7766 168.173 69.2448C168.786 68.2491 169.552 67.4066 170.394 66.6407C171.696 65.4152 173.305 64.4961 175.066 63.8833C175.832 63.6536 176.598 63.4238 177.441 63.2706C184.87 62.1983 191.687 67.2534 192.836 74.6062Z" fill="#FFAF30" stroke="#2E3433" stroke-width="1.5" stroke-miterlimit="10"/>
<path d="M189.925 75.0537C190.767 80.7981 186.784 86.2361 181.04 87.0786C175.296 87.9211 169.858 83.9383 169.015 78.1939C168.173 72.4495 172.155 67.0115 177.9 66.169C183.644 65.2499 189.082 69.2327 189.925 75.0537Z" fill="#FFAF30"/>
<path d="M183.415 76.4329C182.879 75.9734 182.189 75.7436 181.424 75.667V75.5138C182.649 74.8245 183.185 73.8288 182.955 72.6033C182.879 72.0672 182.649 71.6076 182.343 71.2247C182.113 70.9183 181.73 70.6885 181.27 70.5353C181.117 70.4587 180.887 70.3822 180.581 70.3822L180.198 68.0078L178.743 68.2376L179.049 70.3822C178.743 70.3822 178.36 70.4587 177.977 70.5353H177.9L177.594 68.3908L176.139 68.6205L176.445 70.7651L173.764 71.1481C173.688 71.1481 173.688 71.2247 173.688 71.2247L173.764 71.6842C173.764 71.7608 173.841 71.7608 173.841 71.7608L175.373 71.6842C175.449 71.6842 175.449 71.6842 175.449 71.7608L176.981 82.1007C176.981 82.1773 176.981 82.1773 176.905 82.1773L175.373 82.5603C175.296 82.5603 175.296 82.6369 175.296 82.6369L175.373 83.0964C175.373 83.173 175.449 83.173 175.449 83.173L178.13 82.79L178.436 85.0878L179.892 84.858L179.585 82.5603L180.045 82.4837C180.275 82.4837 180.504 82.4071 180.658 82.4071L180.964 84.7048L182.419 84.4751L182.036 81.9475C183.032 81.5646 183.645 81.0284 184.028 80.2625C184.334 79.6498 184.411 79.037 184.334 78.3477C184.487 77.6584 184.104 76.9691 183.415 76.4329ZM178.666 71.3013C178.896 71.3013 179.049 71.3013 179.279 71.3013C179.739 71.3013 180.121 71.3779 180.428 71.6076C180.581 71.6842 180.734 71.8374 180.887 71.9906C181.117 72.297 181.347 72.6799 181.424 73.1395C181.5 73.599 181.424 74.0586 181.27 74.4415C181.117 74.7479 180.964 74.9777 180.658 75.2074C180.428 75.3606 180.198 75.5138 179.892 75.667C179.585 75.8202 179.202 75.8968 178.819 75.9734C178.743 75.9734 178.666 75.9734 178.513 76.05L177.977 76.1265C177.9 76.1265 177.9 76.1266 177.9 76.05L177.288 71.7608C177.288 71.6842 177.288 71.6842 177.364 71.6842L178.053 71.6076H178.207L178.666 71.3013ZM182.189 80.9518C181.883 81.2582 181.347 81.488 180.811 81.6412C180.581 81.7177 180.275 81.7943 179.968 81.7943L179.662 81.8709L178.819 82.0241C178.743 82.0241 178.743 82.0241 178.743 81.9475L177.977 76.8159C177.977 76.7393 177.977 76.7393 178.053 76.7393L178.819 76.5861C178.819 76.5861 178.819 76.5861 178.896 76.5861C179.279 76.5095 179.662 76.5095 180.045 76.5095C180.658 76.5095 181.194 76.6627 181.653 76.8925C182.343 77.2754 182.726 77.9647 182.879 78.9604C182.955 79.7264 182.726 80.4157 182.189 80.9518Z" fill="#2E3433"/>
<path d="M108.814 31.7769C108.048 33.6151 106.899 35.1469 105.52 36.449C104.831 37.0617 104.065 37.5979 103.299 38.134C102.533 38.5936 101.691 38.9765 100.925 39.2829C99.8526 39.6658 98.7037 39.8956 97.5548 40.0488C95.7166 40.202 93.8018 39.9722 91.9636 39.3595C91.6573 39.2829 91.4275 39.1297 91.1211 39.0531C89.4361 38.3638 87.9043 37.2915 86.7554 36.066C86.0661 35.3767 85.4533 34.6108 84.9172 33.7683C82.696 30.1684 82.1599 25.5729 83.9215 21.3604C84.4576 20.0583 85.2235 18.8329 86.1427 17.8372C87.3681 16.3819 88.9 15.233 90.585 14.4671C91.6573 14.0076 92.7296 13.6246 93.8784 13.3948C95.64 13.0885 97.4783 13.0885 99.2399 13.4714C100.006 13.6246 100.772 13.931 101.538 14.2373C108.507 16.9946 111.724 24.8836 108.814 31.7769Z" fill="#FFAF30" stroke="#2E3433" stroke-width="1.5" stroke-miterlimit="10"/>
<path d="M98.1923 36.9102C103.946 35.926 107.813 30.4637 106.829 24.7097C105.845 18.9557 100.382 15.089 94.6282 16.0732C88.8742 17.0574 85.0076 22.5198 85.9918 28.2737C86.976 34.0277 92.4383 37.8944 98.1923 36.9102Z" fill="#FFAF30"/>
<path d="M99.8528 28.4033C99.623 27.714 99.1635 27.1778 98.5507 26.7183L98.6273 26.5651C100.083 26.5651 101.002 26.029 101.461 24.9567C101.691 24.4205 101.768 23.961 101.691 23.5014C101.614 23.1185 101.461 22.7355 101.155 22.3526C101.002 22.1994 100.849 22.0462 100.695 21.893L101.614 19.6718L100.236 19.0591L99.3933 21.0505C99.0869 20.8973 98.7805 20.7441 98.3976 20.5909H98.321L99.1635 18.5996L97.7848 17.9868L96.9423 19.9782L94.4914 18.9059C94.4148 18.9059 94.4148 18.9059 94.3382 18.9825L94.185 19.4421C94.185 19.5186 94.185 19.5186 94.2616 19.5952L95.6403 20.3612C95.7169 20.3612 95.7169 20.4378 95.7169 20.5144L91.6575 30.1649C91.6575 30.2415 91.5809 30.2415 91.5043 30.2415L90.0491 29.782C89.9725 29.782 89.9725 29.782 89.8959 29.8586L89.7427 30.3181C89.7427 30.3947 89.7427 30.3947 89.8193 30.4713L92.2702 31.5436L91.3511 33.6882L92.7298 34.3009L93.6489 32.1563L94.1084 32.3095C94.3382 32.3861 94.4914 32.4627 94.7211 32.5393L93.8021 34.6838L95.1807 35.2966L96.1764 32.9988C97.1721 33.152 98.0146 32.9988 98.7039 32.6159C99.3167 32.2329 99.6996 31.7734 99.9294 31.1606C100.159 30.0117 100.159 29.2458 99.8528 28.4033ZM98.4742 21.5866C98.6274 21.6632 98.8571 21.7398 99.0103 21.893C99.3933 22.1228 99.623 22.4291 99.8528 22.7355C99.9294 22.8887 100.006 23.1185 100.083 23.2717C100.159 23.6546 100.083 24.0376 99.9294 24.4971C99.7762 24.9567 99.4699 25.263 99.1635 25.4928C98.9337 25.646 98.6273 25.7992 98.321 25.7992C98.0912 25.7992 97.7848 25.7992 97.4785 25.7992C97.1721 25.7226 96.7891 25.646 96.4062 25.4928C96.3296 25.4928 96.253 25.4162 96.0998 25.4162L95.5637 25.1864C95.4871 25.1864 95.4871 25.1099 95.4871 25.0333L97.1721 21.0505C97.1721 20.9739 97.2487 20.9739 97.3253 20.9739L97.938 21.2803L98.0912 21.3569L98.4742 21.5866ZM96.4828 31.6202C96.0232 31.6968 95.4871 31.6202 94.8743 31.467C94.6446 31.3904 94.3382 31.3138 94.1084 31.1606L93.8021 31.084L93.0361 30.7777C92.9595 30.7777 92.9595 30.7011 92.9595 30.6245L94.9509 25.8758C94.9509 25.7992 95.0275 25.7992 95.1041 25.7992L95.87 26.1055C95.87 26.1055 95.87 26.1055 95.9466 26.1055C96.3296 26.2587 96.636 26.4119 96.9423 26.6417C97.4785 26.9481 97.8614 27.331 98.0912 27.7906C98.4742 28.4799 98.4742 29.2458 98.0912 30.1649C97.7848 31.0074 97.2487 31.467 96.4828 31.6202Z" fill="#2E3433"/>
<path d="M1.50903 201.129C1.50903 201.129 1.50903 201.052 1.50903 200.975V201.129Z" fill="#DBE0E6" stroke="#2E3433" stroke-width="1.6611" stroke-miterlimit="10" stroke-linecap="round" stroke-linejoin="round"/>
<path d="M1.50903 200.974C1.50903 200.897 1.50903 200.821 1.50903 200.668C1.58551 200.744 1.50903 200.821 1.50903 200.974Z" fill="#DBE0E6" stroke="#2E3433" stroke-width="1.6611" stroke-miterlimit="10" stroke-linecap="round" stroke-linejoin="round"/>
<path d="M43.7881 319.157V319.31C42.1031 319.233 41.0308 319.157 40.5713 319.08C41.567 319.157 42.7158 319.157 43.7881 319.157Z" fill="#DBE0E6" stroke="#2E3433" stroke-width="1.6611" stroke-miterlimit="10" stroke-linecap="round" stroke-linejoin="round"/>
<path d="M546.613 200.209C545.311 192.779 529.227 194.694 521.108 202.966C506.556 217.748 493.612 274.043 490.548 301.004C489.782 308.05 489.629 313.029 490.395 314.867C491.544 317.777 498.054 319.003 504.488 319.079V319.233L509.62 361.435H500.429C500.429 361.435 484.651 325.283 484.344 325.283H274.1C274.1 325.283 63.1656 325.283 62.8592 325.207L47.7706 361.588H38.6562L43.7878 319.386V319.233C50.1449 319.156 56.7318 317.93 57.8807 315.02C58.5701 313.258 58.4935 308.203 57.7275 301.157C54.7405 274.197 41.7198 217.901 27.1674 203.119C22.2655 198.141 14.5297 195.46 8.86192 195.69C8.70874 195.69 8.55556 195.69 8.40238 195.69C8.1726 195.69 8.01941 195.69 7.78964 195.766C7.63646 195.766 7.40668 195.843 7.2535 195.843C7.02372 195.843 6.79394 195.92 6.56416 195.996C6.41098 195.996 6.2578 196.073 6.10462 196.073C5.95144 196.073 5.87484 196.149 5.79825 196.149C5.64506 196.226 5.49189 196.226 5.3387 196.303C5.03233 196.379 4.80256 196.532 4.57278 196.609C4.4196 196.686 4.34301 196.762 4.18982 196.839C3.96005 196.915 3.80686 197.068 3.65367 197.222C3.50049 197.298 3.4239 197.375 3.27071 197.528C3.19412 197.528 3.19412 197.605 3.11753 197.605C3.04094 197.681 2.88776 197.834 2.81117 197.911C2.73458 197.988 2.65798 198.064 2.58139 198.141C2.5048 198.217 2.4282 198.294 2.35161 198.371C2.27502 198.524 2.19843 198.6 2.12183 198.753C2.04524 198.83 2.04524 198.907 1.96865 199.06C1.89206 199.136 1.89207 199.213 1.89207 199.29C1.89207 199.366 1.81547 199.443 1.81547 199.596C1.81547 199.673 1.73887 199.749 1.73887 199.902C1.73887 199.979 1.73888 199.979 1.66229 200.056C1.66229 200.209 1.58569 200.362 1.58569 200.515C1.73888 199.06 2.65798 195.383 7.02372 192.167C10.9299 189.333 37.2009 176.312 53.132 168.729C62.8592 189.18 80.2455 211.621 86.909 250.53L86.2197 250.989C86.2197 250.989 74.2714 256.81 68.2206 260.333H68.6802C63.9315 260.333 60.0253 264.163 60.0253 268.988V277.337C60.0253 282.085 63.8549 285.992 68.6802 285.992H69.5993C64.3144 285.992 60.1019 290.281 60.1019 295.489V310.348C60.1019 314.177 62.3231 317.547 65.4633 319.233C66.0761 319.539 66.7654 319.845 67.4547 319.998C68.2972 320.228 69.1397 320.381 70.0588 320.381H274.176V320.305H478.217C479.136 320.305 479.979 320.152 480.821 319.922C481.51 319.769 482.2 319.462 482.812 319.156C486.029 317.471 488.25 314.177 488.25 310.271V295.412C488.25 290.128 483.961 285.915 478.753 285.915H479.672C484.421 285.915 488.327 282.085 488.327 277.26V268.988C488.327 264.24 484.421 260.333 479.672 260.333H480.132C474.081 256.734 462.133 250.989 462.133 250.989L461.443 250.53C468.107 211.621 485.493 189.18 495.22 168.729C511.151 176.312 537.422 189.333 541.329 192.167C545.465 195.154 546.384 198.677 546.613 200.209Z" fill="#DBE0E6" stroke="#2E3433" stroke-width="1.6611" stroke-miterlimit="10" stroke-linecap="round" stroke-linejoin="round"/>
<path d="M274.1 165.743V254.437L94.8746 254.513C92.1173 254.513 86.8325 254.054 86.8325 254.054C80.169 215.145 62.7826 192.704 53.0554 172.254C51.6768 169.343 50.4513 166.509 49.379 163.599C46.009 154.254 56.8085 146.289 66.6888 146.289H253.267C264.372 145.983 274.1 153.872 274.1 165.743Z" fill="white" stroke="#2E3433" stroke-width="1.6611" stroke-miterlimit="10" stroke-linecap="round" stroke-linejoin="round"/>
<path d="M488.25 268.989V277.337C488.25 282.086 484.421 285.992 479.595 285.992L274.099 286.069H68.68C63.9313 286.069 60.0251 282.239 60.0251 277.414V269.065C60.0251 264.317 63.9313 260.411 68.68 260.411H109.81C176.215 260.411 274.099 260.411 274.099 260.411C274.099 260.411 371.984 260.334 438.389 260.334H479.595C484.344 260.334 488.25 264.164 488.25 268.989Z" fill="white" stroke="#2E3433" stroke-width="1.6611" stroke-miterlimit="10" stroke-linecap="round" stroke-linejoin="round"/>
<path d="M488.25 295.414V310.272C488.25 314.102 486.029 317.472 482.812 319.157C482.2 319.463 481.51 319.77 480.821 319.923C479.978 320.153 479.136 320.306 478.217 320.306L274.099 320.383H69.9821C69.063 320.383 68.2205 320.229 67.378 320C66.6886 319.846 65.9993 319.54 65.3866 319.234C62.1697 317.549 60.0251 314.255 60.0251 310.349V295.49C60.0251 290.205 64.3143 285.993 69.5225 285.993H274.099L478.676 285.916C483.961 285.916 488.25 290.205 488.25 295.414Z" fill="white" stroke="#2E3433" stroke-width="1.6611" stroke-miterlimit="10" stroke-linecap="round" stroke-linejoin="round"/>
<path d="M480.055 260.334H438.389C371.984 260.334 274.1 260.41 274.1 260.41C274.1 260.41 176.215 260.41 109.81 260.41H68.144C74.1948 256.81 86.1431 251.066 86.1431 251.066L274.1 250.99H462.056C462.056 250.913 474.004 256.734 480.055 260.334Z" fill="#DBE0E6" stroke="#2E3433" stroke-width="1.6611" stroke-miterlimit="10" stroke-linecap="round" stroke-linejoin="round"/>
<path d="M57.8808 314.944C56.7319 317.855 50.2216 319.08 43.7879 319.157C42.7156 319.157 41.5667 319.157 40.4944 319.157C40.4179 319.157 40.4178 319.157 40.3413 319.157C36.2053 319.004 32.5289 318.391 31.0737 317.472C20.4274 310.885 24.1038 290.741 1.73896 203.426C1.50918 202.584 1.4326 201.895 1.50919 201.205V201.052C1.50919 200.899 1.50919 200.746 1.58578 200.593C1.58578 200.439 1.66237 200.286 1.66237 200.133C1.66237 200.056 1.66237 200.056 1.73896 199.98C1.73896 199.903 1.81555 199.75 1.81555 199.673C1.81555 199.597 1.89215 199.52 1.89215 199.367C1.89215 199.291 1.96874 199.214 1.96874 199.137C2.04533 199.061 2.04533 198.908 2.12192 198.831C2.19851 198.678 2.2751 198.601 2.3517 198.448C2.42829 198.371 2.50488 198.295 2.58147 198.218C2.65807 198.142 2.73466 198.065 2.81125 197.988C2.88784 197.912 3.04102 197.759 3.11761 197.682C3.19421 197.606 3.1942 197.606 3.2708 197.606C3.42398 197.529 3.50057 197.376 3.65376 197.299C3.80694 197.146 4.03672 197.069 4.18991 196.916C4.34309 196.84 4.41968 196.763 4.57287 196.686C4.80264 196.533 5.10901 196.457 5.33879 196.38C5.49197 196.303 5.64515 196.303 5.79833 196.227C5.87492 196.227 6.02811 196.15 6.1047 196.15C6.25789 196.074 6.41106 196.074 6.56425 196.074C6.79402 195.997 7.02381 195.997 7.25358 195.92C7.40677 195.92 7.63654 195.844 7.78972 195.844C8.0195 195.844 8.17268 195.767 8.40246 195.767C8.55564 195.767 8.70882 195.767 8.862 195.767C14.5298 195.538 22.2656 198.218 27.1675 203.197C41.7199 217.979 54.6639 274.274 57.7276 301.234C58.4935 308.128 58.5701 313.183 57.8808 314.944Z" fill="white" stroke="#2E3433" stroke-width="1.6611" stroke-miterlimit="10" stroke-linecap="round" stroke-linejoin="round"/>
<path d="M507.858 319.083C507.475 319.083 506.326 319.159 504.488 319.312V319.159C505.56 319.159 506.709 319.083 507.858 319.083Z" fill="#DBE0E6" stroke="#2E3433" stroke-width="1.6611" stroke-miterlimit="10" stroke-linecap="round" stroke-linejoin="round"/>
<path d="M546.69 201.053V200.9C546.69 200.976 546.69 201.053 546.69 201.053Z" fill="#DBE0E6" stroke="#2E3433" stroke-width="1.6611" stroke-miterlimit="10" stroke-linecap="round" stroke-linejoin="round"/>
<path d="M498.82 160.077C497.825 162.911 496.599 165.821 495.144 168.732C485.34 189.182 468.03 211.623 461.367 250.532C461.367 250.532 456.159 250.991 453.325 250.991H274.1V162.298C274.1 150.426 283.827 142.537 294.856 142.767H481.434C491.391 142.767 502.19 150.733 498.82 160.077Z" fill="white" stroke="#2E3433" stroke-width="1.6611" stroke-miterlimit="10" stroke-linecap="round" stroke-linejoin="round"/>
<path d="M546.69 200.902V201.055C546.69 201.744 546.614 202.434 546.46 203.276C524.096 290.591 527.772 310.811 517.126 317.321C515.67 318.24 512.071 318.853 508.011 319.006C508.011 319.006 507.935 319.006 507.858 319.006C506.786 319.083 505.637 319.083 504.488 319.006C498.131 318.93 491.621 317.704 490.395 314.794C489.706 313.032 489.782 307.977 490.548 300.931C493.535 273.97 506.556 217.675 521.108 202.893C529.304 194.545 545.311 192.63 546.614 200.136C546.614 200.212 546.614 200.366 546.69 200.442C546.69 200.672 546.69 200.749 546.69 200.902Z" fill="white" stroke="#2E3433" stroke-width="1.6611" stroke-miterlimit="10" stroke-linecap="round" stroke-linejoin="round"/>
<path d="M421.683 190.458L394.589 219.126L408.06 231.858L435.155 203.19L421.683 190.458Z" fill="#635BFF" stroke="#2E3433" stroke-width="1.5" stroke-miterlimit="10"/>
<path d="M429.734 208.02L411.658 227.091C410.279 228.546 407.905 228.47 406.297 226.938L399.786 220.274C398.254 218.666 398.178 216.215 399.556 214.76L417.632 195.688C419.011 194.233 421.385 194.31 422.994 195.841L429.504 202.505C431.036 204.037 431.112 206.564 429.734 208.02Z" fill="#E4E6EB"/>
<path d="M414.829 218.129C418.593 218.024 421.558 214.888 421.453 211.125C421.348 207.362 418.212 204.396 414.449 204.501C410.685 204.606 407.72 207.742 407.825 211.506C407.93 215.269 411.066 218.234 414.829 218.129Z" fill="#96999E" stroke="#2E3433" stroke-width="1.5" stroke-miterlimit="10"/>
<path d="M417.25 209.706C416.944 209.553 416.637 209.553 416.331 209.553C416.025 209.553 415.642 209.63 415.335 209.783C415.182 209.859 414.799 210.089 414.263 210.396L411.812 208.098C412.118 207.868 412.425 207.791 412.808 207.791C413.114 207.791 413.497 207.945 413.88 208.174L414.569 207.179C413.957 206.719 413.344 206.566 412.655 206.643C412.118 206.719 411.659 206.949 411.123 207.409L410.74 207.026L410.28 207.485L410.663 207.868C410.204 208.481 409.974 209.017 409.897 209.553C409.897 210.319 410.127 211.008 410.74 211.544C411.046 211.851 411.429 212.081 411.812 212.157C412.195 212.234 412.578 212.234 413.038 212.157C413.574 212.004 414.033 211.774 414.416 211.468L417.097 213.995C416.714 214.302 416.331 214.455 415.795 214.378C415.412 214.378 414.952 214.149 414.493 213.766L413.88 214.761C414.34 215.144 414.799 215.374 415.335 215.451C415.795 215.527 416.254 215.527 416.637 215.374C417.02 215.221 417.403 214.991 417.863 214.608L418.705 215.374L419.165 214.915L418.322 214.149C418.858 213.536 419.088 212.847 419.088 212.081C419.012 211.315 418.705 210.702 418.169 210.166C417.863 210.013 417.556 209.859 417.25 209.706ZM413.65 210.779C413.191 211.085 412.731 211.162 412.425 211.162C412.118 211.162 411.735 211.008 411.506 210.702C411.199 210.396 411.046 210.089 411.046 209.706C411.046 209.323 411.123 208.94 411.352 208.557L413.65 210.779ZM417.939 212.387C418.016 212.847 417.863 213.229 417.633 213.612L415.105 211.162C415.642 210.855 416.101 210.702 416.484 210.702C416.791 210.702 417.097 210.855 417.403 211.162C417.71 211.544 417.939 211.927 417.939 212.387Z" fill="white"/>
<path d="M407.139 219.283C408.134 220.278 408.211 221.81 407.215 222.882C406.22 223.878 404.688 223.955 403.616 222.959C402.62 221.963 402.543 220.431 403.539 219.359C404.458 218.363 406.066 218.363 407.139 219.283Z" fill="#E4E6EB"/>
<path d="M425.138 200.287C426.133 201.282 426.21 202.814 425.214 203.886C424.219 204.882 422.687 204.959 421.615 203.963C420.619 202.967 420.542 201.435 421.538 200.363C422.534 199.291 424.142 199.291 425.138 200.287Z" fill="#E4E6EB"/>
<path d="M429.86 191.011L398.159 214.481L409.187 229.377L440.889 205.908L429.86 191.011Z" fill="#635BFF" stroke="#2E3433" stroke-width="1.5" stroke-miterlimit="10"/>
<path d="M434.713 209.628L413.573 225.253C411.965 226.479 409.59 225.943 408.365 224.181L403.157 216.445C401.931 214.607 402.238 212.156 403.923 210.931L425.062 195.306C426.67 194.08 429.045 194.616 430.27 196.378L435.479 204.114C436.704 205.952 436.398 208.48 434.713 209.628Z" fill="#E4E6EB"/>
<path d="M426.077 211.083C426.518 207.344 423.844 203.956 420.105 203.515C416.366 203.075 412.978 205.749 412.538 209.487C412.097 213.226 414.771 216.614 418.51 217.055C422.249 217.495 425.637 214.821 426.077 211.083Z" fill="#96999E" stroke="#2E3433" stroke-width="1.5" stroke-miterlimit="10"/>
<path d="M422.152 209.174C421.845 209.021 421.539 208.868 421.233 208.868C420.926 208.791 420.543 208.868 420.16 208.944C419.931 209.021 419.548 209.097 419.012 209.327L417.02 206.646C417.403 206.493 417.71 206.417 418.016 206.493C418.322 206.57 418.629 206.723 419.012 207.106L419.854 206.263C419.318 205.727 418.782 205.421 418.092 205.421C417.556 205.421 417.02 205.574 416.484 205.88L416.178 205.421L415.642 205.804L415.948 206.263C415.412 206.8 415.029 207.259 414.952 207.795C414.799 208.561 414.952 209.25 415.412 209.94C415.718 210.323 416.024 210.553 416.407 210.782C416.79 210.936 417.173 211.012 417.633 210.936C418.169 210.859 418.705 210.706 419.165 210.476L421.386 213.463C421.003 213.693 420.543 213.769 420.007 213.616C419.624 213.54 419.241 213.233 418.782 212.774L417.939 213.616C418.322 214.076 418.782 214.382 419.241 214.535C419.701 214.689 420.16 214.765 420.543 214.689C420.926 214.612 421.386 214.459 421.922 214.152L422.611 215.071L423.148 214.689L422.458 213.769C423.071 213.233 423.454 212.621 423.53 211.931C423.607 211.165 423.454 210.476 422.918 209.863C422.688 209.557 422.458 209.327 422.152 209.174ZM418.399 209.557C417.863 209.71 417.48 209.787 417.097 209.71C416.79 209.633 416.484 209.404 416.254 209.097C416.024 208.791 415.948 208.408 415.948 208.025C415.948 207.642 416.178 207.259 416.484 206.953L418.399 209.557ZM422.382 211.931C422.382 212.391 422.152 212.774 421.845 213.08L419.778 210.246C420.39 210.016 420.85 209.94 421.156 210.093C421.463 210.17 421.769 210.399 421.999 210.706C422.305 211.012 422.382 211.472 422.382 211.931Z" fill="white"/>
<path d="M410.433 216.832C411.276 217.981 411.046 219.513 409.897 220.355C408.748 221.198 407.216 220.968 406.374 219.819C405.531 218.67 405.761 217.138 406.91 216.296C408.059 215.453 409.667 215.683 410.433 216.832Z" fill="#E4E6EB"/>
<path d="M431.572 201.206C432.415 202.355 432.185 203.887 431.036 204.729C429.887 205.572 428.356 205.342 427.513 204.193C426.671 203.044 426.9 201.512 428.049 200.67C429.198 199.827 430.73 200.134 431.572 201.206Z" fill="#E4E6EB"/>
<path d="M329.016 381.963C328.939 383.112 328.633 384.261 327.867 385.563C322.505 395.06 305.196 398.277 302.438 393.988C301.902 393.146 301.749 391.997 302.209 390.542C302.285 390.159 302.438 389.776 302.515 389.393C305.196 378.67 307.264 362.509 307.953 358.373C308.642 354.084 307.953 336.238 307.953 336.238C324.573 332.102 324.956 333.481 325.11 334.093C327.484 343.744 326.641 358.22 326.565 361.207C325.952 373.921 329.246 377.827 329.016 381.963Z" fill="white" stroke="#2E3433" stroke-width="1.6611" stroke-miterlimit="10" stroke-linecap="round" stroke-linejoin="round"/>
<path d="M266.057 235.749C266.057 235.749 169.322 218.593 156.837 235.749C144.353 252.906 205.397 270.905 215.43 270.828C225.464 270.828 276.78 277.032 276.78 277.032L266.057 235.749Z" fill="#2E3433"/>
<path d="M282.601 278.107C280.38 284.005 280.61 292.889 279.767 299.783C279.614 301.161 279.384 302.463 279.078 303.612C277.316 310.659 272.032 315.101 268.508 315.101C265.751 315.101 269.121 310.735 269.504 304.531C269.581 302.693 269.427 300.778 268.815 298.634C265.904 289.519 259.777 285.996 248.288 280.635C236.799 275.35 253.573 263.861 253.573 263.861C253.573 263.861 258.858 266.542 272.108 263.861C285.282 261.334 285.282 271.061 282.601 278.107Z" fill="white" stroke="#2E3433" stroke-width="1.6611" stroke-miterlimit="10" stroke-linecap="round" stroke-linejoin="round"/>
<path d="M338.59 301.542C336.445 320.077 334.76 334.017 333.918 340.757C329.859 341.676 324.574 342.672 318.293 343.055C311.63 343.438 305.809 343.131 301.366 342.595C301.06 342.518 300.677 342.519 300.371 342.442C297.996 318.928 295.699 295.491 293.324 271.977C287.503 270.369 279.308 267.918 269.964 264.012C255.258 257.884 247.905 254.897 246.603 249.842C244.459 241.8 256.56 230.694 271.572 229.392C282.755 228.397 291.333 233.298 293.401 234.524C297.46 236.056 302.592 238.124 308.26 240.804C312.166 242.719 316.378 244.94 320.744 247.545C325.34 250.302 329.399 252.753 332.463 255.51C342.649 264.701 341.424 277.109 338.59 301.542Z" fill="#96999E" stroke="#2E3433" stroke-width="1.5" stroke-miterlimit="10"/>
<path d="M301.366 342.595C301.06 342.519 300.677 342.519 300.37 342.442C297.996 319.618 295.698 296.717 293.324 273.892C287.503 272.36 279.308 269.909 269.964 266.156C256.024 260.565 249.207 257.655 246.603 252.37C246.297 251.757 243.846 246.472 247.369 241.341C253.113 232.992 269.274 232.533 271.572 232.533C282.371 232.226 295.545 234.83 298.609 236.515C302.668 237.971 308.183 241.034 313.851 243.715C301.596 243.868 270.806 244.328 267.513 247.621C265.521 251.757 276.627 259.493 286.431 264.088C290.72 266.08 292.482 266.539 295.009 268.531C303.051 274.811 302.285 283.773 302.056 287.909C301.136 300.087 301.213 318.469 301.366 342.595Z" fill="#2E3433"/>
<path d="M428.585 186.808L425.598 183.821L415.565 173.558L389.753 141.466C387.302 138.402 383.626 136.564 379.72 136.257L301.979 131.662L316.072 156.784L374.358 157.856C385.158 166.281 396.034 174.63 406.833 183.055H406.91C407.523 185.583 409.284 192.629 409.974 195.233C410.357 196.765 411.199 198.756 412.041 200.595L415.488 196.382C415.488 196.229 415.488 195.999 415.488 195.846C415.488 195.846 415.565 195.999 415.718 196.152C417.173 198.68 426.288 214.764 426.747 214.611C427.207 214.381 428.662 214.687 428.585 212.007L420.926 198.45L429.811 211.7C429.811 211.7 432.645 212.313 431.649 208.483C431.649 208.483 435.325 209.556 434.942 205.573L429.045 193.548L435.249 202.739C435.555 203.199 436.245 203.428 436.704 203.122C436.781 203.045 436.857 202.969 436.934 202.969C438.236 201.36 434.942 196.535 428.585 186.808Z" fill="white" stroke="#2E3433" stroke-width="1.6611" stroke-miterlimit="10" stroke-linecap="round" stroke-linejoin="round"/>
<path d="M407.905 163.984L395.268 174.171L398.485 176.622L411.429 168.35L407.905 163.984Z" fill="#2E3433"/>
<path d="M411.735 170.111C411.658 173.405 408.978 176.009 405.684 175.932C402.391 175.856 399.787 173.175 399.863 169.882C399.94 166.588 402.62 163.984 405.914 164.061C409.207 164.061 411.812 166.818 411.735 170.111Z" fill="white" stroke="#2E3433" stroke-width="1.3512" stroke-miterlimit="10" stroke-linecap="round" stroke-linejoin="round"/>
<path d="M237.948 129.669C229.906 134.265 223.319 138.324 218.34 141.464C218.34 141.464 203.175 151.038 183.338 170.952C181.883 172.407 179.125 175.241 179.432 178.765C179.738 182.518 183.491 185.811 186.938 186.807C194.137 188.951 202.026 181.905 206.698 177.845C215.889 169.957 229.293 159.387 248.824 146.749C245.224 141.081 241.624 135.337 237.948 129.669Z" fill="white" stroke="#2E3433" stroke-width="1.5" stroke-miterlimit="10" stroke-linecap="round" stroke-linejoin="round"/>
<path d="M368.996 131.202C351.61 130.13 334.3 128.981 316.914 127.908C316.761 127.908 316.684 127.908 316.531 127.832C310.787 126.989 303.357 126.147 295.238 125.534C285.741 124.845 275.325 124.538 265.827 125.228C265.674 125.228 265.521 125.228 265.291 125.304C258.857 124.309 248.9 123.696 237.948 127.372C231.897 129.364 227.225 132.121 220.791 136.717C212.06 142.92 199.882 152.648 186.478 167.124C189.618 170.723 196.971 178.229 209.149 182.442C213.515 183.974 217.574 184.74 221.327 185.123C225.693 185.582 229.446 185.352 232.28 185.046L222.4 227.708C222.4 227.708 222.4 227.708 222.476 227.708C230.825 230.925 240.322 233.912 250.968 236.286C261.768 238.737 272.031 240.116 281.529 240.805C292.634 241.647 302.668 241.418 311.323 240.881C311.629 238.737 311.936 236.592 312.242 234.448C315.152 214.84 317.986 195.309 320.897 175.702H361.261C363.252 171.796 365.167 167.124 366.699 161.685C370.145 149.354 369.839 138.555 368.996 131.202Z" fill="#9D80F8" stroke="#2E3433" stroke-width="1.5" stroke-miterlimit="10"/>
<path d="M240.705 155.943C240.705 155.943 240.246 157.322 238.101 166.513L232.816 184.741C229.906 185.201 227.072 185.661 221.251 185.048L240.705 155.943Z" fill="#2E3433"/>
<path d="M256.713 257.578C256.636 260.948 256.407 264.624 255.947 268.53C255.871 268.837 255.871 269.22 255.794 269.526C255.105 274.964 253.956 279.866 252.807 284.155C244.075 282.623 167.101 268.99 155.305 252.982C154.157 251.374 151.476 247.774 151.246 243.408C151.246 242.642 151.246 241.876 151.399 241.11C152.548 234.524 159.824 230.847 162.275 229.622C183.721 218.746 214.971 233.911 228.604 240.574C236.569 244.251 246.297 249.765 256.713 257.578Z" fill="#96999E" stroke="#2E3433" stroke-width="1.5" stroke-miterlimit="10"/>
<path d="M329.016 381.963C328.939 383.112 328.633 384.261 327.867 385.563C322.505 395.06 305.196 398.277 302.438 393.988C301.902 393.146 301.749 391.997 302.209 390.541C302.285 390.158 302.438 389.776 302.515 389.393C307.34 390.082 315.459 388.856 329.016 381.963Z" fill="#2E3433"/>
<path d="M279.767 299.782C279.614 301.161 279.384 302.463 279.078 303.612C277.316 310.658 272.032 315.1 268.508 315.1C265.751 315.1 269.121 310.735 269.504 304.531C271.878 304.071 275.248 302.769 279.767 299.782Z" fill="#2E3433"/>
<path d="M255.794 269.449C255.105 274.887 253.956 279.789 252.807 284.078C244.075 282.546 167.101 268.913 155.305 252.905C154.157 251.297 151.476 247.697 151.246 243.331C155.152 249.305 165.799 259.875 193.295 266.232C232.28 275.27 244.382 281.397 255.794 269.449Z" fill="#2E3433"/>
<path d="M295.698 127.678C295.698 132.657 288.882 136.64 280.456 136.64C272.031 136.64 265.291 132.657 265.291 127.678C265.291 126.836 265.521 125.993 265.904 125.228C275.401 124.462 285.741 124.845 295.239 125.534C295.545 126.223 295.698 126.913 295.698 127.678Z" fill="#2E3433"/>
<path d="M260.543 218.593C258.704 216.755 256.407 214.916 256.407 214.916L236.569 203.428C232.05 202.279 227.455 201.13 222.936 199.981C214.894 191.25 194.597 170.187 186.555 170.187C176.445 170.187 175.449 187.267 181.806 190.867C193.525 197.913 205.32 205.036 217.038 212.083C219.03 214.457 221.021 216.755 223.012 219.129C227.225 221.58 231.361 224.031 235.574 226.405C235.727 227.554 236.569 234.524 238.714 234.754C239.25 234.83 240.475 234.524 240.782 233.681C240.935 233.222 240.858 232.839 240.782 232.609C240.016 229.928 240.246 227.018 239.71 224.261L234.501 219.052C236.569 220.814 238.714 222.499 240.782 224.261C241.088 225.027 241.471 226.099 241.854 227.401C242.926 231.23 242.62 232.762 243.922 233.681C244.918 234.371 246.373 234.371 247.062 233.681C247.752 232.992 247.369 231.69 247.062 230.541C246.526 228.626 245.837 225.946 244.994 222.193C243.616 220.431 242.237 218.746 240.782 216.984L247.062 223.265C248.135 224.873 248.824 226.405 249.13 227.477C250.049 230.235 249.896 232.073 251.198 232.686C251.734 232.992 252.577 232.992 253.266 232.686C253.266 232.686 253.879 232.379 254.339 231.613C255.105 230.311 253.802 225.792 251.198 220.125L244.918 213.844C247.675 215.223 250.509 216.601 253.266 218.057C253.266 218.057 255.181 219.971 257.326 221.733C261.308 222.193 260.543 218.593 260.543 218.593Z" fill="white" stroke="#2E3433" stroke-width="1.6611" stroke-miterlimit="10" stroke-linecap="round" stroke-linejoin="round"/>
<path d="M140.523 179.99L160.437 231.689C160.514 231.919 160.743 232.072 160.973 232.072L240.476 235.442C240.935 235.442 241.242 234.83 241.012 234.294L218.494 182.441C218.417 182.211 218.187 182.058 217.958 182.058L141.059 178.841C140.6 178.841 140.293 179.454 140.523 179.99Z" fill="#2E3433"/>
<path d="M279.231 237.127L277.546 231.689L269.657 231.383L268.279 236.974L279.231 237.127Z" fill="#2E3433"/>
<path d="M269.581 236.744L267.896 231.306L260.007 231L258.628 236.591L269.581 236.744Z" fill="#2E3433"/>
<path d="M259.471 236.361L257.786 230.923L249.897 230.54L248.518 236.131L259.471 236.361Z" fill="#2E3433"/>
<path d="M249.666 235.901L247.982 230.463L240.093 230.157L238.714 235.748L249.666 235.901Z" fill="#2E3433"/>
<path d="M160.203 238.683L282.717 243.85L283.043 236.121L160.529 230.954L160.203 238.683Z" fill="#2E3433"/>
<path d="M361.338 132.581C361.261 131.585 361.185 131.049 361.185 131.049L361.95 130.972C361.95 130.972 362.027 131.509 362.104 132.504L361.338 132.581Z" fill="#2E3433"/>
<path d="M354.904 172.332L354.291 171.872C354.827 171.107 355.287 170.264 355.823 169.422L356.512 169.804C355.976 170.647 355.44 171.566 354.904 172.332ZM357.738 167.124L357.049 166.817C357.432 165.975 357.814 165.056 358.121 164.137L358.81 164.366C358.504 165.362 358.121 166.281 357.738 167.124ZM359.806 161.609L359.04 161.379C359.346 160.46 359.576 159.541 359.806 158.545L360.572 158.699C360.342 159.771 360.112 160.69 359.806 161.609ZM361.261 155.941L360.495 155.788C360.648 154.869 360.878 153.873 360.955 152.954L361.721 153.031C361.567 154.027 361.414 154.946 361.261 155.941ZM362.104 150.12L361.338 150.044C361.414 149.125 361.491 148.129 361.567 147.133L362.333 147.21C362.257 148.129 362.18 149.125 362.104 150.12ZM362.487 144.223H361.721C361.721 143.304 361.797 142.308 361.797 141.465V141.312H362.563V141.465C362.563 142.308 362.563 143.227 362.487 144.223ZM361.721 138.325C361.721 137.253 361.644 136.257 361.567 135.415L362.333 135.338C362.41 136.181 362.41 137.176 362.487 138.249L361.721 138.325Z" fill="#2E3433"/>
<path d="M352.147 175.931L351.61 175.394C351.917 175.012 352.3 174.629 352.606 174.246L353.219 174.705C352.836 175.165 352.453 175.548 352.147 175.931Z" fill="#2E3433"/>
<path d="M227.072 178.764C226.076 178.764 225.004 178.688 224.008 178.535L224.085 177.769C225.081 177.845 226.076 177.922 227.072 177.998V178.764ZM220.945 178.075C219.949 177.922 218.953 177.692 217.958 177.386L218.187 176.62C219.183 176.85 220.179 177.079 221.174 177.309L220.945 178.075ZM214.894 176.543C213.898 176.237 212.979 175.854 211.983 175.471L212.29 174.782C213.209 175.165 214.205 175.547 215.124 175.854L214.894 176.543ZM209.226 174.169C208.307 173.709 207.388 173.25 206.469 172.714L206.852 172.024C207.771 172.56 208.613 173.02 209.532 173.479L209.226 174.169ZM203.865 171.182C203.022 170.646 202.18 170.033 201.337 169.42L201.797 168.807C202.639 169.42 203.482 169.956 204.324 170.492L203.865 171.182ZM198.886 167.505C198.12 166.893 197.278 166.203 196.512 165.514L197.048 164.978C197.814 165.667 198.58 166.356 199.346 166.969L198.886 167.505ZM194.291 163.369C192.912 161.991 192.223 161.072 192.223 161.072L192.835 160.612C192.835 160.612 193.525 161.531 194.903 162.833L194.291 163.369Z" fill="#2E3433"/>
<path d="M252.271 158.851C257.632 158.545 262.994 158.315 268.355 158.162C273.716 158.085 279.078 158.085 284.516 158.315C287.197 158.392 289.877 158.622 292.635 159.005C294.013 159.234 295.315 159.387 296.694 159.847C297.077 159.924 297.383 160.077 297.766 160.23C298.149 160.46 298.456 160.536 298.839 160.843C298.992 160.996 299.298 161.149 299.528 161.532C299.681 161.762 299.758 162.145 299.605 162.528C299.528 162.758 299.451 162.834 299.375 162.911C299.298 162.987 299.222 163.14 299.145 163.217C298.609 163.677 298.226 163.753 297.843 163.83C296.388 164.213 295.009 164.366 293.707 164.443C292.328 164.596 291.026 164.672 289.648 164.749C286.967 164.902 284.286 164.979 281.605 165.055C276.244 165.208 270.883 165.285 265.598 165.591C262.994 165.745 260.236 165.898 257.862 166.587C257.556 166.664 257.326 166.74 257.173 166.894L257.096 166.97C257.173 166.893 257.173 166.817 257.173 166.74C257.096 166.587 257.173 166.817 257.402 166.97C257.556 167.123 257.862 167.276 258.092 167.43C259.164 168.042 260.389 168.502 261.615 168.885C266.67 170.493 271.955 171.566 277.163 172.485C279.767 172.944 282.448 173.404 285.052 173.787C286.354 173.94 287.733 174.093 289.035 174.246C290.337 174.323 291.716 174.476 293.018 174.246L293.094 174.4C291.792 174.706 290.414 174.553 289.035 174.553C287.656 174.476 286.354 174.399 285.052 174.246C282.371 174.017 279.691 173.634 277.087 173.251C271.802 172.408 266.517 171.489 261.309 169.957C260.007 169.574 258.781 169.115 257.556 168.502C257.019 168.196 256.33 167.813 256.1 167.047C256.024 166.664 256.33 166.281 256.636 166.128C256.943 165.974 257.249 165.821 257.556 165.745C260.16 164.979 262.84 164.902 265.521 164.672C270.883 164.289 276.244 164.213 281.605 164.06C284.286 163.983 286.967 163.906 289.648 163.753C292.328 163.6 295.009 163.523 297.613 162.911C297.92 162.834 298.226 162.681 298.456 162.528C298.685 162.375 298.532 162.068 298.226 161.915C297.996 161.685 297.613 161.609 297.383 161.455L296.464 161.149C295.162 160.766 293.86 160.536 292.558 160.307C289.877 159.924 287.273 159.694 284.593 159.541C273.87 158.928 263.147 159.005 252.424 159.234L252.271 158.851Z" fill="#2E3433"/>
<path d="M354.521 175.624H320.897C317.986 195.538 315.076 215.529 312.166 235.443C310.327 232.839 313.161 189.947 314.004 175.624C314.157 173.174 314.234 171.565 314.234 171.106C314.234 170.263 317.221 170.263 321.586 170.646C331.467 171.565 348.24 174.476 354.521 175.624Z" fill="#2E3433"/>
<path d="M293.707 128.063C281.299 141.084 269.657 132.199 269.657 132.199C269.581 129.595 269.581 126.914 269.504 124.234C269.428 119.179 269.274 114.2 269.198 109.145C269.121 106.311 269.045 103.554 269.045 100.72C274.866 98.0393 280.687 95.3586 286.508 92.6013L293.707 128.063Z" fill="white"/>
<path d="M287.197 104.622C285.818 109.983 265.598 119.098 261.615 118.485C257.632 117.872 250.433 101.711 250.892 95.5073C251.198 91.6011 250.433 82.9463 249.82 77.1253C252.807 74.368 259.394 70.4618 270.193 72.4532C278.542 73.985 284.056 87.7715 284.056 87.7715C284.056 87.7715 288.575 99.3369 287.197 104.622Z" fill="white"/>
<path d="M266.287 75.8249C258.168 81.4161 247.675 79.6545 243.386 73.6037C240.092 69.0848 240.552 62.4213 244.535 57.7492C248.518 53.0771 255.411 51.3155 261.462 53.4601C263.147 51.3921 266.21 48.3284 270.959 46.72C283.137 42.5074 299.375 50.3964 299.758 57.3662C299.834 58.6683 299.375 60.3533 297.383 62.4213C300.064 62.3447 302.898 62.7277 304.813 64.4893C310.787 69.6975 306.421 84.8627 297.536 93.5176C291.715 99.1854 291.103 98.4195 287.273 99.262C286.584 95.5856 284.516 86.4712 282.601 87.4668C281.758 86.2414 280.15 81.9522 279.231 80.7268C275.861 76.8972 272.108 75.1356 266.287 75.8249Z" fill="#2E3433"/>
<path d="M283.291 89.9155C282.984 90.6048 282.678 91.5239 282.525 92.7494C282.219 94.6642 282.602 96.1194 282.831 97.4215C283.291 99.4895 283.75 101.634 285.129 101.94C285.512 102.017 285.895 101.94 286.125 101.864C286.891 101.404 296.694 94.511 295.086 87.3114C295.009 86.8518 294.167 83.4818 291.793 82.869C289.265 82.1797 285.665 84.8604 283.291 89.9155Z" fill="white"/>
<path d="M269.198 132.733C269.044 132.579 268.968 132.426 268.968 132.196L268.662 117.491C266.211 118.487 262.611 119.635 260.926 119.329H260.849C256.254 118.487 249.131 102.096 249.59 95.6621C249.896 91.6794 249.054 82.4883 248.518 77.3567C248.518 77.1269 248.594 76.9737 248.748 76.8205C251.045 74.676 257.709 70.0039 269.734 71.9953C276.704 73.1441 279.691 78.8119 282.448 84.25C282.831 85.0925 283.291 85.8584 283.75 86.7009C286.354 82.7181 290.26 81.7224 292.022 82.1054C294.779 82.7947 295.698 86.3945 295.852 87.0839C297.077 92.5985 292.175 97.8067 288.958 100.564L294.55 127.907C294.626 128.137 294.55 128.29 294.396 128.52C287.58 135.72 280.916 136.409 276.168 135.49C271.955 134.724 269.274 132.809 269.198 132.733ZM287.35 100.487C287.273 100.258 287.426 100.028 287.58 99.8747C290.567 97.4238 295.469 92.4453 294.32 87.4668C294.243 87.0839 293.477 84.0202 291.562 83.484C290.337 83.1777 286.431 84.1734 284.286 88.4625C284.133 88.6923 283.903 88.8455 283.674 88.8455C283.367 88.8455 283.137 88.6923 282.984 88.4625C282.295 87.237 281.682 86.0116 281.069 84.7861C278.312 79.4247 275.631 74.293 269.427 73.2973C258.475 71.5357 252.347 75.5185 249.973 77.5865C250.586 83.867 251.275 91.9857 251.045 95.8153C250.586 101.866 257.632 117.414 261.155 118.027C261.155 118.027 261.156 118.027 261.232 118.027C262.075 118.18 264.679 117.644 269.198 115.882C269.427 115.806 269.657 115.806 269.887 115.959C270.117 116.112 270.193 116.265 270.193 116.495L270.5 131.89C272.261 133.116 282.218 139.013 293.018 127.907L287.35 100.487Z" fill="#2E3433"/>
<path d="M285.052 107.152C285.128 109.067 284.669 110.982 282.907 114.429C279.154 121.858 270.882 123.926 269.504 124.309C269.427 119.254 269.274 120.939 269.121 115.884C270.193 115.348 278.388 112.973 285.052 107.152Z" fill="#2E3433"/>
<path d="M295.698 60.7369C295.698 60.7369 306.498 51.4692 314.923 58.2093C314.923 58.2093 308.412 52.8479 297.613 62.1155C286.813 71.3831 295.698 60.7369 295.698 60.7369Z" fill="#2E3433"/>
<path d="M301.519 61.9614C301.519 61.9614 312.931 64.6422 311.859 72.9141C311.859 72.9141 312.778 66.4804 301.366 63.7997C289.954 61.1189 301.519 61.9614 301.519 61.9614Z" fill="#2E3433"/>
<path d="M250.126 55.7568C248.748 56.4461 247.369 57.2886 246.22 58.2077C244.995 59.1268 243.922 60.1991 243.08 61.348C242.237 62.5734 241.548 63.7989 241.012 65.1776C240.476 66.5562 240.093 67.9349 240.169 69.2369C240.169 70.6156 240.552 71.9177 241.318 72.9899C242.084 74.1388 243.31 74.9813 244.612 75.6707C245.914 76.36 247.445 76.8195 248.977 77.0493C250.509 77.3557 252.118 77.3557 253.649 77.3557V77.4323C250.509 77.8918 247.216 77.5854 244.305 76.2834C242.85 75.5941 241.548 74.675 240.629 73.4495C239.71 72.224 239.174 70.6922 239.25 69.2369C239.25 67.7051 239.71 66.2499 240.246 64.8712C240.859 63.4925 241.548 62.1139 242.544 60.965C244.458 58.5907 247.216 56.8291 250.126 55.6802V55.7568Z" fill="#2E3433"/>
<path d="M266.057 108.759C269.428 107.84 269.045 102.938 269.045 102.938C269.045 102.938 266.287 106.232 261.232 107.534" fill="#2E3433"/>
</svg>
