<svg width="70" height="19" viewBox="0 0 70 19" fill="none" xmlns="http://www.w3.org/2000/svg">
<path d="M8.40005 0.268625H2.9554C2.58276 0.268625 2.26593 0.540523 2.20779 0.910002L0.00571747 14.9305C-0.0380801 15.207 0.175328 15.4565 0.454723 15.4565H3.05409C3.42666 15.4565 3.74349 15.1848 3.80163 14.8146L4.39552 11.0331C4.45288 10.6628 4.77049 10.391 5.14229 10.391H6.86591C10.4524 10.391 12.5223 8.64811 13.063 5.19434C13.3065 3.6833 13.0733 2.49609 12.3687 1.66464C11.5949 0.751534 10.2223 0.268625 8.40005 0.268625ZM9.02821 5.38944C8.73045 7.35139 7.2377 7.35139 5.79432 7.35139H4.97274L5.54912 3.68735C5.58338 3.46587 5.77441 3.30278 5.99735 3.30278H6.37388C7.35708 3.30278 8.28462 3.30278 8.76385 3.86555C9.04969 4.20139 9.13727 4.70024 9.02821 5.38944Z" fill="#283B82"/>
<path d="M24.6736 5.32646H22.0664C21.8443 5.32646 21.6525 5.48957 21.6181 5.71104L21.5028 6.44336L21.3204 6.1779C20.756 5.3552 19.4972 5.08024 18.241 5.08024C15.3599 5.08024 12.899 7.27161 12.4198 10.3456C12.1706 11.879 12.5249 13.3453 13.3911 14.3678C14.1856 15.308 15.3224 15.6997 16.6751 15.6997C18.9966 15.6997 20.2839 14.2008 20.2839 14.2008L20.1677 14.9283C20.1238 15.2065 20.3372 15.4559 20.6151 15.4559H22.9636C23.337 15.4559 23.6522 15.1841 23.7112 14.814L25.1203 5.85251C25.165 5.57667 24.9523 5.32646 24.6736 5.32646ZM21.0394 10.4224C20.7879 11.9182 19.6055 12.9224 18.0978 12.9224C17.3407 12.9224 16.7356 12.6785 16.347 12.2164C15.9617 11.7575 15.8152 11.1043 15.9379 10.3768C16.1727 8.89375 17.3749 7.85687 18.8596 7.85687C19.6001 7.85687 20.2019 8.10388 20.5984 8.56991C20.9957 9.04081 21.1532 9.69801 21.0394 10.4224Z" fill="#283B82"/>
<path d="M38.5612 5.32631H35.9412C35.6912 5.32631 35.4564 5.45103 35.3147 5.65974L31.701 11.0051L30.1694 5.86839C30.073 5.54695 29.7777 5.32631 29.4433 5.32631H26.8687C26.5557 5.32631 26.3385 5.63329 26.4379 5.9291L29.3239 14.434L26.6107 18.2804C26.3973 18.5833 26.6122 19 26.981 19H29.5978C29.8461 19 30.0787 18.8784 30.2195 18.6737L38.9338 6.0419C39.1424 5.73963 38.9283 5.32631 38.5612 5.32631Z" fill="#283B82"/>
<path d="M47.236 0.268625H41.7905C41.4188 0.268625 41.1018 0.540523 41.0437 0.910002L38.8416 14.9305C38.7979 15.207 39.0112 15.4565 39.2891 15.4565H42.0835C42.343 15.4565 42.5652 15.2663 42.6058 15.0073L43.2307 11.0331C43.288 10.6628 43.6057 10.391 43.9775 10.391H45.7003C49.2875 10.391 51.3567 8.64811 51.8981 5.19434C52.1426 3.6833 51.9077 2.49609 51.2031 1.66464C50.43 0.751534 49.0583 0.268625 47.236 0.268625ZM47.8642 5.38944C47.5672 7.35139 46.0746 7.35139 44.6303 7.35139H43.8095L44.3868 3.68735C44.421 3.46587 44.6103 3.30278 44.8341 3.30278H45.2106C46.1932 3.30278 47.1214 3.30278 47.6006 3.86555C47.8864 4.20139 47.9732 4.70024 47.8642 5.38944Z" fill="#469BDB"/>
<path d="M63.5083 5.32646H60.9026C60.6788 5.32646 60.4885 5.48957 60.4551 5.71104L60.3396 6.44336L60.1566 6.1779C59.5921 5.3552 58.3342 5.08024 57.078 5.08024C54.1967 5.08024 51.7368 7.27161 51.2574 10.3456C51.0091 11.879 51.3618 13.3453 52.228 14.3678C53.0241 15.308 54.1593 15.6997 55.5119 15.6997C57.8334 15.6997 59.1207 14.2008 59.1207 14.2008L59.0045 14.9283C58.9608 15.2065 59.1741 15.4559 59.4536 15.4559H61.8014C62.1731 15.4559 62.49 15.1841 62.5482 14.814L63.9581 5.85251C64.0009 5.57667 63.7877 5.32646 63.5083 5.32646ZM59.8739 10.4224C59.6239 11.9182 58.44 12.9224 56.9323 12.9224C56.1767 12.9224 55.57 12.6785 55.1815 12.2164C54.7963 11.7575 54.6513 11.1043 54.7724 10.3768C55.0088 8.89375 56.2094 7.85687 57.6942 7.85687C58.4345 7.85687 59.0364 8.10388 59.4328 8.56991C59.8317 9.04081 59.9893 9.69801 59.8739 10.4224Z" fill="#469BDB"/>
<path d="M66.5837 0.652795L64.349 14.93C64.3053 15.2066 64.5185 15.4561 64.7964 15.4561H67.043C67.4164 15.4561 67.7334 15.1843 67.7907 14.8141L69.9942 0.794415C70.0381 0.51768 69.8248 0.267469 69.5469 0.267469H67.0311C66.809 0.268136 66.618 0.43144 66.5837 0.652795Z" fill="#469BDB"/>
</svg>
