<svg width="63" height="32" viewBox="0 0 63 32" fill="none" xmlns="http://www.w3.org/2000/svg">
<path d="M58.3694 6.58503L54.617 6.58372C54.2077 6.58372 53.8759 6.91548 53.8757 7.32479L53.8755 7.84824H54.1358C55.8301 7.84824 56.4603 8.12771 56.4603 9.67104V11.865L58.3674 11.8657C58.7767 11.8659 59.1084 11.5344 59.1087 11.1251L59.11 7.32632C59.11 6.91701 58.7784 6.58525 58.3694 6.58503ZM37.8902 12.4828C37.717 12.2654 37.3896 12.2354 37.0613 12.2354H36.8152C35.9972 12.2354 35.6764 12.4876 35.4953 13.2724L33.2225 22.7198C32.9389 23.8808 32.5402 24.093 31.8582 24.093C31.0231 24.093 30.6887 23.8937 30.3558 22.7152L27.7815 13.2679C27.5685 12.4767 27.2542 12.2354 26.436 12.2354H26.2168C25.8866 12.2354 25.5577 12.2658 25.3889 12.4861C25.2198 12.7065 25.2769 13.0357 25.364 13.3591L27.9656 22.8884C28.4535 24.7121 29.0336 26.2216 31.201 26.2216C31.6055 26.2216 31.9798 26.1654 32.291 26.0604C31.6336 28.1279 30.9649 29.0397 28.9929 29.2423C28.5927 29.2756 28.3326 29.3329 28.1878 29.5272C28.0373 29.7287 28.0715 30.0173 28.1253 30.275L28.1795 30.5194C28.2971 31.0845 28.4977 31.4348 29.1321 31.4348C29.1987 31.4348 29.2704 31.4313 29.3473 31.4247C32.2919 31.232 33.8697 29.6466 34.7928 25.9528L37.9431 13.3524C38.0178 13.0291 38.0629 12.7 37.8902 12.4828ZM22.0447 19.7412V21.6483C22.0447 23.2029 21.4683 24.103 18.5219 24.103C16.5754 24.103 15.6292 23.3985 15.6292 21.9495C15.6292 20.3604 16.5785 19.7412 19.0149 19.7412H22.0447ZM18.5219 11.8343C16.9157 11.8343 15.9091 12.0358 15.5272 12.1123C14.8513 12.2591 14.5685 12.4447 14.5685 13.2134V13.4326C14.5685 13.7338 14.6132 13.9425 14.7088 14.0893C14.8201 14.2603 14.9996 14.347 15.2423 14.347C15.3606 14.347 15.4978 14.3272 15.6614 14.2862C16.0476 14.1897 17.2816 13.9902 18.6315 13.9902C21.056 13.9902 22.0447 14.6618 22.0447 16.3079V17.777H18.9875C15.0573 17.777 13.2267 19.1027 13.2267 21.9495C13.2267 24.7108 15.117 26.2314 18.5494 26.2314C22.6283 26.2314 24.4472 24.8434 24.4472 21.7304V16.3079C24.4472 13.2977 22.5091 11.8343 18.5219 11.8343ZM10.8173 13.6606C10.8173 15.9276 10.2385 17.1562 7.18493 17.1562H2.48458V11.3054C2.48458 10.4942 2.78627 10.1925 3.59748 10.1925H7.18493C9.48545 10.1925 10.8173 10.7602 10.8173 13.6606ZM7.18493 7.84497H3.13175C0.965859 7.84497 0 8.81083 0 10.9769V24.8887C0 25.7254 0.268582 25.994 1.10549 25.994H1.37931C2.216 25.994 2.48458 25.7254 2.48458 24.8887V19.4763H7.18493C11.3581 19.4763 13.3019 17.6282 13.3019 13.6606C13.3019 9.69283 11.3581 7.84497 7.18493 7.84497ZM58.7347 2.66451L56.8419 2.66386C56.6354 2.66364 56.4681 2.49635 56.4681 2.28984L56.4688 0.373586C56.469 0.167082 56.6365 0 56.8428 0L58.7355 0.00065812C58.942 0.00065812 59.1093 0.168171 59.1093 0.374457L59.1087 2.29072C59.1084 2.49722 58.9412 2.66451 58.7347 2.66451ZM62.4482 6.58743L59.6613 6.58634C59.3574 6.58634 59.1111 6.33976 59.1113 6.03588L59.1121 3.21454C59.1124 2.91044 59.359 2.66408 59.6628 2.66408L62.4495 2.66517C62.7536 2.66517 63 2.91175 63 3.21563L62.9989 6.03719C62.9989 6.34107 62.7523 6.58743 62.4482 6.58743ZM54.615 11.8646C54.2057 11.8646 53.8742 11.5328 53.8744 11.1235L53.8755 7.84824H53.6023C51.908 7.84824 51.2779 8.12793 51.2779 9.67126V13.2827C51.2776 13.2903 51.2768 13.2979 51.2768 13.3056V14.0972C51.2763 14.1246 51.2746 14.1501 51.2746 14.1784V19.2245C51.2746 19.8407 51.1559 20.3315 50.9108 20.7127C50.4488 21.4246 49.5341 21.748 48.0707 21.75C46.608 21.748 45.6935 21.4248 45.2315 20.7136C44.9858 20.3321 44.8669 19.8411 44.8669 19.2245V14.1784C44.8669 14.1501 44.8654 14.1246 44.8649 14.0972V13.3056C44.8649 13.2979 44.864 13.2903 44.8638 13.2827V9.67126C44.8638 8.12793 44.2336 7.84824 42.5393 7.84824H42.0059C40.3114 7.84824 39.6814 8.12793 39.6814 9.67126V19.2245C39.6814 20.7613 40.028 22.0624 40.6976 23.1112C41.9908 25.1436 44.4961 26.226 48.0577 26.226C48.062 26.226 48.0664 26.2258 48.0707 26.2258C48.0753 26.2258 48.0795 26.226 48.084 26.226C51.6456 26.226 54.1508 25.1436 55.4441 23.1112C56.1137 22.0624 56.4603 20.7613 56.4603 19.2245V11.8653L54.615 11.8646Z" fill="#A6C307"/>
</svg>
