<svg width="20" height="20" viewBox="0 0 20 20" fill="none" xmlns="http://www.w3.org/2000/svg">
<path d="M4.61538 18.3333H15.3846V15H4.61538V18.3333ZM4.61538 10H15.3846V5H13.4615C13.141 5 12.8686 4.87847 12.6442 4.63542C12.4199 4.39236 12.3077 4.09722 12.3077 3.75V1.66667H4.61538V10ZM18.4615 10.8333C18.4615 10.6076 18.3854 10.4123 18.2332 10.2474C18.0809 10.0825 17.9006 10 17.6923 10C17.484 10 17.3037 10.0825 17.1514 10.2474C16.9992 10.4123 16.9231 10.6076 16.9231 10.8333C16.9231 11.059 16.9992 11.2543 17.1514 11.4193C17.3037 11.5842 17.484 11.6667 17.6923 11.6667C17.9006 11.6667 18.0809 11.5842 18.2332 11.4193C18.3854 11.2543 18.4615 11.059 18.4615 10.8333ZM20 10.8333V16.25C20 16.3628 19.9619 16.4605 19.8858 16.543C19.8097 16.6254 19.7196 16.6667 19.6154 16.6667H16.9231V18.75C16.9231 19.0972 16.8109 19.3924 16.5865 19.6354C16.3622 19.8785 16.0897 20 15.7692 20H4.23077C3.91026 20 3.63782 19.8785 3.41346 19.6354C3.1891 19.3924 3.07692 19.0972 3.07692 18.75V16.6667H0.384615C0.280449 16.6667 0.190304 16.6254 0.114183 16.543C0.0380609 16.4605 0 16.3628 0 16.25V10.8333C0 10.1476 0.226362 9.55946 0.679087 9.06901C1.13181 8.57856 1.67468 8.33333 2.30769 8.33333H3.07692V1.25C3.07692 0.902778 3.1891 0.607639 3.41346 0.364583C3.63782 0.121528 3.91026 0 4.23077 0H12.3077C12.6282 0 12.9808 0.0868056 13.3654 0.260417C13.75 0.434028 14.0545 0.642361 14.2788 0.885417L16.1058 2.86458C16.3301 3.10764 16.5224 3.4375 16.6827 3.85417C16.8429 4.27083 16.9231 4.65278 16.9231 5V8.33333H17.6923C18.3253 8.33333 18.8682 8.57856 19.3209 9.06901C19.7736 9.55946 20 10.1476 20 10.8333Z" fill="white"/>
</svg>
