<svg width="1920" height="349" viewBox="0 0 1920 349" fill="none" xmlns="http://www.w3.org/2000/svg">
<rect width="1920" height="349" fill="#635BFF"/>
<mask id="mask0_2395_4747" style="mask-type:alpha" maskUnits="userSpaceOnUse" x="0" y="0" width="1920" height="349">
<rect width="1920" height="349" fill="#635BFF" fill-opacity="0.05"/>
</mask>
<g mask="url(#mask0_2395_4747)">
<path fill-rule="evenodd" clip-rule="evenodd" d="M707.837 250.091C707.729 221.849 664.655 190.089 646.255 173.716C609.874 141.33 572.036 111.424 534.549 81.0402C497.061 50.6563 459.473 20.3548 423.726 -13.0024C400.516 -34.6558 373.244 -59.0436 357.502 -89.9629C323.969 -155.854 429.697 -146.069 457.084 -147.51C526.756 -151.192 606.669 -149.512 671.975 -183.824C710.96 -204.308 726.506 -238.662 718.133 -288.731C715.434 -305.014 707.445 -323.752 714.213 -339.615C721.439 -356.557 738.064 -366.333 751.862 -372.89C802.189 -396.775 860.053 -399.542 913.302 -402.54C970.72 -405.835 1028.68 -404.871 1085.69 -405.127C1109.87 -405.234 1135.12 -415.834 1158.14 -424.449C1188.32 -435.741 1218.14 -448.425 1248.07 -460.689C1313.92 -487.605 1381.77 -515.955 1451.43 -522.791C1495.06 -527.074 1542.74 -521.284 1576.63 -484.031C1593.65 -465.326 1602.55 -437.52 1612.39 -412.819C1624.3 -382.979 1635.74 -352.851 1648.41 -323.48C1689.26 -228.885 1747.56 -136.449 1842.21 -131.803C1856.52 -131.103 1870.59 -133.385 1884.84 -133.813C1893.91 -134.077 1901.99 -131.4 1905.36 -119.811C1913.84 -90.7452 1887.18 -44.8606 1876.25 -21.7988C1852.32 28.6817 1825.33 76.8973 1800.05 126.365C1783.32 159.08 1754.37 203.786 1754.07 243.535C1753.8 278.951 1792.39 304.55 1813.4 321.994C1833.09 338.327 1868.76 361.183 1870.92 394.408C1871.97 410.519 1863.27 423.87 1854.18 434.231C1838.25 452.351 1819.89 465.134 1805.56 485.807C1782.06 519.724 1762.43 566.391 1765.62 612.095C1767.83 643.764 1782.64 664.503 1801.47 684.328C1809.38 692.663 1815.81 698.56 1816.22 712.092C1816.9 733.581 1810 756.322 1804.32 776.245C1784 847.547 1755.13 916.494 1723.03 980.869C1706.98 1013.04 1689.65 1045.11 1668.37 1072.56C1654.44 1090.58 1635.65 1112.02 1614.4 1112C1589.79 1112 1563.75 1101.16 1539.83 1093.06C1495.16 1077.91 1451.03 1060.4 1407.07 1042.44C1305.41 1000.88 1204.71 955.949 1104.96 907.656C1034.7 873.582 962.954 839.459 896.9 794.159C884.017 785.264 871.858 774.891 860.586 763.182C848.542 750.886 833.597 745.384 818.443 741.282C724.387 715.823 621.344 735.368 526.897 747.624C502.924 750.729 478.952 753.851 454.911 756.025C434.245 757.895 409.503 763.257 389.417 755.201C349.838 739.347 384.437 680.91 399.065 657.098C450.566 573.261 517.013 502.329 578.601 429.915C607.884 395.43 637.389 361.035 665.08 324.597C679.498 305.654 707.931 274.85 707.837 250.091Z" fill="#635BFF" fill-opacity="0.05" stroke="#2D1959" stroke-width="5"/>
<path fill-rule="evenodd" clip-rule="evenodd" d="M725.584 245.33C709.799 215.445 682.103 193.357 659.113 172.57C626.029 142.644 591.905 114.381 558.295 85.3029C526.514 57.8056 494.666 29.9956 465.235 -1.23108C447.288 -20.2733 424.771 -43.045 416.271 -71.2091C397.831 -132.255 497.029 -122.993 521.518 -124.59C582.399 -128.542 651.423 -129.447 707.746 -161.588C742.916 -181.659 757.365 -214.944 749.864 -261.154C747.271 -277.142 742.599 -290.792 748.514 -306.697C755.353 -325.106 771.085 -336.582 785.507 -344.683C830.683 -370.065 884.083 -375.457 933.054 -379.944C983.645 -384.579 1036.36 -387.847 1085.32 -384.455C1104.9 -383.105 1127.44 -390.77 1146.82 -396.648C1176.63 -405.704 1206.14 -416.151 1235.81 -425.866C1296.11 -445.624 1357.97 -464.658 1420.69 -466.823C1465.97 -468.388 1513.19 -459.908 1550.87 -427.134C1589.05 -393.898 1605.99 -342.378 1627.16 -293.402C1663.73 -208.728 1713.12 -105.778 1797.72 -87.8885C1810.55 -85.1718 1822.88 -86.6454 1835.69 -85.9785C1842.28 -85.641 1849.78 -84.5708 1853.12 -76.6427C1861.8 -56.0609 1838.03 -18.4292 1830.03 -2.66357C1807.92 40.9039 1783.07 82.3391 1759.9 125.067C1741.5 158.994 1718.18 196.691 1711.07 236.908C1702.43 285.712 1758.85 320.437 1778.7 354.8C1813.1 414.389 1747.92 448.34 1715.79 476.752C1678.89 509.37 1648.44 568.875 1681.51 619.342C1694.17 638.639 1709.74 650.141 1715.39 675.324C1724.22 714.71 1717.54 759.718 1710.37 798.65C1699.57 857.177 1682.47 915.069 1659.23 967.964C1642.58 1005.83 1614.96 1065.22 1574.51 1060.76C1547.28 1057.79 1519.6 1046.93 1493.08 1037.33C1453.38 1022.97 1414.18 1006.59 1375.19 989.583C1285.18 950.428 1196.17 907.256 1108.9 859.77C1049.35 827.358 883.26 694.902 870.762 690.176C833.499 676.098 791.131 678.576 752.713 680.758C701.609 683.656 650.761 691.164 599.953 698.121C575.769 701.414 551.462 705.44 527.149 707.061C509.844 708.214 487.117 709.202 471.959 696.927C442.373 672.978 475.335 618.181 488.967 594.998C530.727 523.925 583.553 462.377 633.085 399.446C657.391 368.549 682.069 337.701 704.134 304.326C713.033 290.849 735.341 263.788 725.584 245.33Z" fill="#635BFF" fill-opacity="0.05" stroke="white" stroke-width="5"/>
<path fill-rule="evenodd" clip-rule="evenodd" d="M747.423 230.003C704.313 170.201 644.811 125.723 593.458 75.7781C567.683 50.7025 541.746 24.9435 519.516 -4.92493C507.952 -20.4562 493.512 -40.0967 491.284 -61.7466C485.33 -119.663 574.737 -111.832 601.498 -114.031C653.236 -118.296 711.684 -121.533 758.623 -151.088C787.3 -169.156 801.423 -198.81 796.063 -237.786C793.687 -255.08 789.987 -269.771 796.063 -286.752C802.22 -303.955 815.046 -316.093 828.035 -325.193C865.36 -351.364 911.745 -359.73 953.769 -365.964C1003.07 -373.225 1052.74 -376.06 1102.37 -374.446C1145.85 -373.055 1189.12 -388.709 1231.57 -399.028C1287.8 -412.69 1345.05 -424.622 1402.6 -422.819C1448.04 -421.386 1493.85 -410.129 1532.7 -380.211C1572.18 -349.741 1595.91 -304.136 1617.31 -254.923C1649.66 -180.528 1689.98 -80.8353 1760.95 -52.5809C1771.27 -48.4634 1780.89 -48.0105 1791.54 -47.2941C1796.71 -46.9482 1803.39 -46.8411 1805.95 -40.2614C1812.12 -24.4172 1789.31 6.29937 1782.94 17.0049C1762.62 51.1802 1740.6 83.8155 1719.77 117.538C1700.33 149.02 1679.15 181.829 1667.07 218.721C1647.85 277.478 1709.3 311.835 1707.58 367.825C1706.51 402.585 1679.23 427.512 1657.62 444.756C1631.02 465.961 1592.73 479.903 1579.41 518.599C1569.5 547.422 1585.06 564.197 1597.04 586.069C1617.35 623.126 1618.73 673.36 1616.62 716.256C1613.77 774.222 1602.64 833.045 1583.69 886.326C1575.1 910.479 1564.58 935.604 1549.1 954.363C1534.59 971.945 1520.86 976.45 1501.47 972.851C1442.12 961.816 1382.19 931.058 1325.27 903.586C1253.76 869.065 1183.24 830.953 1114.82 788.074C1068.16 758.831 1020.45 727.892 979.503 687.491C968.83 676.959 957.9 665.512 950.096 651.62C944.196 641.178 941.692 632.556 931.748 626.593C902.274 608.929 861.276 613.549 829.696 615.386C779.199 618.309 728.946 626.091 678.761 633.099C649.476 637.217 594.308 650.17 570.923 619.1C550.738 592.27 575.095 546.524 587.537 522.89C619.009 463.12 659.494 410.663 697.056 356.65C714.27 331.895 732.16 306.951 746.377 279.43C750.009 272.414 755.828 263.116 756.827 254.593C757.948 244.826 752.716 237.374 747.423 230.003Z" fill="#635BFF" fill-opacity="0.05" stroke="#2D1959" stroke-width="5"/>
<path fill-rule="evenodd" clip-rule="evenodd" d="M751.13 243.925C711.294 191.049 663.302 147.608 620.536 98.1274C601.36 75.9417 581.996 52.668 567.385 25.6034C559.526 11.0492 551.181 -7.27131 553.348 -25.3611C559.567 -77.2816 633.101 -72.5922 662.809 -75.6333C706.952 -80.1001 757.665 -84.5999 796.698 -112.596C822.267 -130.933 831.854 -158.014 827.081 -192.941C821.956 -230.406 833.414 -257.602 859.49 -278.502C892.182 -304.685 933.449 -315.358 971.408 -322.94C1017.14 -332.031 1063.45 -336.061 1109.78 -334.98C1154.83 -333.926 1198.49 -343.139 1243.24 -349.131C1302.59 -357.067 1363.83 -360.982 1422.5 -344.714C1473.59 -330.547 1519.73 -299.328 1554.32 -251.051C1590.45 -200.663 1608.33 -137.18 1637.67 -81.4352C1655.97 -46.6649 1681.48 -0.669994 1715.68 12.8458C1727.08 17.3538 1747.86 11.2717 1738.75 33.4492C1733.55 46.1327 1723.8 57.2585 1716.11 67.6261C1703.67 84.3808 1690.82 100.674 1678.18 117.198C1651.22 152.421 1622.36 188.395 1602.16 230.104C1576.7 282.618 1614.54 323.034 1609.93 376.281C1607.45 404.936 1591.12 427.806 1573.85 445.772C1562.68 457.409 1550.45 467.488 1537.97 476.892C1524.93 486.715 1509.5 494.199 1498.13 506.898C1481.93 524.972 1488.96 546.366 1492 569.731C1497.35 610.791 1498.52 652.5 1495.5 693.911C1491.8 744.67 1483.12 796.879 1464.85 843.006C1457.74 860.964 1448.73 880.001 1435.35 892.042C1421.98 904.082 1408.14 903.258 1392.82 899.632C1347.36 888.918 1301.99 863.988 1258.87 840.36C1204.89 810.782 1151.98 777.726 1101.45 740.121C1066.57 714.16 1031.57 686.115 1002.39 650.916C993.905 640.672 985.83 629.703 979.301 617.456C974.818 609.058 972.414 598.221 965.919 591.908C945.596 572.203 904.794 578.087 880.96 579.233C833.394 581.516 786.577 592.37 739.071 595.007C713.144 596.449 672.538 600.075 653.498 573.134C635.592 547.809 651.81 507.92 662.512 483.518C683.544 435.537 711.8 392.789 737.126 348.187C747.538 329.833 758.948 310.631 765.693 289.673C771.689 270.998 761.338 257.482 751.13 243.925Z" fill="#635BFF" fill-opacity="0.05" stroke="white" stroke-width="5"/>
<path fill-rule="evenodd" clip-rule="evenodd" d="M760.927 244.79C729.219 198.26 690.994 156.956 659.057 109.669C640.363 81.9768 608.169 35.4223 622.626 -3.61865C638.487 -46.5193 693.774 -47.6878 725.732 -51.1442C763.768 -55.2589 808.435 -60.8797 840.987 -87.6669C851.282 -96.1351 860.052 -107.344 863.769 -122.108C867.75 -137.908 863.398 -151.734 862.832 -167.551C861.644 -200.733 877.876 -227.372 899.357 -245.666C929.715 -271.531 967.677 -283.76 1003.53 -292.286C1044.16 -301.902 1085.46 -306.643 1126.84 -306.441C1166.39 -306.276 1205.51 -307.346 1245.1 -308.581C1296.87 -310.227 1349.37 -307.568 1399.59 -290.788C1449.07 -274.247 1494.04 -243.246 1529.37 -197.646C1563.84 -153.149 1587.1 -98.7604 1607.46 -43.3591C1619.02 -11.9141 1638.54 35.0766 1666.11 50.9597C1678.37 58.0288 1690.4 57.5433 1677.36 75.9281C1660.95 99.0778 1638.83 117.652 1619.82 137.452C1592.39 166.025 1564.28 195.158 1541.26 229.129C1526.56 250.822 1520.01 271.873 1521.02 299.961C1521.81 321.358 1525.35 342.532 1523.56 364.011C1519.36 414.426 1486.82 448.998 1458.05 481.192C1439.55 501.897 1422.65 517.69 1413.12 547.143C1401.85 581.954 1397.13 619.827 1389.6 655.971C1381.33 695.662 1371.77 736.949 1353.72 771.909C1337.65 803.033 1318.1 816.99 1288.85 808.604C1243.23 795.536 1198.26 763.342 1157.75 733.559C1116.52 703.258 1076 669.187 1041.84 627.538C1023.4 605.046 1010.81 578.638 994.427 554.476C973.823 524.142 927.212 535.63 899.512 538.198C853.528 542.461 708.839 574.358 722.19 471.045C727.762 427.922 749.708 388.124 765.758 350.071C772.41 334.278 782.037 315.325 783.541 297.229C785.181 277.519 770.46 258.797 760.927 244.79Z" fill="#635BFF" fill-opacity="0.05" stroke="#635BFF" stroke-width="5"/>
<path fill-rule="evenodd" clip-rule="evenodd" d="M777.669 248.741C753.438 206.576 724.44 166.74 703.648 121.199C690.161 91.7055 676.916 52.2984 694.315 21.0922C713.953 -14.1239 757.255 -22.3331 789.073 -26.8205C821.854 -31.4397 860.989 -35.326 887.782 -62.0283C896.306 -70.5339 903.333 -82.0036 904.642 -95.7377C905.903 -108.912 902.342 -122.086 903.522 -135.499C906.166 -165.618 921.13 -190.435 940.424 -208.434C997.498 -261.682 1082.44 -273.523 1151.3 -274.914C1185.77 -275.606 1221.24 -271.975 1255.93 -269.373C1300.95 -265.997 1346.03 -258.751 1388.96 -241.287C1480.24 -204.169 1541.42 -121.847 1584.15 -19.41C1597.6 12.8336 1607.89 47.7203 1628.96 73.6322C1639.83 87.0122 1637.45 96.6211 1626.35 108.824C1608.98 127.893 1587.8 142.467 1568.53 158.383C1541.11 181.018 1513.11 203.99 1488.87 231.104C1472.16 249.795 1460.29 267.802 1456.69 295.83C1454.12 315.814 1454.72 336.176 1453.18 356.283C1450.24 394.48 1440.17 432.388 1422.35 464.072C1408.18 489.185 1391.32 512.01 1373.9 533.772C1351.25 562.104 1332.09 590.89 1314.88 624.517C1292.08 669.029 1260.03 751.136 1206.31 729.407C1147.06 705.43 1091.52 644.508 1053.51 585.48C1040.74 565.661 1030.26 541.355 1013.04 526.74C987.267 504.896 961.115 505.661 930.457 505.752C884.558 505.875 784.682 518.037 783.603 434.118C783.178 400.869 794.967 369.433 800.611 337.452C806.977 301.635 794.218 277.477 777.669 248.741Z" fill="#635BFF" fill-opacity="0.05" stroke="#9D80F8" stroke-width="5"/>
<path fill-rule="evenodd" clip-rule="evenodd" d="M795.716 252.501C771.749 197.545 718.004 107.242 758.881 46.1324C780.473 13.8372 818.665 1.7008 850.702 -5.53168C876.484 -11.3818 907.577 -13.5787 927.057 -38.3781C941.376 -56.6115 935.02 -83.147 940.505 -105.972C947.314 -134.268 962.941 -157.422 982.145 -174.824C1035.81 -223.46 1110.42 -238.386 1174.98 -241.562C1242.02 -244.853 1315.89 -229.459 1378.98 -199.846C1457.65 -162.91 1516.58 -92.9714 1557.79 -4.40442C1565.4 11.9448 1572.31 28.7218 1579.61 45.2684C1584.51 56.3681 1591.79 67.1057 1595.65 78.7814C1602.09 98.249 1594.51 114.162 1582.35 126.85C1564.86 145.116 1543.37 158.116 1523.43 171.824C1496.17 190.584 1468.29 209.007 1442.93 231.017C1425.88 245.828 1408.04 261.782 1401.94 287.478C1397.78 305.004 1396.92 323.567 1397.07 341.718C1397.39 380.636 1395.72 412.109 1380.83 447.753C1356.34 506.271 1318.67 558.889 1278.88 602.671C1247.65 637.031 1198.24 690.407 1152.74 667.434C1111.92 646.864 1088.04 597.627 1061.15 557.82C1048.07 538.467 1033.38 520.793 1016.12 507.028C994.358 489.675 973.872 482.393 948.09 479.554C904.696 474.774 839.265 473.531 825.851 410.011C820.898 386.569 823.725 362.288 821.127 338.542C817.733 307.143 807.808 280.221 795.716 252.501Z" fill="#635BFF" fill-opacity="0.05" stroke="#2D1959" stroke-width="5"/>
<path fill-rule="evenodd" clip-rule="evenodd" d="M820.638 254.536C803.571 194.404 781.15 118.621 822.371 65.1783C842.338 39.2888 870.423 24.8159 897.604 14.0004C917.072 6.2492 947.983 3.96755 959.918 -19.8627C968.684 -37.3998 969.898 -61.5925 977.828 -80.3816C988.725 -106.214 1005.23 -127.49 1024.6 -144.146C1075.05 -187.548 1140.76 -204.319 1200.69 -209.121C1330.9 -219.541 1463.39 -136.551 1533.07 -0.0110474C1553.84 40.6891 1580.66 84.0086 1547.09 125.59C1510.43 170.952 1455.21 192.205 1411.46 224.437C1394.74 236.743 1373.44 251.537 1364.12 273.819C1358.51 287.213 1358.12 304.017 1357.87 318.761C1357.19 356.315 1354.64 390.087 1342.26 425.128C1323.15 479.28 1292.68 529.239 1258.15 570.161C1228.03 605.845 1185.09 647.781 1141.35 622.056C1107.82 602.286 1086.55 560.326 1060.49 529.395C1031.5 494.947 995.637 471.735 956.257 460.392C917.949 449.387 875.932 441.965 855.743 395.211C848.818 379.173 841.582 358.407 838.986 340.656C834.795 311.388 828.659 282.586 820.638 254.536Z" fill="#635BFF" fill-opacity="0.05" stroke="#635BFF" stroke-width="5"/>
<path fill-rule="evenodd" clip-rule="evenodd" d="M848.426 254.959C840.531 194.239 839.653 130.925 876.338 83.0683C893.459 60.7419 915.101 44.8803 936.986 30.5094C953.088 19.935 969.716 11.016 981.741 -6.3197C992.883 -22.3707 1001.35 -41.0075 1012.11 -57.4785C1026.3 -79.3061 1043.28 -98.2015 1062.39 -113.439C1110.31 -151.561 1168.59 -169.391 1224.35 -175.575C1251.35 -178.581 1280.63 -180.146 1307.44 -171.952C1333.33 -164.046 1358.94 -151.544 1382.75 -136.967C1433.36 -106.01 1477.22 -60.6739 1509.02 -3.35492C1530.83 35.9613 1542.62 74.1904 1514.38 114.075C1482.55 159.032 1432.64 183.838 1391.5 213.016C1363.28 233.028 1331.66 252.645 1326.39 295.173C1322.19 329.013 1318.78 361.131 1307.93 393.118C1291.77 440.299 1268.01 483.038 1238.05 518.8C1210.66 551.379 1176.01 579.026 1136.83 561.624C1105.78 547.813 1081.7 516.872 1054.58 494.752C1024.35 470.045 991.142 456.424 956.172 445.471C924.744 435.588 895.152 420.402 874.84 388.16C870.683 381.572 866.316 374.399 863.111 367.028C859.021 357.623 859.339 348.3 858.536 337.759C856.444 309.939 851.996 282.441 848.426 254.959Z" fill="#635BFF" fill-opacity="0.05" stroke="#9D80F8" stroke-width="5"/>
<path fill-rule="evenodd" clip-rule="evenodd" d="M879.066 249.996C879.74 192.321 891.106 137.813 922.236 92.866C935.544 73.6382 951.436 57.8006 966.08 40.1813C977.871 25.9769 989.014 12.7789 1002.57 1.07397C1034.73 -26.6418 1060.87 -62.5073 1095.05 -87.1876C1140.67 -120.183 1192.94 -138.42 1244.79 -145.712C1270.12 -149.276 1296.27 -150.521 1321.89 -146.496C1343.9 -143.04 1364.97 -130.906 1384.52 -118.492C1422.83 -94.1742 1460.03 -59.612 1484.91 -15.8854C1539.75 80.5176 1431.62 150.607 1376.12 191.653C1350.59 210.534 1311.59 232.402 1301.14 269.802C1293.66 296.519 1289.11 323.691 1279.49 349.583C1253.63 419.12 1201.15 500.906 1131.2 490.018C1101.28 485.366 1074 466.468 1046.06 453.781C1017.29 440.715 987.597 433.432 957.696 425.439C929.75 417.974 907.477 407.349 889.427 378.866C880.799 365.264 881.562 348.981 880.793 332.294C879.538 304.883 878.762 277.316 879.066 249.996Z" fill="#635BFF" fill-opacity="0.05" stroke="#2D1959" stroke-width="5"/>
<path fill-rule="evenodd" clip-rule="evenodd" d="M906.966 242.609C918.202 155.553 959.934 60.5134 1021.3 9.95599C1093.48 -49.516 1171.67 -99.596 1257.91 -113.993C1297.9 -120.668 1341.7 -123.953 1379.42 -102.123C1408.14 -85.5203 1441.49 -60.7025 1457.29 -25.8013C1495.95 59.5667 1409.96 127.525 1360.97 167.02C1334.59 188.281 1301.02 209 1281.14 240.049C1269.6 258.051 1263.71 281.864 1254.4 301.636C1226.18 361.553 1179.73 409.879 1121.87 418.522C1095.11 422.515 1068.16 417.576 1041.61 413.649C1014.43 409.633 986.912 407.451 959.9 401.846C938.339 397.368 912.928 389.787 904.987 361.627C894.973 326.141 902.38 278.16 906.966 242.609Z" fill="#635BFF" fill-opacity="0.05" stroke="white" stroke-width="5"/>
<path fill-rule="evenodd" clip-rule="evenodd" d="M934.324 228.624C950.712 146.777 985.414 66.9405 1043.75 18.0795C1074.69 -7.82979 1110.6 -25.715 1145.08 -43.386C1184.16 -63.4132 1225 -78.9587 1266.7 -86.6697C1318.63 -96.2755 1402.73 -104.934 1429.86 -32.7258C1456.79 38.9469 1388.75 102.381 1348.51 138.531C1322.71 161.688 1295.1 182.943 1270.45 208.259C1257.08 221.984 1246.79 237.843 1235.48 253.94C1204.22 298.542 1159.65 333.851 1114.22 352.7C1070.2 370.973 1015.74 379.063 969.263 373.024C949.211 370.429 934.879 361.672 928.814 336.776C920.411 302.167 927.55 262.434 934.324 228.624Z" fill="#635BFF" fill-opacity="0.05" stroke="#9D80F8" stroke-width="5"/>
<path fill-rule="evenodd" clip-rule="evenodd" d="M961.51 206.58C977.79 134.517 1012.9 68.6969 1064.12 25.4459C1121.54 -23.0392 1195.47 -49.9809 1263.42 -63.6814C1299.54 -70.9583 1377.81 -90.6886 1396.22 -34.2211C1414.63 22.2464 1361.41 77.8934 1330.78 108.527C1293.6 145.649 1253.52 181.492 1213.48 214.8C1178.7 243.76 1141.58 273.368 1103.9 295.732C1082.65 308.419 1060.52 318.777 1037.76 326.685C1020.91 332.493 999.476 341.157 981.807 336.833C937.241 325.914 953.724 241.036 961.51 206.58Z" fill="#635BFF" fill-opacity="0.05" stroke="#635BFF" stroke-width="5"/>
<path fill-rule="evenodd" clip-rule="evenodd" d="M995.067 185C1030.79 48.7206 1143.96 -18.3043 1252.92 -41.6663C1278.25 -47.0892 1349.23 -66.6412 1363.38 -25.0109C1377.1 15.3522 1333.48 63.22 1313.06 85.899C1249.78 156.174 1171.6 208.28 1097.52 259.9C1074.39 276.013 1032.69 310.978 1004 294.849C972.86 277.305 987.667 213.259 995.067 185Z" fill="#635BFF" fill-opacity="0.05" stroke="white" stroke-width="5"/>
<path fill-rule="evenodd" clip-rule="evenodd" d="M1031.66 158.77C1062.72 58.4103 1153.07 0.850027 1236.14 -18.1254C1256.49 -22.7684 1308.16 -37.2244 1323.57 -9.21808C1337.83 16.689 1303.8 54.2283 1291.07 69.1452C1262.72 102.363 1229.13 129.727 1195.94 156.029C1165.26 180.364 1134.24 205.307 1101.95 225.888C1084.95 236.722 1053.05 259.838 1033.72 243.11C1012.92 225.114 1024.76 181.055 1031.66 158.77Z" fill="#635BFF" fill-opacity="0.05" stroke="white" stroke-width="5"/>
<path fill-rule="evenodd" clip-rule="evenodd" d="M1071.97 129.449C1095.65 63.9095 1159.06 21.3507 1215 7.2083C1230.05 3.41119 1262.58 -6.43982 1275.28 11.0631C1286.97 27.1823 1268.13 50.8132 1259.77 61.7268C1222.71 110.101 1168.45 153.31 1118.72 179.849C1106.22 186.521 1083.75 199.617 1070.89 186.15C1057.7 172.321 1066.54 144.497 1071.97 129.449Z" fill="#635BFF" fill-opacity="0.05" stroke="#2D1959" stroke-width="5"/>
<path fill-rule="evenodd" clip-rule="evenodd" d="M1114.75 101.918C1128.09 69.3742 1162.96 44.8206 1191.84 37.0047C1212.17 31.5086 1236.6 36.2563 1218.89 64.5848C1201.29 92.6971 1168.63 118.373 1140.96 129.756C1119.84 138.437 1103.29 129.873 1114.75 101.918Z" fill="#635BFF" fill-opacity="0.05" stroke="#9D80F8" stroke-width="5"/>
<path fill-rule="evenodd" clip-rule="evenodd" d="M32.854 327.323C31.9983 263.028 4.00354 196.206 17.8291 130.693C29.182 76.887 86.337 72.3949 120.625 48.0177C147.872 28.6509 163.334 -5.65657 178.069 -38.5736C191.309 -68.1257 203.201 -98.5663 217.148 -127.633C226.176 -146.424 241.679 -183.323 261.259 -183.989C280.003 -184.631 297.19 -155.877 308.078 -138.88C322.274 -116.724 334.86 -93.1035 348.645 -70.5939C371.877 -32.6253 399.75 -4.52116 431.666 22.0774C467.986 52.3425 504.906 81.5737 542.425 109.771C570.05 130.594 597.862 151.261 624.415 174.141C641.071 188.497 677.831 215.433 678 241.9C678.08 254.529 668.277 268.515 661.668 278.61C650.483 295.698 637.736 311.321 624.948 326.607C601.13 355.082 576.302 382.264 551.744 409.776C519.868 445.482 489.421 480.604 461.399 521.14C432.427 563.098 404.749 606.439 376.505 649.188C357.377 678.148 338.269 710.67 310.679 728.44C276.122 750.654 247.757 727.231 212.809 726.96C182.745 726.721 184.962 641.685 181.142 618.04C177.308 594.107 168.859 571.827 165.585 547.837C161.502 517.89 161.448 487.252 160.444 456.984C159.224 419.961 158.739 384.716 126.325 370.598C107.877 362.577 87.9204 360.89 68.826 356.085C56.4558 352.967 33.1235 347.636 32.854 327.323Z" fill="#635BFF" fill-opacity="0.05" stroke="#635BFF" stroke-width="5"/>
<path fill-rule="evenodd" clip-rule="evenodd" d="M47.6335 315.886C44.4823 261.99 25.8651 193.008 43.4702 137.374C58.511 89.8307 105.55 83.6675 137.224 58.6931C163.372 38.094 175.012 4.38555 188.082 -28.7296C198.569 -55.2943 208.738 -82.1144 220.641 -107.83C229.413 -126.782 242.807 -158.776 261.047 -162.698C277.444 -166.225 295.029 -137.979 304.233 -123.609C317.661 -102.631 329.145 -79.8484 341.008 -57.5437C361.852 -18.3642 383.195 16.8686 413.702 45.6497C444.344 74.5544 477.867 96.1671 511.748 118.661C538.253 136.261 564.624 154.372 589.807 174.691C608.566 189.819 635.537 209.182 644.12 236.159C650.915 257.499 616.454 292.913 606.292 305.413C585.373 331.113 563.207 355.238 541 379.216C513.928 408.433 485.992 433.985 462.084 467.314C419.323 526.903 383.58 601.109 328.558 645.398C295.373 672.111 258.442 678.941 221.531 674.945C206.916 673.363 203.407 648.174 201.565 633.483C198.501 609.077 198.116 584.251 195.762 559.746C193.555 536.807 188.656 515.013 184.709 492.519C180.714 469.728 179.594 446.377 176.652 423.43C174.83 409.183 173.028 392.605 165.059 381.152C156.813 369.295 143.21 364.326 131.32 360.553C108.991 353.533 49.8603 353.92 47.6335 315.886Z" fill="#635BFF" fill-opacity="0.05" stroke="#2D1959" stroke-width="5"/>
<path fill-rule="evenodd" clip-rule="evenodd" d="M66.6556 293.324C61.356 243.852 53.9364 182.234 75.5267 136.654C93.1743 99.3855 130.812 91.3459 157.695 67.0624C180.055 46.8687 188.501 14.7514 199.6 -15.0948C208.707 -39.5757 217.862 -64.1636 228.9 -87.4596C237.271 -105.127 248.06 -129.081 264.681 -135.245C278.892 -140.511 294.947 -116.919 302.825 -105.176C316.24 -85.1637 327.177 -62.7401 338.039 -40.6126C355.809 -4.40549 372.16 34.2703 397.45 63.7215C422.024 92.3004 451.216 109.17 480.955 128.137C503.734 142.669 526.37 157.761 547.832 175.091C564.312 188.389 584.734 204.148 593.322 226.275C600.748 245.358 581.683 267.946 572.157 281.409C556.427 303.627 538.968 324.01 521.753 344.475C503.173 366.553 482.596 386.919 464.617 409.541C426.811 457.145 396.606 509.851 350.009 546.321C319.832 569.946 279.223 591.407 243.55 587.548C217.896 584.767 219.583 515.463 217.119 493.319C213.068 457.112 205.244 419.07 192.815 385.718C182.141 357.139 156.777 348.326 133.445 341.916C118.829 337.892 103.51 335.719 89.3734 329.498C73.0085 322.29 68.8768 314.061 66.6556 293.324Z" fill="#635BFF" fill-opacity="0.05" stroke="white" stroke-width="5"/>
<path fill-rule="evenodd" clip-rule="evenodd" d="M84.3991 270.135C81.2436 228.309 81.9531 178.848 102.393 142.667C120.305 110.976 152.198 102.632 174.881 77.6667C192.584 58.1896 199.537 26.4321 209.057 0.674561C220.693 -30.8189 236.997 -88.986 266.349 -100.837C293.654 -111.855 322.208 -41.4735 332.094 -20.4861C347.743 12.7321 360.831 49.1608 379.811 79.8372C396.156 106.247 418.055 120.846 441.299 136.535C470.935 156.574 515.929 180.334 531.774 219.387C543.585 248.487 505.179 291.749 492.063 311.911C478.347 332.973 468.016 357.938 453.86 378.257C431.522 410.32 395.325 436.135 365.439 455.835C336.384 474.999 298.654 496.209 265.694 494.946C244.031 494.121 239.909 453.285 235.288 433.338C228.666 404.98 219.862 379.569 200.949 360.282C181.699 340.648 159.009 331.397 135.157 323.3C122.913 319.174 108.947 315.955 97.994 307.62C85.8924 298.55 85.6154 286.212 84.3991 270.135Z" fill="#635BFF" fill-opacity="0.05" stroke="#9D80F8" stroke-width="5"/>
<path fill-rule="evenodd" clip-rule="evenodd" d="M106.018 246.026C106.193 209.892 112.962 171.359 133.032 143.486C149.748 120.269 175.914 112.509 191.916 88.7747C204.592 69.9846 211.044 43.6062 219.53 21.7858C229.908 -4.95392 244.584 -51.6662 270.392 -60.9463C295.581 -69.98 317.861 -18.529 327.519 1.82959C341.662 31.6818 353.112 63.3243 367.383 93.0944C378.563 116.451 392.235 131.504 410.44 146.557C431.81 164.239 461.626 183.825 473.042 213.078C481.272 234.258 461.35 268.101 454.117 286.76C449.267 299.292 444.829 312.021 442.391 325.605C440.492 336.182 440.303 345.972 434.801 355.055C420.947 377.902 390.572 380.883 369.963 388.414C342.592 398.408 313.55 409.766 284.906 411.934C267.301 413.289 258.317 393.489 248.268 379.561C236.394 363.095 219.584 351.252 204.901 338.827C185.525 322.402 164.437 312.186 142.623 301.723C132.783 297.001 121.226 292.369 113.602 282.982C105.641 273.251 105.958 259.068 106.018 246.026Z" fill="#635BFF" fill-opacity="0.05" stroke="#635BFF" stroke-width="5"/>
<path fill-rule="evenodd" clip-rule="evenodd" d="M128.724 224.575C132.203 194.227 143.044 165.221 161.355 143.767C175.392 127.296 194.033 118.022 205.299 98.2321C215.796 79.7843 223.111 58.8081 231.781 39.0838C240.956 18.2312 254.588 -16.6219 275.751 -22.2963C298.559 -28.4071 316.128 6.75078 325.857 26.2363C338.147 50.8608 347.485 77.3547 358.474 102.828C366.753 121.814 377.313 139.178 389.803 154.341C402.903 170.327 420.668 185.637 427.295 207.618C433.153 227.087 422.191 250.641 420.256 270.381C418.187 291.473 421.814 313.627 410.339 331.737C386.675 369.085 327.286 362.159 293.334 362.958C259.834 363.781 232.9 340.928 205.791 319.186C187.884 304.831 169.236 292.675 150.878 279.3C132.163 265.654 125.664 251.283 128.724 224.575Z" fill="#635BFF" fill-opacity="0.05" stroke="white" stroke-width="5"/>
<path fill-rule="evenodd" clip-rule="evenodd" d="M149.821 207.205C160.108 163.239 192.239 139.871 215.209 106.645C234.004 79.4446 248.096 23.1149 279.748 15.6636C315.683 7.20675 337.196 81.8433 349.69 110.643C363.553 142.583 388.243 168.563 398.51 202.374C403.907 220.121 399.272 236.68 396.399 254.418C393.248 273.895 390.881 293.809 380.006 309.487C358.601 340.339 316.797 340.124 286.689 340.973C255.523 341.855 227.952 320.713 203.121 299.612C176.784 277.266 139.284 252.291 149.821 207.205Z" fill="#635BFF" fill-opacity="0.05" stroke="white" stroke-width="5"/>
<path fill-rule="evenodd" clip-rule="evenodd" d="M167.051 195.283C178.644 163.958 203.003 138.492 222.77 114.452C239.268 94.4105 257.016 54.0649 282.171 51.1889C311.736 47.7968 329.654 90.879 341.287 117.295C352.737 143.253 369.235 170.661 375.575 199.15C382.186 228.827 364.58 268.796 347.79 289.796C329.063 313.214 298.425 321.866 272.135 320.932C244.609 319.982 219.352 300.628 198.505 280.554C176.218 259.095 153.57 231.646 167.051 195.283Z" fill="#635BFF" fill-opacity="0.05" stroke="#635BFF" stroke-width="5"/>
<path fill-rule="evenodd" clip-rule="evenodd" d="M183.04 189.385C194.113 163.332 213.307 141.292 231.004 121.633C244.662 106.456 264.815 80.6485 284.519 80.0164C306.196 79.3187 324.567 100.981 333.184 123.184C341.679 145.085 350.63 172.542 351.902 196.568C354.664 248.888 298.442 307.496 256.225 302.727C216.197 298.204 160.962 241.295 183.04 189.385Z" fill="#635BFF" fill-opacity="0.05" stroke="white" stroke-width="5"/>
<path fill-rule="evenodd" clip-rule="evenodd" d="M197.826 186.513C213.102 152.567 250.207 104.173 284.558 103.024C323.988 101.71 333.887 155.563 328.747 194.591C323.526 234.422 278.066 292.076 241.818 284.286C206.439 276.684 179.722 226.771 197.826 186.513Z" fill="#635BFF" fill-opacity="0.05" stroke="#2D1959" stroke-width="5"/>
<path fill-rule="evenodd" clip-rule="evenodd" d="M213.438 181.024C226.371 152.602 253.97 117.101 282.756 116.026C317.054 114.755 316.407 160.222 308.629 188.521C300.542 217.903 264.922 268.086 234.89 260.163C205.687 252.428 201.044 208.265 213.438 181.024Z" fill="#635BFF" fill-opacity="0.05" stroke="#635BFF" stroke-width="5"/>
<path fill-rule="evenodd" clip-rule="evenodd" d="M227.036 177.753C235.573 157.472 256.939 131.84 277.25 131.02C302.077 130.034 297.251 166.096 290.837 183.502C283.212 204.213 257.655 240.201 236.208 234.369C215.092 228.628 219.992 194.463 227.036 177.753Z" fill="#635BFF" fill-opacity="0.05" stroke="white" stroke-width="5"/>
</g>
</svg>
