<svg width="304" height="230" viewBox="0 0 304 230" fill="none" xmlns="http://www.w3.org/2000/svg">
<path d="M20.3178 203.778C-3.87991 207.881 -10.1832 215.496 30.0054 221.334C77.3009 228.187 131.154 219.98 163.601 224.295C196.005 228.61 235.263 231.021 257.092 229.583C300.072 226.706 308.829 197.432 274.606 191.594C243.555 186.306 148.033 205.089 125.189 204.032C101.752 202.932 49.8458 198.786 20.3178 203.778Z" fill="#E4E6EB"/>
<path d="M67.6139 25.9762C49.6348 37.1021 40.4549 57.0271 42.2317 76.6984C37.5783 77.5021 32.9672 79.152 28.7368 81.8171C11.0115 92.7738 5.55437 115.999 16.511 133.724C26.537 149.926 46.8005 155.849 63.722 148.403C64.2296 150.307 64.9911 152.211 66.091 153.987C71.9712 163.506 84.4508 166.467 93.9692 160.544C95.1537 159.783 96.2536 158.937 97.2689 158.006C106.914 167.863 122.397 170.105 134.623 162.533C136.738 161.221 138.642 159.656 140.334 157.964C141.096 162.237 142.618 166.425 145.072 170.317C155.31 186.857 176.969 191.934 193.51 181.739C208.062 172.728 213.773 154.833 207.893 139.393C222.826 121.667 222.911 90.7432 206.455 64.1765C191.099 39.3442 165.97 25.7647 144.353 28.4721C143.591 26.9069 142.745 25.2993 141.772 23.7764C130.985 6.34727 112.033 -1.52122 99.5109 6.26267C95.196 8.9278 92.1924 13.1159 90.5426 18.15C82.5895 18.9961 74.8056 21.5343 67.6139 25.9762Z" fill="#E4E6EB"/>
<path d="M81.362 30.5443C81.2351 30.5443 81.1505 30.502 81.0659 30.4174L77.6816 27.0331C77.5124 26.8639 77.5124 26.6101 77.6816 26.4409C77.8508 26.2716 78.1046 26.2716 78.2738 26.4409L81.1928 29.3598L83.3503 24.2411C83.3926 24.1142 83.5195 24.0295 83.6464 23.9872C83.7733 23.9449 83.9426 23.9872 84.0272 24.0719L86.65 26.5255L89.442 20.6029C89.4843 20.476 89.6112 20.3914 89.7805 20.3491C89.9074 20.3491 90.0766 20.3914 90.1612 20.476L92.6994 23.4373C92.8686 23.6065 92.8263 23.9026 92.6571 24.0295C92.4879 24.1988 92.1918 24.1565 92.0649 23.9872L89.9497 21.5336L87.1999 27.4138C87.1576 27.5408 87.0307 27.6254 86.9038 27.6677C86.7769 27.71 86.65 27.6677 86.5231 27.5408L83.9425 25.0871L81.7851 30.2482C81.7427 30.3751 81.6158 30.4597 81.4889 30.502C81.4466 30.5443 81.4043 30.5443 81.362 30.5443Z" fill="#2E3433"/>
<path d="M237.886 53.9383C237.843 53.8537 237.801 53.7268 237.843 53.5999L239.112 48.9888C239.155 48.7773 239.408 48.6504 239.62 48.6927C239.831 48.735 239.958 48.9888 239.916 49.2003L238.816 53.2192L244.316 52.5423C244.443 52.5423 244.612 52.5846 244.696 52.6692C244.781 52.7538 244.823 52.923 244.781 53.05L243.935 56.5189L250.45 56.0112C250.577 56.0112 250.746 56.0535 250.83 56.1804C250.915 56.3073 250.957 56.4343 250.873 56.5612L249.561 60.2416C249.477 60.4531 249.223 60.58 249.011 60.4954C248.8 60.4108 248.673 60.157 248.758 59.9455L249.857 56.8996L243.385 57.4072C243.258 57.4072 243.131 57.3649 243.047 57.2803C242.962 57.1957 242.92 57.0265 242.962 56.8996L243.808 53.4307L238.266 54.1076C238.139 54.1076 237.97 54.0652 237.886 53.9806C237.928 53.9806 237.928 53.9383 237.886 53.9383Z" fill="#2E3433"/>
<path d="M212.969 71.7477C211.319 71.7477 210.008 70.4363 210.008 68.7864C210.008 67.1366 211.319 65.8252 212.969 65.8252C214.619 65.8252 215.93 67.1366 215.93 68.7864C215.93 70.4363 214.619 71.7477 212.969 71.7477ZM212.969 66.6713C211.785 66.6713 210.854 67.6019 210.854 68.7864C210.854 69.971 211.785 70.9016 212.969 70.9016C214.154 70.9016 215.084 69.971 215.084 68.7864C215.084 67.6442 214.154 66.6713 212.969 66.6713Z" fill="#2E3433"/>
<path d="M45.1922 78.1354C43.5424 78.1354 42.231 76.824 42.231 75.1742C42.231 73.5243 43.5424 72.2129 45.1922 72.2129C46.8421 72.2129 48.1535 73.5243 48.1535 75.1742C48.1535 76.824 46.8421 78.1354 45.1922 78.1354ZM45.1922 73.059C44.0077 73.059 43.077 73.9896 43.077 75.1742C43.077 76.3587 44.0077 77.2893 45.1922 77.2893C46.3767 77.2893 47.3074 76.3587 47.3074 75.1742C47.3074 74.032 46.3767 73.059 45.1922 73.059Z" fill="#2E3433"/>
<path d="M10.5875 49.5379L8.30313 48.0573L10.5875 46.619C10.7991 46.4921 10.8414 46.2383 10.7144 46.0267C10.5875 45.8152 10.3337 45.7729 10.1222 45.8998L7.49936 47.5497L4.87653 45.8575C4.66502 45.7306 4.41119 45.7729 4.28428 45.9844C4.15737 46.1959 4.19967 46.4498 4.41119 46.5767L6.69559 48.0573L4.41119 49.4956C4.19967 49.6226 4.15737 49.8764 4.28428 50.0879C4.36889 50.2148 4.4958 50.2994 4.62271 50.2994C4.70732 50.2994 4.79192 50.2994 4.83423 50.2148L7.45706 48.565L10.0799 50.2571C10.1645 50.2994 10.2491 50.3417 10.2914 50.3417C10.4183 50.3417 10.5452 50.2571 10.6298 50.1302C10.8414 49.9187 10.7991 49.6649 10.5875 49.5379Z" fill="#2E3433"/>
<path d="M175.276 25.0868L172.991 23.6061L175.276 22.1678C175.487 22.0409 175.529 21.7871 175.402 21.5756C175.276 21.364 175.022 21.3217 174.81 21.4486L172.187 23.0985L169.565 21.4063C169.353 21.2794 169.099 21.3217 168.972 21.5333C168.845 21.7448 168.888 21.9986 169.099 22.1255L171.384 23.6061L169.099 25.0445C168.888 25.1714 168.845 25.4252 168.972 25.6367C169.057 25.7636 169.184 25.8482 169.311 25.8482C169.395 25.8482 169.48 25.8482 169.522 25.7636L172.145 24.1138L174.768 25.8059C174.852 25.8482 174.937 25.8905 174.979 25.8905C175.106 25.8905 175.233 25.8059 175.318 25.679C175.529 25.4675 175.445 25.2137 175.276 25.0868Z" fill="#2E3433"/>
<path d="M89.1883 69.7596C89.146 69.7596 89.1037 69.7596 89.1037 69.7596C80.8968 69.6327 75.1435 59.1837 69.6017 49.0731C64.9906 40.6547 60.591 32.7016 55.853 33.0823C52.8494 33.3361 46.7577 36.6781 34.8703 51.3998C27.721 60.2836 21.7985 69.1674 21.7562 69.252L20.7832 68.9136C21.7562 67.4752 44.5579 33.1669 55.7684 32.3208C61.3525 31.8978 65.6675 39.724 70.6593 48.8193C75.8204 58.2107 81.7006 68.9135 89.146 68.9982C89.1883 68.9982 89.1883 68.9982 89.2306 68.9982C92.6572 68.9982 96.2107 65.5716 100.018 58.5068C103.487 52.119 106.617 43.7428 109.663 35.6205C114.528 22.6756 118.759 11.5074 123.412 10.0268C124.258 9.77294 125.146 9.77294 126.035 10.0691C131.577 11.8035 137.668 23.6909 143.549 35.1975C146.045 40.0201 148.371 44.5889 150.444 47.8886C153.321 52.4997 154.632 52.7958 155.055 52.7112C159.962 51.7382 195.709 22.8871 213.9 7.78467L214.703 8.33462C212.546 10.1114 161.782 52.2036 155.351 53.515C152.263 54.1496 148.625 47.4233 142.533 35.4936C136.992 24.6639 130.731 12.4381 125.612 10.8305C124.977 10.619 124.385 10.619 123.835 10.7882C119.647 12.0996 115.29 23.6486 110.721 35.8743C104.375 52.4997 97.8606 69.7596 89.1883 69.7596Z" fill="#2E3433"/>
<path d="M207.511 20.178L206.496 19.8396L214.068 8.03684L201.8 14.1286L201.208 13.4517L216.733 5.75244L207.511 20.178Z" fill="#2E3433"/>
<path d="M116.897 78.9393C116.77 78.9393 116.686 78.897 116.601 78.8124L113.217 75.4281C113.048 75.2589 113.048 75.0051 113.217 74.8359C113.386 74.6667 113.64 74.6667 113.809 74.8359L116.728 77.7548L118.885 72.6361C118.928 72.5092 119.055 72.4246 119.182 72.3823C119.308 72.3399 119.478 72.3823 119.562 72.4669L122.185 74.9205L124.977 68.998C125.019 68.871 125.146 68.7864 125.316 68.7441C125.443 68.7441 125.612 68.7864 125.696 68.871L128.235 71.8323C128.404 72.0015 128.361 72.2976 128.192 72.4246C128.023 72.5938 127.727 72.5515 127.6 72.3823L125.485 69.9286L122.735 75.8089C122.693 75.9358 122.566 76.0204 122.439 76.0627C122.312 76.105 122.185 76.0627 122.058 75.9358L119.478 73.4822L117.32 78.6432C117.278 78.7701 117.151 78.8547 117.024 78.897C116.939 78.9393 116.939 78.9393 116.897 78.9393Z" fill="#2E3433"/>
<path d="M89.023 73.8195C88.7692 75.6386 88.1769 77.373 87.2462 78.8537C86.7809 79.5728 86.2732 80.292 85.681 80.8842C85.0887 81.4765 84.4542 82.0264 83.7773 82.5341C82.8889 83.1686 81.916 83.6763 80.9007 84.057C79.2931 84.6493 77.5164 84.9454 75.6973 84.8185C75.4012 84.8185 75.1474 84.7762 74.8512 84.7339C73.1168 84.5224 71.5515 83.9724 70.1132 83.1263C69.3094 82.661 68.5903 82.111 67.9134 81.5188C64.9945 78.8537 63.3869 74.8348 63.8946 70.6044C64.0638 69.2507 64.4445 68.0239 64.9945 66.8394C65.7559 65.2319 66.8558 63.7935 68.1673 62.6513C68.971 61.9322 69.9017 61.3399 70.8747 60.8746C72.3553 60.1554 74.0475 59.6901 75.7819 59.6055C76.5434 59.5632 77.3049 59.6055 78.0663 59.6901C85.0464 60.5784 89.9114 66.924 89.023 73.8195Z" fill="#9D80F8" stroke="#2E3433" stroke-width="1.5" stroke-miterlimit="10"/>
<path d="M82.8655 79.7493C87.2162 76.4389 88.0596 70.2284 84.7492 65.8777C81.4389 61.527 75.2284 60.6836 70.8777 63.9939C66.527 67.3042 65.6836 73.5147 68.9939 77.8655C72.3042 82.2162 78.5147 83.0596 82.8655 79.7493Z" fill="#9D80F8"/>
<path fill-rule="evenodd" clip-rule="evenodd" d="M81.584 67.3331C81.0061 66.9641 80.2285 67.1238 79.8472 67.6899L75.9663 73.4507C75.5924 74.0059 75.3816 74.3136 75.2075 74.5079C75.2052 74.5104 75.203 74.5129 75.2008 74.5153C75.198 74.5137 75.1951 74.512 75.1922 74.5103C74.9654 74.3801 74.6681 74.1535 74.1376 73.7429L72.1271 72.1865C71.5861 71.7677 70.7973 71.8582 70.3652 72.3886C69.9331 72.919 70.0213 73.6884 70.5623 74.1071L72.5728 75.6635C72.5917 75.6781 72.6105 75.6927 72.6293 75.7073C73.0816 76.0575 73.5168 76.3945 73.9116 76.6213C74.354 76.8753 74.9206 77.0969 75.6016 76.9881C76.2826 76.8793 76.7506 76.4924 77.0903 76.1135C77.3936 75.7752 77.7003 75.3197 78.0191 74.8463C78.0324 74.8266 78.0457 74.8068 78.059 74.7871L81.9398 69.0263C82.3212 68.4602 82.1619 67.7021 81.584 67.3331Z" fill="white"/>
<path d="M106.959 46.9588C107.128 48.0587 107.043 49.1163 106.747 50.0893C106.62 50.5969 106.409 51.0623 106.197 51.4853C105.986 51.9084 105.69 52.3314 105.394 52.7121C104.971 53.2198 104.505 53.6428 103.998 54.0235C103.194 54.6158 102.221 55.0811 101.163 55.2927C100.994 55.335 100.825 55.3773 100.656 55.3773C99.6402 55.5465 98.6673 55.4619 97.7366 55.2503C97.2289 55.1234 96.7213 54.9119 96.2136 54.7004C94.1408 53.6428 92.5755 51.6122 92.1948 49.1586C92.0679 48.3548 92.0679 47.5934 92.1948 46.8742C92.364 45.8166 92.7447 44.8436 93.337 43.9976C93.6754 43.4476 94.0985 42.9823 94.5638 42.5592C95.283 41.8824 96.1713 41.3747 97.1443 41.0363C97.5674 40.9094 97.9904 40.7825 98.4557 40.6979C102.559 40.1056 106.324 42.8977 106.959 46.9588Z" fill="#9D80F8" stroke="#2E3433" stroke-width="1.5" stroke-miterlimit="10"/>
<path d="M105.347 47.2106C105.812 50.3833 103.612 53.3869 100.44 53.8522C97.2669 54.3176 94.2633 52.1178 93.798 48.945C93.3326 45.7722 95.5324 42.7687 98.7052 42.3033C101.878 41.7957 104.882 43.9955 105.347 47.2106Z" fill="#9D80F8"/>
<path d="M101.753 47.9718C101.457 47.7179 101.077 47.591 100.654 47.5487V47.4641C101.33 47.0834 101.627 46.5334 101.5 45.8566C101.457 45.5605 101.33 45.3066 101.161 45.0951C101.034 44.9259 100.823 44.799 100.569 44.7144C100.484 44.6721 100.357 44.6298 100.188 44.6298L99.9767 43.3184L99.1729 43.4453L99.3421 44.6298C99.1729 44.6298 98.9614 44.6721 98.7499 44.7144H98.7076L98.5384 43.5299L97.7346 43.6568L97.9038 44.8413L96.4232 45.0528C96.3809 45.0528 96.3809 45.0951 96.3809 45.0951L96.4232 45.3489C96.4232 45.3912 96.4655 45.3912 96.4655 45.3912L97.3115 45.3489C97.3539 45.3489 97.3539 45.3489 97.3539 45.3912L98.1999 51.1022C98.1999 51.1445 98.1999 51.1445 98.1576 51.1445L97.3115 51.3561C97.2692 51.3561 97.2692 51.3984 97.2692 51.3984L97.3115 51.6522C97.3115 51.6945 97.3539 51.6945 97.3539 51.6945L98.8345 51.483L99.0037 52.7521L99.8075 52.6252L99.6383 51.3561L99.8921 51.3138C100.019 51.3138 100.146 51.2715 100.231 51.2715L100.4 52.5406L101.203 52.4137L100.992 51.0176C101.542 50.8061 101.88 50.51 102.092 50.087C102.261 49.7485 102.303 49.4101 102.261 49.0294C102.346 48.6486 102.134 48.2679 101.753 47.9718ZM99.1306 45.1374C99.2575 45.1374 99.3421 45.1374 99.469 45.1374C99.7229 45.1374 99.9344 45.1797 100.104 45.3066C100.188 45.3489 100.273 45.4335 100.357 45.5182C100.484 45.6874 100.611 45.8989 100.654 46.1527C100.696 46.4065 100.654 46.6604 100.569 46.8719C100.484 47.0411 100.4 47.168 100.231 47.2949C100.104 47.3795 99.9767 47.4641 99.8075 47.5487C99.6382 47.6333 99.4267 47.6756 99.2152 47.7179C99.1729 47.7179 99.1306 47.7179 99.046 47.7603L98.7499 47.8026C98.7076 47.8026 98.7076 47.8026 98.7076 47.7603L98.3691 45.3912C98.3691 45.3489 98.3691 45.3489 98.4114 45.3489L98.7922 45.3066H98.8768L99.1306 45.1374ZM101.077 50.4677C100.907 50.6369 100.611 50.7638 100.315 50.8484C100.188 50.8907 100.019 50.933 99.8498 50.933L99.6806 50.9753L99.2152 51.0599C99.1729 51.0599 99.1729 51.0599 99.1729 51.0176L98.7499 48.1833C98.7499 48.141 98.7499 48.141 98.7922 48.141L99.2152 48.0564C99.2152 48.0564 99.2152 48.0564 99.2575 48.0564C99.469 48.0141 99.6806 48.0141 99.8921 48.0141C100.231 48.0141 100.527 48.0987 100.78 48.2256C101.161 48.4371 101.373 48.8178 101.457 49.3678C101.5 49.7908 101.373 50.1716 101.077 50.4677Z" fill="white"/>
<path d="M60.5476 23.3052C60.1246 24.3205 59.49 25.1666 58.7286 25.8858C58.3478 26.2242 57.9248 26.5203 57.5018 26.8164C57.0787 27.0703 56.6134 27.2818 56.1903 27.451C55.5981 27.6625 54.9635 27.7894 54.329 27.874C53.3137 27.9586 52.2561 27.8317 51.2408 27.4933C51.0716 27.451 50.9447 27.3664 50.7755 27.3241C49.8448 26.9434 48.9987 26.3511 48.3641 25.6742C47.9834 25.2935 47.645 24.8705 47.3489 24.4051C46.122 22.4169 45.8259 19.8786 46.7989 17.5519C47.095 16.8328 47.5181 16.1559 48.0257 15.606C48.7026 14.8022 49.5486 14.1676 50.4793 13.7446C51.0716 13.4908 51.6638 13.2793 52.2984 13.1523C53.2714 12.9831 54.2867 12.9831 55.2597 13.1946C55.6827 13.2792 56.1057 13.4485 56.5288 13.6177C60.3784 15.1406 62.1552 19.4979 60.5476 23.3052Z" fill="#9D80F8" stroke="#2E3433" stroke-width="1.5" stroke-miterlimit="10"/>
<path d="M54.6834 26.1408C57.8615 25.5972 59.9972 22.5802 59.4536 19.4021C58.91 16.224 55.893 14.0883 52.7149 14.6319C49.5368 15.1755 47.4011 18.1926 47.9447 21.3706C48.4883 24.5487 51.5053 26.6844 54.6834 26.1408Z" fill="#9D80F8"/>
<path d="M55.5992 21.4472C55.4723 21.0664 55.2185 20.7703 54.8801 20.5165L54.9224 20.4319C55.7261 20.4319 56.2338 20.1357 56.4876 19.5435C56.6145 19.2474 56.6568 18.9935 56.6145 18.7397C56.5722 18.5282 56.4876 18.3167 56.3184 18.1052C56.2338 18.0206 56.1492 17.9359 56.0646 17.8513L56.5722 16.6245L55.8108 16.2861L55.3454 17.386C55.1762 17.3014 55.007 17.2168 54.7955 17.1322H54.7532L55.2185 16.0323L54.457 15.6938L53.9917 16.7937L52.638 16.2015C52.5957 16.2015 52.5957 16.2015 52.5534 16.2438L52.4688 16.4976C52.4688 16.5399 52.4688 16.5399 52.5111 16.5822L53.2725 17.0053C53.3148 17.0053 53.3148 17.0476 53.3148 17.0899L51.0727 22.4201C51.0727 22.4624 51.0304 22.4624 50.9881 22.4624L50.1844 22.2086C50.1421 22.2086 50.1421 22.2086 50.0997 22.2509L50.0151 22.5047C50.0151 22.547 50.0151 22.5471 50.0574 22.5894L51.4112 23.1816L50.9035 24.3661L51.665 24.7045L52.1726 23.52L52.4265 23.6046C52.5534 23.6469 52.638 23.6893 52.7649 23.7316L52.2572 24.9161L53.0187 25.2545L53.5687 23.9854C54.1186 24.07 54.5839 23.9854 54.9647 23.7739C55.3031 23.5623 55.5146 23.3085 55.6415 22.9701C55.7685 22.3355 55.7684 21.9125 55.5992 21.4472ZM54.8378 17.6821C54.9224 17.7244 55.0493 17.7667 55.1339 17.8513C55.3454 17.9782 55.4723 18.1475 55.5992 18.3167C55.6415 18.4013 55.6838 18.5282 55.7261 18.6128C55.7684 18.8243 55.7261 19.0358 55.6415 19.2897C55.5569 19.5435 55.3877 19.7127 55.2185 19.8396C55.0916 19.9242 54.9224 20.0088 54.7532 20.0088C54.6262 20.0088 54.457 20.0088 54.2878 20.0088C54.1186 19.9665 53.9071 19.9242 53.6956 19.8396C53.6533 19.8396 53.611 19.7973 53.5264 19.7973L53.2302 19.6704C53.1879 19.6704 53.1879 19.6281 53.1879 19.5858L54.1186 17.386C54.1186 17.3437 54.1609 17.3437 54.2032 17.3437L54.5416 17.5129L54.6263 17.5552L54.8378 17.6821ZM53.7379 23.2239C53.4841 23.2662 53.1879 23.2239 52.8495 23.1393C52.7226 23.097 52.5534 23.0547 52.4265 22.9701L52.2572 22.9278L51.8342 22.7586C51.7919 22.7586 51.7919 22.7163 51.7919 22.674L52.8918 20.0511C52.8918 20.0088 52.9341 20.0088 52.9764 20.0088L53.3994 20.178C53.3994 20.178 53.3994 20.178 53.4417 20.178C53.6533 20.2626 53.8225 20.3473 53.9917 20.4742C54.2878 20.6434 54.4993 20.8549 54.6263 21.1087C54.8378 21.4895 54.8378 21.9125 54.6263 22.4201C54.457 22.8855 54.1609 23.1393 53.7379 23.2239Z" fill="white"/>
<path d="M1.28125 116.845C1.28125 116.845 1.28125 116.802 1.28125 116.76V116.845Z" fill="#DBE0E6" stroke="#2E3433" stroke-width="1.6611" stroke-miterlimit="10" stroke-linecap="round" stroke-linejoin="round"/>
<path d="M1.28125 116.76C1.28125 116.717 1.28125 116.675 1.28125 116.59C1.32354 116.633 1.28125 116.675 1.28125 116.76Z" fill="#DBE0E6" stroke="#2E3433" stroke-width="1.6611" stroke-miterlimit="10" stroke-linecap="round" stroke-linejoin="round"/>
<path d="M24.6327 182.034V182.119C23.702 182.076 23.1098 182.034 22.856 181.992C23.4059 182.034 24.0405 182.034 24.6327 182.034Z" fill="#DBE0E6" stroke="#2E3433" stroke-width="1.6611" stroke-miterlimit="10" stroke-linecap="round" stroke-linejoin="round"/>
<path d="M302.357 116.337C301.637 112.233 292.754 113.291 288.269 117.859C280.232 126.024 273.082 157.117 271.39 172.008C270.967 175.9 270.883 178.65 271.306 179.665C271.94 181.273 275.536 181.95 279.09 181.992V182.077L281.924 205.386H276.847C276.847 205.386 268.133 185.419 267.964 185.419H151.84C151.84 185.419 35.3354 185.419 35.1662 185.376L26.8324 205.471H21.7983L24.6326 182.161V182.077C28.1438 182.034 31.7819 181.357 32.4165 179.75C32.7972 178.777 32.7549 175.985 32.3319 172.093C30.682 157.202 23.4904 126.109 15.4527 117.944C12.7453 115.194 8.47257 113.714 5.3421 113.841C5.25749 113.841 5.17289 113.841 5.08828 113.841C4.96137 113.841 4.87676 113.841 4.74985 113.883C4.66524 113.883 4.53833 113.925 4.45372 113.925C4.32681 113.925 4.1999 113.968 4.07298 114.01C3.98838 114.01 3.90377 114.052 3.81917 114.052C3.73456 114.052 3.69225 114.094 3.64995 114.094C3.56534 114.137 3.48074 114.137 3.39613 114.179C3.22691 114.221 3.1 114.306 2.97309 114.348C2.88848 114.391 2.84618 114.433 2.76157 114.475C2.63466 114.517 2.55005 114.602 2.46544 114.687C2.38083 114.729 2.33853 114.771 2.25392 114.856C2.21162 114.856 2.21162 114.898 2.16932 114.898C2.12701 114.941 2.04241 115.025 2.0001 115.067C1.9578 115.11 1.9155 115.152 1.87319 115.194C1.83089 115.237 1.78858 115.279 1.74628 115.321C1.70398 115.406 1.66167 115.448 1.61937 115.533C1.57706 115.575 1.57706 115.617 1.53476 115.702C1.49246 115.744 1.49246 115.787 1.49246 115.829C1.49246 115.871 1.45015 115.913 1.45015 115.998C1.45015 116.04 1.40785 116.083 1.40785 116.167C1.40785 116.21 1.40785 116.21 1.36555 116.252C1.36555 116.337 1.32324 116.421 1.32324 116.506C1.40785 115.702 1.9155 113.671 4.32681 111.895C6.4843 110.329 20.9945 103.138 29.7937 98.9497C35.1662 110.245 44.7692 122.64 48.4496 144.13L48.0689 144.384C48.0689 144.384 41.4695 147.599 38.1275 149.545H38.3813C35.7585 149.545 33.601 151.66 33.601 154.325V158.936C33.601 161.559 35.7162 163.717 38.3813 163.717H38.889C35.97 163.717 33.6433 166.086 33.6433 168.962V177.169C33.6433 179.284 34.8701 181.146 36.6046 182.077C36.943 182.246 37.3237 182.415 37.7045 182.5C38.1698 182.626 38.6351 182.711 39.1428 182.711H151.882V182.669H264.579C265.087 182.669 265.552 182.584 266.018 182.457C266.398 182.373 266.779 182.203 267.118 182.034C268.894 181.104 270.121 179.284 270.121 177.127V168.92C270.121 166.001 267.752 163.674 264.875 163.674H265.383C268.006 163.674 270.163 161.559 270.163 158.894V154.325C270.163 151.702 268.006 149.545 265.383 149.545H265.637C262.295 147.557 255.696 144.384 255.696 144.384L255.315 144.13C258.995 122.64 268.598 110.245 273.971 98.9497C282.77 103.138 297.28 110.329 299.438 111.895C301.722 113.544 302.23 115.49 302.357 116.337Z" fill="#DBE0E6" stroke="#2E3433" stroke-width="1.6611" stroke-miterlimit="10" stroke-linecap="round" stroke-linejoin="round"/>
<path d="M151.84 97.2997V146.287L52.849 146.33C51.3261 146.33 48.4071 146.076 48.4071 146.076C44.7267 124.586 35.1238 112.191 29.7512 100.896C28.9897 99.288 28.3129 97.7228 27.7206 96.1152C25.8593 90.9542 31.8241 86.5546 37.2813 86.5546H140.333C146.467 86.3853 151.84 90.7426 151.84 97.2997Z" fill="white" stroke="#2E3433" stroke-width="1.6611" stroke-miterlimit="10" stroke-linecap="round" stroke-linejoin="round"/>
<path d="M270.121 154.325V158.936C270.121 161.559 268.006 163.717 265.341 163.717L151.84 163.759H38.3814C35.7586 163.759 33.6011 161.644 33.6011 158.979V154.368C33.6011 151.745 35.7586 149.587 38.3814 149.587H61.0985C97.7758 149.587 151.84 149.587 151.84 149.587C151.84 149.587 205.904 149.545 242.581 149.545H265.341C267.964 149.545 270.121 151.66 270.121 154.325Z" fill="white" stroke="#2E3433" stroke-width="1.6611" stroke-miterlimit="10" stroke-linecap="round" stroke-linejoin="round"/>
<path d="M270.121 168.92V177.127C270.121 179.243 268.894 181.104 267.118 182.035C266.779 182.204 266.398 182.373 266.018 182.458C265.552 182.585 265.087 182.669 264.579 182.669L151.84 182.711H39.1006C38.5929 182.711 38.1276 182.627 37.6622 182.5C37.2815 182.415 36.9008 182.246 36.5623 182.077C34.7856 181.146 33.6011 179.327 33.6011 177.17V168.963C33.6011 166.044 35.9701 163.717 38.8467 163.717H151.84L264.833 163.675C267.752 163.675 270.121 166.044 270.121 168.92Z" fill="white" stroke="#2E3433" stroke-width="1.6611" stroke-miterlimit="10" stroke-linecap="round" stroke-linejoin="round"/>
<path d="M265.595 149.545H242.582C205.904 149.545 151.84 149.587 151.84 149.587C151.84 149.587 97.776 149.587 61.0987 149.587H38.0854C41.4274 147.599 48.0268 144.426 48.0268 144.426L151.84 144.384H255.654C255.654 144.341 262.253 147.556 265.595 149.545Z" fill="#DBE0E6" stroke="#2E3433" stroke-width="1.6611" stroke-miterlimit="10" stroke-linecap="round" stroke-linejoin="round"/>
<path d="M32.4165 179.708C31.782 181.315 28.1862 181.992 24.6327 182.034C24.0404 182.034 23.4058 182.034 22.8136 182.034C22.7713 182.034 22.7713 182.034 22.729 182.034C20.4446 181.95 18.414 181.611 17.6102 181.104C11.73 177.466 13.7606 166.34 1.40791 118.113C1.281 117.648 1.2387 117.267 1.281 116.887V116.802C1.281 116.717 1.281 116.633 1.3233 116.548C1.3233 116.464 1.36561 116.379 1.36561 116.294C1.36561 116.252 1.3656 116.252 1.40791 116.21C1.40791 116.167 1.45021 116.083 1.45021 116.041C1.45021 115.998 1.49252 115.956 1.49252 115.871C1.49252 115.829 1.53482 115.787 1.53482 115.744C1.57712 115.702 1.57712 115.617 1.61943 115.575C1.66173 115.491 1.70403 115.448 1.74634 115.364C1.78864 115.321 1.83095 115.279 1.87325 115.237C1.91555 115.194 1.95786 115.152 2.00016 115.11C2.04247 115.068 2.12707 114.983 2.16938 114.941C2.21168 114.898 2.21168 114.898 2.25398 114.898C2.33859 114.856 2.38089 114.771 2.4655 114.729C2.55011 114.644 2.67702 114.602 2.76163 114.518C2.84624 114.475 2.88854 114.433 2.97315 114.391C3.10006 114.306 3.26928 114.264 3.39619 114.221C3.4808 114.179 3.5654 114.179 3.65001 114.137C3.69231 114.137 3.77692 114.095 3.81922 114.095C3.90383 114.052 3.98844 114.052 4.07304 114.052C4.19995 114.01 4.32687 114.01 4.45378 113.968C4.53839 113.968 4.6653 113.925 4.74991 113.925C4.87682 113.925 4.96143 113.883 5.08834 113.883C5.17294 113.883 5.25755 113.883 5.34216 113.883C8.47263 113.756 12.7453 115.237 15.4528 117.986C23.4905 126.151 30.6398 157.244 32.3319 172.135C32.755 175.943 32.7973 178.735 32.4165 179.708Z" fill="white" stroke="#2E3433" stroke-width="1.6611" stroke-miterlimit="10" stroke-linecap="round" stroke-linejoin="round"/>
<path d="M280.951 181.991C280.739 181.991 280.105 182.034 279.089 182.118V182.034C279.682 182.034 280.316 181.991 280.951 181.991Z" fill="#DBE0E6" stroke="#2E3433" stroke-width="1.6611" stroke-miterlimit="10" stroke-linecap="round" stroke-linejoin="round"/>
<path d="M302.399 116.802V116.717C302.399 116.759 302.399 116.802 302.399 116.802Z" fill="#DBE0E6" stroke="#2E3433" stroke-width="1.6611" stroke-miterlimit="10" stroke-linecap="round" stroke-linejoin="round"/>
<path d="M275.959 94.1688C275.409 95.734 274.732 97.3416 273.928 98.9491C268.514 110.244 258.953 122.639 255.272 144.13C255.272 144.13 252.396 144.383 250.831 144.383H151.84V95.3956C151.84 88.8385 157.212 84.4813 163.304 84.6082H266.356C271.856 84.6082 277.82 89.0077 275.959 94.1688Z" fill="white" stroke="#2E3433" stroke-width="1.6611" stroke-miterlimit="10" stroke-linecap="round" stroke-linejoin="round"/>
<path d="M302.399 116.717V116.801C302.399 117.182 302.356 117.563 302.272 118.028C289.919 166.254 291.95 177.423 286.069 181.018C285.266 181.526 283.277 181.864 281.035 181.949C281.035 181.949 280.993 181.949 280.951 181.949C280.358 181.991 279.724 181.991 279.089 181.949C275.578 181.907 271.982 181.23 271.305 179.622C270.925 178.649 270.967 175.857 271.39 171.965C273.04 157.074 280.232 125.981 288.269 117.817C292.796 113.206 301.637 112.148 302.356 116.294C302.356 116.336 302.356 116.421 302.399 116.463C302.399 116.59 302.399 116.632 302.399 116.717Z" fill="white" stroke="#2E3433" stroke-width="1.6611" stroke-miterlimit="10" stroke-linecap="round" stroke-linejoin="round"/>
<path d="M233.356 110.952L218.391 126.786L225.831 133.818L240.796 117.984L233.356 110.952Z" fill="#635BFF" stroke="#2E3433" stroke-width="1.5" stroke-miterlimit="10"/>
<path d="M237.802 120.651L227.818 131.185C227.057 131.988 225.745 131.946 224.857 131.1L221.261 127.419C220.415 126.531 220.373 125.177 221.134 124.374L231.118 113.84C231.879 113.036 233.191 113.079 234.079 113.925L237.675 117.605C238.521 118.451 238.563 119.847 237.802 120.651Z" fill="#E4E6EB"/>
<path d="M229.57 126.233C231.649 126.175 233.286 124.443 233.228 122.365C233.17 120.286 231.438 118.648 229.36 118.706C227.281 118.764 225.643 120.497 225.701 122.575C225.759 124.654 227.491 126.292 229.57 126.233Z" fill="#96999E" stroke="#2E3433" stroke-width="1.5" stroke-miterlimit="10"/>
<path d="M230.906 121.581C230.737 121.497 230.567 121.497 230.398 121.497C230.229 121.497 230.018 121.539 229.848 121.624C229.764 121.666 229.552 121.793 229.256 121.962L227.902 120.693C228.072 120.566 228.241 120.524 228.452 120.524C228.621 120.524 228.833 120.608 229.045 120.735L229.425 120.185C229.087 119.932 228.748 119.847 228.368 119.889C228.072 119.932 227.818 120.059 227.522 120.312L227.31 120.101L227.056 120.355L227.268 120.566C227.014 120.905 226.887 121.201 226.845 121.497C226.845 121.92 226.972 122.301 227.31 122.597C227.479 122.766 227.691 122.893 227.902 122.935C228.114 122.977 228.325 122.977 228.579 122.935C228.875 122.851 229.129 122.724 229.341 122.554L230.821 123.95C230.61 124.12 230.398 124.204 230.102 124.162C229.891 124.162 229.637 124.035 229.383 123.824L229.045 124.373C229.298 124.585 229.552 124.712 229.848 124.754C230.102 124.797 230.356 124.797 230.567 124.712C230.779 124.627 230.991 124.5 231.244 124.289L231.71 124.712L231.963 124.458L231.498 124.035C231.794 123.697 231.921 123.316 231.921 122.893C231.879 122.47 231.71 122.131 231.414 121.835C231.244 121.751 231.075 121.666 230.906 121.581ZM228.918 122.174C228.664 122.343 228.41 122.385 228.241 122.385C228.072 122.385 227.86 122.301 227.733 122.131C227.564 121.962 227.479 121.793 227.479 121.581C227.479 121.37 227.522 121.158 227.649 120.947L228.918 122.174ZM231.287 123.062C231.329 123.316 231.244 123.527 231.117 123.739L229.721 122.385C230.018 122.216 230.271 122.131 230.483 122.131C230.652 122.131 230.821 122.216 230.99 122.385C231.16 122.597 231.287 122.808 231.287 123.062Z" fill="white"/>
<path d="M225.323 126.871C225.873 127.421 225.915 128.267 225.365 128.859C224.815 129.409 223.969 129.452 223.377 128.902C222.827 128.352 222.784 127.506 223.334 126.914C223.842 126.364 224.73 126.364 225.323 126.871Z" fill="#E4E6EB"/>
<path d="M235.263 116.379C235.813 116.929 235.855 117.776 235.305 118.368C234.755 118.918 233.909 118.96 233.317 118.41C232.767 117.86 232.725 117.014 233.275 116.422C233.825 115.83 234.713 115.83 235.263 116.379Z" fill="#E4E6EB"/>
<path d="M237.872 111.254L220.362 124.217L226.453 132.445L243.963 119.482L237.872 111.254Z" fill="#635BFF" stroke="#2E3433" stroke-width="1.5" stroke-miterlimit="10"/>
<path d="M240.551 121.538L228.875 130.168C227.987 130.845 226.676 130.549 225.999 129.576L223.122 125.303C222.445 124.288 222.615 122.934 223.545 122.257L235.221 113.627C236.109 112.951 237.421 113.247 238.098 114.22L240.974 118.492C241.651 119.508 241.482 120.904 240.551 121.538Z" fill="#E4E6EB"/>
<path d="M235.781 122.34C236.024 120.275 234.547 118.403 232.482 118.16C230.417 117.917 228.546 119.394 228.303 121.459C228.06 123.524 229.536 125.395 231.601 125.638C233.666 125.882 235.538 124.405 235.781 122.34Z" fill="#96999E" stroke="#2E3433" stroke-width="1.5" stroke-miterlimit="10"/>
<path d="M233.614 121.285C233.445 121.201 233.275 121.116 233.106 121.116C232.937 121.074 232.725 121.116 232.514 121.158C232.387 121.201 232.175 121.243 231.879 121.37L230.779 119.889C230.991 119.805 231.16 119.762 231.329 119.805C231.499 119.847 231.668 119.932 231.879 120.143L232.345 119.678C232.048 119.382 231.752 119.212 231.372 119.212C231.076 119.212 230.779 119.297 230.483 119.466L230.314 119.212L230.018 119.424L230.187 119.678C229.891 119.974 229.68 120.228 229.637 120.524C229.553 120.947 229.637 121.328 229.891 121.708C230.06 121.92 230.229 122.047 230.441 122.174C230.652 122.258 230.864 122.301 231.118 122.258C231.414 122.216 231.71 122.131 231.964 122.004L233.191 123.654C232.979 123.781 232.725 123.824 232.429 123.739C232.218 123.697 232.006 123.527 231.752 123.274L231.287 123.739C231.499 123.993 231.752 124.162 232.006 124.247C232.26 124.331 232.514 124.373 232.725 124.331C232.937 124.289 233.191 124.204 233.487 124.035L233.868 124.543L234.164 124.331L233.783 123.824C234.121 123.527 234.333 123.189 234.375 122.808C234.417 122.385 234.333 122.004 234.037 121.666C233.91 121.497 233.783 121.37 233.614 121.285ZM231.541 121.497C231.245 121.581 231.033 121.624 230.822 121.581C230.652 121.539 230.483 121.412 230.356 121.243C230.229 121.074 230.187 120.862 230.187 120.651C230.187 120.439 230.314 120.228 230.483 120.058L231.541 121.497ZM233.741 122.808C233.741 123.062 233.614 123.274 233.445 123.443L232.302 121.878C232.641 121.751 232.895 121.708 233.064 121.793C233.233 121.835 233.402 121.962 233.529 122.131C233.698 122.301 233.741 122.554 233.741 122.808Z" fill="white"/>
<path d="M227.14 125.517C227.606 126.151 227.479 126.997 226.844 127.463C226.21 127.928 225.364 127.801 224.898 127.166C224.433 126.532 224.56 125.686 225.194 125.22C225.829 124.755 226.717 124.882 227.14 125.517Z" fill="#E4E6EB"/>
<path d="M238.818 116.885C239.283 117.52 239.156 118.366 238.521 118.831C237.887 119.297 237.041 119.17 236.575 118.535C236.11 117.901 236.237 117.055 236.872 116.589C237.506 116.124 238.352 116.293 238.818 116.885Z" fill="#E4E6EB"/>
<path d="M182.171 216.724C182.129 217.358 181.959 217.993 181.536 218.712C178.575 223.957 169.014 225.734 167.492 223.365C167.195 222.9 167.111 222.265 167.365 221.462C167.407 221.25 167.492 221.039 167.534 220.827C169.014 214.904 170.157 205.978 170.537 203.694C170.918 201.325 170.537 191.468 170.537 191.468C179.717 189.184 179.929 189.945 180.013 190.284C181.325 195.614 180.86 203.609 180.817 205.259C180.479 212.282 182.298 214.439 182.171 216.724Z" fill="white" stroke="#2E3433" stroke-width="1.6611" stroke-miterlimit="10" stroke-linecap="round" stroke-linejoin="round"/>
<path d="M147.399 135.966C147.399 135.966 93.969 126.49 87.0735 135.966C80.178 145.442 113.894 155.384 119.436 155.342C124.978 155.342 153.321 158.768 153.321 158.768L147.399 135.966Z" fill="#2E3433"/>
<path d="M156.536 159.361C155.309 162.618 155.436 167.525 154.97 171.333C154.886 172.094 154.759 172.813 154.59 173.448C153.617 177.34 150.698 179.793 148.752 179.793C147.229 179.793 149.09 177.382 149.302 173.955C149.344 172.94 149.259 171.882 148.921 170.698C147.313 165.664 143.929 163.718 137.583 160.757C131.238 157.838 140.502 151.492 140.502 151.492C140.502 151.492 143.421 152.973 150.74 151.492C158.016 150.096 158.016 155.469 156.536 159.361Z" fill="white" stroke="#2E3433" stroke-width="1.6611" stroke-miterlimit="10" stroke-linecap="round" stroke-linejoin="round"/>
<path d="M187.459 172.306C186.274 182.543 185.344 190.242 184.878 193.965C182.636 194.473 179.717 195.023 176.248 195.234C172.568 195.446 169.353 195.277 166.899 194.98C166.73 194.938 166.519 194.938 166.349 194.896C165.038 181.909 163.769 168.964 162.457 155.976C159.242 155.088 154.716 153.734 149.555 151.577C141.432 148.193 137.371 146.543 136.652 143.751C135.468 139.309 142.152 133.175 150.443 132.456C156.62 131.906 161.358 134.613 162.5 135.29C164.742 136.136 167.576 137.278 170.707 138.759C172.864 139.816 175.191 141.043 177.602 142.482C180.14 144.004 182.383 145.358 184.075 146.881C189.701 151.958 189.024 158.811 187.459 172.306Z" fill="#96999E" stroke="#2E3433" stroke-width="1.5" stroke-miterlimit="10"/>
<path d="M166.9 194.98C166.731 194.938 166.52 194.938 166.35 194.895C165.039 182.289 163.77 169.64 162.458 157.033C159.243 156.187 154.717 154.834 149.556 152.761C141.857 149.673 138.091 148.065 136.653 145.146C136.484 144.808 135.13 141.889 137.076 139.054C140.249 134.443 149.175 134.189 150.444 134.189C156.409 134.02 163.685 135.459 165.377 136.389C167.619 137.193 170.665 138.885 173.796 140.366C167.027 140.45 150.021 140.704 148.202 142.523C147.102 144.808 153.236 149.08 158.651 151.619C161.02 152.719 161.993 152.972 163.389 154.072C167.831 157.541 167.408 162.491 167.281 164.775C166.773 171.501 166.816 181.654 166.9 194.98Z" fill="#2E3433"/>
<path d="M237.166 108.935L235.516 107.285L229.975 101.616L215.718 83.8909C214.365 82.1988 212.334 81.1835 210.177 81.0143L167.238 78.4761L175.022 92.3517L207.215 92.9439C213.18 97.5974 219.187 102.208 225.152 106.862H225.194C225.533 108.258 226.506 112.15 226.887 113.588C227.098 114.434 227.563 115.534 228.029 116.549L229.932 114.223C229.932 114.138 229.932 114.011 229.932 113.927C229.932 113.927 229.975 114.011 230.059 114.096C230.863 115.492 235.897 124.376 236.151 124.291C236.405 124.164 237.209 124.333 237.166 122.853L232.936 115.365L237.843 122.683C237.843 122.683 239.408 123.022 238.858 120.907C238.858 120.907 240.889 121.499 240.678 119.299L237.42 112.657L240.847 117.734C241.016 117.988 241.397 118.115 241.651 117.945C241.693 117.903 241.735 117.861 241.777 117.861C242.497 116.972 240.678 114.307 237.166 108.935Z" fill="white" stroke="#2E3433" stroke-width="1.6611" stroke-miterlimit="10" stroke-linecap="round" stroke-linejoin="round"/>
<path d="M225.744 96.3286L218.764 101.955L220.541 103.309L227.69 98.7399L225.744 96.3286Z" fill="#2E3433"/>
<path d="M227.86 99.7125C227.817 101.532 226.337 102.97 224.518 102.928C222.699 102.885 221.26 101.405 221.303 99.5856C221.345 97.7666 222.826 96.3282 224.645 96.3705C226.464 96.3705 227.902 97.8935 227.86 99.7125Z" fill="white" stroke="#2E3433" stroke-width="1.3512" stroke-miterlimit="10" stroke-linecap="round" stroke-linejoin="round"/>
<path d="M131.872 77.376C127.43 79.9142 123.792 82.1563 121.042 83.8907C121.042 83.8907 112.666 89.1787 101.71 100.178C100.906 100.981 99.3829 102.547 99.5521 104.493C99.7213 106.566 101.794 108.385 103.698 108.935C107.674 110.119 112.032 106.227 114.612 103.985C119.689 99.6277 127.092 93.7898 137.879 86.8097C135.891 83.6792 133.903 80.5065 131.872 77.376Z" fill="white" stroke="#2E3433" stroke-width="1.5" stroke-miterlimit="10" stroke-linecap="round" stroke-linejoin="round"/>
<path d="M204.254 78.2216C194.651 77.6293 185.09 76.9947 175.487 76.4025C175.402 76.4025 175.36 76.4025 175.276 76.3602C172.103 75.8949 167.999 75.4295 163.515 75.0911C158.269 74.7104 152.516 74.5411 147.271 74.9219C147.186 74.9219 147.101 74.9219 146.974 74.9642C143.421 74.4142 137.921 74.0758 131.872 76.1064C128.53 77.2063 125.949 78.7292 122.396 81.2674C117.573 84.694 110.847 90.0666 103.444 98.062C105.178 100.05 109.239 104.196 115.966 106.523C118.377 107.369 120.619 107.792 122.692 108.003C125.103 108.257 127.176 108.13 128.741 107.961L123.284 131.524C123.284 131.524 123.284 131.524 123.327 131.524C127.938 133.301 133.183 134.951 139.064 136.262C145.028 137.616 150.697 138.377 155.943 138.758C162.077 139.224 167.619 139.097 172.399 138.8C172.568 137.616 172.737 136.431 172.907 135.247C174.514 124.417 176.079 113.63 177.687 102.8H199.981C201.081 100.643 202.138 98.062 202.985 95.0584C204.888 88.2475 204.719 82.2827 204.254 78.2216Z" fill="#635BFF" stroke="#2E3433" stroke-width="1.5" stroke-miterlimit="10"/>
<path d="M133.396 91.8857C133.396 91.8857 133.142 92.6472 131.958 97.7237L129.039 107.792C127.431 108.046 125.866 108.3 122.651 107.961L133.396 91.8857Z" fill="#2E3433"/>
<path d="M142.237 148.024C142.194 149.885 142.067 151.915 141.814 154.073C141.771 154.242 141.771 154.454 141.729 154.623C141.348 157.626 140.714 160.334 140.079 162.703C135.256 161.857 92.7412 154.327 86.2265 145.485C85.5919 144.597 84.1113 142.609 83.9844 140.197C83.9844 139.774 83.9844 139.351 84.069 138.928C84.7035 135.29 88.7224 133.26 90.0761 132.583C101.921 126.576 119.181 134.952 126.711 138.632C131.111 140.663 136.483 143.709 142.237 148.024Z" fill="#96999E" stroke="#2E3433" stroke-width="1.5" stroke-miterlimit="10"/>
<path d="M182.171 216.724C182.129 217.359 181.959 217.993 181.536 218.712C178.575 223.958 169.014 225.735 167.492 223.366C167.195 222.9 167.111 222.266 167.365 221.462C167.407 221.251 167.492 221.039 167.534 220.828C170.199 221.208 174.683 220.531 182.171 216.724Z" fill="#2E3433"/>
<path d="M154.97 171.332C154.886 172.093 154.759 172.812 154.59 173.447C153.617 177.339 150.698 179.792 148.752 179.792C147.229 179.792 149.09 177.381 149.302 173.954C150.613 173.701 152.474 172.981 154.97 171.332Z" fill="#2E3433"/>
<path d="M141.729 154.579C141.348 157.583 140.714 160.29 140.079 162.659C135.257 161.813 92.7412 154.283 86.2265 145.442C85.5919 144.553 84.1113 142.565 83.9844 140.154C86.1419 143.453 92.0221 149.291 107.209 152.803C128.742 157.794 135.426 161.179 141.729 154.579Z" fill="#2E3433"/>
<path d="M163.77 76.2757C163.77 79.0254 160.005 81.2252 155.351 81.2252C150.698 81.2252 146.975 79.0254 146.975 76.2757C146.975 75.8104 147.102 75.345 147.314 74.922C152.559 74.4989 158.27 74.7105 163.516 75.0912C163.685 75.4719 163.77 75.8527 163.77 76.2757Z" fill="#2E3433"/>
<path d="M144.352 126.49C143.337 125.475 142.068 124.459 142.068 124.459L131.111 118.114C128.615 117.479 126.077 116.845 123.581 116.21C119.139 111.387 107.929 99.7539 103.487 99.7539C97.9026 99.7539 97.3527 109.188 100.864 111.176C107.336 115.068 113.851 119.002 120.324 122.894C121.424 124.205 122.523 125.475 123.623 126.786C125.95 128.14 128.234 129.493 130.561 130.805C130.646 131.439 131.111 135.289 132.296 135.416C132.592 135.458 133.269 135.289 133.438 134.824C133.522 134.57 133.48 134.358 133.438 134.231C133.015 132.751 133.142 131.143 132.846 129.62L129.969 126.744C131.111 127.717 132.296 128.647 133.438 129.62C133.607 130.043 133.819 130.636 134.03 131.355C134.622 133.47 134.453 134.316 135.172 134.824C135.722 135.204 136.526 135.204 136.907 134.824C137.287 134.443 137.076 133.724 136.907 133.089C136.611 132.032 136.23 130.551 135.764 128.478C135.003 127.505 134.242 126.574 133.438 125.601L136.907 129.07C137.499 129.959 137.88 130.805 138.049 131.397C138.557 132.92 138.472 133.935 139.191 134.274C139.487 134.443 139.953 134.443 140.333 134.274C140.333 134.274 140.672 134.105 140.926 133.681C141.349 132.962 140.629 130.466 139.191 127.336L135.722 123.867C137.245 124.628 138.81 125.39 140.333 126.194C140.333 126.194 141.391 127.251 142.575 128.224C144.775 128.478 144.352 126.49 144.352 126.49Z" fill="white" stroke="#2E3433" stroke-width="1.6611" stroke-miterlimit="10" stroke-linecap="round" stroke-linejoin="round"/>
<path d="M78.0607 105.167L89.0597 133.722C89.102 133.849 89.2289 133.933 89.3558 133.933L133.267 135.795C133.521 135.795 133.69 135.456 133.563 135.16L121.126 106.521C121.084 106.394 120.957 106.309 120.83 106.309L78.3569 104.532C78.103 104.532 77.9338 104.871 78.0607 105.167Z" fill="#2E3433"/>
<path d="M154.674 136.727L153.743 133.723L149.386 133.554L148.625 136.642L154.674 136.727Z" fill="#2E3433"/>
<path d="M149.344 136.514L148.414 133.51L144.056 133.341L143.295 136.429L149.344 136.514Z" fill="#2E3433"/>
<path d="M143.759 136.305L142.829 133.302L138.471 133.09L137.71 136.179L143.759 136.305Z" fill="#2E3433"/>
<path d="M138.344 136.048L137.414 133.045L133.056 132.875L132.295 135.964L138.344 136.048Z" fill="#2E3433"/>
<path d="M88.9318 137.587L156.599 140.44L156.779 136.172L89.1118 133.318L88.9318 137.587Z" fill="#2E3433"/>
<path d="M200.023 78.9836C199.981 78.4336 199.938 78.1375 199.938 78.1375L200.362 78.0952C200.362 78.0952 200.404 78.3913 200.446 78.9413L200.023 78.9836Z" fill="#2E3433"/>
<path d="M196.47 100.939L196.132 100.685C196.428 100.262 196.682 99.7968 196.978 99.3315L197.359 99.543C197.063 100.008 196.766 100.516 196.47 100.939ZM198.036 98.0624L197.655 97.8932C197.866 97.4278 198.078 96.9202 198.247 96.4126L198.628 96.5395C198.459 97.0894 198.247 97.5971 198.036 98.0624ZM199.178 95.0165L198.755 94.8896C198.924 94.382 199.051 93.8743 199.178 93.3244L199.601 93.409C199.474 94.0012 199.347 94.5089 199.178 95.0165ZM199.981 91.886L199.558 91.8014C199.643 91.2938 199.77 90.7438 199.812 90.2362L200.235 90.2785C200.151 90.8285 200.066 91.3361 199.981 91.886ZM200.447 88.671L200.024 88.6287C200.066 88.121 200.108 87.5711 200.151 87.0211L200.574 87.0634C200.531 87.5711 200.489 88.121 200.447 88.671ZM200.658 85.4136H200.235C200.235 84.9059 200.278 84.356 200.278 83.8906V83.806H200.701V83.8906C200.701 84.356 200.701 84.8636 200.658 85.4136ZM200.235 82.1562C200.235 81.5639 200.193 81.014 200.151 80.5487L200.574 80.5063C200.616 80.9717 200.616 81.5216 200.658 82.1139L200.235 82.1562Z" fill="#2E3433"/>
<path d="M194.947 102.927L194.65 102.631C194.82 102.419 195.031 102.208 195.2 101.996L195.539 102.25C195.327 102.504 195.116 102.715 194.947 102.927Z" fill="#2E3433"/>
<path d="M125.865 104.492C125.315 104.492 124.723 104.449 124.173 104.365L124.216 103.942C124.765 103.984 125.315 104.026 125.865 104.069V104.492ZM122.481 104.111C121.931 104.026 121.381 103.9 120.831 103.73L120.958 103.307C121.508 103.434 122.058 103.561 122.608 103.688L122.481 104.111ZM119.139 103.265C118.589 103.096 118.082 102.884 117.532 102.673L117.701 102.292C118.208 102.504 118.758 102.715 119.266 102.884L119.139 103.265ZM116.009 101.954C115.501 101.7 114.993 101.446 114.486 101.15L114.697 100.769C115.205 101.065 115.67 101.319 116.178 101.573L116.009 101.954ZM113.047 100.304C112.582 100.008 112.117 99.6692 111.651 99.3307L111.905 98.9923C112.37 99.3308 112.836 99.6269 113.301 99.923L113.047 100.304ZM110.298 98.2732C109.875 97.9347 109.409 97.554 108.986 97.1733L109.282 96.8771C109.705 97.2579 110.128 97.6386 110.551 97.977L110.298 98.2732ZM107.759 95.9888C106.998 95.2273 106.617 94.7196 106.617 94.7196L106.956 94.4658C106.956 94.4658 107.336 94.9735 108.098 95.6926L107.759 95.9888Z" fill="#2E3433"/>
<path d="M139.783 93.493C142.744 93.3237 145.705 93.1968 148.666 93.1122C151.628 93.0699 154.589 93.0699 157.593 93.1968C159.073 93.2391 160.554 93.366 162.077 93.5776C162.838 93.7045 163.557 93.7891 164.319 94.0429C164.53 94.0852 164.7 94.1698 164.911 94.2544C165.123 94.3813 165.292 94.4236 165.503 94.5928C165.588 94.6775 165.757 94.7621 165.884 94.9736C165.969 95.1005 166.011 95.312 165.926 95.5235C165.884 95.6504 165.842 95.6927 165.8 95.735C165.757 95.7774 165.715 95.862 165.673 95.9043C165.376 96.1581 165.165 96.2004 164.953 96.2427C164.15 96.4542 163.388 96.5388 162.669 96.5811C161.908 96.6657 161.188 96.708 160.427 96.7503C158.946 96.8349 157.466 96.8772 155.985 96.9195C153.024 97.0042 150.063 97.0465 147.144 97.2157C145.705 97.3003 144.182 97.3849 142.871 97.7656C142.702 97.8079 142.575 97.8502 142.49 97.9348L142.448 97.9771C142.49 97.9348 142.49 97.8925 142.49 97.8502C142.448 97.7656 142.49 97.8925 142.617 97.9771C142.702 98.0617 142.871 98.1464 142.998 98.231C143.59 98.5694 144.267 98.8232 144.944 99.0347C147.736 99.9231 150.655 100.515 153.531 101.023C154.97 101.277 156.45 101.531 157.889 101.742C158.608 101.827 159.369 101.911 160.089 101.996C160.808 102.038 161.569 102.123 162.288 101.996L162.331 102.081C161.611 102.25 160.85 102.165 160.089 102.165C159.327 102.123 158.608 102.081 157.889 101.996C156.408 101.869 154.927 101.658 153.489 101.446C150.57 100.981 147.651 100.473 144.775 99.627C144.055 99.4155 143.379 99.1616 142.702 98.8232C142.406 98.654 142.025 98.4425 141.898 98.0194C141.856 97.8079 142.025 97.5964 142.194 97.5118C142.363 97.4272 142.532 97.3426 142.702 97.3003C144.14 96.8773 145.621 96.8349 147.101 96.708C150.063 96.4965 153.024 96.4542 155.985 96.3696C157.466 96.3273 158.946 96.285 160.427 96.2004C161.908 96.1158 163.388 96.0735 164.827 95.735C164.996 95.6927 165.165 95.6081 165.292 95.5235C165.419 95.4389 165.334 95.2697 165.165 95.1851C165.038 95.0582 164.827 95.0159 164.7 94.9313L164.192 94.7621C163.473 94.5506 162.754 94.4236 162.034 94.2967C160.554 94.0852 159.116 93.9583 157.635 93.8737C151.712 93.5353 145.79 93.5776 139.867 93.7045L139.783 93.493Z" fill="#2E3433"/>
<path d="M196.258 102.757H177.686C176.079 113.756 174.471 124.798 172.864 135.797C171.849 134.358 173.414 110.668 173.879 102.757C173.964 101.404 174.006 100.515 174.006 100.261C174.006 99.7961 175.656 99.7961 178.067 100.008C183.524 100.515 192.789 102.123 196.258 102.757Z" fill="#2E3433"/>
<path d="M162.669 76.488C155.816 83.6796 149.386 78.7724 149.386 78.7724C149.343 77.3341 149.343 75.8534 149.301 74.3728C149.259 71.5808 149.174 68.831 149.132 66.039C149.09 64.4737 149.047 62.9508 149.047 61.3856C152.262 59.9049 155.478 58.4243 158.693 56.9014L162.669 76.488Z" fill="white"/>
<path d="M159.073 63.5416C158.312 66.5028 147.144 71.537 144.944 71.1986C142.744 70.8601 138.768 61.934 139.021 58.5074C139.191 56.3499 138.768 51.5696 138.429 48.3545C140.079 46.8316 143.717 44.6741 149.682 45.774C154.293 46.6201 157.339 54.2348 157.339 54.2348C157.339 54.2348 159.835 60.6226 159.073 63.5416Z" fill="white"/>
<path d="M147.524 47.6366C143.04 50.7247 137.245 49.7518 134.876 46.4098C133.057 43.9138 133.31 40.2334 135.51 37.6529C137.71 35.0724 141.517 34.0994 144.859 35.2839C145.79 34.1417 147.482 32.4495 150.105 31.5612C156.831 29.2345 165.8 33.5917 166.011 37.4414C166.054 38.1605 165.8 39.0912 164.7 40.2334C166.18 40.1911 167.746 40.4026 168.803 41.3756C172.103 44.2523 169.692 52.6284 164.784 57.4087C161.569 60.5392 161.231 60.1162 159.116 60.5815C158.735 58.5509 157.593 53.5168 156.535 54.0667C156.07 53.3899 155.181 51.0209 154.674 50.344C152.812 48.2288 150.74 47.2558 147.524 47.6366Z" fill="#2E3433"/>
<path d="M156.916 55.4187C156.747 55.7995 156.578 56.3071 156.493 56.984C156.324 58.0416 156.535 58.8453 156.662 59.5645C156.916 60.7067 157.17 61.8912 157.931 62.0604C158.143 62.1027 158.355 62.0604 158.481 62.0181C158.904 61.7643 164.319 57.957 163.431 53.9804C163.389 53.7266 162.923 51.8652 161.612 51.5268C160.216 51.146 158.228 52.6267 156.916 55.4187Z" fill="white"/>
<path d="M149.132 79.0681C149.047 78.9834 149.005 78.8988 149.005 78.7719L148.836 70.6496C147.482 71.1996 145.494 71.8341 144.563 71.6649H144.521C141.983 71.1996 138.048 62.1466 138.302 58.593C138.471 56.3933 138.006 51.3168 137.71 48.4825C137.71 48.3555 137.752 48.2709 137.837 48.1863C139.106 47.0018 142.786 44.4213 149.428 45.5212C153.278 46.1558 154.928 49.2862 156.451 52.2898C156.662 52.7551 156.916 53.1782 157.17 53.6435C158.608 51.4437 160.766 50.8938 161.739 51.1053C163.261 51.486 163.769 53.4743 163.854 53.855C164.531 56.9009 161.823 59.7776 160.046 61.3005L163.135 76.4029C163.177 76.5298 163.135 76.6144 163.05 76.7413C159.285 80.7179 155.604 81.0986 152.982 80.591C150.655 80.168 149.174 79.1104 149.132 79.0681ZM159.158 61.2582C159.116 61.1313 159.2 61.0044 159.285 60.9198C160.935 59.566 163.642 56.8163 163.008 54.0665C162.965 53.855 162.542 52.1629 161.485 51.8668C160.808 51.6975 158.65 52.2475 157.466 54.6165C157.381 54.7434 157.254 54.828 157.127 54.828C156.958 54.828 156.831 54.7434 156.747 54.6165C156.366 53.9396 156.027 53.2628 155.689 52.5859C154.166 49.6247 152.686 46.7903 149.259 46.2404C143.209 45.2674 139.825 47.4672 138.514 48.6094C138.852 52.0783 139.233 56.5625 139.106 58.6777C138.852 62.0196 142.744 70.6073 144.69 70.9457C144.69 70.9457 144.69 70.9457 144.732 70.9457C145.198 71.0303 146.636 70.7342 149.132 69.7612C149.259 69.7189 149.386 69.7189 149.513 69.8035C149.64 69.8881 149.682 69.9727 149.682 70.0997L149.851 78.6027C150.824 79.2796 156.324 82.5369 162.288 76.4029L159.158 61.2582Z" fill="#2E3433"/>
<path d="M157.889 64.939C157.931 65.9966 157.677 67.0542 156.704 68.9578C154.631 73.0613 150.062 74.2035 149.301 74.415C149.259 71.623 149.174 72.5536 149.089 69.7616C149.682 69.4655 154.208 68.154 157.889 64.939Z" fill="#2E3433"/>
<path d="M163.77 39.3026C163.77 39.3026 169.734 34.1838 174.388 37.9065C174.388 37.9065 170.792 34.9453 164.827 40.064C158.862 45.1828 163.77 39.3026 163.77 39.3026Z" fill="#2E3433"/>
<path d="M166.984 39.9795C166.984 39.9795 173.288 41.4601 172.695 46.0289C172.695 46.0289 173.203 42.4754 166.9 40.9948C160.597 39.5141 166.984 39.9795 166.984 39.9795Z" fill="#2E3433"/>
<path d="M138.599 36.5521C137.837 36.9328 137.076 37.3981 136.441 37.9058C135.764 38.4134 135.172 39.0057 134.707 39.6402C134.241 40.3171 133.861 40.994 133.564 41.7554C133.268 42.5169 133.057 43.2784 133.099 43.9975C133.099 44.759 133.311 45.4782 133.734 46.0704C134.157 46.705 134.833 47.1703 135.553 47.551C136.272 47.9318 137.118 48.1856 137.964 48.3125C138.81 48.4817 139.698 48.4817 140.544 48.4817V48.524C138.81 48.7778 136.991 48.6086 135.383 47.8895C134.58 47.5087 133.861 47.0011 133.353 46.3242C132.845 45.6474 132.549 44.8013 132.591 43.9975C132.591 43.1514 132.845 42.3477 133.141 41.5862C133.48 40.8247 133.861 40.0633 134.41 39.4287C135.468 38.1173 136.991 37.1443 138.599 36.5098V36.5521Z" fill="#2E3433"/>
<path d="M147.398 65.8269C149.259 65.3193 149.047 62.6118 149.047 62.6118C149.047 62.6118 147.524 64.4309 144.732 65.15" fill="#2E3433"/>
</svg>
