<svg width="21" height="15" viewBox="0 0 21 15" fill="none" xmlns="http://www.w3.org/2000/svg">
<path fill-rule="evenodd" clip-rule="evenodd" d="M19.7758 0.583619C18.922 -0.1159 17.653 -0.00248589 16.9414 0.836938L9.70055 9.37912C9.00278 10.2023 8.61051 10.658 8.29734 10.9381C8.29328 10.9417 8.28929 10.9452 8.28537 10.9487C8.28115 10.9456 8.27685 10.9424 8.27247 10.9392C7.93479 10.6882 7.50217 10.2692 6.73146 9.51152L3.81054 6.63998C3.02462 5.86733 1.75038 5.86733 0.964447 6.63998C0.178518 7.41262 0.178518 8.66533 0.964447 9.43797L3.88536 12.3095C3.91278 12.3365 3.94016 12.3634 3.9675 12.3903C4.62458 13.0365 5.25669 13.6582 5.84483 14.0954C6.50366 14.5851 7.36645 15.0457 8.47213 14.9964C9.57782 14.9471 10.3947 14.4116 11.0057 13.8652C11.5511 13.3775 12.1234 12.7021 12.7182 12.0001C12.743 11.9709 12.7678 11.9416 12.7926 11.9123L20.0335 3.37012C20.745 2.5307 20.6297 1.28314 19.7758 0.583619Z" fill="white"/>
</svg>
