<svg width="18" height="18" viewBox="0 0 18 18" fill="none" xmlns="http://www.w3.org/2000/svg">
<circle cx="9" cy="9" r="9" fill="#635BFE"/>
<path fill-rule="evenodd" clip-rule="evenodd" d="M12.7121 6.18499C12.3727 5.90283 11.8683 5.94858 11.5854 6.28717L8.70705 9.73275C8.42968 10.0648 8.27375 10.2486 8.14925 10.3616C8.14764 10.363 8.14605 10.3645 8.1445 10.3659C8.14282 10.3646 8.14111 10.3633 8.13937 10.362C8.00513 10.2608 7.83316 10.0918 7.52679 9.78616L6.36568 8.62789C6.05326 8.31623 5.54673 8.31623 5.23431 8.62789C4.9219 8.93954 4.9219 9.44484 5.23431 9.75649L6.39542 10.9148C6.40632 10.9256 6.41721 10.9365 6.42808 10.9473C6.68927 11.208 6.94055 11.4588 7.17434 11.6351C7.43624 11.8327 7.77921 12.0184 8.21874 11.9985C8.65826 11.9786 8.98297 11.7627 9.22586 11.5423C9.44268 11.3455 9.67016 11.0731 9.90663 10.79C9.91647 10.7782 9.92633 10.7664 9.9362 10.7545L12.8146 7.30896C13.0974 6.97037 13.0515 6.46715 12.7121 6.18499Z" fill="white"/>
</svg>
