<svg width="760" height="1005" viewBox="0 0 760 1005" fill="none" xmlns="http://www.w3.org/2000/svg">
<rect width="760" height="1005" fill="url(#paint0_linear_12604_19574)"/>
<rect width="760" height="1005" fill="#1A1721" fill-opacity="0.8"/>
<mask id="mask0_12604_19574" style="mask-type:alpha" maskUnits="userSpaceOnUse" x="0" y="0" width="760" height="1005">
<rect width="760" height="1005" fill="#635BFF" fill-opacity="0.02"/>
</mask>
<g mask="url(#mask0_12604_19574)">
<path fill-rule="evenodd" clip-rule="evenodd" d="M326.787 99.6253C326.693 75.0483 289.209 47.4108 273.198 33.162C241.538 4.97986 208.611 -21.0449 175.989 -47.4854C143.367 -73.9259 110.657 -100.295 79.5497 -129.323C59.3517 -148.166 35.6191 -169.388 21.9209 -196.295C-7.2605 -253.634 84.7458 -245.119 108.578 -246.373C169.207 -249.577 238.749 -248.115 295.58 -277.974C329.505 -295.8 343.033 -325.695 335.747 -369.265C333.398 -383.435 326.446 -399.741 332.335 -413.545C338.624 -428.289 353.091 -436.796 365.098 -442.502C408.894 -463.287 459.248 -465.695 505.586 -468.304C555.552 -471.171 605.988 -470.333 655.602 -470.555C676.64 -470.648 698.611 -479.872 718.645 -487.37C744.908 -497.196 770.86 -508.234 796.906 -518.906C854.206 -542.329 913.25 -566.999 973.873 -572.948C1011.84 -576.675 1053.33 -571.636 1082.82 -539.218C1097.63 -522.941 1105.38 -498.744 1113.94 -477.249C1124.31 -451.282 1134.26 -425.063 1145.29 -399.505C1180.83 -317.187 1231.57 -236.747 1313.93 -232.705C1326.39 -232.096 1338.63 -234.081 1351.03 -234.454C1358.93 -234.683 1365.95 -232.354 1368.89 -222.269C1376.27 -196.976 1353.07 -157.046 1343.56 -136.977C1322.73 -93.0485 1299.25 -51.0906 1277.25 -8.04321C1262.69 20.4257 1237.5 59.3302 1237.23 93.92C1237 124.74 1270.58 147.016 1288.87 162.197C1306 176.409 1337.04 196.299 1338.92 225.212C1339.83 239.232 1332.26 250.85 1324.35 259.867C1310.49 275.635 1294.52 286.759 1282.04 304.749C1261.59 334.264 1244.51 374.874 1247.29 414.646C1249.21 442.205 1262.09 460.252 1278.48 477.504C1285.37 484.758 1290.96 489.889 1291.32 501.665C1291.91 520.365 1285.91 540.154 1280.96 557.492C1263.28 619.54 1238.16 679.539 1210.22 735.559C1196.26 763.555 1181.17 791.465 1162.66 815.346C1150.53 831.028 1134.18 849.692 1115.69 849.671C1094.27 849.671 1071.62 840.239 1050.8 833.186C1011.93 820.005 973.521 804.767 935.268 789.135C846.804 752.968 759.172 713.873 672.372 671.848C611.232 642.196 548.794 612.502 491.312 573.081C480.102 565.34 469.521 556.314 459.712 546.125C449.231 535.424 436.226 530.636 423.038 527.067C341.19 504.912 251.52 521.921 169.331 532.586C148.469 535.288 127.608 538.004 106.688 539.896C88.7032 541.523 67.1725 546.189 49.6931 539.18C15.2509 525.382 45.3599 474.53 58.0892 453.809C102.906 380.852 160.729 319.127 214.324 256.111C239.806 226.101 265.482 196.17 289.579 164.461C302.126 147.976 326.869 121.17 326.787 99.6253Z" fill="#635BFF" fill-opacity="0.02" stroke="#2D1959" stroke-width="5"/>
<path fill-rule="evenodd" clip-rule="evenodd" d="M342.231 95.4804C328.494 69.4742 304.393 50.2526 284.387 32.163C255.596 6.12103 225.902 -18.4737 196.653 -43.7777C168.997 -67.7062 141.282 -91.9069 115.671 -119.081C100.054 -135.652 80.4589 -155.468 73.0615 -179.977C57.0155 -233.099 143.339 -225.04 164.649 -226.43C217.629 -229.868 277.694 -230.656 326.708 -258.625C357.314 -276.092 369.887 -305.057 363.359 -345.27C361.103 -359.182 357.037 -371.061 362.184 -384.902C368.136 -400.921 381.826 -410.908 394.376 -417.958C433.69 -440.045 480.159 -444.738 522.774 -448.642C566.799 -452.676 612.67 -455.52 655.279 -452.568C672.318 -451.393 691.93 -458.063 708.793 -463.178C734.74 -471.059 760.422 -480.15 786.239 -488.604C838.707 -505.798 892.539 -522.362 947.122 -524.246C986.529 -525.607 1027.62 -518.228 1060.4 -489.707C1093.63 -460.786 1108.37 -415.952 1126.8 -373.332C1158.62 -299.648 1201.6 -210.059 1275.22 -194.491C1286.38 -192.127 1297.11 -193.41 1308.26 -192.829C1314 -192.536 1320.52 -191.604 1323.43 -184.705C1330.98 -166.795 1310.29 -134.047 1303.33 -120.327C1284.1 -82.4144 1262.47 -46.3569 1242.31 -9.17456C1226.3 20.3492 1206 53.1542 1199.81 88.1514C1192.3 130.621 1241.4 160.84 1258.67 190.743C1288.6 242.598 1231.89 272.143 1203.92 296.867C1171.81 325.251 1145.31 377.034 1174.09 420.951C1185.1 437.744 1198.65 447.752 1203.57 469.668C1211.26 503.941 1205.45 543.108 1199.21 576.988C1189.8 627.918 1174.93 678.297 1154.7 724.327C1140.22 757.282 1116.18 808.958 1080.98 805.082C1057.28 802.496 1033.19 793.046 1010.12 784.693C975.571 772.191 941.458 757.941 907.527 743.14C829.2 709.067 751.738 671.498 675.796 630.175C623.98 601.969 479.442 486.704 468.567 482.592C436.14 470.341 399.271 472.497 365.839 474.396C321.367 476.918 277.119 483.452 232.905 489.505C211.859 492.371 190.707 495.874 169.549 497.286C154.49 498.289 134.714 499.148 121.523 488.466C95.7764 467.626 124.461 419.941 136.323 399.766C172.663 337.918 218.634 284.358 261.736 229.595C282.888 202.707 304.363 175.863 323.565 146.819C331.309 135.091 350.721 111.543 342.231 95.4804Z" fill="#635BFF" fill-opacity="0.02" stroke="white" stroke-width="5"/>
<path fill-rule="evenodd" clip-rule="evenodd" d="M361.236 82.1444C323.72 30.1033 271.941 -8.6015 227.252 -52.0646C204.823 -73.8858 182.253 -96.3018 162.907 -122.294C152.844 -135.809 140.278 -152.901 138.339 -171.741C133.158 -222.141 210.962 -215.326 234.249 -217.239C279.273 -220.951 330.135 -223.767 370.982 -249.487C395.937 -265.21 408.227 -291.015 403.563 -324.933C401.495 -339.982 398.275 -352.767 403.563 -367.543C408.92 -382.514 420.082 -393.077 431.385 -400.995C463.866 -423.77 504.231 -431.051 540.801 -436.475C583.701 -442.794 626.923 -445.261 670.12 -443.857C707.952 -442.646 745.603 -456.269 782.543 -465.248C831.479 -477.137 881.302 -487.52 931.377 -485.951C970.926 -484.704 1010.79 -474.908 1044.59 -448.873C1078.95 -422.358 1099.6 -382.671 1118.23 -339.846C1146.38 -275.106 1181.46 -188.352 1243.22 -163.765C1252.2 -160.181 1260.58 -159.787 1269.84 -159.164C1274.34 -158.863 1280.15 -158.77 1282.38 -153.044C1287.75 -139.256 1267.9 -112.526 1262.36 -103.21C1244.68 -73.4702 1225.51 -45.0704 1207.39 -15.7247C1190.47 11.6718 1172.04 40.222 1161.53 72.3267C1144.8 123.458 1198.27 153.355 1196.78 202.078C1195.84 232.327 1172.1 254.019 1153.3 269.025C1130.16 287.478 1096.83 299.611 1085.25 333.285C1076.62 358.367 1090.16 372.964 1100.59 391.998C1118.26 424.246 1119.46 467.96 1117.62 505.289C1115.14 555.732 1105.46 606.92 1088.97 653.286C1081.49 674.304 1072.34 696.168 1058.86 712.493C1046.24 727.793 1034.29 731.713 1017.42 728.581C965.768 718.978 913.618 692.212 864.089 668.306C801.859 638.265 740.486 605.1 680.947 567.785C640.347 542.338 598.831 515.415 563.195 480.257C553.907 471.091 544.396 461.13 537.605 449.041C532.47 439.954 530.291 432.451 521.637 427.263C495.989 411.891 460.312 415.911 432.83 417.51C388.888 420.054 345.157 426.826 301.485 432.924C276 436.507 227.993 447.78 207.643 420.742C190.078 397.394 211.273 357.586 222.1 337.018C249.488 285.006 284.718 239.357 317.405 192.354C332.385 170.812 347.953 149.106 360.325 125.156C363.486 119.051 368.55 110.96 369.419 103.543C370.394 95.0436 365.841 88.5582 361.236 82.1444Z" fill="#635BFF" fill-opacity="0.02" stroke="#2D1959" stroke-width="5"/>
<path fill-rule="evenodd" clip-rule="evenodd" d="M364.461 94.2595C329.795 48.2455 288.032 10.4433 250.816 -32.6159C234.13 -51.9222 217.279 -72.1753 204.564 -95.7273C197.725 -108.393 190.463 -124.335 192.349 -140.077C197.76 -185.259 261.751 -181.179 287.603 -183.825C326.018 -187.712 370.149 -191.628 404.115 -215.99C426.366 -231.947 434.709 -255.514 430.555 -285.908C426.096 -318.51 436.066 -342.177 458.758 -360.365C487.207 -383.149 523.118 -392.437 556.151 -399.035C595.948 -406.946 636.25 -410.453 676.564 -409.513C715.771 -408.595 753.757 -416.613 792.706 -421.827C844.346 -428.733 897.643 -432.14 948.701 -417.983C993.156 -405.654 1033.31 -378.488 1063.41 -336.476C1094.85 -292.628 1110.41 -237.384 1135.94 -188.874C1151.87 -158.616 1174.07 -118.591 1203.82 -106.829C1213.75 -102.906 1231.83 -108.199 1223.91 -88.8998C1219.38 -77.8625 1210.9 -68.1806 1204.2 -59.1586C1193.38 -44.5784 1182.2 -30.3998 1171.19 -16.0204C1147.74 14.6316 1122.62 45.9362 1105.04 82.2324C1082.89 127.931 1115.81 163.101 1111.8 209.438C1109.64 234.374 1095.44 254.275 1080.41 269.91C1070.68 280.036 1060.04 288.807 1049.18 296.99C1037.83 305.539 1024.41 312.051 1014.51 323.103C1000.41 338.83 1006.53 357.448 1009.18 377.78C1013.83 413.511 1014.85 449.807 1012.22 485.844C1009 530.015 1001.45 575.448 985.547 615.588C979.36 631.215 971.522 647.782 959.882 658.26C948.243 668.738 936.204 668.021 922.867 664.865C883.307 655.542 843.829 633.847 806.302 613.286C759.333 587.546 713.286 558.781 669.313 526.056C638.96 503.465 608.508 479.059 583.114 448.429C575.728 439.514 568.701 429.969 563.019 419.312C559.118 412.004 557.026 402.573 551.374 397.079C533.688 379.932 498.183 385.052 477.442 386.049C436.049 388.036 395.308 397.481 353.968 399.776C331.405 401.031 296.07 404.186 279.501 380.742C263.919 358.703 278.032 323.992 287.345 302.756C305.647 261.003 330.236 223.803 352.275 184.989C361.335 169.018 371.265 152.308 377.135 134.07C382.352 117.819 373.345 106.057 364.461 94.2595Z" fill="#635BFF" fill-opacity="0.02" stroke="white" stroke-width="5"/>
<path fill-rule="evenodd" clip-rule="evenodd" d="M372.987 95.0132C345.394 54.5222 312.13 18.5789 284.338 -22.5709C268.07 -46.6693 240.054 -87.1818 252.635 -121.156C266.438 -158.488 314.549 -159.505 342.359 -162.513C375.459 -166.094 414.329 -170.985 442.656 -194.296C451.615 -201.665 459.247 -211.419 462.482 -224.266C465.945 -238.016 462.159 -250.048 461.666 -263.812C460.632 -292.687 474.757 -315.869 493.45 -331.789C519.869 -354.297 552.904 -364.939 584.107 -372.358C619.459 -380.727 655.397 -384.852 691.408 -384.676C725.822 -384.533 759.873 -385.464 794.323 -386.538C839.375 -387.97 885.062 -385.657 928.764 -371.055C971.815 -356.661 1010.96 -329.683 1041.7 -290.002C1071.69 -251.28 1091.93 -203.949 1109.66 -155.738C1119.71 -128.375 1136.7 -87.4825 1160.69 -73.6609C1171.36 -67.5092 1181.83 -67.9317 1170.48 -51.933C1156.2 -31.7878 1136.95 -15.6243 1120.41 1.60614C1096.54 26.4708 1072.08 51.8223 1052.05 81.3849C1039.25 100.262 1033.55 118.582 1034.43 143.024C1035.11 161.643 1038.2 180.07 1036.64 198.761C1032.98 242.632 1004.67 272.718 979.635 300.733C963.531 318.752 948.825 332.495 940.535 358.125C930.731 388.418 926.616 421.375 920.064 452.829C912.866 487.368 904.553 523.297 888.843 553.719C874.859 580.804 857.851 592.95 832.395 585.652C792.691 574.28 753.556 546.264 718.308 520.347C682.431 493.978 647.171 464.33 617.441 428.086C601.391 408.513 590.436 385.532 576.181 364.506C558.252 338.109 517.691 348.107 493.585 350.341C453.57 354.051 327.659 381.808 339.277 291.903C344.126 254.377 363.224 219.744 377.19 186.63C382.979 172.887 391.357 156.394 392.666 140.646C394.093 123.494 381.283 107.202 372.987 95.0132Z" fill="#635BFF" fill-opacity="0.02" stroke="#635BFF" stroke-width="5"/>
<path fill-rule="evenodd" clip-rule="evenodd" d="M387.555 98.4492C366.47 61.7562 341.235 27.091 323.142 -12.5397C311.405 -38.2054 299.879 -72.4981 315.02 -99.6542C332.109 -130.3 369.791 -137.443 397.479 -141.349C426.006 -145.368 460.062 -148.75 483.378 -171.987C490.796 -179.389 496.911 -189.37 498.049 -201.321C499.146 -212.786 496.048 -224.25 497.075 -235.922C499.375 -262.132 512.398 -283.728 529.188 -299.391C578.854 -345.729 652.774 -356.032 712.699 -357.243C742.693 -357.845 773.562 -354.685 803.75 -352.421C842.922 -349.483 882.154 -343.178 919.513 -327.981C998.945 -295.68 1052.18 -224.042 1089.37 -134.9C1101.07 -106.841 1110.03 -76.482 1128.36 -53.9331C1137.82 -42.2897 1135.75 -33.9279 1126.09 -23.309C1110.98 -6.71442 1092.54 5.96802 1075.77 19.8183C1051.91 39.5154 1027.55 59.5064 1006.45 83.1014C991.908 99.3664 981.585 115.037 978.452 139.427C976.216 156.817 976.738 174.536 975.394 192.034C972.835 225.273 964.074 258.262 948.563 285.833C936.239 307.687 921.567 327.549 906.403 346.487C886.69 371.142 870.018 396.192 855.047 425.455C835.199 464.19 807.312 535.641 760.563 516.732C709.001 495.867 660.673 442.852 627.592 391.484C616.483 374.238 607.363 353.086 592.381 340.368C569.951 321.359 547.193 322.025 520.514 322.104C480.572 322.211 393.659 332.794 392.72 259.767C392.35 230.833 402.608 203.477 407.52 175.647C413.06 144.478 401.957 123.456 387.555 98.4492Z" fill="#635BFF" fill-opacity="0.02" stroke="#9D80F8" stroke-width="5"/>
<path fill-rule="evenodd" clip-rule="evenodd" d="M403.261 101.722C382.404 53.899 335.635 -24.6841 371.207 -77.8628C389.996 -105.967 423.231 -116.528 451.11 -122.822C473.547 -127.913 500.604 -129.824 517.556 -151.405C530.016 -167.272 524.485 -190.364 529.259 -210.226C535.183 -234.85 548.782 -254.999 565.494 -270.142C612.192 -312.466 677.123 -325.455 733.299 -328.219C791.641 -331.083 855.926 -317.686 910.828 -291.917C979.281 -259.775 1030.57 -198.913 1066.43 -121.841C1073.05 -107.613 1079.06 -93.0138 1085.41 -78.6146C1089.68 -68.9556 1096.01 -59.6115 1099.38 -49.4512C1104.98 -32.5102 1098.38 -18.6624 1087.8 -7.62137C1072.58 8.27426 1053.88 19.5873 1036.53 31.5162C1012.8 47.8414 988.547 63.8731 966.475 83.0266C951.643 95.9149 936.118 109.799 930.81 132.16C927.187 147.411 926.435 163.564 926.564 179.36C926.846 213.227 925.39 240.615 912.437 271.633C891.122 322.556 858.345 368.346 823.719 406.445C796.544 436.346 753.545 482.794 713.951 462.803C678.427 444.902 657.646 402.056 634.241 367.415C622.861 350.574 610.078 335.194 595.058 323.215C576.122 308.114 558.295 301.777 535.859 299.307C498.097 295.147 441.158 294.066 429.485 238.789C425.175 218.39 427.635 197.26 425.374 176.596C422.421 149.273 413.783 125.845 403.261 101.722Z" fill="#635BFF" fill-opacity="0.02" stroke="#2D1959" stroke-width="5"/>
<path fill-rule="evenodd" clip-rule="evenodd" d="M424.948 103.492C410.096 51.1645 390.585 -14.7824 426.456 -61.2894C443.831 -83.8189 468.272 -96.4134 491.926 -105.825C508.867 -112.57 535.765 -114.556 546.152 -135.293C553.78 -150.554 554.836 -171.607 561.737 -187.958C571.22 -210.437 585.585 -228.952 602.438 -243.446C646.342 -281.215 703.526 -295.81 755.675 -299.989C868.986 -309.057 984.28 -236.837 1044.91 -118.018C1062.99 -82.6003 1086.33 -44.903 1057.11 -8.71823C1025.22 30.7568 977.163 49.2506 939.091 77.2996C924.544 88.0088 906.007 100.883 897.892 120.273C893.01 131.928 892.675 146.551 892.452 159.382C891.865 192.062 889.641 221.451 878.873 251.944C862.244 299.068 835.726 342.543 805.676 378.154C779.47 409.206 742.096 445.699 704.036 423.313C674.855 406.11 656.347 369.595 633.673 342.679C608.441 312.702 577.235 292.502 542.965 282.631C509.629 273.055 473.066 266.596 455.497 225.91C449.471 211.953 443.174 193.882 440.915 178.435C437.268 152.966 431.928 127.902 424.948 103.492Z" fill="#635BFF" fill-opacity="0.02" stroke="#635BFF" stroke-width="5"/>
<path fill-rule="evenodd" clip-rule="evenodd" d="M449.13 103.862C442.259 51.0223 441.496 -4.0748 473.419 -45.7201C488.318 -65.1489 507.151 -78.9519 526.196 -91.4576C540.208 -100.66 554.678 -108.421 565.143 -123.507C574.838 -137.475 582.208 -153.693 591.569 -168.026C603.917 -187.021 618.692 -203.464 635.326 -216.723C677.021 -249.898 727.743 -265.414 776.268 -270.796C799.758 -273.411 825.239 -274.773 848.571 -267.642C871.104 -260.762 893.384 -249.883 914.103 -237.198C958.147 -210.259 996.319 -170.807 1023.99 -120.927C1042.96 -86.7133 1053.22 -53.4458 1028.65 -18.7377C1000.95 20.3849 957.519 41.9709 921.72 67.3622C897.166 84.7772 869.648 101.848 865.061 138.857C861.408 168.304 858.443 196.254 848.994 224.089C834.931 265.147 814.254 302.339 788.189 333.46C764.352 361.811 734.197 385.869 700.1 370.726C673.087 358.708 652.127 331.783 628.525 312.533C602.222 291.033 573.323 279.179 542.892 269.648C515.543 261.048 489.792 247.833 472.115 219.775C468.498 214.042 464.698 207.8 461.909 201.386C458.35 193.201 458.626 185.089 457.927 175.915C456.107 151.706 452.237 127.777 449.13 103.862Z" fill="#635BFF" fill-opacity="0.02" stroke="#9D80F8" stroke-width="5"/>
<path fill-rule="evenodd" clip-rule="evenodd" d="M475.793 99.5436C476.38 49.3539 486.27 1.92044 513.36 -37.1935C524.941 -53.9258 538.77 -67.7078 551.514 -83.0404C561.774 -95.4012 571.471 -106.886 583.27 -117.072C611.257 -141.191 634.003 -172.402 663.745 -193.879C703.449 -222.591 748.928 -238.462 794.056 -244.808C816.091 -247.909 838.854 -248.993 861.148 -245.49C880.295 -242.482 898.633 -231.923 915.643 -221.12C948.984 -199.959 981.356 -169.882 1003 -131.83C1050.73 -47.9392 956.632 13.0538 908.335 48.7724C886.124 65.2032 852.184 84.2326 843.086 116.778C836.582 140.029 832.62 163.673 824.244 186.206C801.745 246.718 756.072 317.889 695.207 308.414C669.163 304.366 645.425 287.92 621.112 276.88C596.078 265.51 570.238 259.172 544.217 252.216C519.899 245.72 500.516 236.474 484.809 211.688C477.301 199.851 477.965 185.682 477.295 171.16C476.204 147.307 475.529 123.318 475.793 99.5436Z" fill="#635BFF" fill-opacity="0.02" stroke="#2D1959" stroke-width="5"/>
<path fill-rule="evenodd" clip-rule="evenodd" d="M500.072 93.1131C509.85 17.3561 546.166 -65.349 599.564 -109.345C662.377 -161.098 730.425 -204.679 805.472 -217.207C840.266 -223.016 878.38 -225.874 911.211 -206.878C936.198 -192.43 965.221 -170.833 978.972 -140.461C1012.61 -66.1728 937.784 -7.03423 895.151 27.3343C872.198 45.8366 842.981 63.8661 825.681 90.8853C815.644 106.551 810.52 127.274 802.416 144.48C777.859 196.62 737.436 238.674 687.081 246.196C663.799 249.67 640.346 245.372 617.241 241.955C593.588 238.46 569.642 236.561 546.137 231.683C527.373 227.787 505.261 221.189 498.35 196.684C489.635 165.804 496.082 124.05 500.072 93.1131Z" fill="#635BFF" fill-opacity="0.02" stroke="white" stroke-width="5"/>
<path fill-rule="evenodd" clip-rule="evenodd" d="M523.88 80.9448C538.141 9.72041 568.339 -59.7547 619.105 -102.274C646.027 -124.821 677.278 -140.385 707.282 -155.762C741.293 -173.19 776.828 -186.718 813.121 -193.428C858.31 -201.788 931.497 -209.322 955.106 -146.486C978.539 -84.1151 919.324 -28.9135 884.308 2.54425C861.857 22.6964 837.83 41.1925 816.38 63.2229C804.749 75.1665 795.789 88.9669 785.947 102.975C758.743 141.788 719.961 172.515 680.431 188.918C642.12 204.819 594.725 211.859 554.284 206.604C536.834 204.345 524.362 196.725 519.085 175.06C511.772 144.943 517.985 110.366 523.88 80.9448Z" fill="#635BFF" fill-opacity="0.02" stroke="#9D80F8" stroke-width="5"/>
<path fill-rule="evenodd" clip-rule="evenodd" d="M547.537 61.7623C561.704 -0.948059 592.261 -58.2255 636.833 -95.8632C686.796 -138.056 751.131 -161.501 810.263 -173.423C841.695 -179.755 909.808 -196.925 925.829 -147.786C941.849 -98.6474 895.535 -50.2225 868.879 -23.5649C836.526 8.73976 801.646 39.9308 766.806 68.9158C736.536 94.117 704.236 119.882 671.45 139.344C652.958 150.384 633.696 159.398 613.89 166.28C599.224 171.334 580.576 178.873 565.2 175.111C526.418 165.608 540.761 91.7468 547.537 61.7623Z" fill="#635BFF" fill-opacity="0.02" stroke="#635BFF" stroke-width="5"/>
<path fill-rule="evenodd" clip-rule="evenodd" d="M576.738 42.9814C607.823 -75.6113 706.306 -133.937 801.13 -154.267C823.165 -158.986 884.934 -176.001 897.251 -139.773C909.186 -104.649 871.228 -62.9936 853.457 -43.258C798.391 17.8966 730.358 63.2398 665.891 108.161C645.769 122.182 609.476 152.609 584.515 138.573C557.414 123.306 570.299 67.5722 576.738 42.9814Z" fill="#635BFF" fill-opacity="0.02" stroke="white" stroke-width="5"/>
<path fill-rule="evenodd" clip-rule="evenodd" d="M608.578 20.1565C635.611 -67.1782 714.236 -117.268 786.525 -133.781C804.23 -137.821 849.198 -150.401 862.608 -126.029C875.018 -103.485 845.403 -70.8174 834.322 -57.8365C809.656 -28.9303 780.423 -5.11756 751.543 17.771C724.84 38.9474 697.849 60.6539 669.751 78.5635C654.952 87.9912 627.196 108.107 610.379 93.5504C592.273 77.8902 602.576 39.5491 608.578 20.1565Z" fill="#635BFF" fill-opacity="0.02" stroke="white" stroke-width="5"/>
<path fill-rule="evenodd" clip-rule="evenodd" d="M643.665 -5.3618C664.268 -62.3949 719.45 -99.4303 768.127 -111.737C781.225 -115.041 809.534 -123.614 820.584 -108.383C830.756 -94.3555 814.361 -73.7915 807.085 -64.2943C774.838 -22.1986 727.615 15.4029 684.348 38.4971C673.469 44.303 653.914 55.6996 642.723 43.9804C631.244 31.9459 638.932 7.73353 643.665 -5.3618Z" fill="#635BFF" fill-opacity="0.02" stroke="#2D1959" stroke-width="5"/>
<path fill-rule="evenodd" clip-rule="evenodd" d="M680.886 -29.3183C692.496 -57.6386 722.84 -79.0055 747.975 -85.807C765.664 -90.5898 786.928 -86.4583 771.511 -61.8064C756.196 -37.3426 727.779 -14.9989 703.694 -5.0933C685.318 2.46072 670.916 -4.99202 680.886 -29.3183Z" fill="#635BFF" fill-opacity="0.02" stroke="#9D80F8" stroke-width="5"/>
<path fill-rule="evenodd" clip-rule="evenodd" d="M-260.593 166.832C-261.338 110.881 -285.699 52.7321 -273.668 -4.27838C-263.788 -51.1011 -214.051 -55.0102 -184.214 -76.2236C-160.503 -93.0769 -147.047 -122.932 -134.224 -151.577C-122.703 -177.293 -112.355 -203.783 -100.218 -229.077C-92.3614 -245.43 -78.8702 -277.54 -61.8319 -278.12C-45.5206 -278.678 -30.5637 -253.656 -21.0888 -238.864C-8.73517 -219.584 2.21722 -199.029 14.2133 -179.441C34.4294 -146.4 58.6853 -121.944 86.4591 -98.7972C118.065 -72.4601 150.194 -47.0226 182.844 -22.4849C206.882 -4.36438 231.086 13.6201 254.192 33.5305C268.686 46.0237 300.675 69.4637 300.822 92.4956C300.892 103.485 292.361 115.656 286.61 124.441C276.877 139.311 265.784 152.907 254.656 166.209C233.929 190.988 212.324 214.643 190.952 238.584C163.214 269.656 136.718 300.219 112.333 335.494C87.1216 372.007 63.0358 409.723 38.4574 446.923C21.8119 472.124 5.18399 500.426 -18.8257 515.89C-48.8978 535.221 -73.5817 514.838 -103.994 514.601C-130.155 514.394 -128.226 440.394 -131.551 419.818C-134.887 398.991 -142.239 379.603 -145.089 358.726C-148.642 332.666 -148.689 306.004 -149.562 279.665C-150.624 247.447 -151.046 216.776 -179.253 204.491C-195.307 197.51 -212.673 196.042 -229.29 191.861C-240.054 189.148 -260.358 184.509 -260.593 166.832Z" fill="#635BFF" fill-opacity="0.02" stroke="#635BFF" stroke-width="5"/>
<path fill-rule="evenodd" clip-rule="evenodd" d="M-247.732 156.88C-250.474 109.979 -266.675 49.9499 -251.355 1.53629C-238.266 -39.8361 -197.332 -45.1995 -169.768 -66.9326C-147.014 -84.8582 -136.885 -114.192 -125.511 -143.009C-116.386 -166.126 -107.536 -189.465 -97.1782 -211.844C-89.5445 -228.335 -77.8885 -256.177 -62.0164 -259.59C-47.7473 -262.659 -32.4448 -238.08 -24.4353 -225.575C-12.7499 -207.319 -2.75574 -187.493 7.56732 -168.083C25.7061 -133.989 44.2794 -103.329 70.8269 -78.2831C97.4918 -53.1298 126.664 -34.3222 156.148 -14.7473C179.213 0.568329 202.161 16.3286 224.075 34.0104C240.4 47.175 263.87 64.0252 271.34 87.5006C277.253 106.072 247.264 136.889 238.421 147.767C220.218 170.131 200.928 191.125 181.603 211.991C158.044 237.417 133.734 259.652 112.929 288.655C75.7183 340.511 44.6141 405.086 -3.2666 443.626C-32.1453 466.872 -64.283 472.816 -96.4031 469.339C-109.122 467.962 -112.175 446.043 -113.778 433.258C-116.444 412.02 -116.779 390.416 -118.828 369.091C-120.749 349.129 -125.012 330.164 -128.447 310.589C-131.923 290.756 -132.898 270.436 -135.458 250.466C-137.043 238.069 -138.611 223.642 -145.546 213.676C-152.722 203.358 -164.56 199.034 -174.906 195.75C-194.337 189.641 -245.794 189.978 -247.732 156.88Z" fill="#635BFF" fill-opacity="0.02" stroke="#2D1959" stroke-width="5"/>
<path fill-rule="evenodd" clip-rule="evenodd" d="M-231.178 137.246C-235.79 94.1951 -242.247 40.5742 -223.458 0.910004C-208.101 -31.5217 -175.348 -38.5179 -151.954 -59.6497C-132.496 -77.2226 -125.147 -105.172 -115.488 -131.144C-107.563 -152.448 -99.5963 -173.845 -89.9907 -194.117C-82.7057 -209.492 -73.3175 -230.337 -58.8534 -235.701C-46.4865 -240.283 -32.5159 -219.753 -25.6598 -209.534C-13.9862 -192.119 -4.46877 -172.606 4.98407 -153.35C20.447 -121.842 34.6762 -88.1859 56.6838 -62.5571C78.0687 -37.6873 103.472 -23.0074 129.351 -6.50153C149.174 6.14462 168.872 19.2777 187.549 34.3586C201.89 45.9306 219.661 59.6437 227.134 78.8994C233.597 95.5055 217.006 115.162 208.716 126.877C195.028 146.212 179.835 163.949 164.854 181.759C148.686 200.971 130.779 218.694 115.134 238.38C82.2341 279.806 55.9495 325.671 15.4004 357.408C-10.8607 377.967 -46.1987 396.643 -77.242 393.284C-99.5669 390.864 -98.0982 330.555 -100.243 311.285C-103.768 279.777 -110.577 246.672 -121.392 217.649C-130.681 192.779 -152.753 185.11 -173.057 179.531C-185.776 176.03 -199.107 174.139 -211.409 168.726C-225.65 162.453 -229.245 155.292 -231.178 137.246Z" fill="#635BFF" fill-opacity="0.02" stroke="white" stroke-width="5"/>
<path fill-rule="evenodd" clip-rule="evenodd" d="M-215.738 117.069C-218.483 80.6712 -217.866 37.6303 -200.079 6.14496C-184.491 -21.4334 -156.738 -28.6943 -136.999 -50.4195C-121.594 -67.3687 -115.543 -95.0045 -107.258 -117.419C-97.1329 -144.825 -82.9446 -195.443 -57.4021 -205.756C-33.6412 -215.344 -8.79245 -154.097 -0.190079 -135.834C13.4279 -106.926 24.8174 -75.2257 41.3342 -48.5307C55.5578 -25.5487 74.6147 -12.8439 94.8418 0.808807C120.631 18.2464 159.786 38.923 173.574 72.9076C183.853 98.2309 150.431 135.878 139.018 153.424C127.082 171.752 118.091 193.477 105.773 211.159C86.3335 239.06 54.8345 261.525 28.8275 278.668C3.54367 295.345 -29.29 313.802 -57.9724 312.703C-76.8236 311.985 -80.4103 276.449 -84.4322 259.091C-90.1946 234.414 -97.8562 212.301 -114.314 195.517C-131.066 178.431 -150.811 170.38 -171.567 163.335C-182.222 159.744 -194.376 156.943 -203.907 149.689C-214.438 141.796 -214.679 131.059 -215.738 117.069Z" fill="#635BFF" fill-opacity="0.02" stroke="#9D80F8" stroke-width="5"/>
<path fill-rule="evenodd" clip-rule="evenodd" d="M-196.924 96.0888C-196.772 64.6439 -190.882 31.1121 -173.416 6.85661C-158.87 -13.3468 -136.1 -20.1003 -122.175 -40.7539C-111.144 -57.1053 -105.53 -80.0602 -98.145 -99.0486C-89.1133 -122.318 -76.3425 -162.968 -53.8835 -171.043C-31.9638 -178.904 -12.5759 -134.131 -4.1714 -116.415C8.13648 -90.437 18.1 -62.9012 30.5192 -36.9948C40.2483 -16.67 52.1459 -3.57028 67.9879 9.5294C86.5845 24.916 112.531 41.9606 122.465 67.4167C129.627 85.8478 112.29 115.299 105.996 131.536C101.776 142.442 97.9137 153.519 95.792 165.339C94.1392 174.544 93.9751 183.063 89.1868 190.967C77.1309 210.849 50.6983 213.443 32.764 219.996C8.94528 228.694 -16.3269 238.577 -41.2533 240.464C-56.5737 241.643 -64.3921 224.413 -73.1365 212.292C-83.4693 197.963 -98.0981 187.658 -110.875 176.845C-127.737 162.552 -146.087 153.662 -165.071 144.557C-173.633 140.448 -183.691 136.417 -190.325 128.248C-197.253 119.78 -196.977 107.438 -196.924 96.0888Z" fill="#635BFF" fill-opacity="0.02" stroke="#635BFF" stroke-width="5"/>
<path fill-rule="evenodd" clip-rule="evenodd" d="M-177.165 77.4202C-174.138 51.0107 -164.704 25.7694 -148.769 7.10001C-136.554 -7.23351 -120.333 -15.3033 -110.529 -32.525C-101.394 -48.5786 -95.0287 -66.8323 -87.4839 -83.9967C-79.4991 -102.143 -67.6363 -132.473 -49.2202 -137.411C-29.3725 -142.728 -14.0835 -112.133 -5.61758 -95.1768C5.07773 -73.7482 13.2033 -50.6928 22.7663 -28.526C29.9707 -12.0041 39.1604 3.10629 50.0297 16.3021C61.429 30.2128 76.8882 43.5358 82.6554 62.6639C87.7537 79.6061 78.2141 100.103 76.5304 117.282C74.7292 135.636 77.8856 154.914 67.9002 170.674C47.3075 203.175 -4.37379 197.148 -33.9194 197.843C-63.0718 198.56 -86.51 178.672 -110.101 159.752C-125.683 147.26 -141.911 136.682 -157.886 125.043C-174.173 113.168 -179.828 100.662 -177.165 77.4202Z" fill="#635BFF" fill-opacity="0.02" stroke="white" stroke-width="5"/>
<path fill-rule="evenodd" clip-rule="evenodd" d="M-158.807 62.3037C-149.854 24.0439 -121.893 3.70897 -101.905 -25.2046C-85.5497 -48.8749 -73.2864 -97.8938 -45.7424 -104.378C-14.4706 -111.737 4.25015 -46.7876 15.1222 -21.7258C27.1859 6.06885 48.6716 28.6776 57.6064 58.1004C62.3027 73.5435 58.2698 87.9536 55.769 103.389C53.0275 120.339 50.967 137.668 41.5038 151.311C22.877 178.159 -13.502 177.972 -39.7017 178.711C-66.823 179.479 -90.8155 161.08 -112.424 142.718C-135.343 123.273 -167.976 101.539 -158.807 62.3037Z" fill="#635BFF" fill-opacity="0.02" stroke="white" stroke-width="5"/>
<path fill-rule="evenodd" clip-rule="evenodd" d="M-143.812 51.929C-133.725 24.6701 -112.526 2.50929 -95.3253 -18.4108C-80.9684 -35.8514 -65.5235 -70.9607 -43.6333 -73.4634C-17.9056 -76.4153 -2.31283 -38.9245 7.81033 -15.9366C17.7738 6.65196 32.1307 30.5026 37.6476 55.2944C43.401 81.1202 28.0803 115.902 13.4691 134.176C-2.82727 154.555 -29.4893 162.084 -52.3669 161.271C-76.3207 160.444 -98.2995 143.602 -116.441 126.133C-135.836 107.459 -155.544 83.573 -143.812 51.929Z" fill="#635BFF" fill-opacity="0.02" stroke="#635BFF" stroke-width="5"/>
<path fill-rule="evenodd" clip-rule="evenodd" d="M-129.899 46.7968C-120.263 24.1247 -103.561 4.94554 -88.1597 -12.1621C-76.2748 -25.3697 -58.7373 -47.8275 -41.5905 -48.3775C-22.7272 -48.9847 -6.74049 -30.1341 0.758652 -10.8121C8.15125 8.24565 15.9404 32.1392 17.0472 53.047C19.4503 98.577 -29.4747 149.579 -66.2128 145.428C-101.045 141.493 -149.112 91.9697 -129.899 46.7968Z" fill="#635BFF" fill-opacity="0.02" stroke="white" stroke-width="5"/>
<path fill-rule="evenodd" clip-rule="evenodd" d="M-117.032 44.2977C-103.739 14.7577 -71.4495 -27.3555 -41.5561 -28.3557C-7.24356 -29.4987 1.37008 17.3653 -3.10239 51.3273C-7.64585 85.9895 -47.2059 136.161 -78.7498 129.381C-109.536 122.766 -132.786 79.3313 -117.032 44.2977Z" fill="#635BFF" fill-opacity="0.02" stroke="#2D1959" stroke-width="5"/>
<path fill-rule="evenodd" clip-rule="evenodd" d="M924.706 1045.04C876.887 1080.45 822.827 1109.68 771.85 1139.38C697.352 1182.79 621.758 1225.03 543.48 1257.37C501.513 1274.7 447.13 1299.69 402.099 1286.11C385.634 1281.15 370.62 1266.14 355.858 1256.38C335.502 1242.93 314.847 1230.15 294.227 1217.33C252.864 1191.65 211.371 1166.23 170.718 1138.9C151.143 1125.73 132.149 1109.15 111.77 1097.92C99.86 1091.36 85.6086 1094.43 72.8833 1094.84C43.406 1095.81 13.9464 1097.65 -15.5132 1099.21C-51.5468 1101.11 -87.6626 1103.14 -123.737 1102.39C-140.008 1102.04 -179.857 1105.57 -188.814 1088.46C-193.633 1079.25 -182.275 1062.64 -177.01 1054.96C-167.343 1040.84 -156.232 1028.11 -145.267 1015.51C-119.91 986.377 -92.9805 958.632 -70.4412 926.088C-58.8604 909.358 -43.6874 888.918 -51.2474 866.079C-58.8779 843.01 -72.0964 823.035 -80.1613 800.046C-89.447 773.59 -93.2975 746.059 -97.6821 718.006C-100.928 697.272 -108.488 678.902 -115.596 659.787C-123.45 638.659 -131.585 617.352 -137.038 595.072C-140.642 580.354 -146.459 553.876 -133.851 544.559C-115.937 531.309 -82.3447 542.038 -61.9243 545.941C-33.7032 551.327 -5.6875 558.188 22.4574 564.096C42.8895 568.393 63.3921 573.106 84.1647 573.607C117.651 574.417 151.249 571.616 184.647 569.009C246.489 564.182 307.888 557.636 369.939 557.636C424.302 557.636 549.931 634.391 579.338 647.905C638.034 674.884 698.292 700.459 753.836 736.355C768.862 746.073 791.988 759.022 799.895 779.026C804.772 791.351 802.53 798.477 814.035 806.42C829.73 817.256 849.839 821.51 867.213 826.359C895.194 834.165 923.392 840.776 951.501 847.844C1008.35 862.104 1064.82 878.232 1121.44 893.752C1138.55 898.443 1159.26 899.482 1175.58 907.747C1186.1 913.054 1185.01 919.736 1176.87 927.8C1162.58 941.952 1142.57 949.809 1125.7 957.88C1100.98 969.704 1075.86 980.254 1050.73 990.653C1025.59 1001.05 1000.33 1011.13 975.185 1021.55C958.574 1028.41 939.633 1033.99 924.706 1045.04Z" fill="#635BFF" fill-opacity="0.02" stroke="#635BFF" stroke-width="5"/>
<path fill-rule="evenodd" clip-rule="evenodd" d="M885.355 1037.25C834.771 1072.73 778.622 1101 724.493 1128.58C655.216 1163.89 584.372 1196.99 511.38 1219.07C468.522 1232.02 417.956 1246.32 374.165 1231.47C358.543 1226.17 346.871 1214.25 333.48 1203.74C318.216 1191.74 302.364 1180.75 286.513 1169.92C253.883 1147.65 220.908 1126.13 187.589 1105.37C169.941 1094.34 150.514 1079.55 130.576 1075.72C114.725 1072.68 96.7189 1077.09 80.7971 1078.37C52.1237 1080.68 23.4562 1083.06 -5.229 1085.08C-38.329 1087.41 -71.5229 1089.57 -104.693 1089.19C-123.181 1088.98 -154.919 1092.42 -167.993 1077.84C-179.401 1065.12 -137.87 1019.1 -130.567 1010.36C-107.758 983.059 -83.7697 957.067 -62.5405 927.877C-49.9945 910.663 -34.7184 889.728 -29.4287 866.913C-24.9258 847.47 -33.6146 825.315 -38.7458 807.341C-45.1627 784.828 -50.3408 761.49 -57.7969 739.45C-64.4369 719.812 -75.0045 702.32 -84.2864 684.468C-94.4958 664.831 -104.834 644.871 -112.414 623.447C-117.058 610.265 -124.743 588.189 -115.514 575.623C-104.852 561.136 -71.9868 570.603 -58.4779 572.669C-31.0726 576.914 -3.87866 583.226 23.3387 588.878C68.5446 598.259 111.643 606.464 157.676 604.498C217.624 601.931 277.513 595.892 337.449 592.55C359.582 591.302 382.067 588.791 404.218 590.147C416.917 590.929 426.586 595.662 433.972 606.342C444.058 620.916 467.289 628.984 483.446 637.347C508.638 650.379 534.147 662.5 559.585 674.778C615.429 701.746 672.347 727.738 725.309 762.616C742.064 773.647 761.25 785.947 773.644 804.171C780.56 814.334 778.816 824.124 783.037 834.925C788.626 849.134 807.002 855.545 817.987 860.193C839.186 869.172 861.255 875.19 883.153 880.827C932.704 893.579 982.371 901.964 1032.73 908.139C1044.53 909.573 1090.99 914.544 1066.59 938.499C1039.62 964.971 1000.69 977.945 968.945 992.863C940.348 1006.28 911.727 1018.75 885.355 1037.25Z" fill="#635BFF" fill-opacity="0.02" stroke="#2D1959" stroke-width="5"/>
<path fill-rule="evenodd" clip-rule="evenodd" d="M815.449 1030.69C767.903 1061.91 715.231 1085.19 664.023 1107.47C601.884 1134.5 538.186 1158.6 473.014 1172.1C432.073 1180.57 386.937 1187.08 346.272 1173C318.502 1163.39 297.021 1137.41 272.631 1119.54C248.24 1101.66 222.863 1084.88 196.727 1070.9C180.506 1062.22 163.056 1053.48 145.007 1054.62C101.122 1057.4 57.29 1064.02 13.3579 1067.24C-15.7048 1069.39 -44.8263 1071.16 -73.9772 1070.63C-91.5559 1070.31 -115.705 1071.6 -131.268 1060.32C-148.471 1047.83 -56.8746 941.266 -48.2175 929.271C-26.513 899.195 -0.230103 859.28 -4.42645 816.508C-8.44055 775.619 -25.8372 745.092 -45.514 713.055C-56.6807 694.83 -92.4905 646.143 -79.2197 622.44C-71.6382 608.892 -46.6483 613.582 -34.7764 614.506C-11.3792 616.325 11.8886 620.235 35.1624 623.629C69.0974 628.549 103.967 636.146 138.049 638.374C161.781 639.92 185.654 637.851 209.427 637.808C243.515 637.75 277.603 638.065 311.691 638.438C340.313 638.753 369.176 638.438 397.698 641.789C415.429 643.852 428.888 648.485 441.606 661.575C452.673 672.961 469.37 679.627 483.476 686.867C506.773 698.819 530.376 709.897 553.902 721.154C603.159 744.727 652.98 767.807 700.127 797.267C721.649 810.708 757.835 829.527 762.884 862.116C764.706 873.867 766.046 878.944 775.449 885.625C788.796 895.106 804.782 899.381 819.757 903.098C854.668 911.763 890.589 910.466 925.441 919.031C939.635 922.561 958.165 930.18 941.962 947.624C923.055 968.026 895.532 979.24 872.881 991.843C861.574 998.13 849.925 1004.02 839.187 1011.69C830.942 1017.61 823.883 1025.19 815.449 1030.69Z" fill="#635BFF" fill-opacity="0.02" stroke="white" stroke-width="5"/>
<path fill-rule="evenodd" clip-rule="evenodd" d="M725.395 1020.94C681.468 1046.3 633.761 1064.73 586.912 1081.35C534.875 1099.78 481.583 1115.05 427.586 1121.54C390.301 1126.05 350.576 1127.37 314.388 1113.6C291.503 1104.88 275.988 1086.56 256.296 1071.19C226.575 1047.96 194.418 1029.56 158.712 1034.04C118.681 1039.05 78.5192 1042.81 38.2261 1045.31C13.9211 1046.83 -10.4777 1047.96 -34.812 1046.91C-50.1976 1046.25 -70.0194 1045.13 -83.4041 1036.63C-101.313 1025.24 -34.0433 938.556 -25.658 925.922C-4.86206 894.59 10.3828 861.715 19.2903 822.896C26.5548 791.22 11.7148 766.319 -3.59454 742.625C-13.1123 727.91 -43.8661 690.9 -34.2368 671.792C-28.9557 661.255 -11.5515 661.8 -2.20386 661.262C15.6111 660.242 33.5024 661.305 51.3174 661.771C77.6234 662.489 105.625 657.558 131.708 661.527C189.513 670.313 247.171 677.922 305.334 683.944C337.396 687.26 369.652 690.275 401.427 696.671C412.834 698.968 424.617 701.401 435.426 706.598C442.379 709.936 446.17 715.621 452.038 720.287C480.016 742.495 516.538 753.923 548.049 768.157C589.94 787.078 632.054 805.705 672.83 828.057C694.277 839.815 724.233 853.324 738.991 877.32C743.45 884.57 741.549 890.37 744.354 897.339C747.581 905.379 757.387 907.776 763.718 910.016C778.089 915.105 838.241 922.8 810.521 952.653C797.295 966.873 780.442 975.996 765.531 987.172C760.133 991.221 754.869 995.291 750.369 1000.75C742.84 1009.91 735.423 1015.14 725.395 1020.94Z" fill="#635BFF" fill-opacity="0.02" stroke="#9D80F8" stroke-width="5"/>
<path fill-rule="evenodd" clip-rule="evenodd" d="M629.442 1009.97C542.724 1050.98 441.094 1078.93 346.549 1073.51C315.109 1071.71 281.282 1065.68 254.028 1045.04C237.958 1032.85 225.116 1019.09 205.812 1014.68C191.876 1011.51 176.87 1015.11 162.853 1016.42C142.549 1018.31 122.234 1020.01 101.9 1021.37C76.6929 1023.05 51.4031 1024.34 26.1485 1023.65C8.10278 1023.15 -16.8167 1023.71 -32.4927 1011.88C-51.2087 997.768 -3.56897 931.567 3.13422 919.771C19.3806 891.181 30.7702 863.48 34.8862 829.024C36.0975 818.984 40.1782 808.694 39.649 798.576C39.0963 788.243 33.8807 779.043 29.0649 770.918C22.7675 760.269 0.917419 735.013 7.17371 722.027C10.6312 714.856 23.6083 713.953 30.335 712.432C42.9535 709.564 55.7543 708.022 68.4492 705.742C89.9877 701.855 111.373 689.199 132.988 689.557C191.112 690.504 250.076 712.504 307.036 724.587C340.899 731.794 374.991 738.333 408.442 748.093C419.026 751.184 429.928 754.382 439.989 759.624C447.009 763.281 451.519 769.799 458.022 773.894C482.96 789.62 511.636 799.164 538.414 809.748C573.176 823.516 608.056 836.868 642.578 851.526C664.216 860.712 692.04 868.793 710.686 885.831C724.304 898.273 714.996 901.994 707.811 913.582C704.141 919.491 704.988 925.314 703.395 932.004C701.119 941.556 694.686 948.433 688.654 954.614C680.333 963.155 669.25 970.189 662.446 980.659C660.047 984.345 660.159 988.92 658.219 992.132C652.574 1001.49 637.598 1006.11 629.442 1009.97Z" fill="#635BFF" fill-opacity="0.02" stroke="#635BFF" stroke-width="5"/>
<path fill-rule="evenodd" clip-rule="evenodd" d="M537.243 995.354C466.861 1021.14 388.55 1035.83 314.154 1029.01C288.269 1026.64 262.226 1021.12 238.114 1009C227.144 1003.51 218.909 997.384 206.888 997.054C178.996 996.293 151.016 998.955 123.13 999.593C103.173 1000.05 83.1171 1000.22 63.2076 998.259C49.8956 996.953 31.8937 995.389 20.9881 985.426C5.14038 970.914 33.7485 921.583 39.5711 907.954C49.2206 885.351 58.7938 860.223 54.9669 834.069C53.793 826.071 51.7151 819.005 51.4451 810.849C51.1868 803.841 51.9088 797.37 49.8721 790.671C47.3541 782.364 36.1551 769.474 40.0055 761.827C42.6292 756.605 50.4121 756.361 55.5891 754.689C63.9856 751.979 72.1841 748.423 80.1002 744.058C88.4349 739.439 95.5312 732.302 104.165 728.485C118.182 722.302 133.871 721.721 148.603 721.749C207.387 721.864 266.916 736.017 324.208 750.816C354.043 758.52 384.042 766.733 413.037 778.419C421.842 781.969 431.82 785.535 439.562 792.091C444.393 796.173 447.668 801.287 453.156 804.357C500.036 830.569 554.235 840.303 604.003 859.233C616.957 864.161 688.747 889.06 651.211 912.48C628.408 926.712 604.314 933.183 583.506 952.651C577.167 958.569 572.941 963.468 570.464 972.499C568.832 978.511 572.759 975.462 567.277 981.746C560.627 989.299 545.442 992.348 537.243 995.354Z" fill="#635BFF" fill-opacity="0.02" stroke="#9D80F8" stroke-width="5"/>
<path fill-rule="evenodd" clip-rule="evenodd" d="M464.062 980.105C381.661 1001.15 294.399 1002.16 210.697 983.495C189.597 978.796 167.637 979.919 146.277 978.724C125.524 977.58 88.6261 979.962 73.5527 960.486C62.6227 946.368 74.4826 916.364 78.585 900.572C83.8116 880.453 88.3789 859.668 79.7975 840.128C74.7711 828.685 67.8847 817.792 62.4933 806.455C59.9153 801.041 54.6063 792.745 56.8194 787.616C60.4803 779.155 77.608 775.593 85.9187 771.603C112.481 758.85 140.609 755.596 169.008 755.687C221.462 755.853 274.187 764.608 325.64 776.48C349.313 781.945 373.315 787.774 396.146 797.272C409.065 802.643 418.594 813.007 430.931 819.151C470.654 838.948 513.332 849.526 553.737 867.629C565.433 872.871 609.117 890.323 587.11 910.9C565.803 930.819 534.726 928.451 512.572 947.19C510.065 949.336 506.963 951.903 505.509 955.372C504.65 957.446 506.163 961.394 505.509 962.575C498.706 975.399 474.521 977.437 464.062 980.105Z" fill="#635BFF" fill-opacity="0.02" stroke="white" stroke-width="5"/>
<path fill-rule="evenodd" clip-rule="evenodd" d="M410.676 966.194C368.402 973.27 325.198 975.024 282.213 975.47C258.716 975.715 232.901 977.541 209.91 970.278C195.788 965.805 182.148 961.893 167.59 959.074C151.925 956.04 126.705 953.832 117.166 937.386C110.04 925.096 114.924 899.834 115.183 884.891C115.459 868.502 112.705 856.349 103.226 844.62C97.2646 837.235 69.9197 810.426 73.0796 802.696C76.0866 795.332 95.1404 794.203 103.379 792.29C129.417 786.221 155.803 784.107 182.289 784.438C223.309 784.941 264.483 790.047 304.862 798.82C321.556 802.466 338.809 806.241 354.756 813.526C365.495 818.437 374.451 827.146 385.12 832.223C415.672 846.785 447.977 856.673 478.635 871.501C488.474 876.268 520.532 888.961 512.847 908.521C506.439 924.852 484.643 929.821 473.933 940.766C455.715 959.434 433.907 962.31 410.676 966.194Z" fill="#635BFF" fill-opacity="0.02" stroke="white" stroke-width="5"/>
<path fill-rule="evenodd" clip-rule="evenodd" d="M384.044 956.808C350.51 961.492 316.196 963.541 282.17 963.641C260.21 963.706 237.043 964.071 215.494 958.047C204.669 955.024 195.263 947.954 185.019 942.912C174.47 937.726 159.912 931.938 155.353 920.047C151.068 908.873 152.668 892.57 148.906 879.097C145.56 867.142 138.556 859.756 131.014 851.677C126.208 846.512 101.529 824.156 104.383 819.221C107.442 813.935 122.264 814.365 129.976 813.634C151.226 811.586 172.55 810.933 193.857 811.679C222.937 812.767 252.24 815.804 280.816 822.681C301.088 827.552 316.378 839.156 335.278 847.665C359.764 858.718 385.128 867.457 409.38 879.548C421.464 885.572 439.351 893.322 445.539 908.873C447.919 914.833 450.228 929.99 447.579 935.949C444.397 943.112 432.552 946.149 426.961 947.99C412.955 952.582 398.297 954.816 384.044 956.808Z" fill="#635BFF" fill-opacity="0.02" stroke="#635BFF" stroke-width="5"/>
</g>
<defs>
<linearGradient id="paint0_linear_12604_19574" x1="380" y1="0" x2="380" y2="1005" gradientUnits="userSpaceOnUse">
<stop stop-color="#DCDAFF"/>
<stop offset="1" stop-color="#635BFF"/>
</linearGradient>
</defs>
</svg>
