<svg width="410" height="413" viewBox="0 0 410 413" fill="none" xmlns="http://www.w3.org/2000/svg">
<path d="M9.00699 128.689C5.97657 122.912 8.3868 115.826 14.3803 112.893C20.3546 109.97 27.6895 112.238 30.7408 118.057C30.8578 118.28 30.7648 118.553 30.5308 118.667C30.3065 118.78 30.0164 118.692 29.8978 118.467C27.095 113.121 20.3466 110.992 14.8066 113.702C9.27622 116.408 7.05348 122.949 9.84833 128.28C9.96531 128.504 9.87237 128.777 9.63839 128.891C9.41083 129.002 9.12398 128.917 9.00539 128.69L9.00699 128.689Z" fill="#2E2446"/>
<path d="M295.475 276.073C295.338 275.86 295.405 275.581 295.625 275.448C295.845 275.314 296.135 275.378 296.273 275.591C301.693 283.97 313.007 286.362 321.502 281.172C330.049 275.948 332.635 264.946 327.265 256.647C327.128 256.434 327.195 256.154 327.415 256.021C327.634 255.887 327.926 255.952 328.063 256.165C333.707 264.888 330.989 276.45 322.004 281.941C312.945 287.477 301.098 284.757 295.477 276.073H295.475Z" fill="#2E2446"/>
<path d="M374.098 250.023L353.265 231.956L371.355 211.151L392.188 229.219L374.098 250.023Z" fill="#76C4FF" stroke="#2E2446"/>
<path d="M367.741 228.712L340.193 227.217L341.69 199.708L369.238 201.202L367.741 228.712Z" fill="#FFA186" stroke="#2E2446"/>
<path d="M356.987 38.4892H256.154C254.784 35.2238 254.028 31.6512 254.028 27.9039C254.028 12.4921 266.785 0 282.523 0C293.026 0 298.667 10.9625 303.607 19.2428C306.902 17.4443 314.231 11.0184 318.268 11.0184C327.893 11.0184 334.651 20.3325 338.025 28.5814C338.061 28.5779 338.1 28.5639 338.146 28.5395C341.449 26.8108 345.379 26.7165 348.531 28.6966C352.404 31.1343 356.495 34.5847 356.987 38.4857V38.4892Z" fill="#ACA8FF"/>
<path d="M101.996 38.4892H2.10564C0.748986 35.2238 0 31.6512 0 27.9039C0 12.4921 12.6374 0 28.2283 0C38.6328 0 44.222 10.9625 49.1151 19.2428C52.3795 17.4443 59.6398 11.0184 63.6391 11.0184C73.1745 11.0184 79.8694 20.3325 83.2116 28.5814C83.2469 28.5779 83.2858 28.5639 83.3317 28.5395C86.6033 26.8108 90.4966 26.7165 93.6197 28.6966C97.4565 31.1343 101.509 34.5847 101.996 38.4857V38.4892Z" fill="#ACA8FF"/>
<g clip-path="url(#clip0_12858_20174)">
<path opacity="0.1" d="M312.792 118.035L391.825 129.488C393.62 129.701 394.899 131.322 394.692 133.099L389.659 175.141C389.444 176.926 387.814 178.198 386.019 177.992L312.792 168.836V118.035Z" fill="#2E2446"/>
<path opacity="0.1" d="M277.323 150.027C277.008 151.683 278.209 153.019 280.018 153.019L283.071 160.825L277.537 176.024L295.747 166.981L312.785 168.83V117.297H283.629L277.323 150.027Z" fill="#2E2446"/>
<path d="M282.419 148.266H298.792L278.329 174.219L282.419 148.266Z" fill="#FFAF30" stroke="#2D1959"/>
<path d="M275.585 102.498H396.058C397.593 102.498 398.832 103.734 398.832 105.254V147.595C398.832 149.115 397.593 150.351 396.058 150.351H275.585C274.05 150.351 272.811 149.115 272.811 147.595V105.254C272.811 103.734 274.05 102.498 275.585 102.498Z" fill="#FFAF30" stroke="#2D1959"/>
<path d="M345.224 127.334C345.224 131.377 341.933 134.653 337.859 134.653H290.714C286.64 134.653 283.349 131.377 283.349 127.334C283.349 123.297 286.641 120.014 290.714 120.014H337.859C341.933 120.014 345.224 123.29 345.224 127.334Z" stroke="white"/>
<path d="M368.656 142.974C368.515 143.047 368.399 143.104 368.31 143.147C368.221 143.104 368.105 143.047 367.964 142.974C367.607 142.79 367.096 142.511 366.48 142.131C365.248 141.37 363.605 140.209 361.963 138.61C358.681 135.413 355.418 130.482 355.418 123.488V113.103C355.571 113.047 355.779 112.972 356.039 112.885C356.655 112.679 357.561 112.404 358.718 112.127C361.031 111.575 364.341 111.021 368.317 111.021C372.296 111.021 375.603 111.575 377.912 112.127C379.066 112.404 379.97 112.679 380.583 112.885C380.842 112.972 381.049 113.046 381.201 113.103V123.488C381.201 130.482 377.939 135.413 374.657 138.61C373.015 140.209 371.372 141.37 370.14 142.131C369.524 142.511 369.012 142.79 368.656 142.974Z" stroke="white"/>
<path d="M373.729 125.394H373.536V122.629C373.536 119.764 371.198 117.439 368.317 117.439C365.436 117.439 363.098 119.764 363.098 122.629V125.394H362.89C362.304 125.394 361.832 125.864 361.832 126.447V128.899C361.832 132.461 364.735 135.347 368.317 135.347C371.899 135.347 374.795 132.461 374.795 128.899V126.447C374.795 125.864 374.323 125.394 373.737 125.394H373.729ZM368.31 130.847C367.531 130.847 366.894 130.221 366.894 129.439C366.894 128.657 367.531 128.032 368.31 128.032C369.089 128.032 369.726 128.665 369.726 129.439C369.726 130.214 369.096 130.847 368.31 130.847ZM371.084 125.394H365.55V122.629C365.55 121.108 366.787 119.885 368.317 119.878C369.847 119.878 371.077 121.108 371.084 122.629V125.394Z" fill="white"/>
<path d="M302.861 128.444C303.026 128.501 303.097 128.622 303.083 128.814C303.069 129.006 302.947 129.304 302.711 129.702C302.475 130.1 302.282 130.356 302.118 130.456C301.953 130.555 301.81 130.555 301.682 130.456L299.279 128.544L299.766 131.558C299.809 131.728 299.737 131.856 299.558 131.942C299.38 132.027 299.058 132.077 298.593 132.077C298.128 132.077 297.799 132.034 297.628 131.942C297.449 131.856 297.385 131.728 297.421 131.558L297.907 128.544L295.504 130.456C295.383 130.563 295.24 130.563 295.083 130.456C294.918 130.349 294.718 130.1 294.482 129.695C294.246 129.304 294.125 129.013 294.117 128.821C294.11 128.629 294.182 128.501 294.332 128.451L297.206 127.349L294.332 126.24C294.182 126.183 294.103 126.063 294.117 125.871C294.125 125.679 294.246 125.38 294.482 124.982C294.718 124.584 294.918 124.328 295.083 124.228C295.247 124.122 295.39 124.129 295.512 124.243L297.914 126.155L297.428 123.141C297.385 122.977 297.456 122.856 297.635 122.764C297.814 122.672 298.136 122.629 298.6 122.629C299.065 122.629 299.387 122.672 299.565 122.764C299.744 122.856 299.809 122.984 299.773 123.141L299.287 126.155L301.689 124.243C301.818 124.129 301.961 124.129 302.118 124.243C302.275 124.349 302.475 124.605 302.718 125.003C302.954 125.394 303.076 125.686 303.09 125.878C303.105 126.07 303.026 126.198 302.869 126.247L300.002 127.356L302.869 128.458L302.861 128.444Z" fill="white"/>
<path d="M318.169 128.444C318.326 128.501 318.405 128.622 318.391 128.814C318.376 129.006 318.255 129.304 318.019 129.702C317.783 130.1 317.59 130.356 317.425 130.456C317.268 130.555 317.118 130.555 316.989 130.456L314.587 128.544L315.073 131.558C315.109 131.728 315.044 131.856 314.866 131.942C314.687 132.027 314.365 132.077 313.901 132.077C313.436 132.077 313.114 132.034 312.935 131.942C312.757 131.856 312.692 131.728 312.728 131.558L313.214 128.544L310.812 130.456C310.69 130.563 310.547 130.563 310.39 130.456C310.226 130.349 310.025 130.1 309.782 129.695C309.546 129.304 309.425 129.013 309.418 128.821C309.411 128.629 309.482 128.501 309.632 128.451L312.506 127.349L309.632 126.24C309.482 126.183 309.403 126.063 309.418 125.871C309.425 125.679 309.546 125.38 309.782 124.982C310.018 124.584 310.218 124.328 310.383 124.228C310.547 124.122 310.69 124.129 310.812 124.243L313.214 126.155L312.728 123.141C312.685 122.977 312.757 122.856 312.935 122.764C313.114 122.672 313.436 122.629 313.901 122.629C314.365 122.629 314.694 122.672 314.866 122.764C315.044 122.856 315.109 122.984 315.073 123.141L314.587 126.155L316.989 124.243C317.118 124.129 317.261 124.129 317.418 124.243C317.575 124.349 317.776 124.605 318.019 125.003C318.255 125.394 318.376 125.686 318.391 125.878C318.405 126.07 318.326 126.198 318.169 126.247L315.302 127.356L318.169 128.458V128.444Z" fill="white"/>
<path d="M333.476 128.444C333.641 128.501 333.712 128.622 333.698 128.814C333.684 129.006 333.562 129.304 333.333 129.702C333.098 130.1 332.904 130.356 332.74 130.456C332.576 130.555 332.433 130.555 332.304 130.456L329.902 128.544L330.388 131.558C330.431 131.728 330.359 131.856 330.18 131.942C330.002 132.027 329.68 132.077 329.215 132.077C328.75 132.077 328.429 132.034 328.25 131.942C328.071 131.856 328.007 131.728 328.043 131.558L328.529 128.544L326.127 130.456C326.005 130.563 325.862 130.563 325.705 130.456C325.54 130.349 325.34 130.1 325.097 129.695C324.861 129.304 324.74 129.013 324.732 128.821C324.725 128.629 324.797 128.501 324.947 128.451L327.821 127.349L324.947 126.24C324.797 126.183 324.718 126.063 324.732 125.871C324.74 125.679 324.861 125.38 325.097 124.982C325.333 124.584 325.533 124.328 325.698 124.228C325.862 124.122 326.005 124.129 326.127 124.243L328.529 126.155L328.043 123.141C328 122.977 328.071 122.856 328.25 122.764C328.429 122.672 328.75 122.629 329.215 122.629C329.68 122.629 330.002 122.672 330.18 122.764C330.359 122.856 330.424 122.984 330.388 123.141L329.902 126.155L332.304 124.243C332.433 124.129 332.576 124.129 332.733 124.243C332.89 124.349 333.09 124.605 333.333 125.003C333.569 125.394 333.691 125.686 333.698 125.878C333.712 126.07 333.634 126.198 333.476 126.247L330.609 127.356L333.476 128.458V128.444Z" fill="white"/>
</g>
<path d="M383.815 376.68C416.615 382.242 425.159 392.564 370.684 400.477C306.575 409.766 233.579 398.642 189.598 404.491C145.674 410.34 92.4604 413.608 62.8719 411.659C4.61249 407.759 -7.25732 368.079 39.1323 360.165C81.2213 352.998 210.7 378.458 241.664 377.024C273.432 375.533 343.79 369.914 383.815 376.68Z" fill="#141414" fill-opacity="0.2"/>
<path fill-rule="evenodd" clip-rule="evenodd" d="M201.477 267.131C201.816 267.036 202.169 267.234 202.264 267.573L238.178 395.734C238.273 396.073 238.075 396.425 237.736 396.52C237.397 396.615 237.045 396.417 236.95 396.078L201.035 267.918C200.94 267.578 201.138 267.226 201.477 267.131Z" fill="#2E2446"/>
<path fill-rule="evenodd" clip-rule="evenodd" d="M153.046 267.131C153.385 267.036 153.737 267.234 153.832 267.573L189.746 395.734C189.841 396.073 189.643 396.425 189.304 396.52C188.964 396.615 188.612 396.417 188.517 396.078L152.603 267.918C152.508 267.578 152.706 267.226 153.046 267.131Z" fill="#2E2446"/>
<path fill-rule="evenodd" clip-rule="evenodd" d="M175.296 364.573C175.296 364.221 175.582 363.936 175.934 363.936H232.84C233.192 363.936 233.478 364.221 233.478 364.573C233.478 364.926 233.192 365.211 232.84 365.211H175.934C175.582 365.211 175.296 364.926 175.296 364.573Z" fill="#2E2446"/>
<path d="M213.151 262.918H53.1069V272.58H213.151V262.918Z" fill="#2E2446"/>
<path d="M208.007 337.709L184.272 324.168L177.117 335.978L200.833 349.556C204.296 342.934 208.007 337.709 208.007 337.709Z" fill="white"/>
<path d="M207.946 388.524C206.887 384.176 204.359 378.801 198.434 374.984C191.694 370.64 196.025 358.752 200.833 349.557L170.303 331.826L154.528 373.272C157.354 377.658 169.33 388.525 169.33 388.525H207.946V388.524Z" fill="#635BFE"/>
<path d="M169.33 388.522C169.33 388.522 157.353 377.655 154.527 373.27L153.065 375.682L164.427 395.904H210.534L208.667 388.522H169.33V388.522Z" fill="white"/>
<path fill-rule="evenodd" clip-rule="evenodd" d="M189.405 343.258C189.713 343.428 189.825 343.816 189.654 344.125C187.142 348.667 183.428 356.744 181.451 363.665C180.458 367.139 179.926 370.245 180.155 372.449C180.269 373.547 180.565 374.348 181.015 374.866C181.444 375.361 182.072 375.667 183.026 375.667C183.379 375.667 183.664 375.953 183.664 376.305C183.664 376.657 183.379 376.943 183.026 376.943C181.763 376.943 180.759 376.52 180.051 375.702C179.362 374.908 179.014 373.813 178.886 372.58C178.631 370.121 179.223 366.819 180.224 363.314C182.235 356.276 185.992 348.109 188.538 343.507C188.709 343.199 189.097 343.087 189.405 343.258Z" fill="white"/>
<path d="M199.594 375.785C192.472 374.986 184.532 380.266 182.842 388.525H207.948C208.008 384.303 206.268 379.318 199.594 375.785Z" fill="white"/>
<path fill-rule="evenodd" clip-rule="evenodd" d="M153.697 373.663C153.94 373.408 154.344 373.398 154.599 373.64L169.584 387.886H208.679C209.032 387.886 209.317 388.171 209.317 388.524C209.317 388.876 209.032 389.162 208.679 389.162H169.329C169.166 389.162 169.008 389.099 168.89 388.986L153.72 374.565C153.465 374.322 153.455 373.919 153.697 373.663Z" fill="#2E2446"/>
<path fill-rule="evenodd" clip-rule="evenodd" d="M190.543 349.618C190.627 349.276 190.972 349.066 191.314 349.149C193.919 349.784 196.505 350.644 198.957 351.749C199.278 351.894 199.421 352.272 199.277 352.593C199.132 352.914 198.754 353.057 198.433 352.913C196.06 351.843 193.549 351.007 191.012 350.389C190.67 350.305 190.46 349.96 190.543 349.618Z" fill="white"/>
<path fill-rule="evenodd" clip-rule="evenodd" d="M188.465 354.004C188.516 353.656 188.841 353.415 189.189 353.466C191.912 353.867 194.587 354.575 197.155 355.551C197.484 355.677 197.65 356.045 197.525 356.374C197.4 356.704 197.031 356.869 196.702 356.744C194.216 355.8 191.631 355.115 189.003 354.728C188.655 354.677 188.414 354.353 188.465 354.004Z" fill="white"/>
<path fill-rule="evenodd" clip-rule="evenodd" d="M186.595 358.534C186.598 358.181 186.887 357.899 187.239 357.902C190.206 357.934 193.225 358.415 196.016 359.538C196.343 359.67 196.501 360.041 196.37 360.368C196.238 360.695 195.866 360.853 195.54 360.722C192.924 359.669 190.069 359.208 187.226 359.178C186.874 359.174 186.591 358.886 186.595 358.534Z" fill="white"/>
<path fill-rule="evenodd" clip-rule="evenodd" d="M186.066 361.617C189.107 361.454 192.324 362.154 195.02 363.546C195.333 363.707 195.456 364.092 195.295 364.405C195.133 364.718 194.748 364.841 194.435 364.679C191.939 363.391 188.947 362.741 186.134 362.891C185.782 362.91 185.482 362.64 185.463 362.288C185.444 361.936 185.714 361.636 186.066 361.617Z" fill="white"/>
<path fill-rule="evenodd" clip-rule="evenodd" d="M184.778 366.884C187.966 366.263 191.615 366.513 194.596 367.987C194.912 368.143 195.042 368.526 194.885 368.842C194.729 369.157 194.347 369.287 194.031 369.131C191.351 367.806 187.997 367.557 185.022 368.136C184.676 368.204 184.341 367.978 184.274 367.632C184.206 367.286 184.432 366.951 184.778 366.884Z" fill="white"/>
<path fill-rule="evenodd" clip-rule="evenodd" d="M188.531 371.278C190.897 370.746 193.987 370.507 196.414 371.962C196.717 372.143 196.815 372.535 196.633 372.837C196.452 373.139 196.061 373.237 195.758 373.056C193.771 371.865 191.101 372.008 188.811 372.523C187.684 372.776 186.688 373.109 185.973 373.381C185.616 373.516 185.331 373.635 185.136 373.72C185.038 373.762 184.964 373.796 184.914 373.818C184.89 373.83 184.871 373.838 184.859 373.844C184.854 373.847 184.849 373.849 184.847 373.85L184.844 373.851L184.844 373.851" fill="white"/>
<path d="M143.813 366.1C140.82 362.956 139.893 357.415 139.95 351.543L109.568 351.229L103.016 388.618H168.85C167.493 374.299 151.256 373.918 143.813 366.1Z" fill="#635BFE"/>
<path d="M158.417 374.814C150.572 376.242 144.66 385.717 143.016 388.62H168.852C169.48 381.717 164.611 376.938 158.417 374.814Z" fill="white"/>
<path d="M143.541 328.658L112.739 333.142L109.569 351.231L139.951 351.546C140.057 340.669 143.541 328.658 143.541 328.658Z" fill="white"/>
<path d="M103.017 388.621L101.739 395.912H168.411C168.931 393.133 169.051 390.728 168.851 388.621H103.017Z" fill="white"/>
<path fill-rule="evenodd" clip-rule="evenodd" d="M129.21 350.797C129.562 350.8 129.845 351.089 129.841 351.441C129.794 356.148 130.946 362.626 133.362 368.075C135.793 373.558 139.4 377.783 144.146 378.396C144.495 378.441 144.742 378.761 144.697 379.111C144.652 379.46 144.332 379.707 143.983 379.662C138.544 378.959 134.673 374.18 132.196 368.592C129.703 362.97 128.517 356.31 128.566 351.428C128.569 351.076 128.858 350.793 129.21 350.797Z" fill="white"/>
<path fill-rule="evenodd" clip-rule="evenodd" d="M102.378 388.62C102.378 388.268 102.664 387.982 103.016 387.982H169.774C170.126 387.982 170.412 388.268 170.412 388.62C170.412 388.973 170.126 389.258 169.774 389.258H103.016C102.664 389.258 102.378 388.973 102.378 388.62Z" fill="#2E2446"/>
<path fill-rule="evenodd" clip-rule="evenodd" d="M141.012 355.856C141.018 356.208 140.737 356.498 140.385 356.504C137.715 356.549 134.931 357.04 132.213 357.786C131.873 357.879 131.522 357.679 131.429 357.339C131.336 356.999 131.536 356.648 131.875 356.555C134.664 355.79 137.558 355.276 140.363 355.229C140.716 355.223 141.006 355.503 141.012 355.856Z" fill="white"/>
<path fill-rule="evenodd" clip-rule="evenodd" d="M141.653 359.563C141.669 359.915 141.398 360.214 141.046 360.23C138.545 360.348 135.98 360.801 133.453 361.494C133.113 361.587 132.762 361.387 132.669 361.047C132.576 360.707 132.776 360.356 133.116 360.263C135.716 359.55 138.374 359.079 140.986 358.956C141.337 358.939 141.636 359.211 141.653 359.563Z" fill="white"/>
<path fill-rule="evenodd" clip-rule="evenodd" d="M143.163 363.262C143.175 363.614 142.9 363.91 142.548 363.922C139.97 364.013 137.311 364.48 134.698 365.196C134.359 365.289 134.008 365.089 133.915 364.749C133.822 364.409 134.022 364.059 134.361 363.965C137.046 363.23 139.805 362.742 142.503 362.647C142.855 362.635 143.151 362.91 143.163 363.262Z" fill="white"/>
<path fill-rule="evenodd" clip-rule="evenodd" d="M144.98 366.934C145.003 367.286 144.736 367.589 144.385 367.612L144.385 367.612L144.384 367.613L144.378 367.613C144.373 367.613 144.364 367.614 144.352 367.615C144.329 367.617 144.292 367.619 144.244 367.624C144.147 367.632 144.001 367.645 143.81 367.666C143.428 367.707 142.864 367.775 142.144 367.887C140.705 368.109 138.646 368.502 136.18 369.179C135.84 369.272 135.489 369.073 135.395 368.733C135.302 368.393 135.502 368.042 135.842 367.949C138.361 367.257 140.469 366.855 141.949 366.626C142.69 366.511 143.274 366.44 143.674 366.397C143.875 366.376 144.03 366.361 144.135 366.352C144.188 366.348 144.229 366.345 144.256 366.343C144.27 366.341 144.281 366.341 144.289 366.34L144.297 366.34L144.301 366.339C144.301 366.339 144.301 366.339 144.343 366.976L144.301 366.339C144.653 366.316 144.957 366.583 144.98 366.934Z" fill="white"/>
<path fill-rule="evenodd" clip-rule="evenodd" d="M146.09 370.811C144.238 370.976 141.896 371.45 139.834 372.663C139.53 372.842 139.139 372.74 138.96 372.436C138.782 372.133 138.883 371.742 139.187 371.563C141.474 370.218 144.025 369.714 145.977 369.54C146.958 369.453 147.799 369.448 148.396 369.465C148.695 369.473 148.934 369.487 149.1 369.5C149.183 369.506 149.247 369.511 149.292 369.515C149.314 369.517 149.332 369.519 149.344 369.52C149.35 369.521 149.355 369.522 149.359 369.522L149.363 369.522L149.365 369.523C149.365 369.523 149.366 369.523 149.295 370.157L149.366 369.523C149.716 369.561 149.968 369.877 149.929 370.227C149.891 370.577 149.576 370.829 149.225 370.791C149.225 370.791 149.225 370.791 149.225 370.791M149.225 370.791L149.224 370.791L149.215 370.79C149.206 370.789 149.193 370.787 149.174 370.786C149.137 370.782 149.081 370.777 149.007 370.772C148.858 370.761 148.638 370.748 148.36 370.74C147.802 370.724 147.012 370.729 146.09 370.811" fill="white"/>
<path fill-rule="evenodd" clip-rule="evenodd" d="M153.127 372.748C153.127 372.748 153.127 372.748 153.127 372.748L153.124 372.748L153.113 372.749C153.103 372.75 153.086 372.752 153.065 372.754C153.022 372.759 152.957 372.766 152.872 372.777C152.703 372.798 152.456 372.831 152.149 372.879C151.533 372.975 150.679 373.131 149.727 373.369C147.801 373.85 145.561 374.646 144.049 375.901C143.778 376.126 143.376 376.089 143.151 375.818C142.926 375.547 142.963 375.144 143.234 374.919C144.973 373.476 147.445 372.624 149.418 372.131C150.415 371.882 151.308 371.719 151.952 371.618C152.274 371.568 152.534 371.533 152.715 371.511C152.806 371.499 152.877 371.491 152.926 371.486C152.95 371.483 152.969 371.481 152.982 371.48C152.989 371.479 152.994 371.479 152.997 371.478L153.002 371.478L153.003 371.478C153.004 371.478 153.004 371.478 153.065 372.113L153.004 371.478C153.354 371.444 153.666 371.7 153.7 372.051C153.734 372.402 153.478 372.713 153.127 372.748Z" fill="white"/>
<path d="M153.43 187.922L149.598 199.965C149.598 199.965 270.839 185.84 270.762 225.941C270.704 255.786 202.911 354.798 202.911 354.798L158.587 341.907C158.587 341.907 194.333 267.294 204.187 254.748C170.794 270.121 87.1894 271.904 87.7363 238.827C88.2841 205.75 123.322 187.922 123.322 187.922H153.43Z" fill="#392F6B"/>
<path d="M75.6966 199.967C52.9636 245.003 64.1736 257.41 78.2551 262.922H130.987L104.71 353.248C104.71 353.248 149.052 357.628 150.694 355.985C152.337 354.343 212.673 247.047 188.527 221.318C164.38 195.588 104.71 211.463 104.71 211.463C104.71 211.463 110.185 199.968 107.994 199.968C105.804 199.968 75.6966 199.967 75.6966 199.967Z" fill="#392F6B"/>
<path fill-rule="evenodd" clip-rule="evenodd" d="M105.848 210.522C106.219 210.433 106.665 210.328 107.18 210.21C108.867 209.824 111.302 209.303 114.298 208.758C120.289 207.668 128.532 206.483 137.538 206.105C146.54 205.727 156.326 206.155 165.392 208.303C174.457 210.451 182.843 214.328 188.993 220.881C192.418 224.531 194.169 229.712 194.691 235.853C195.213 241.998 194.51 249.166 192.968 256.868C192.899 257.213 192.563 257.437 192.217 257.368C191.872 257.299 191.648 256.963 191.717 256.617C193.246 248.979 193.927 241.941 193.419 235.961C192.911 229.978 191.218 225.117 188.063 221.754C182.139 215.443 174.012 211.656 165.097 209.544C156.184 207.432 146.525 207.005 137.591 207.38C128.661 207.754 120.478 208.93 114.526 210.013C111.551 210.554 109.135 211.072 107.464 211.454C106.629 211.645 105.98 211.802 105.541 211.911C105.321 211.965 105.154 212.008 105.042 212.037C104.986 212.051 104.944 212.062 104.916 212.07C104.902 212.073 104.892 212.076 104.885 212.078L104.877 212.08L104.876 212.08C104.875 212.08 104.875 212.08 104.711 211.464C104.135 211.19 104.135 211.19 104.135 211.189L104.15 211.158C104.16 211.137 104.175 211.105 104.195 211.063C104.234 210.98 104.291 210.858 104.363 210.702C104.507 210.39 104.711 209.944 104.949 209.408C105.426 208.336 106.037 206.911 106.578 205.489C107.124 204.057 107.585 202.664 107.78 201.645C107.877 201.131 107.892 200.784 107.858 200.591C107.572 200.528 107.357 200.273 107.357 199.968C107.357 199.616 107.643 199.33 107.995 199.33C108.287 199.33 108.568 199.433 108.781 199.657C108.977 199.863 109.067 200.119 109.11 200.343C109.193 200.781 109.139 201.329 109.033 201.884C108.817 203.02 108.32 204.5 107.771 205.943C107.218 207.395 106.597 208.843 106.115 209.927C106.02 210.14 105.931 210.34 105.848 210.522ZM104.711 211.464L104.875 212.08C104.635 212.144 104.379 212.063 104.22 211.871C104.062 211.68 104.028 211.414 104.135 211.189L104.711 211.464Z" fill="#2E2446"/>
<path fill-rule="evenodd" clip-rule="evenodd" d="M104.074 353.207C104.095 352.856 104.397 352.588 104.749 352.609L150.733 355.346C151.085 355.367 151.353 355.669 151.332 356.02C151.311 356.372 151.009 356.64 150.657 356.619L104.673 353.882C104.322 353.861 104.053 353.559 104.074 353.207Z" fill="#2E2446"/>
<path fill-rule="evenodd" clip-rule="evenodd" d="M159.303 342.945C159.396 342.605 159.746 342.405 160.086 342.497L203.08 354.183C203.42 354.276 203.621 354.626 203.529 354.966C203.436 355.306 203.086 355.507 202.746 355.415L159.752 343.728C159.412 343.636 159.211 343.285 159.303 342.945Z" fill="#2E2446"/>
<path d="M213.406 148.936C212.681 169.925 211.758 196.605 211.758 196.605L204.109 184.822L245.616 214.092C248.903 216.41 249.689 220.954 247.37 224.242C245.449 226.967 241.991 227.968 238.995 226.913L191.1 210.013C187.153 208.621 184.505 205.197 183.915 201.33L183.452 198.23C183.452 198.23 179.206 169.98 176.043 148.936H213.406V148.936Z" fill="white"/>
<path d="M175.508 170.206H214.504C214.504 170.206 222.67 100.068 191.118 108.881C159.566 117.694 175.508 170.206 175.508 170.206Z" fill="#635BFE"/>
<path d="M62.7122 220.502L155.339 201.508C155.339 201.508 219.57 137.56 205.689 115.115C191.807 92.6708 146.111 88.8295 123.287 100.044C87.2067 117.771 62.7122 220.502 62.7122 220.502Z" fill="#635BFE"/>
<path fill-rule="evenodd" clip-rule="evenodd" d="M155.962 201.381C156.033 201.726 155.811 202.063 155.466 202.134L62.8395 221.129C62.4943 221.199 62.1572 220.977 62.0864 220.632C62.0156 220.287 62.238 219.95 62.5832 219.879L155.209 200.884C155.554 200.813 155.892 201.036 155.962 201.381Z" fill="#2E2446"/>
<path d="M150.152 99.5109C145.762 114.675 187.469 130.725 190.764 120.874C194.059 111.024 178.926 100.358 168.633 96.7949C158.896 93.424 151.342 95.3974 150.152 99.5109Z" fill="white"/>
<path d="M199.908 87.3956L180.97 113.753C174.858 121.517 153.24 104.539 159.351 96.326C165.461 88.1127 188.241 57.4922 188.241 57.4922C188.241 57.4922 214.169 64.1634 199.908 87.3956Z" fill="white"/>
<path d="M182.49 111.633C182.49 111.633 173.08 95.7164 180.829 71.6591C186.846 52.9793 198.21 89.7538 198.21 89.7538L182.49 111.633Z" fill="#CDCCD0"/>
<path d="M205.344 48.0795C167.028 38.6456 175.682 103.917 191.771 107.845C201.861 110.308 211.716 96.2384 215.605 81.6635C219.557 66.8462 222.219 52.2347 205.344 48.0795Z" fill="white"/>
<path fill-rule="evenodd" clip-rule="evenodd" d="M207.465 75.0323C207.816 75.0662 208.073 75.3779 208.039 75.7286C207.657 79.6797 207.52 82.7125 207.478 84.754C207.457 85.7748 207.459 86.5477 207.467 87.0636C207.471 87.3215 207.477 87.5152 207.481 87.6435C207.483 87.7077 207.485 87.7555 207.486 87.7868C207.487 87.8025 207.487 87.814 207.488 87.8214L207.488 87.8294L207.488 87.8311C207.488 87.8312 207.488 87.8312 207.488 87.8313C207.488 87.8312 207.488 87.8311 206.851 87.8631C206.214 87.895 206.214 87.8949 206.214 87.8948L206.214 87.8905L206.213 87.8798C206.213 87.8706 206.212 87.8572 206.211 87.8398C206.21 87.8126 206.209 87.7754 206.207 87.7283C206.207 87.7148 206.206 87.7006 206.206 87.6855C206.201 87.5498 206.196 87.3486 206.192 87.0832C206.183 86.5522 206.181 85.764 206.202 84.7277C206.245 82.6551 206.384 79.5901 206.769 75.606C206.803 75.2553 207.114 74.9984 207.465 75.0323ZM206.207 87.7283C206.2 87.7408 206.191 87.7544 206.182 87.7688C206.119 87.8688 206.011 88.0084 205.843 88.1449C205.522 88.4054 204.918 88.7068 203.818 88.6009C203.467 88.5672 203.155 88.8241 203.121 89.1748C203.088 89.5255 203.345 89.8372 203.695 89.8709C205.105 90.0066 206.048 89.6216 206.647 89.1353C206.939 88.8984 207.134 88.6495 207.258 88.4543C207.321 88.3566 207.366 88.2717 207.396 88.2072C207.412 88.1749 207.424 88.1475 207.433 88.1261C207.437 88.1154 207.441 88.1061 207.444 88.0984C207.445 88.0946 207.447 88.0912 207.448 88.0881L207.449 88.0838L207.45 88.0819L207.45 88.0811C207.451 88.0806 207.451 88.0802 206.851 87.8631L207.451 88.0802C207.48 88.0005 207.492 87.9159 207.488 87.8313" fill="#2E2446"/>
<path d="M193.47 89.8145C193.47 89.8145 197.185 93.808 204.129 96.1429C194.878 104.883 193.47 89.8145 193.47 89.8145Z" fill="white"/>
<path fill-rule="evenodd" clip-rule="evenodd" d="M201.013 56.626C201.364 56.5925 201.675 56.8496 201.709 57.2004C201.772 57.8673 202.288 58.5224 203.328 59.2526C204.194 59.8615 205.297 60.4377 206.511 61.0716C206.731 61.1867 206.955 61.3038 207.182 61.4233C208.633 62.1869 210.176 63.0389 211.47 64.0866C212.767 65.1371 213.857 66.4188 214.344 68.0588C214.445 68.3965 214.252 68.7517 213.915 68.852C213.577 68.9523 213.222 68.7599 213.121 68.4222C212.734 67.1174 211.85 66.0361 210.667 65.0782C209.481 64.1174 208.038 63.3155 206.588 62.5523C206.372 62.4383 206.154 62.3249 205.937 62.2117C204.728 61.5807 203.536 60.9583 202.594 60.2966C201.499 59.5271 200.559 58.5822 200.438 57.3217C200.405 56.971 200.662 56.6595 201.013 56.626Z" fill="#2E2446"/>
<path d="M217.516 73.6928C218.666 60.6116 203.223 63.8115 201.072 57.2585C195.052 66.3267 183.937 68.238 183.937 68.238C183.937 68.238 175.82 74.8947 170.691 81.0819C169.329 71.1879 170.472 58.5642 173.832 50.3798C178.758 38.3796 194.308 38.5379 195.523 44.7786C204.126 40.0221 218.558 44.0642 222.21 50.3798C227.226 59.0541 222.525 67.6392 217.516 73.6928Z" fill="#2E2446"/>
<path d="M183.952 79.8384C190.373 74.58 181.719 62.5671 177.272 67.4835C172.825 72.3991 177.945 84.7582 183.952 79.8384Z" fill="#CDCCD0"/>
<path fill-rule="evenodd" clip-rule="evenodd" d="M179.598 69.8707C179.918 69.7215 180.297 69.8593 180.446 70.1785L183.175 76.0152C183.324 76.3344 183.187 76.7141 182.867 76.8633C182.548 77.0125 182.169 76.8748 182.019 76.5556L179.291 70.7188C179.141 70.3996 179.279 70.0199 179.598 69.8707Z" fill="#2E2446"/>
<path fill-rule="evenodd" clip-rule="evenodd" d="M182.186 66.4261C183.898 67.4315 185.408 69.3557 186.225 71.5087C186.35 71.838 186.185 72.2065 185.855 72.3315C185.526 72.4566 185.158 72.291 185.032 71.9617C184.297 70.025 182.955 68.3571 181.54 67.5263C180.837 67.1138 180.15 66.9259 179.525 66.9723C178.916 67.0177 178.307 67.2904 177.744 67.9127L177.744 67.9127C176.055 69.7794 175.859 72.9738 176.747 75.759C177.185 77.1336 177.869 78.34 178.694 79.1677C179.516 79.9924 180.436 80.4074 181.39 80.3275C181.741 80.2981 182.049 80.5589 182.079 80.91C182.108 81.2611 181.847 81.5696 181.496 81.599C180.064 81.719 178.793 81.0754 177.79 80.0682C176.79 79.0641 176.015 77.6654 175.531 76.1466C174.574 73.1453 174.678 69.4006 176.798 67.0568C177.562 66.2123 178.467 65.7716 179.431 65.6999C180.38 65.6293 181.325 65.9205 182.186 66.4261Z" fill="#2E2446"/>
<path fill-rule="evenodd" clip-rule="evenodd" d="M192.051 38.911C192.167 38.5782 192.531 38.4023 192.864 38.518C194.624 39.1302 195.424 40.8101 195.794 42.1498C195.899 42.5314 195.974 42.9011 196.028 43.2356C196.448 42.8263 196.999 42.3487 197.683 41.8741C199.464 40.6397 202.148 39.4269 205.756 39.4932C206.109 39.4997 206.389 39.7905 206.382 40.1428C206.376 40.495 206.085 40.7753 205.733 40.7689C202.441 40.7084 200.014 41.8105 198.41 42.9227C197.607 43.4799 197.009 44.04 196.615 44.4575C196.418 44.666 196.273 44.8384 196.178 44.9561C196.131 45.0149 196.097 45.0601 196.075 45.0892C196.064 45.1037 196.056 45.1142 196.052 45.1204C196.05 45.1235 196.048 45.1256 196.047 45.1265L196.048 45.1263C196.048 45.1261 196.048 45.1259 195.525 44.7608L196.048 45.1259C196.048 45.1262 196.047 45.1265 196.047 45.1269C195.887 45.3554 195.597 45.4534 195.331 45.3687C195.065 45.2839 194.885 45.0359 194.887 44.7567C194.887 44.7567 194.887 44.7566 194.887 44.7565C194.887 44.7565 194.887 44.7564 194.887 44.7564L194.887 44.7558L194.887 44.7492C194.887 44.7426 194.887 44.7318 194.887 44.7171C194.886 44.6876 194.885 44.6423 194.883 44.5833C194.879 44.4652 194.869 44.2925 194.85 44.0811C194.81 43.6564 194.729 43.085 194.564 42.4894C194.225 41.2617 193.59 40.1214 192.444 39.7231C192.112 39.6074 191.936 39.2438 192.051 38.911ZM196.047 45.127L196.047 45.1267L196.047 45.1265C196.047 45.1267 196.047 45.1268 196.047 45.1269C196.047 45.1269 196.047 45.1269 196.047 45.127Z" fill="#2E2446"/>
<path d="M274.436 193.039C274.232 192.721 273.881 192.496 273.431 192.496L250.515 192.498C249.356 192.498 248.235 192.909 247.349 193.657L204.137 230.2C203.285 230.921 205.559 234.547 206.674 234.547L229.593 234.549C230.753 234.549 231.874 234.138 232.759 233.389L275.968 196.843C276.49 196.402 276.501 195.71 276.176 195.238C275.97 194.94 274.737 193.508 274.436 193.039Z" fill="#6A6B87"/>
<path d="M149.125 148.934C147.443 172.014 145.358 200.628 145.358 200.628L135.719 187.581L214.514 221.516C218.186 223.097 219.881 227.356 218.299 231.028C216.876 234.333 213.282 236.034 209.901 235.189L126.654 214.446C121.555 213.175 117.986 208.92 117.345 204.006L117.015 201.399C117.015 201.399 113.269 172.062 110.316 148.935H149.125V148.934Z" fill="white"/>
<path d="M110.831 162.849H149.826C149.826 162.849 157.993 92.7109 126.441 101.524C94.8892 110.337 110.831 162.849 110.831 162.849Z" fill="#635BFE"/>
<path d="M223.385 211.956C223.385 211.956 248.458 220.859 252.133 222.479C255.809 224.1 254.096 228.669 248.687 227.436C251.476 229.982 249.975 234.686 240.185 232.099C242.357 235.146 239.548 236.101 233.243 234.776C234.424 236.478 220.548 235.166 216.342 235.412C212.136 235.658 200.944 234.621 199.318 231.742C197.693 228.864 196.364 219.801 201.098 214.412C205.834 209.023 214.4 208.746 223.385 211.956Z" fill="white"/>
<path d="M236.916 200.113C237.647 206.112 232.303 209.269 228.176 210.38C224.051 211.491 221.033 217.874 221.033 217.874C221.033 217.874 208.65 216.159 206.457 212.846C204.263 209.533 212.829 205.195 223.084 203.839C233.338 202.482 236.916 200.113 236.916 200.113Z" fill="white"/>
<path fill-rule="evenodd" clip-rule="evenodd" d="M228.838 202.195C229.183 202.123 229.521 202.345 229.593 202.69C229.664 203.035 229.443 203.373 229.098 203.444L228.968 202.82C229.098 203.444 229.098 203.444 229.098 203.444L229.096 203.445L229.092 203.446L229.077 203.449C229.063 203.451 229.043 203.455 229.015 203.461C228.957 203.472 228.865 203.49 228.725 203.517C228.445 203.57 227.971 203.659 227.193 203.801C225.638 204.085 222.866 204.582 217.997 205.437C213.132 206.291 210.311 207.048 207.992 208.46C205.673 209.872 203.804 211.972 200.926 215.66C200.709 215.938 200.308 215.987 200.031 215.77C199.753 215.553 199.703 215.153 199.92 214.875C202.793 211.193 204.788 208.918 207.329 207.37C209.87 205.822 212.905 205.035 217.776 204.18C222.644 203.326 225.412 202.829 226.964 202.546C227.739 202.404 228.21 202.316 228.487 202.263C228.625 202.237 228.714 202.22 228.768 202.209C228.795 202.204 228.813 202.2 228.825 202.198L228.836 202.196L228.838 202.195Z" fill="#2E2446"/>
<path fill-rule="evenodd" clip-rule="evenodd" d="M235.476 224.302C235.557 223.959 235.901 223.747 236.243 223.828L248.834 226.812C249.177 226.893 249.389 227.237 249.308 227.58C249.226 227.922 248.883 228.135 248.54 228.053L235.949 225.069C235.606 224.988 235.394 224.644 235.476 224.302Z" fill="#2E2446"/>
<path fill-rule="evenodd" clip-rule="evenodd" d="M231.467 230.794C231.519 230.445 231.844 230.205 232.192 230.257L240.281 231.464C240.629 231.516 240.869 231.841 240.817 232.189C240.765 232.538 240.441 232.778 240.092 232.726L232.004 231.519C231.656 231.467 231.415 231.142 231.467 230.794Z" fill="#2E2446"/>
<path fill-rule="evenodd" clip-rule="evenodd" d="M228.961 233.585C229.013 233.236 229.338 232.996 229.686 233.048L233.106 233.558C233.455 233.61 233.695 233.935 233.643 234.284C233.591 234.632 233.266 234.872 232.918 234.82L229.498 234.31C229.149 234.258 228.909 233.933 228.961 233.585Z" fill="#2E2446"/>
<path fill-rule="evenodd" clip-rule="evenodd" d="M133.55 101.455C133.589 101.104 133.904 100.852 134.254 100.891C140.5 101.582 144.591 105.977 147.217 111.958C149.84 117.932 151.06 125.603 151.535 133.131C152.011 140.671 151.741 148.121 151.354 153.681C151.16 156.463 150.936 158.774 150.761 160.391C150.674 161.2 150.598 161.835 150.544 162.268C150.517 162.485 150.496 162.652 150.481 162.764C150.474 162.82 150.468 162.863 150.464 162.892C150.462 162.907 150.461 162.918 150.46 162.925L150.459 162.934L150.458 162.936C150.458 162.936 150.458 162.937 149.826 162.85L150.458 162.937C150.415 163.253 150.145 163.488 149.826 163.488H110.831C110.526 163.488 110.263 163.272 110.205 162.972L110.831 162.85C110.205 162.972 110.205 162.972 110.205 162.972L110.193 162.91C110.185 162.869 110.173 162.809 110.158 162.73C110.127 162.571 110.082 162.339 110.025 162.041C109.911 161.445 109.748 160.587 109.553 159.542C109.163 157.451 108.645 154.605 108.131 151.59C107.617 148.575 107.108 145.386 106.736 142.608C106.366 139.846 106.126 137.444 106.166 136.029C106.176 135.677 106.469 135.399 106.821 135.409C107.174 135.419 107.451 135.713 107.441 136.065C107.404 137.362 107.629 139.667 108 142.439C108.369 145.195 108.876 148.368 109.389 151.376C109.901 154.383 110.418 157.221 110.807 159.308C111.002 160.351 111.164 161.206 111.278 161.801C111.308 161.956 111.334 162.094 111.357 162.212H149.266C149.27 162.18 149.274 162.146 149.278 162.112C149.331 161.684 149.406 161.055 149.493 160.254C149.666 158.65 149.888 156.355 150.081 153.593C150.466 148.065 150.732 140.675 150.262 133.212C149.79 125.737 148.582 118.241 146.049 112.471C143.518 106.707 139.725 102.78 134.114 102.159C133.764 102.12 133.511 101.805 133.55 101.455Z" fill="#2E2446"/>
<path fill-rule="evenodd" clip-rule="evenodd" d="M205.477 114.515C205.809 114.398 206.173 114.573 206.29 114.906C208.732 121.884 207.49 129.991 204.355 138.147C201.215 146.314 196.143 154.619 190.792 162.049C185.439 169.483 179.791 176.065 175.483 180.787C173.329 183.148 171.508 185.046 170.225 186.354C169.584 187.008 169.077 187.514 168.73 187.858C168.556 188.03 168.423 188.161 168.332 188.249C168.287 188.293 168.253 188.327 168.23 188.349C168.218 188.361 168.209 188.369 168.203 188.375L168.195 188.383C168.194 188.384 168.194 188.384 167.751 187.925C167.308 187.466 167.308 187.466 167.309 187.465L167.316 187.458C167.322 187.453 167.33 187.445 167.341 187.434C167.363 187.412 167.397 187.38 167.441 187.336C167.529 187.25 167.661 187.121 167.832 186.951C168.175 186.612 168.678 186.11 169.314 185.46C170.588 184.162 172.398 182.275 174.54 179.927C178.827 175.228 184.441 168.686 189.757 161.303C195.076 153.917 200.079 145.712 203.164 137.689C206.253 129.654 207.383 121.89 205.085 115.327C204.969 114.995 205.144 114.631 205.477 114.515ZM167.292 188.368C167.047 188.114 167.055 187.71 167.308 187.466L167.751 187.925L168.194 188.384C167.94 188.629 167.536 188.621 167.292 188.368Z" fill="#2E2446"/>
<path fill-rule="evenodd" clip-rule="evenodd" d="M194.204 115.729C194.528 115.591 194.903 115.741 195.042 116.065C195.581 117.322 195.644 119.456 194.922 121.569C194.19 123.714 192.628 125.904 189.828 127.217C187.037 128.526 183.092 128.927 177.652 127.657C172.212 126.388 165.235 123.438 156.331 117.987C156.03 117.803 155.936 117.41 156.12 117.11C156.304 116.809 156.696 116.715 156.997 116.899C165.833 122.308 172.681 125.187 177.942 126.415C183.202 127.643 186.834 127.212 189.286 126.062C191.73 124.916 193.078 123.021 193.715 121.157C194.362 119.261 194.253 117.463 193.869 116.567C193.73 116.243 193.88 115.868 194.204 115.729Z" fill="#2E2446"/>
<path fill-rule="evenodd" clip-rule="evenodd" d="M183.102 170.21C183.102 169.858 183.388 169.572 183.74 169.572H214.503C214.503 169.572 214.503 169.572 214.503 170.21C214.503 170.848 214.503 170.848 214.503 170.848H183.74C183.388 170.848 183.102 170.563 183.102 170.21ZM215.141 170.21C215.141 170.563 214.856 170.848 214.503 170.848V170.21V169.572C214.856 169.572 215.141 169.858 215.141 170.21Z" fill="#2E2446"/>
<path fill-rule="evenodd" clip-rule="evenodd" d="M216.089 163.505C216.115 163.857 215.851 164.162 215.5 164.188L187.391 166.259C187.04 166.285 186.734 166.021 186.708 165.67C186.682 165.319 186.946 165.013 187.298 164.987L215.406 162.916C215.758 162.89 216.064 163.154 216.089 163.505Z" fill="#2E2446"/>
<path fill-rule="evenodd" clip-rule="evenodd" d="M151.786 154.649C151.816 155 151.556 155.31 151.205 155.34L151.15 154.704L151.095 154.069C151.446 154.038 151.755 154.298 151.786 154.649ZM110.11 158.965C110.123 158.963 110.142 158.961 110.167 158.958C110.24 158.95 110.352 158.938 110.502 158.923C110.801 158.894 111.241 158.852 111.803 158.8C112.927 158.696 114.534 158.551 116.463 158.379C120.322 158.035 125.468 157.583 130.615 157.133C135.762 156.682 140.91 156.234 144.77 155.899C146.701 155.731 148.31 155.591 149.436 155.493C149.999 155.445 150.441 155.406 150.743 155.38L151.205 155.34C151.205 155.34 151.205 155.34 151.15 154.704C151.095 154.069 151.095 154.069 151.095 154.069L150.632 154.109C150.331 154.135 149.888 154.173 149.325 154.222C148.199 154.32 146.59 154.46 144.66 154.627C140.799 154.963 135.651 155.411 130.504 155.861C125.357 156.312 120.21 156.764 116.35 157.108C114.42 157.28 112.811 157.425 111.685 157.53C111.123 157.582 110.679 157.624 110.376 157.654C110.225 157.669 110.106 157.681 110.024 157.69C109.984 157.695 109.948 157.699 109.92 157.703C109.907 157.705 109.886 157.708 109.864 157.712L109.863 157.712C109.855 157.714 109.826 157.72 109.792 157.73C109.77 157.737 109.709 157.762 109.671 157.782C109.583 157.84 109.365 158.167 109.352 158.458C109.417 158.805 109.75 159.033 110.096 158.968C110.101 158.967 110.106 158.966 110.11 158.965Z" fill="#2E2446"/>
<path fill-rule="evenodd" clip-rule="evenodd" d="M107.544 140.872C107.85 141.047 107.956 141.437 107.78 141.743C101.068 153.446 95.0231 171.198 90.6499 186.066C88.4659 193.492 86.7031 200.183 85.4864 205.018C84.8781 207.435 84.4064 209.388 84.0869 210.736C83.9271 211.41 83.8054 211.933 83.7237 212.287C83.6829 212.464 83.652 212.599 83.6314 212.689C83.6211 212.735 83.6133 212.769 83.6082 212.792L83.6006 212.825C83.6006 212.825 83.6005 212.825 82.9782 212.685C82.3558 212.545 82.3559 212.545 82.356 212.544L82.3638 212.51C82.3691 212.486 82.377 212.452 82.3874 212.406C82.4083 212.314 82.4394 212.178 82.4805 212C82.5628 211.644 82.685 211.119 82.8454 210.442C83.1662 209.089 83.6393 207.13 84.2491 204.707C85.4688 199.86 87.2359 193.152 89.4259 185.706C93.8006 170.832 99.88 152.953 106.673 141.108C106.849 140.802 107.239 140.696 107.544 140.872ZM82.838 213.308C82.4943 213.23 82.2784 212.889 82.3558 212.545L82.9782 212.685L83.6005 212.825C83.5231 213.169 83.1818 213.385 82.838 213.308Z" fill="#2E2446"/>
<path fill-rule="evenodd" clip-rule="evenodd" d="M146.266 247.919C146.439 248.129 146.461 248.425 146.319 248.658C134.06 268.757 125.887 293.226 120.779 312.696C118.225 322.426 116.44 330.898 115.293 336.935C114.72 339.954 114.306 342.364 114.036 344.018C113.901 344.846 113.801 345.484 113.736 345.915C113.703 346.13 113.679 346.294 113.663 346.403C113.659 346.431 113.656 346.455 113.653 346.475L113.645 346.527L113.64 346.565L113.639 346.567C113.639 346.567 113.639 346.567 113.008 346.478C112.376 346.389 112.376 346.388 112.376 346.388L112.378 346.377L112.382 346.345C112.386 346.317 112.392 346.274 112.401 346.219C112.41 346.157 112.421 346.078 112.435 345.984C112.447 345.907 112.46 345.82 112.475 345.723C112.541 345.288 112.641 344.645 112.777 343.813C113.048 342.149 113.464 339.728 114.04 336.697C115.191 330.637 116.982 322.136 119.544 312.372C124.539 293.338 132.472 269.463 144.319 249.506C139 251.259 125.999 254.892 112.027 256.573C104.125 257.525 95.8834 257.855 88.5304 256.856C81.1873 255.859 74.6504 253.524 70.2506 249.071C70.0029 248.82 70.0053 248.416 70.256 248.169C70.5066 247.921 70.9105 247.923 71.1581 248.174C75.2749 252.34 81.4879 254.612 88.7022 255.592C95.9066 256.571 104.03 256.251 111.874 255.307C127.567 253.418 142.026 249.047 145.551 247.728C145.805 247.633 146.093 247.709 146.266 247.919ZM112.919 347.11C112.57 347.06 112.327 346.738 112.376 346.389L113.008 346.478L113.639 346.567C113.59 346.916 113.267 347.159 112.919 347.11Z" fill="#2E2446"/>
<path fill-rule="evenodd" clip-rule="evenodd" d="M160.48 238.524C160.647 238.835 160.53 239.222 160.219 239.388C149.985 244.87 143.209 250.847 138.997 255.442C136.891 257.739 135.426 259.692 134.49 261.065C134.021 261.751 133.686 262.293 133.468 262.66C133.36 262.844 133.28 262.984 133.229 263.077C133.204 263.123 133.185 263.158 133.173 263.18C133.167 263.191 133.163 263.199 133.16 263.204L133.158 263.209L133.157 263.21C132.996 263.523 132.611 263.646 132.298 263.485C131.985 263.324 131.862 262.939 132.023 262.626L132.59 262.918C132.023 262.626 132.023 262.625 132.023 262.625L132.025 262.621L132.03 262.612C132.034 262.605 132.04 262.594 132.047 262.58C132.062 262.552 132.084 262.512 132.112 262.46C132.17 262.356 132.255 262.205 132.37 262.01C132.601 261.621 132.951 261.056 133.435 260.346C134.404 258.926 135.907 256.925 138.057 254.58C142.358 249.887 149.246 243.818 159.617 238.263C159.927 238.097 160.314 238.214 160.48 238.524Z" fill="#2E2446"/>
<path fill-rule="evenodd" clip-rule="evenodd" d="M148.275 345.441C148.304 345.792 148.043 346.1 147.692 346.129L106.011 349.59C105.66 349.619 105.352 349.358 105.323 349.007C105.293 348.656 105.554 348.348 105.906 348.319L147.586 344.858C147.937 344.829 148.246 345.09 148.275 345.441Z" fill="#2E2446"/>
<path fill-rule="evenodd" clip-rule="evenodd" d="M219.444 247.129C219.618 247.436 219.511 247.825 219.204 247.999C214.903 250.445 211.212 252.279 208.595 253.502C207.922 253.816 207.321 254.09 206.798 254.323C208.253 254.444 210.223 254.608 212.425 254.795C212.776 254.825 213.036 255.134 213.007 255.485C212.977 255.836 212.668 256.096 212.317 256.067C210.018 255.871 207.973 255.701 206.502 255.579C205.766 255.518 205.175 255.47 204.767 255.436C204.563 255.419 204.405 255.407 204.298 255.398L204.135 255.385L204.135 255.385L204.135 255.385C204.135 255.385 204.135 255.385 204.187 254.749L204.135 255.385C203.839 255.361 203.599 255.136 203.556 254.843C203.512 254.55 203.676 254.265 203.951 254.156L203.955 254.154L203.967 254.149C203.979 254.145 203.996 254.138 204.019 254.129C204.064 254.11 204.133 254.082 204.224 254.045C204.406 253.97 204.676 253.857 205.027 253.706C205.73 253.405 206.759 252.951 208.054 252.346C210.646 251.135 214.306 249.317 218.574 246.89C218.88 246.716 219.269 246.823 219.444 247.129Z" fill="#2E2446"/>
<path fill-rule="evenodd" clip-rule="evenodd" d="M211.977 264.179C212.233 264.421 212.244 264.825 212.002 265.08C198.852 278.969 187.148 297.437 178.724 312.457C174.514 319.962 171.128 326.597 168.795 331.356C167.629 333.735 166.725 335.644 166.114 336.958C165.808 337.615 165.576 338.123 165.42 338.467C165.342 338.638 165.283 338.769 165.244 338.857C165.224 338.9 165.209 338.933 165.199 338.955L165.185 338.987C165.185 338.987 165.185 338.988 164.602 338.728C164.019 338.469 164.019 338.469 164.019 338.469L164.034 338.435C164.045 338.412 164.06 338.378 164.08 338.334C164.12 338.245 164.179 338.112 164.258 337.939C164.416 337.592 164.65 337.081 164.957 336.42C165.572 335.099 166.479 333.181 167.649 330.794C169.991 326.019 173.388 319.362 177.611 311.832C186.053 296.782 197.818 278.206 211.075 264.203C211.317 263.947 211.721 263.936 211.977 264.179ZM164.343 339.311C164.021 339.168 163.876 338.791 164.019 338.469L164.602 338.728L165.185 338.988C165.042 339.309 164.665 339.455 164.343 339.311Z" fill="#2E2446"/>
<path fill-rule="evenodd" clip-rule="evenodd" d="M160.979 339.982C160.985 339.629 161.276 339.349 161.628 339.356L194.327 339.961C194.679 339.968 194.959 340.259 194.953 340.611C194.946 340.963 194.655 341.243 194.303 341.237L161.605 340.631C161.252 340.625 160.972 340.334 160.979 339.982Z" fill="#2E2446"/>
<path d="M251.689 198.419C252.754 198.129 253.536 197.598 253.437 197.233C253.337 196.867 252.394 196.805 251.329 197.094C250.265 197.383 249.483 197.914 249.582 198.28C249.681 198.645 250.625 198.708 251.689 198.419Z" fill="white"/>
<path d="M248.745 200.774C249.81 200.485 250.592 199.954 250.493 199.588C250.393 199.222 249.45 199.16 248.385 199.449C247.321 199.738 246.539 200.269 246.638 200.635C246.737 201.001 247.681 201.063 248.745 200.774Z" fill="white"/>
<path d="M245.8 203.139C246.865 202.85 247.647 202.319 247.548 201.953C247.448 201.588 246.505 201.525 245.44 201.814C244.376 202.104 243.594 202.634 243.693 203C243.792 203.366 244.736 203.428 245.8 203.139Z" fill="white"/>
<path fill-rule="evenodd" clip-rule="evenodd" d="M139.276 217.724C139.36 217.382 139.706 217.173 140.048 217.257L200.574 232.167C200.623 232.179 200.67 232.197 200.715 232.22M200.198 233.388L139.743 218.496C139.401 218.412 139.192 218.066 139.276 217.724M200.198 233.388C200.213 233.396 200.232 233.405 200.253 233.416C200.332 233.455 200.448 233.511 200.599 233.582C200.901 233.722 201.342 233.919 201.905 234.148C203.031 234.604 204.647 235.187 206.619 235.697C210.557 236.717 215.941 237.454 221.672 236.291C222.017 236.221 222.24 235.884 222.17 235.539C222.1 235.193 221.763 234.97 221.418 235.04C215.937 236.153 210.759 235.451 206.938 234.462C205.03 233.968 203.468 233.404 202.385 232.965C201.843 232.746 201.422 232.558 201.138 232.425C200.996 232.359 200.889 232.307 200.818 232.272C200.782 232.254 200.755 232.241 200.738 232.232C200.73 232.228 200.724 232.225 200.72 232.223L200.716 232.221L200.715 232.22" fill="#2E2446"/>
<path fill-rule="evenodd" clip-rule="evenodd" d="M146.296 191.055C146.457 191.285 146.448 191.593 146.274 191.814L142.94 196.054C142.722 196.331 142.321 196.379 142.044 196.161C141.767 195.943 141.719 195.542 141.937 195.265L143.979 192.668L137.624 194.717C137.289 194.825 136.929 194.641 136.821 194.305C136.713 193.97 136.897 193.611 137.233 193.503L145.577 190.812C145.844 190.726 146.136 190.824 146.296 191.055Z" fill="#2E2446"/>
<path fill-rule="evenodd" clip-rule="evenodd" d="M69.4395 267.137C69.7788 267.232 69.9767 267.584 69.8817 267.924L33.968 396.084C33.8729 396.423 33.5208 396.621 33.1815 396.526C32.8423 396.431 32.6443 396.079 32.7394 395.74L68.6531 267.579C68.7482 267.24 69.1003 267.042 69.4395 267.137Z" fill="#2E2446"/>
<path fill-rule="evenodd" clip-rule="evenodd" d="M117.872 267.137C118.211 267.232 118.409 267.584 118.314 267.924L82.3996 396.084C82.3045 396.423 81.9524 396.621 81.6132 396.526C81.2739 396.431 81.076 396.079 81.171 395.74L117.086 267.579C117.181 267.24 117.533 267.042 117.872 267.137Z" fill="#2E2446"/>
<path fill-rule="evenodd" clip-rule="evenodd" d="M37.4417 364.579C37.4417 364.227 37.7273 363.941 38.0796 363.941H94.9859C95.3383 363.941 95.6239 364.227 95.6239 364.579C95.6239 364.932 95.3383 365.217 94.9859 365.217H38.0796C37.7273 365.217 37.4417 364.932 37.4417 364.579Z" fill="#2E2446"/>
<defs>
<clipPath id="clip0_12858_20174">
<rect width="127.014" height="76.0161" fill="white" transform="translate(272.311 101.998)"/>
</clipPath>
</defs>
</svg>
