<svg width="12" height="13" viewBox="0 0 12 13" fill="none" xmlns="http://www.w3.org/2000/svg">
<g clip-path="url(#clip0_12904_21318)">
<path fill-rule="evenodd" clip-rule="evenodd" d="M5.99996 12.166C8.85343 12.166 11.1666 9.85282 11.1666 6.99935C11.1666 5.57215 10.5871 4.27905 9.65208 3.3447C9.42882 3.12159 9.17021 2.88836 8.91077 2.66602L9.99996 2.66602C10.3681 2.66602 10.6666 2.36754 10.6666 1.99935C10.6666 1.63116 10.3681 1.33268 9.99996 1.33268L6.99996 1.33268C6.63177 1.33268 6.33329 1.63116 6.33329 1.99935L6.33329 4.99935C6.33329 5.36754 6.63177 5.66602 6.99996 5.66602C7.36815 5.66602 7.66663 5.36754 7.66663 4.99935L7.66663 3.36349C8.02932 3.66029 8.41261 3.99105 8.7096 4.28783C9.40458 4.98234 9.83329 5.94014 9.83329 6.99935C9.83329 9.11644 8.11705 10.8327 5.99996 10.8327C3.88287 10.8327 2.16663 9.11644 2.16663 6.99935C2.16663 5.25271 3.33535 3.7773 4.93479 3.31576C5.28855 3.21368 5.49257 2.84415 5.39049 2.4904C5.28841 2.13664 4.91888 1.93262 4.56513 2.0347C2.41029 2.65651 0.833292 4.6429 0.833292 6.99935C0.833292 9.85282 3.14649 12.166 5.99996 12.166Z" fill="#635BFE"/>
</g>
<defs>
<clipPath id="clip0_12904_21318">
<rect width="12" height="12" fill="white" transform="matrix(1.19249e-08 -1 -1 -1.19249e-08 12 12.5)"/>
</clipPath>
</defs>
</svg>
