<svg width="12" height="13" viewBox="0 0 12 13" fill="none" xmlns="http://www.w3.org/2000/svg">
<g clip-path="url(#clip0_12902_21638)">
<path fill-rule="evenodd" clip-rule="evenodd" d="M6.00008 12.5957C8.85355 12.5957 11.1667 10.2825 11.1667 7.42904C11.1667 6.00184 10.5872 4.70874 9.6522 3.77439C9.42894 3.55128 9.17033 3.31805 8.91089 3.0957L10.0001 3.0957C10.3683 3.0957 10.6667 2.79723 10.6667 2.42904C10.6667 2.06085 10.3683 1.76237 10.0001 1.76237L7.00008 1.76237C6.63189 1.76237 6.33341 2.06085 6.33341 2.42904L6.33341 5.42904C6.33341 5.79723 6.63189 6.0957 7.00008 6.0957C7.36827 6.0957 7.66675 5.79723 7.66675 5.42904L7.66675 3.79317C8.02944 4.08998 8.41273 4.42074 8.70972 4.71752C9.4047 5.41202 9.83341 6.36983 9.83341 7.42904C9.83341 9.54613 8.11717 11.2624 6.00008 11.2624C3.88299 11.2624 2.16675 9.54613 2.16675 7.42904C2.16675 5.68239 3.33547 4.20699 4.93491 3.74545C5.28867 3.64337 5.49269 3.27384 5.39061 2.92009C5.28853 2.56633 4.919 2.36231 4.56525 2.46439C2.41041 3.08619 0.833414 5.07258 0.833414 7.42904C0.833414 10.2825 3.14661 12.5957 6.00008 12.5957Z" fill="#FFAF30"/>
</g>
<defs>
<clipPath id="clip0_12902_21638">
<rect width="12" height="12" fill="white" transform="matrix(1.19249e-08 -1 -1 -1.19249e-08 12 12.5)"/>
</clipPath>
</defs>
</svg>
