<svg width="437" height="415" viewBox="0 0 437 415" fill="none" xmlns="http://www.w3.org/2000/svg">
<mask id="mask0_12160_18719" style="mask-type:alpha" maskUnits="userSpaceOnUse" x="0" y="0" width="437" height="415">
<rect width="437" height="414.44" fill="#E5E5E5"/>
</mask>
<g mask="url(#mask0_12160_18719)">
<path d="M224.047 145.507L229.515 158.227H273.443L267.499 143.248L224.047 145.507Z" fill="white"/>
<path d="M273.443 158.821H229.515C229.278 158.821 229.04 158.703 228.98 158.465L223.512 145.685C223.452 145.506 223.452 145.328 223.571 145.15C223.69 144.971 223.868 144.853 224.047 144.853L267.499 142.594C267.737 142.594 267.974 142.713 268.093 142.95L274.038 157.93C274.097 158.108 274.097 158.346 273.978 158.465C273.859 158.762 273.681 158.821 273.443 158.821ZM229.872 157.633H272.552L267.083 143.842L224.879 145.982L229.872 157.633Z" fill="#252362"/>
<path d="M334.906 47.7259C332.41 73.5832 329.913 99.5 327.476 125.357C327 130.588 326.465 135.879 325.99 141.109C325.752 143.547 323.672 145.449 321.234 145.449H167.101C164.248 145.449 161.989 142.952 162.346 140.099C162.94 135.165 163.535 130.291 164.188 125.357C167.458 99.1433 170.668 72.8699 173.937 46.6559C174.234 44.2783 176.255 42.4355 178.692 42.4355H330.21C333.004 42.495 335.203 44.9321 334.906 47.7259Z" fill="white"/>
<path d="M321.234 146.459H167.101C165.437 146.459 163.891 145.746 162.821 144.498C161.751 143.249 161.216 141.644 161.395 139.98L172.986 46.537C173.342 43.6837 175.78 41.4844 178.692 41.4844H330.21C331.815 41.4844 333.361 42.1977 334.431 43.3865C335.501 44.5754 336.036 46.1803 335.917 47.7852L335.203 55.1561C332.945 78.5763 330.686 101.996 328.486 125.417C328.13 128.924 327.833 132.431 327.476 135.938L327 141.169C326.644 144.2 324.207 146.459 321.234 146.459ZM178.692 43.5054C176.79 43.5054 175.126 44.932 174.888 46.8342L163.297 140.218C163.178 141.288 163.475 142.417 164.248 143.19C164.961 144.022 166.031 144.498 167.101 144.498H321.234C323.196 144.498 324.86 143.012 325.039 141.05L325.514 135.819C325.871 132.312 326.168 128.805 326.525 125.298C328.784 101.878 331.042 78.4574 333.242 55.0372L333.955 47.6664C334.074 46.5964 333.717 45.5264 333.004 44.7537C332.291 43.9215 331.28 43.5054 330.151 43.5054H178.692Z" fill="#252362"/>
<path d="M327.476 125.417C327.001 130.648 326.466 135.938 325.99 141.169C325.752 143.606 323.672 145.508 321.235 145.508H167.101C164.248 145.508 161.989 143.012 162.346 140.159C162.94 135.225 163.535 130.351 164.189 125.417H327.476Z" fill="#252362"/>
<path d="M321.235 145.746H167.101C165.675 145.746 164.307 145.151 163.356 144.022C162.405 142.952 161.93 141.525 162.108 140.039L163.951 125.119H327.773V125.416C327.417 128.923 327.119 132.431 326.763 135.938L326.287 141.169C325.99 143.784 323.791 145.746 321.235 145.746ZM164.426 125.654L162.643 140.158C162.465 141.466 162.881 142.714 163.772 143.725C164.605 144.676 165.853 145.27 167.161 145.27H321.294C323.612 145.27 325.574 143.487 325.812 141.169L326.287 135.938C326.644 132.49 326.941 129.102 327.298 125.654H164.426Z" fill="#252362"/>
<path d="M289.849 158.586H224.166V168.453H289.849V158.586Z" fill="white"/>
<path d="M289.849 169.047H224.166C223.809 169.047 223.571 168.81 223.571 168.453V158.586C223.571 158.229 223.809 157.991 224.166 157.991H289.849C290.206 157.991 290.444 158.229 290.444 158.586V168.453C290.444 168.75 290.146 169.047 289.849 169.047ZM224.76 167.859H289.255V159.18H224.76V167.859Z" fill="#252362"/>
<path d="M217.805 110.912C217.746 110.912 217.746 110.912 217.686 110.912C208.354 110.733 201.815 94.6839 195.514 79.11C190.284 66.2111 185.29 53.966 179.881 54.5604C176.434 54.9171 169.538 60.0886 156.045 82.6766C147.901 96.2888 141.184 109.961 141.125 110.079L139.995 109.485C141.125 107.226 167.101 54.5604 179.822 53.2527C186.182 52.5989 191.116 64.6656 196.763 78.6345C202.647 93.0789 209.305 109.485 217.805 109.604C221.728 109.663 225.77 104.432 230.11 93.495C234.033 83.6871 237.599 70.7882 241.107 58.3647C246.635 38.4516 251.449 21.3323 256.74 19.0141C257.691 18.598 258.701 18.598 259.771 19.0735C266.072 21.7484 273.027 39.9971 279.684 57.7109C282.478 65.1411 285.153 72.1553 287.531 77.2079C290.8 84.2815 292.286 84.757 292.762 84.5787C298.349 83.0332 339.008 38.7488 359.694 15.5664L360.645 16.3986C358.208 19.1329 300.43 83.806 293.118 85.827C289.552 86.7781 285.45 76.4946 278.496 58.127C272.195 41.5426 265.062 22.6995 259.236 20.2029C258.523 19.9057 257.869 19.9057 257.215 20.1435C252.46 22.1645 247.289 40.7104 242.295 58.662C235.103 84.4004 227.732 110.912 217.805 110.912Z" fill="#252362"/>
<path d="M352.442 34.7665L351.253 34.1721L359.813 16.1611L345.963 25.4341L345.249 24.3641L362.963 12.5352L352.442 34.7665Z" fill="#252362"/>
<path d="M358.267 176.655V339.824H300.192L298.765 324.488L285.213 179.449L358.267 176.655Z" fill="white"/>
<path d="M358.267 340.3H300.192C299.895 340.3 299.717 340.122 299.657 339.825L284.618 179.509C284.618 179.39 284.678 179.212 284.737 179.093C284.856 178.974 284.975 178.915 285.094 178.915L358.148 176.062C358.267 176.062 358.445 176.121 358.564 176.18C358.683 176.299 358.743 176.418 358.743 176.537V339.706C358.802 340.122 358.564 340.3 358.267 340.3ZM300.668 339.29H357.732V177.191L285.748 179.985L300.668 339.29Z" fill="#252362"/>
<path d="M358.267 179.983V339.823H300.192L298.766 324.487C316.123 322.942 334.431 318.305 344.952 295.598C357.138 269.265 350.956 180.756 350.956 180.756L358.267 179.983Z" fill="white"/>
<path d="M358.267 340.299H300.192C299.895 340.299 299.717 340.12 299.657 339.823L298.231 324.487C298.231 324.368 298.29 324.19 298.349 324.071C298.468 323.952 298.587 323.893 298.706 323.893C316.36 322.288 334.074 317.77 344.476 295.301C356.484 269.444 350.54 181.648 350.48 180.756C350.48 180.459 350.658 180.221 350.956 180.221L358.267 179.448C358.386 179.448 358.564 179.508 358.683 179.567C358.802 179.686 358.861 179.805 358.861 179.983V339.823C358.802 340.12 358.564 340.299 358.267 340.299ZM300.668 339.288H357.732V180.578L351.55 181.232C351.788 184.679 353.036 205.246 353.096 228.31C353.096 262.132 350.54 284.839 345.487 295.836C340.613 306.357 333.836 313.728 324.742 318.483C316.182 322.942 306.79 324.309 299.419 325.022L300.668 339.288Z" fill="#252362"/>
<path d="M69.3783 179.45L84.3577 339.825H142.433V176.656L69.3783 179.45Z" fill="white"/>
<path d="M142.433 340.776H84.3577C83.8821 340.776 83.466 340.419 83.4066 339.884L68.3677 179.569C68.3677 179.331 68.4272 179.034 68.6055 178.855C68.7838 178.677 69.0216 178.558 69.3188 178.499L142.373 175.646C142.611 175.646 142.908 175.705 143.086 175.943C143.265 176.121 143.384 176.359 143.384 176.656V339.825C143.384 340.36 142.968 340.776 142.433 340.776ZM85.2493 338.814H141.482V177.667L70.3888 180.401L85.2493 338.814Z" fill="#252362"/>
<path d="M397.439 267.602H396.132C396.132 267.423 396.488 247.213 391.257 221.712C386.502 198.233 375.862 165.42 352.62 142.119L353.512 141.228C363.914 151.63 372.652 164.707 379.547 180.222C385.075 192.586 389.415 206.495 392.506 221.534C397.796 247.094 397.439 267.423 397.439 267.602Z" fill="#252362"/>
<path d="M403.205 273.07L401.898 272.951C401.957 272.475 405.761 227.18 403.621 179.805C402.373 152.046 399.342 128.982 394.646 111.387C388.761 89.5125 380.32 75.9597 369.442 71.1449L369.977 69.9561C381.212 74.8898 389.95 88.7398 395.894 111.031C400.649 128.744 403.681 151.867 404.929 179.746C407.069 227.18 403.205 272.594 403.205 273.07Z" fill="#252362"/>
<path d="M371.642 186.167C367.659 186.167 363.914 185.156 360.942 184.383L361.12 183.789L360.942 184.383C355.949 183.076 349.707 181.411 347.33 176.299C345.784 173.089 346.616 170.414 347.389 167.799C348.102 165.362 348.816 163.044 347.449 160.428C346.438 158.407 344.952 157.694 342.931 156.683C340.672 155.554 337.878 154.127 334.728 150.382C333.123 148.48 331.161 146.043 330.448 142.417C330.032 140.158 330.329 138.969 330.864 137.186C331.221 135.819 331.696 134.155 332.053 131.361C332.35 129.043 332.35 127.2 332.41 125.536C332.469 122.266 332.529 120.126 334.49 118.462C335.679 117.451 336.927 117.214 337.641 117.035C340.791 116.381 343.169 117.749 345.725 119.175C346.498 119.591 347.27 120.067 348.102 120.483C351.907 122.326 354.582 122.266 357.138 122.266C359.872 122.207 362.487 122.207 365.995 124.466C367.183 125.238 370.334 127.319 372.177 131.183C373.96 135.046 373.306 138.553 372.83 141.288C372.355 143.844 371.998 145.805 373.365 147.41C374.911 149.253 376.04 149.491 383.054 151.096L384.481 151.452C386.324 151.868 388.642 152.701 390.366 155.316C392.565 158.645 392.387 162.627 391.971 165.718C391.555 168.691 390.306 177.785 382.46 182.957C378.893 185.394 375.149 186.167 371.642 186.167ZM339.305 118.224C338.889 118.224 338.413 118.284 337.997 118.343C337.403 118.462 336.333 118.7 335.382 119.472C333.896 120.721 333.836 122.445 333.777 125.595C333.717 127.2 333.658 129.162 333.42 131.539C333.064 134.392 332.588 136.116 332.231 137.543C331.756 139.207 331.459 140.277 331.875 142.179C332.529 145.508 334.371 147.707 335.857 149.55C338.829 153.117 341.504 154.484 343.644 155.554C345.725 156.564 347.508 157.515 348.697 159.893C350.242 162.984 349.47 165.6 348.697 168.215C347.984 170.712 347.27 173.03 348.578 175.764C350.718 180.282 356.365 181.827 361.358 183.135C366.648 184.562 374.673 186.701 381.866 181.946C389.236 177.072 390.425 168.453 390.841 165.6C391.257 162.568 391.436 159.061 389.415 156.089C388.285 154.365 386.68 153.354 384.303 152.76L382.876 152.403C375.684 150.739 374.376 150.442 372.533 148.302C370.75 146.221 371.225 143.725 371.701 141.109C372.236 138.375 372.771 135.225 371.166 131.777C369.502 128.27 366.589 126.308 365.46 125.595C362.309 123.574 359.991 123.574 357.316 123.633C354.701 123.693 351.788 123.693 347.686 121.731C346.795 121.315 346.022 120.84 345.249 120.424C343.109 119.235 341.326 118.224 339.305 118.224Z" fill="#252362"/>
<path d="M402.492 148.362C397.261 148.362 391.911 146.46 388.226 142.953C384.838 139.803 381.39 134.215 382.936 128.865C383.589 126.547 385.016 125.001 386.324 123.634C387.75 122.089 388.939 120.84 388.701 118.879C388.583 117.631 387.869 115.669 385.135 113.589C383.47 112.34 382.103 112.102 380.558 111.805C379.369 111.627 378.061 111.389 376.456 110.616C371.463 108.298 368.491 103.008 367.718 98.728C367.183 95.8154 367.778 93.6754 368.253 91.8922C368.788 89.9306 369.145 88.504 368.075 86.7802C367.243 85.4724 366.232 84.9969 364.687 84.343C363.736 83.9269 362.487 83.392 361.12 82.5598C355.949 79.4093 351.669 73.7623 350.599 68.8286C350.123 66.6293 350.421 64.7271 351.372 63.36C353.155 60.8039 356.959 60.4473 360.585 60.0906C368.967 59.3179 375.981 62.1711 380.439 64.7271L379.785 65.8565C375.505 63.4194 368.788 60.6256 360.704 61.3984C357.316 61.6956 353.868 62.0522 352.382 64.1327C351.609 65.2027 351.431 66.7482 351.847 68.5909C352.798 73.1085 356.959 78.5177 361.774 81.4898C363.082 82.322 364.211 82.7975 365.222 83.2136C366.827 83.9269 368.134 84.4619 369.204 86.1263C370.572 88.3257 370.096 90.2278 369.561 92.2488C369.145 93.9727 368.61 95.9342 369.086 98.4903C369.799 102.413 372.533 107.288 377.051 109.428C378.477 110.081 379.666 110.26 380.796 110.498C382.46 110.795 384.005 111.092 385.908 112.519C388.999 114.837 389.831 117.155 390.009 118.701C390.247 121.257 388.82 122.802 387.275 124.466C386.026 125.774 384.778 127.141 384.184 129.162C382.876 133.621 385.729 138.792 389.118 141.942C393.992 146.46 401.779 148.184 408.08 146.163C412.478 144.736 414.856 141.942 417.353 139.03C419.909 136.058 423.059 132.432 423.178 127.022C423.356 120.781 419.195 116.145 417.412 114.48L418.304 113.529C420.206 115.312 424.664 120.246 424.486 127.022C424.307 132.848 420.86 136.89 418.363 139.803C415.807 142.775 413.192 145.806 408.496 147.352C406.593 148.065 404.572 148.362 402.492 148.362Z" fill="#252362"/>
<path d="M381.152 257.082H418.185L410.219 321.161H387.215L381.152 257.082Z" fill="#252362"/>
<path d="M410.457 321.459H386.978V321.221L380.855 256.786H418.482L410.457 321.459ZM387.513 320.865H409.982L417.888 257.381H381.568L387.513 320.865Z" fill="#252362"/>
<path d="M417.353 266.594H382.163V267.961H417.353V266.594Z" fill="#FFAF30"/>
<path d="M414.915 280.917H383.47V282.284H414.915V280.917Z" fill="#FFAF30"/>
<path d="M413.489 293.818H384.719V295.186H413.489V293.818Z" fill="#FFAF30"/>
<path d="M411.824 307.073H387.215V308.44H411.824V307.073Z" fill="#FFAF30"/>
<path d="M361.596 168.453H66.7034V184.859H361.596V168.453Z" fill="white"/>
<path d="M361.596 185.454H66.7034C66.3467 185.454 66.1089 185.157 66.1089 184.86V168.454C66.1089 168.097 66.4062 167.859 66.7034 167.859H361.596C361.952 167.859 362.19 168.157 362.19 168.454V184.86C362.19 185.216 361.893 185.454 361.596 185.454ZM67.2978 184.265H361.001V169.048H67.2978V184.265Z" fill="#252362"/>
<path d="M288.541 183.195C288.185 183.195 287.947 182.898 287.947 182.601V168.454C287.947 168.097 288.244 167.859 288.541 167.859C288.898 167.859 289.136 168.157 289.136 168.454V182.601C289.195 182.898 288.898 183.195 288.541 183.195Z" fill="#252362"/>
<path d="M424.01 282.106H67.8328C67.2978 282.106 66.8223 282.582 66.8223 283.117C66.8223 283.652 67.2978 284.127 67.8328 284.127H424.01C424.545 284.127 425.021 283.652 425.021 283.117C425.021 282.582 424.545 282.106 424.01 282.106Z" fill="#252362"/>
<path d="M405.524 356.587H395.953C395.418 356.587 394.943 357.062 394.943 357.597C394.943 358.132 395.418 358.608 395.953 358.608H405.524C406.059 358.608 406.534 358.132 406.534 357.597C406.534 357.062 406.118 356.587 405.524 356.587Z" fill="#252362"/>
<path d="M378.418 356.587H283.429C282.894 356.587 282.419 357.062 282.419 357.597C282.419 358.132 282.894 358.608 283.429 358.608H378.418C378.953 358.608 379.428 358.132 379.428 357.597C379.428 357.062 379.012 356.587 378.418 356.587Z" fill="#252362"/>
<path d="M86.6165 370.795H62.0669C61.5319 370.795 61.0564 371.27 61.0564 371.805C61.0564 372.34 61.5319 372.816 62.0669 372.816H86.6165C87.1515 372.816 87.627 372.34 87.627 371.805C87.627 371.211 87.2109 370.795 86.6165 370.795Z" fill="#252362"/>
<path d="M345.844 104.671V110.912C345.844 111.744 345.725 112.517 345.487 113.171C345.13 114.36 344.476 115.311 343.644 115.846C343.109 116.202 342.515 116.44 341.92 116.44H289.017C288.363 116.44 287.769 116.202 287.234 115.846C286.461 115.251 285.807 114.36 285.45 113.171C285.213 112.458 285.094 111.685 285.094 110.912V104.671C285.094 103.541 285.332 102.471 285.748 101.639C286.461 100.153 287.65 99.1426 289.017 99.1426H341.92C343.288 99.1426 344.536 100.153 345.19 101.639C345.606 102.471 345.844 103.541 345.844 104.671Z" fill="#FFAF30"/>
<path d="M341.92 117.153H289.017C288.244 117.153 287.471 116.915 286.818 116.44C285.926 115.786 285.153 114.716 284.737 113.408C284.499 112.635 284.38 111.803 284.38 110.912V104.67C284.38 103.481 284.618 102.352 285.094 101.341C285.926 99.5581 287.412 98.4287 289.017 98.4287H341.92C343.525 98.4287 345.011 99.4987 345.844 101.341C346.319 102.352 346.557 103.481 346.557 104.67V110.912C346.557 111.803 346.438 112.635 346.2 113.408C345.784 114.716 345.011 115.786 344.12 116.44C343.406 116.915 342.634 117.153 341.92 117.153ZM289.017 99.7959C287.947 99.7959 286.936 100.569 286.342 101.876C285.985 102.709 285.748 103.66 285.748 104.67V110.912C285.748 111.625 285.866 112.338 286.045 112.992C286.342 114.003 286.936 114.835 287.59 115.31C288.006 115.607 288.482 115.786 288.957 115.786H341.861C342.337 115.786 342.812 115.607 343.228 115.31C343.941 114.835 344.476 114.003 344.833 112.992C345.071 112.338 345.13 111.625 345.13 110.912V104.67C345.13 103.66 344.952 102.709 344.536 101.876C343.941 100.569 342.931 99.7959 341.861 99.7959H289.017Z" fill="#252362"/>
<path d="M345.784 120.838V127.079C345.784 128.387 345.487 129.576 344.952 130.527C344.239 131.775 343.109 132.607 341.861 132.607H288.957C287.709 132.607 286.58 131.775 285.866 130.527C285.331 129.576 285.034 128.387 285.034 127.079V120.838C285.034 119.53 285.331 118.341 285.866 117.39C286.223 116.736 286.699 116.261 287.174 115.844C287.709 115.488 288.304 115.25 288.898 115.25H341.801C342.455 115.25 343.05 115.488 343.585 115.844C344.12 116.201 344.536 116.736 344.892 117.33C345.487 118.341 345.784 119.53 345.784 120.838Z" fill="#FFAF30"/>
<path d="M341.861 133.321H288.957C287.471 133.321 286.164 132.429 285.272 130.884C284.678 129.814 284.321 128.447 284.321 127.08V120.838C284.321 119.471 284.678 118.163 285.272 117.034C285.688 116.321 286.223 115.726 286.817 115.31C287.471 114.834 288.185 114.597 288.957 114.597H341.861C342.634 114.597 343.406 114.834 344.06 115.31C344.655 115.726 345.13 116.321 345.546 117.034C346.141 118.104 346.497 119.471 346.497 120.838V127.08C346.497 128.447 346.141 129.754 345.546 130.884C344.655 132.429 343.347 133.321 341.861 133.321ZM289.017 115.964C288.541 115.964 288.066 116.142 287.65 116.439C287.234 116.737 286.817 117.212 286.52 117.747C286.045 118.639 285.748 119.709 285.748 120.898V127.139C285.748 128.268 286.045 129.398 286.52 130.289C287.174 131.419 288.066 132.013 289.017 132.013H341.92C342.871 132.013 343.763 131.359 344.417 130.289C344.892 129.398 345.19 128.328 345.19 127.139V120.898C345.19 119.768 344.892 118.639 344.417 117.747C344.12 117.212 343.763 116.796 343.288 116.499C342.871 116.202 342.396 116.023 341.92 116.023H289.017V115.964Z" fill="#252362"/>
<path d="M345.844 138.195V144.437C345.844 145.923 345.427 147.29 344.714 148.3C344.001 149.311 342.99 149.965 341.861 149.965H288.957C287.828 149.965 286.877 149.311 286.104 148.3C285.391 147.29 284.975 145.923 284.975 144.437V138.195C284.975 136.887 285.272 135.699 285.807 134.747C286.52 133.499 287.65 132.667 288.898 132.667H341.802C343.05 132.667 344.179 133.499 344.893 134.747C345.546 135.699 345.844 136.887 345.844 138.195Z" fill="#FFAF30"/>
<path d="M341.92 150.678H289.017C287.709 150.678 286.52 149.965 285.629 148.717C284.856 147.587 284.38 146.042 284.38 144.437V138.196C284.38 136.828 284.737 135.521 285.331 134.391C286.223 132.846 287.531 131.954 289.017 131.954H341.92C343.406 131.954 344.714 132.846 345.606 134.391C346.2 135.461 346.557 136.828 346.557 138.196V144.437C346.557 146.042 346.141 147.528 345.309 148.717C344.417 149.965 343.169 150.678 341.92 150.678ZM289.017 133.321C288.066 133.321 287.174 133.975 286.52 135.045C286.045 135.937 285.748 137.007 285.748 138.196V144.437C285.748 145.745 286.104 146.993 286.758 147.944C287.353 148.836 288.185 149.311 289.017 149.311H341.92C342.753 149.311 343.585 148.836 344.179 147.944C344.833 146.993 345.19 145.804 345.19 144.437V138.196C345.19 137.066 344.893 135.937 344.417 135.045C343.763 133.916 342.871 133.321 341.92 133.321H289.017Z" fill="#252362"/>
<path d="M345.844 155.554V161.795C345.844 164.886 344.06 167.323 341.92 167.323H289.017C286.818 167.323 285.094 164.826 285.094 161.795V155.554C285.094 154.424 285.332 153.354 285.748 152.522C286.461 151.036 287.65 150.025 289.017 150.025H341.92C343.288 150.025 344.536 151.036 345.19 152.522C345.606 153.354 345.844 154.424 345.844 155.554Z" fill="#FFAF30"/>
<path d="M341.92 168.036H289.017C286.461 168.036 284.38 165.242 284.38 161.794V155.553C284.38 154.364 284.618 153.235 285.094 152.224C285.926 150.441 287.412 149.312 289.017 149.312H341.92C343.525 149.312 345.011 150.381 345.844 152.224C346.319 153.235 346.557 154.364 346.557 155.553V161.794C346.557 165.242 344.476 168.036 341.92 168.036ZM289.017 150.679C287.947 150.679 286.936 151.451 286.342 152.759C285.985 153.591 285.748 154.542 285.748 155.494V161.735C285.748 164.41 287.234 166.609 289.017 166.609H341.92C343.704 166.609 345.19 164.35 345.19 161.735V155.494C345.19 154.483 345.011 153.532 344.595 152.759C344.001 151.451 342.99 150.679 341.92 150.679H289.017Z" fill="#252362"/>
<path d="M289.017 132.669C287.709 132.669 286.639 131.837 285.926 130.589H344.952C344.239 131.837 343.109 132.669 341.861 132.669H341.92C343.169 132.669 344.298 133.502 345.011 134.75H285.985C286.699 133.442 287.769 132.669 289.017 132.669Z" fill="#F7960B"/>
<path d="M346.141 135.403H284.797L285.391 134.393C285.807 133.679 286.342 133.085 286.936 132.669C286.342 132.253 285.807 131.658 285.391 130.886L284.797 129.875H346.2L345.606 130.886C345.19 131.599 344.655 132.193 344.06 132.609C344.655 133.025 345.19 133.62 345.606 134.393L346.141 135.403ZM287.353 134.036H343.644C343.109 133.56 342.574 133.323 341.92 133.323H341.861V131.955C342.455 131.955 343.05 131.718 343.585 131.242H287.293C287.828 131.718 288.363 131.955 289.017 131.955H289.076V133.323C288.422 133.323 287.828 133.56 287.353 134.036Z" fill="#252362"/>
<path d="M344.952 117.393H285.926C286.282 116.739 286.758 116.264 287.234 115.848C286.461 115.253 285.807 114.362 285.45 113.173H345.487C345.13 114.362 344.476 115.313 343.644 115.848C344.179 116.264 344.595 116.799 344.952 117.393Z" fill="#F7960B"/>
<path d="M346.141 118.049H284.737L285.331 117.038C285.569 116.563 285.866 116.206 286.223 115.849C285.629 115.195 285.094 114.363 284.796 113.412L284.499 112.521H346.438L346.141 113.412C345.843 114.423 345.308 115.255 344.714 115.909C345.011 116.265 345.308 116.622 345.546 117.038L346.141 118.049ZM287.293 116.681H343.585C343.466 116.563 343.406 116.503 343.287 116.444L342.515 115.909L343.287 115.374C343.763 115.017 344.179 114.542 344.476 113.947H286.461C286.758 114.542 287.174 115.017 287.65 115.374L288.422 115.909L287.65 116.444C287.531 116.503 287.412 116.622 287.293 116.681Z" fill="#252362"/>
<path d="M289.017 150.027C287.888 150.027 286.936 149.373 286.164 148.362H344.714C344.001 149.373 342.99 150.027 341.861 150.027C343.228 150.027 344.476 151.037 345.13 152.523H285.748C286.461 150.978 287.65 150.027 289.017 150.027Z" fill="#F7960B"/>
<path d="M346.26 153.177H284.678L285.153 152.225C285.629 151.274 286.223 150.502 286.936 150.026C286.461 149.729 286.045 149.253 285.688 148.718L284.975 147.648H346.081L345.368 148.718C345.011 149.253 344.595 149.669 344.12 150.026C344.833 150.502 345.487 151.274 345.903 152.225L346.26 153.177ZM286.936 151.809H344.001C343.406 151.096 342.693 150.68 341.92 150.68V149.313C342.337 149.313 342.693 149.194 343.05 149.016H287.888C288.244 149.253 288.66 149.313 289.017 149.313V150.68C288.244 150.68 287.531 151.096 286.936 151.809Z" fill="#252362"/>
<g opacity="0.29">
<g opacity="0.29">
<path opacity="0.29" d="M308.989 99.1426H296.744V167.382H308.989V99.1426Z" fill="#F7960B"/>
</g>
<g opacity="0.29">
<path opacity="0.29" d="M309.643 168.035H296.031V98.4287H309.643V168.035ZM297.398 166.668H308.276V99.7959H297.398V166.668Z" fill="#252362"/>
</g>
</g>
<g opacity="0.22">
<g opacity="0.22">
<path opacity="0.22" d="M333.955 99.1426H320.997V167.382H333.955V99.1426Z" fill="white"/>
</g>
<g opacity="0.22">
<path opacity="0.22" d="M333.955 167.857H320.997C320.7 167.857 320.462 167.62 320.462 167.323V99.1424C320.462 98.8452 320.7 98.6074 320.997 98.6074H333.955C334.252 98.6074 334.49 98.8452 334.49 99.1424V167.382C334.49 167.62 334.252 167.857 333.955 167.857ZM321.532 166.847H333.42V99.6774H321.532V166.847Z" fill="#252362"/>
</g>
</g>
<path d="M272.433 71.7985C272.373 76.9106 271.244 81.7848 269.223 86.1241C268.212 88.3234 266.964 90.3445 265.597 92.2466C264.23 94.0893 262.684 95.8131 260.96 97.3586C258.761 99.3797 256.264 101.104 253.53 102.471C249.31 104.67 244.554 105.978 239.561 106.275C238.788 106.334 238.016 106.334 237.243 106.334C232.488 106.275 227.911 105.264 223.809 103.481C221.491 102.471 219.291 101.222 217.211 99.7363C208.295 93.3166 202.588 82.8548 202.707 71.0852C202.767 67.3998 203.361 63.7738 204.49 60.4451C206.036 55.7492 208.532 51.5288 211.802 47.9622C211.802 47.9622 211.802 47.9622 211.861 47.9028C213.882 45.7034 216.2 43.7418 218.697 42.1369C222.561 39.6403 226.959 37.8571 231.715 37.0249C233.736 36.6682 235.876 36.4899 238.016 36.5494C257.156 36.7871 272.611 52.5393 272.433 71.7985Z" fill="#FFAF30"/>
<path d="M237.54 107.05C237.421 107.05 237.302 107.05 237.183 107.05C232.428 106.99 227.792 106.039 223.452 104.137C221.075 103.126 218.816 101.819 216.735 100.333C207.344 93.5562 201.815 82.6189 201.934 71.0871C201.994 67.4017 202.588 63.7163 203.718 60.2686C205.263 55.5132 207.819 51.2334 211.207 47.4886L211.267 47.4291C213.347 45.1703 215.665 43.2087 218.221 41.5443C222.264 38.9289 226.722 37.1456 231.477 36.3729C233.558 36.0162 235.757 35.8379 237.897 35.8379C247.408 35.9568 256.324 39.7016 262.981 46.478C269.639 53.2544 273.265 62.2302 273.146 71.7409C273.087 76.853 272.017 81.7867 269.877 86.3637C268.866 88.5631 267.618 90.6435 266.132 92.6051C264.705 94.5073 263.16 96.2311 261.376 97.836C259.118 99.9165 256.562 101.64 253.827 103.067C249.369 105.385 244.554 106.693 239.561 106.931C238.848 107.05 238.194 107.05 237.54 107.05ZM211.683 48.0235L212.158 48.4991C208.889 52.0656 206.511 56.2265 204.966 60.7442C203.836 64.0729 203.301 67.58 203.242 71.1465C203.123 82.2622 208.473 92.7835 217.449 99.2626C219.47 100.689 221.61 101.938 223.868 102.948C228.029 104.731 232.488 105.682 237.065 105.742C237.837 105.742 238.61 105.742 239.323 105.682C244.138 105.385 248.775 104.137 253.055 101.938C255.67 100.57 258.107 98.906 260.306 96.885C261.971 95.3989 263.516 93.6751 264.884 91.8918C266.251 89.9897 267.499 87.9686 268.45 85.8882C270.531 81.4894 271.541 76.7341 271.601 71.8598C271.719 62.7057 268.212 54.0866 261.793 47.548C255.373 41.0094 246.813 37.3834 237.718 37.2645C235.638 37.2645 233.558 37.3834 231.536 37.74C226.959 38.5128 222.68 40.1772 218.756 42.7332C216.319 44.3381 214.061 46.2403 212.039 48.3802L211.683 48.0235Z" fill="#252362"/>
<path d="M264.45 76.3828C267.177 61.5292 257.347 47.277 242.493 44.5497C227.639 41.8224 213.387 51.6527 210.66 66.5064C207.933 81.3601 217.763 95.6123 232.617 98.3396C247.47 101.067 261.722 91.2365 264.45 76.3828Z" fill="#FFAF30"/>
<path d="M237.54 99.5001C237.421 99.5001 237.362 99.5001 237.243 99.5001C221.788 99.3218 209.305 86.6606 209.483 71.1462C209.543 63.6565 212.574 56.6423 217.924 51.4114C223.215 46.2399 230.169 43.3867 237.54 43.3867C237.659 43.3867 237.718 43.3867 237.837 43.3867C253.292 43.565 265.775 56.2262 265.597 71.7406C265.418 87.1361 252.876 99.5001 237.54 99.5001ZM237.481 44.8133C230.467 44.8133 223.809 47.4882 218.816 52.4219C213.704 57.4151 210.91 64.0726 210.791 71.2056C210.732 78.3387 213.407 85.0557 218.4 90.1677C223.393 95.2797 230.05 98.0735 237.183 98.1924C244.317 98.2518 251.034 95.5769 256.146 90.5838C261.258 85.5906 264.051 78.9331 264.17 71.8001C264.289 57.0584 252.46 44.9917 237.778 44.8728C237.718 44.8133 237.6 44.8133 237.481 44.8133Z" fill="#252362"/>
<path d="M247.645 72.6948C246.397 71.3871 244.792 70.436 242.89 69.901V69.4849C246.338 68.1178 248.061 65.8589 248.061 62.768C248.061 61.3413 247.764 60.0931 247.11 59.0231C246.575 58.1315 245.743 57.4182 244.673 56.8237C244.198 56.586 243.663 56.3482 243.009 56.1699L243.068 49.9285L239.205 49.869L239.145 55.516C238.313 55.4566 237.421 55.3971 236.411 55.3971H236.232L236.292 49.869L232.428 49.8096L232.369 55.3377L225.473 55.2782C225.295 55.2782 225.236 55.3377 225.236 55.516V56.7643C225.236 56.9426 225.295 57.0021 225.473 57.0021L229.456 57.4182C229.634 57.4182 229.694 57.4776 229.694 57.6559L229.397 84.7615C229.397 84.9399 229.337 84.9993 229.159 84.9993L225.176 85.356C224.998 85.356 224.938 85.4154 224.938 85.5937V86.842C224.938 87.0203 224.998 87.0798 225.176 87.0798L232.071 87.1392L232.012 93.0834L235.876 93.1429L235.935 87.1987H237.183C237.778 87.1987 238.313 87.1987 238.848 87.1987L238.788 93.2023L242.652 93.2618L242.712 86.7231C245.327 86.0693 247.229 84.9399 248.418 83.216C249.429 81.73 249.964 80.1845 249.964 78.4012C249.964 76.1424 249.191 74.2997 247.645 72.6948ZM237.6 57.6559C238.135 57.6559 238.67 57.7154 239.145 57.8343C240.274 58.072 241.226 58.4881 241.998 59.0825C242.414 59.3798 242.712 59.7364 243.009 60.1525C243.544 60.9847 243.841 61.9952 243.841 63.2435C243.841 64.4918 243.544 65.5617 242.949 66.4534C242.533 67.1072 241.939 67.7017 241.166 68.1177C240.572 68.4744 239.858 68.7122 239.026 68.8905C238.194 69.0688 237.183 69.1877 236.114 69.1877C235.876 69.1877 235.638 69.1877 235.341 69.1877H233.914C233.736 69.1877 233.676 69.1283 233.676 68.9499L233.795 57.7154C233.795 57.537 233.855 57.4776 234.033 57.4776H235.816H236.232L237.6 57.6559ZM242.712 83.6321C241.701 84.286 240.393 84.7021 238.788 84.821C238.135 84.8804 237.421 84.9399 236.649 84.9399H235.876H233.676C233.498 84.9399 233.439 84.8804 233.439 84.7021L233.558 71.2682C233.558 71.0899 233.617 71.0304 233.795 71.0304H235.876C235.935 71.0304 235.995 71.0304 235.995 71.0304C237.065 71.0304 238.016 71.1493 238.907 71.2682C240.512 71.5654 241.82 72.1004 242.771 72.8731C244.376 74.1214 245.149 76.083 245.149 78.639C245.208 80.9572 244.376 82.6216 242.712 83.6321Z" fill="white"/>
<path d="M242.652 93.6782L238.788 93.6187C238.67 93.6187 238.551 93.5593 238.432 93.4404C238.313 93.3215 238.313 93.2026 238.313 93.0837L238.372 87.6151C238.016 87.6151 237.6 87.6151 237.243 87.6151H236.47L236.411 93.0837C236.411 93.2026 236.351 93.3215 236.232 93.4404C236.114 93.5593 235.995 93.6187 235.876 93.5593L232.012 93.4998C231.893 93.4998 231.774 93.4404 231.655 93.3215C231.536 93.2026 231.536 93.0837 231.536 92.9649L231.596 87.4962L225.176 87.4367C224.879 87.4367 224.76 87.3179 224.641 87.199C224.522 87.0801 224.463 86.9612 224.463 86.664V85.4157C224.463 85.1779 224.522 84.9996 224.641 84.8807C224.76 84.7618 224.879 84.643 225.176 84.643L228.921 84.3457L229.159 57.7157L225.414 57.2996C225.176 57.2996 224.998 57.1807 224.938 57.0618C224.82 56.9429 224.76 56.824 224.76 56.5268V55.2785C224.76 54.9813 224.879 54.8624 224.998 54.7436C225.117 54.6247 225.236 54.5652 225.533 54.5652L231.953 54.6247L232.012 49.5721C232.012 49.4532 232.071 49.3343 232.19 49.2154C232.309 49.0966 232.428 49.0371 232.547 49.0966L236.411 49.156C236.53 49.156 236.648 49.2154 236.767 49.3343C236.886 49.4532 236.886 49.5721 236.886 49.691L236.827 54.7436C237.481 54.7436 238.135 54.803 238.729 54.803L238.788 49.691C238.788 49.5721 238.848 49.4532 238.967 49.3343C239.086 49.2154 239.205 49.2154 239.323 49.2154L243.187 49.2749C243.484 49.2749 243.722 49.5127 243.663 49.8099L243.603 55.6946C244.138 55.873 244.554 56.0513 244.97 56.2891C246.159 56.9429 247.051 57.7751 247.645 58.6667C248.359 59.7961 248.715 61.1633 248.656 62.7088C248.596 65.7998 246.991 68.118 243.9 69.6041C245.565 70.1985 246.932 71.0902 248.121 72.279C249.785 73.9434 250.558 75.9644 250.558 78.2827C250.558 80.1254 249.964 81.7897 248.953 83.3352C247.764 85.0591 245.862 86.2479 243.365 86.9612L243.306 93.1432C243.128 93.4404 242.949 93.6782 242.652 93.6782ZM239.264 92.6082H242.117L242.177 86.5451C242.177 86.3073 242.355 86.129 242.593 86.0696C245.089 85.4751 246.873 84.3457 248.002 82.8002C248.953 81.4331 249.429 79.8876 249.429 78.2827C249.429 76.2616 248.775 74.5378 247.289 73.0517C246.1 71.8035 244.554 70.9118 242.771 70.3768C242.533 70.3174 242.414 70.1391 242.414 69.9013V69.4852C242.414 69.3069 242.533 69.0691 242.712 69.0097C245.981 67.7019 247.526 65.6809 247.586 62.7683C247.586 61.4605 247.289 60.2717 246.694 59.2612C246.219 58.4884 245.446 57.7751 244.435 57.2401C244.019 57.0024 243.484 56.824 242.89 56.6457C242.652 56.5863 242.533 56.4079 242.533 56.1702L242.593 50.4637H239.739L239.68 55.5758C239.68 55.6946 239.621 55.873 239.502 55.9324C239.383 56.0513 239.264 56.0513 239.145 56.0513C238.313 55.9918 237.421 55.9324 236.47 55.9324H236.292C236.173 55.9324 236.054 55.873 235.935 55.7541C235.816 55.6352 235.816 55.5163 235.816 55.3974L235.876 50.3449H233.023L232.963 55.3974C232.963 55.6946 232.725 55.873 232.428 55.873L225.771 55.8135V56.5268L229.515 56.9429C229.753 56.9429 229.932 57.0618 229.991 57.1807C230.11 57.2996 230.169 57.4185 230.169 57.7157L229.872 84.8213C229.872 85.2374 229.575 85.5346 229.159 85.5346L225.414 85.8318V86.5451L232.071 86.6045C232.19 86.6045 232.309 86.664 232.428 86.7829C232.547 86.9018 232.547 87.0206 232.547 87.1395L232.488 92.6082H235.341L235.4 87.1395C235.4 86.8423 235.638 86.664 235.935 86.664H237.183C237.718 86.664 238.313 86.664 238.788 86.664C238.907 86.664 239.086 86.7234 239.145 86.7829C239.264 86.9018 239.323 87.0206 239.323 87.1395L239.264 92.6082ZM236.886 85.4751C236.827 85.4751 236.767 85.4751 236.649 85.4751H233.676C233.26 85.4751 232.963 85.1779 232.963 84.7024L233.082 71.2685C233.082 70.9713 233.201 70.8524 233.32 70.7335C233.439 70.6146 233.558 70.5552 233.855 70.5552H235.935C235.995 70.5552 236.054 70.5552 236.114 70.5552C237.183 70.5552 238.194 70.6741 239.086 70.8524C240.75 71.1496 242.117 71.744 243.187 72.5762C244.911 73.9434 245.803 76.0238 245.743 78.6987C245.743 81.1359 244.792 82.9786 243.009 84.108C241.939 84.7618 240.572 85.2374 238.907 85.4157C238.313 85.4752 237.6 85.4751 236.886 85.4751ZM233.974 84.4646H236.649C237.421 84.4646 238.135 84.4646 238.729 84.3457C240.274 84.1674 241.463 83.8108 242.414 83.2163C243.9 82.2653 244.614 80.7792 244.673 78.6393C244.673 76.2022 243.96 74.4783 242.474 73.2895C241.582 72.5762 240.334 72.0412 238.848 71.8035C237.956 71.6251 237.005 71.5657 235.995 71.5657H235.935H235.876H234.092L233.974 84.4646ZM235.519 69.7824C235.46 69.7824 235.4 69.7824 235.281 69.7824H233.855C233.439 69.7824 233.141 69.4852 233.141 69.0097L233.26 57.7751C233.26 57.359 233.558 57.0618 233.974 57.0618L236.232 57.1213L237.6 57.1807C238.194 57.1807 238.729 57.2996 239.205 57.359C240.393 57.5968 241.404 58.0129 242.236 58.6667C242.712 59.0234 243.068 59.4395 243.365 59.8556C243.96 60.8067 244.257 61.9361 244.257 63.2438C244.257 64.611 243.9 65.7998 243.306 66.7509C242.83 67.4642 242.177 68.118 241.344 68.5936C240.691 68.9502 239.918 69.2474 239.086 69.4258C238.194 69.6041 237.184 69.723 236.054 69.7824C235.935 69.7824 235.697 69.7824 235.519 69.7824ZM234.152 68.7125H235.341C235.579 68.7125 235.816 68.7125 236.114 68.7125C237.183 68.7125 238.135 68.5936 238.907 68.4153C239.68 68.2369 240.334 67.9992 240.869 67.702C241.523 67.2859 242.058 66.8103 242.474 66.2159C243.009 65.4431 243.247 64.4326 243.247 63.2438C243.247 62.1144 243.009 61.1633 242.533 60.45C242.296 60.0934 241.998 59.7961 241.642 59.4989C240.928 58.964 240.037 58.5479 239.026 58.3695C238.61 58.2507 238.135 58.1912 237.54 58.1912L235.757 58.1318H234.271L234.152 68.7125Z" fill="#252362"/>
<path d="M132.625 354.625L141.125 306.537L126.443 295.48L117.586 334.831C117.408 336.079 116.575 341.845 120.38 347.373C124.719 353.615 131.555 354.507 132.625 354.625Z" fill="white"/>
<path d="M132.625 355.518C132.565 355.518 132.565 355.518 132.506 355.518C130.604 355.281 123.946 354.092 119.666 347.91C115.981 342.56 116.397 336.913 116.754 334.714V334.654L125.611 295.304C125.67 295.006 125.908 294.769 126.146 294.65C126.443 294.531 126.74 294.59 126.978 294.769L141.66 305.884C141.898 306.063 142.076 306.419 142.017 306.717L133.516 354.805C133.398 355.221 133.041 355.518 132.625 355.518ZM118.478 335.011C118.18 336.973 117.764 342.085 121.093 346.899C124.481 351.833 129.474 353.26 131.852 353.676L140.115 306.954L127.037 296.968L118.478 335.011Z" fill="#252362"/>
<path d="M117.348 331.861C117.943 336.794 121.509 339.945 124.541 339.529C127.453 339.113 128.999 335.724 129.177 335.368C128.821 334.357 125.611 325.203 128.404 323.004C128.702 322.766 129.118 322.647 129.95 322.409C131.614 321.993 135.062 321.042 137.142 322.707C138.391 323.717 138.688 325.738 139.223 329.84C139.936 335.189 139.639 340.183 139.52 340.183C139.52 340.183 139.52 340.123 139.461 340.064C144.276 341.906 149.447 343.749 154.916 345.473C161.098 347.434 167.042 348.98 172.689 350.288C172.748 351.179 172.808 352.071 172.867 352.963C172.986 354.508 173.105 356.113 173.164 357.658H107.362C110.691 349.039 114.019 340.42 117.348 331.861Z" fill="white"/>
<path d="M173.224 358.549H107.362C107.065 358.549 106.827 358.43 106.649 358.192C106.47 357.954 106.47 357.657 106.53 357.36L116.575 331.562C116.694 331.205 117.11 330.968 117.526 331.027C117.943 331.086 118.24 331.384 118.299 331.8C118.596 334.237 119.726 336.377 121.331 337.684C122.341 338.457 123.471 338.814 124.481 338.695C126.502 338.398 127.81 336.198 128.286 335.366C127.275 332.513 124.957 324.726 127.929 322.348C128.404 321.992 128.88 321.873 129.712 321.635L129.831 321.576C131.614 321.1 135.419 320.09 137.796 321.992C139.342 323.24 139.639 325.38 140.174 329.66C140.531 332.513 140.649 335.188 140.649 336.912C140.649 338.101 140.649 338.933 140.59 339.468C145.405 341.31 150.398 343.034 155.272 344.58C161.098 346.422 167.042 348.027 172.986 349.395C173.343 349.454 173.64 349.811 173.64 350.167L173.818 352.842C173.937 354.388 174.056 355.993 174.175 357.538C174.175 357.776 174.115 358.014 173.937 358.192C173.759 358.43 173.521 358.549 173.224 358.549ZM108.67 356.765H172.332C172.273 355.517 172.154 354.269 172.094 353.021L171.975 351C166.21 349.632 160.444 348.087 154.797 346.304C149.744 344.758 144.692 342.975 139.758 341.073C139.698 341.073 139.698 341.073 139.639 341.073C139.58 341.073 138.807 341.073 138.688 340.181C138.688 340.003 138.688 339.824 138.807 339.646C138.926 338.457 139.045 334.356 138.45 329.957C137.975 326.272 137.737 324.191 136.726 323.418C135.002 322.051 131.793 322.883 130.307 323.299L130.188 323.359C129.534 323.537 129.237 323.597 129.118 323.716C127.513 325.023 128.523 330.551 130.128 335.128C130.188 335.366 130.188 335.604 130.128 335.782C129.831 336.496 128.107 340.003 124.838 340.419C123.352 340.597 121.747 340.122 120.32 339.052C119.013 338.041 117.943 336.555 117.289 334.831L108.67 356.765Z" fill="#252362"/>
<path d="M107.362 352.961V357.657H173.283C173.164 356.111 173.045 354.506 172.986 352.961H107.362Z" fill="white"/>
<path d="M173.224 358.549H107.362C106.886 358.549 106.47 358.133 106.47 357.658V352.962C106.47 352.486 106.886 352.07 107.362 352.07H172.927C173.402 352.07 173.759 352.427 173.818 352.902C173.937 354.448 174.056 356.053 174.175 357.598C174.175 357.836 174.115 358.074 173.937 358.252C173.759 358.431 173.521 358.549 173.224 358.549ZM108.254 356.766H172.332C172.273 355.815 172.213 354.805 172.154 353.854H108.254V356.766Z" fill="#252362"/>
<path d="M173.343 261.599C173.521 263.621 173.996 282.701 184.161 354.151H192.84L183.091 248.403L173.343 261.599Z" fill="white"/>
<path d="M192.84 354.686H184.161C183.923 354.686 183.685 354.508 183.626 354.211C179.406 324.609 174.175 284.664 172.867 262.611C172.867 262.135 172.808 261.778 172.808 261.6C172.808 261.481 172.808 261.362 172.926 261.243L182.675 248.047C182.794 247.869 183.032 247.81 183.269 247.869C183.507 247.928 183.626 248.107 183.626 248.345L193.375 354.092C193.375 354.211 193.315 354.389 193.256 354.508C193.137 354.627 192.958 354.686 192.84 354.686ZM184.637 353.617H192.245L182.675 249.831L173.878 261.778C173.878 261.957 173.878 262.254 173.937 262.611C175.245 284.485 180.476 324.074 184.637 353.617Z" fill="#252362"/>
<path d="M186.836 158.23C189.63 156.209 196.406 151.988 205.739 151.572C209.008 151.453 212.812 152.107 220.48 153.474C223.868 154.069 226.781 154.723 226.841 155.614C226.841 156.149 225.83 156.565 224.998 156.863C226.841 156.684 228.267 157.457 228.505 158.349C228.683 159.003 228.148 159.597 227.97 159.775C227.97 159.775 231.477 161.975 227.613 163.52C227.613 163.52 230.645 165.601 226.246 167.206C221.847 168.811 207.819 168.097 207.819 168.097C207.819 168.097 193.791 169.94 187.014 167.919C186.301 167.681 185.35 167.325 184.696 166.552C182.318 163.758 186.301 158.884 186.836 158.23Z" fill="white"/>
<path d="M195.99 169.464C192.661 169.464 189.273 169.226 186.836 168.513C185.647 168.156 184.815 167.68 184.221 166.967C181.724 163.995 185.291 159.299 186.42 157.932C186.479 157.873 186.479 157.873 186.539 157.813C190.521 154.96 197.12 151.393 205.739 151.037C209.067 150.858 212.931 151.572 220.599 152.998C225.771 153.949 227.376 154.544 227.435 155.673C227.435 156.03 227.316 156.268 227.078 156.565C228.089 156.862 228.921 157.516 229.099 158.289C229.218 158.764 229.159 159.24 228.862 159.775C229.397 160.25 230.169 161.082 230.05 162.033C229.991 162.687 229.515 163.282 228.743 163.757C229.099 164.173 229.397 164.708 229.278 165.422C229.159 166.432 228.267 167.205 226.484 167.859C222.085 169.464 208.949 168.869 207.819 168.81C207.106 168.75 201.637 169.464 195.99 169.464ZM187.252 158.705C186.658 159.418 183.151 163.876 185.112 166.135C185.528 166.67 186.242 167.027 187.133 167.324C193.731 169.285 207.522 167.502 207.7 167.502C207.76 167.502 207.76 167.502 207.819 167.502C207.938 167.502 221.788 168.156 226.068 166.611C227.257 166.194 227.97 165.659 228.089 165.184C228.148 164.708 227.554 164.173 227.316 163.995C227.138 163.876 227.019 163.638 227.078 163.401C227.078 163.163 227.257 162.985 227.435 162.925C228.327 162.568 228.802 162.212 228.862 161.796C228.921 161.261 228.089 160.547 227.673 160.25C227.494 160.131 227.435 160.012 227.376 159.834C227.376 159.656 227.435 159.477 227.554 159.359C227.673 159.24 228.029 158.824 227.911 158.526C227.792 157.991 226.603 157.338 225.057 157.456C224.76 157.456 224.463 157.278 224.403 156.981C224.344 156.684 224.522 156.386 224.82 156.268C225.711 155.97 226.068 155.733 226.187 155.614C225.711 155.198 223.75 154.663 220.421 154.068C212.812 152.701 209.008 151.988 205.858 152.166C197.476 152.523 191.116 155.911 187.252 158.705Z" fill="#252362"/>
<path d="M224.938 157.458C225.236 157.458 225.533 157.221 225.533 156.923C225.592 156.567 225.355 156.27 224.998 156.27L211.742 154.784C211.386 154.724 211.088 154.962 211.088 155.319C211.029 155.675 211.267 155.972 211.623 155.972L224.879 157.458H224.938Z" fill="#252362"/>
<path d="M227.97 159.182L212.634 157.934C212.277 157.934 211.98 158.171 211.98 158.469C211.98 158.825 212.218 159.122 212.515 159.122L227.851 160.371H227.911C228.208 160.371 228.505 160.133 228.505 159.836C228.565 159.479 228.327 159.182 227.97 159.182Z" fill="#252362"/>
<path d="M227.673 162.867L214.417 161.976C214.061 161.976 213.823 162.213 213.763 162.57C213.763 162.927 214.001 163.164 214.358 163.224L227.613 164.116C227.613 164.116 227.613 164.116 227.673 164.116C227.97 164.116 228.267 163.878 228.267 163.521C228.208 163.164 227.97 162.867 227.673 162.867Z" fill="#252362"/>
<path d="M196.703 175.228C194.207 175.823 191.77 176.298 189.511 176.774C182.378 178.081 176.374 178.735 171.857 179.092C170.133 179.211 168.468 179.33 166.863 179.449C160.444 179.865 154.797 180.103 149.387 179.627C144.038 179.151 138.926 177.963 133.635 175.585C132.922 175.228 132.209 174.931 131.495 174.515C127.691 172.434 123.887 169.522 117.348 164.41C116.159 163.459 115.03 162.567 113.901 161.735C109.918 158.584 106.47 155.85 103.558 153.294C95.1168 146.042 90.7181 140.573 89.9453 133.5C89.5887 130.231 89.5292 122.384 97.9106 112.16C99.8722 113.111 102.844 114.657 106.173 116.916C108.729 118.699 110.928 120.482 112.831 122.146C116.575 125.535 118.894 128.447 119.904 129.636C120.855 130.825 122.044 132.073 123.411 133.44C126.918 136.948 131.911 141.108 139.045 145.804C141.898 147.647 145.048 149.609 148.674 151.63C158.007 152.105 167.28 152.521 176.612 152.997C181.783 153.235 186.955 153.532 192.186 153.77C192.78 153.829 193.375 153.829 193.969 153.829C194.742 161.022 195.693 168.155 196.703 175.228Z" fill="#77CBD8"/>
<path d="M155.688 180.638C153.43 180.638 151.349 180.578 149.209 180.4C143.324 179.865 138.272 178.557 133.219 176.239C132.506 175.882 131.793 175.526 131.079 175.169C127.097 173.029 123.114 169.938 116.813 165.004L113.366 162.33C109.205 159.06 105.876 156.326 102.963 153.889C94.998 147.053 89.9454 141.287 89.0538 133.619C88.5188 128.804 89.5293 121.077 97.1973 111.685C97.4351 111.388 97.7917 111.328 98.0889 111.507C101.002 112.874 103.795 114.538 106.47 116.321C108.789 117.926 111.047 119.71 113.187 121.612C116.694 124.762 119.013 127.556 120.083 128.923L120.32 129.22C121.331 130.469 122.52 131.717 123.768 132.965C127.81 137.007 133.041 141.168 139.223 145.21C142.136 147.112 145.286 149.015 148.615 150.917L193.731 153.116C194.088 153.116 194.385 153.413 194.445 153.77L197.298 175.11C197.357 175.466 197.12 175.882 196.703 175.942C194.266 176.536 191.829 177.012 189.452 177.487C183.567 178.617 177.563 179.389 171.678 179.806L171.262 179.865C169.717 179.984 168.171 180.103 166.685 180.222C162.762 180.459 159.136 180.638 155.688 180.638ZM98.0889 113.052C91.0748 121.79 90.1831 128.923 90.6587 133.381C91.4314 140.574 96.3651 146.102 104.033 152.7C106.886 155.137 110.215 157.812 114.376 161.081L117.824 163.756C124.006 168.63 127.988 171.721 131.852 173.802C132.565 174.159 133.219 174.515 133.933 174.812C138.807 177.012 143.741 178.32 149.447 178.795C154.678 179.271 160.147 179.033 166.804 178.617C168.29 178.498 169.776 178.379 171.381 178.26L171.797 178.201C177.623 177.785 183.567 177.012 189.392 175.882C191.532 175.466 193.731 175.05 195.871 174.515L193.196 154.483L148.555 152.284C148.436 152.284 148.318 152.224 148.199 152.165C144.751 150.263 141.541 148.301 138.569 146.34C132.268 142.179 126.978 138.018 122.817 133.857C121.569 132.549 120.38 131.301 119.31 129.993L119.072 129.696C118.002 128.388 115.743 125.654 112.296 122.563C110.215 120.661 108.016 118.937 105.757 117.391C103.26 115.846 100.704 114.36 98.0889 113.052Z" fill="#252362"/>
<path d="M189.452 177.308C189.392 177.308 189.273 177.308 189.214 177.249C188.917 177.13 188.798 176.773 188.917 176.535C191.889 169.937 192.78 161.496 191.413 153.888C191.354 153.591 191.532 153.293 191.889 153.234C192.186 153.174 192.483 153.353 192.543 153.709C193.969 161.496 193.018 170.175 189.987 177.011C189.927 177.189 189.689 177.308 189.452 177.308Z" fill="white"/>
<path d="M178.574 168.692C178.395 168.692 178.217 168.632 178.157 168.454C177.979 168.216 173.164 161.796 175.958 152.821C176.077 152.523 176.374 152.345 176.671 152.464C176.969 152.583 177.147 152.88 177.028 153.177C174.472 161.618 179.049 167.741 179.049 167.8C179.227 168.038 179.168 168.394 178.93 168.573C178.811 168.692 178.692 168.692 178.574 168.692Z" fill="white"/>
<path d="M166.804 179.986C166.626 179.986 166.447 179.867 166.328 179.688L165.972 179.094C162.108 172.496 158.125 165.601 150.933 165.898C148.08 166.017 145.286 166.492 142.611 167.384C137.558 168.989 133.576 171.723 131.911 174.695C131.733 174.992 131.436 175.052 131.139 174.933C130.841 174.755 130.782 174.457 130.901 174.16C132.684 170.95 136.905 167.978 142.254 166.314C145.048 165.422 147.961 164.887 150.873 164.768C158.72 164.471 163.059 171.901 166.923 178.5L167.28 179.094C167.458 179.332 167.339 179.688 167.101 179.867C166.982 179.986 166.923 179.986 166.804 179.986Z" fill="white"/>
<path d="M149.328 180.224C149.09 180.224 148.912 180.105 148.793 179.867C147.248 176.241 144.573 171.664 141.957 167.206L141.779 166.909C140.59 164.828 139.282 162.629 138.153 160.548C134.051 153.118 126.562 156.625 119.31 159.954C117.467 160.786 115.743 161.618 114.079 162.213C113.782 162.332 113.484 162.153 113.366 161.856C113.247 161.559 113.425 161.262 113.722 161.143C115.327 160.548 117.051 159.716 118.894 158.884C126.265 155.496 134.586 151.632 139.163 159.954C140.293 162.035 141.601 164.174 142.789 166.255L142.968 166.552C145.583 171.01 148.258 175.647 149.863 179.332C149.982 179.629 149.863 179.927 149.566 180.046C149.447 180.224 149.388 180.224 149.328 180.224Z" fill="white"/>
<path d="M107.837 140.039C104.211 140.039 101.953 138.731 100.764 137.84C97.8511 135.522 96.6623 131.717 97.8511 128.388C99.1589 124.644 102.844 123.93 106.767 123.158C108.729 122.801 110.691 122.385 112.533 121.672C112.831 121.553 113.128 121.672 113.247 121.969C113.366 122.266 113.247 122.563 112.949 122.682C110.988 123.514 108.967 123.871 106.946 124.287C103.201 125 99.9316 125.595 98.8617 128.745C97.8511 131.658 98.8616 134.927 101.418 136.948C103.439 138.553 109.442 141.525 120.915 134.214C121.569 133.798 122.282 133.382 123.055 132.966C123.352 132.847 123.649 132.906 123.827 133.203C123.946 133.501 123.887 133.798 123.59 133.976C122.876 134.333 122.163 134.749 121.569 135.165C115.743 138.91 111.166 140.039 107.837 140.039Z" fill="white"/>
<path d="M103.498 153.83C103.439 153.83 103.439 153.83 103.379 153.83C103.082 153.771 102.904 153.473 102.963 153.176C104.093 147.945 110.869 148.005 118.775 148.064C125.135 148.124 132.328 148.243 138.093 145.627C138.272 145.508 138.51 145.449 138.688 145.33C138.985 145.211 139.282 145.27 139.461 145.568C139.58 145.865 139.52 146.162 139.223 146.34C139.045 146.459 138.807 146.578 138.569 146.638C132.625 149.312 125.313 149.253 118.834 149.194C111.107 149.134 105.044 149.015 104.093 153.414C103.974 153.652 103.795 153.83 103.498 153.83Z" fill="white"/>
<path d="M144.454 98.8452C142.849 100.272 140.709 100.688 138.688 100.628C135.835 100.628 133.1 99.6774 132.328 99.4396V111.566C125.254 111.447 118.18 111.387 111.166 111.269C111.939 106.038 112.771 100.807 113.544 95.5759C113.425 95.457 113.247 95.3976 113.128 95.2787C107.302 91.1177 102.725 84.6385 102.428 77.2677C102.131 69.5997 106.292 59.6134 115.208 56.6413C121.925 54.3825 129.95 56.5819 134.051 61.2778C134.111 61.3372 134.17 61.4561 134.467 61.8128C136.607 64.6065 142.254 71.9774 144.751 81.3692C146.475 87.6701 148.496 95.2787 144.454 98.8452Z" fill="white"/>
<path d="M132.328 112.456L111.107 112.159C110.869 112.159 110.631 112.04 110.453 111.862C110.275 111.684 110.215 111.386 110.275 111.149L112.593 95.991C105.876 91.1762 101.834 84.3998 101.537 77.3262C101.18 69.1826 105.757 58.8991 114.911 55.8675C121.747 53.6087 130.247 55.6892 134.705 60.7418C134.765 60.8012 134.884 60.9201 135.181 61.3362C137.38 64.1894 143.087 71.6792 145.643 81.1899C147.366 87.6096 149.447 95.5749 145.048 99.4981C143.503 100.865 141.363 101.519 138.747 101.519H138.688C136.607 101.519 134.646 101.044 133.219 100.627V111.505C133.219 111.743 133.1 111.981 132.981 112.1C132.744 112.338 132.565 112.456 132.328 112.456ZM112.117 110.376L131.436 110.614V99.3792C131.436 99.082 131.555 98.8442 131.793 98.6659C132.03 98.4875 132.328 98.4875 132.565 98.547C133.516 98.9036 136.072 99.6764 138.628 99.6764C140.887 99.6764 142.611 99.1414 143.8 98.0715C147.426 94.8616 145.464 87.4908 143.859 81.5465C141.422 72.333 135.835 65.0216 133.695 62.2873C133.398 61.9306 133.338 61.8118 133.279 61.7523C129.237 57.1753 121.509 55.2731 115.327 57.3536C107.005 60.1474 102.844 69.5987 103.141 77.0884C103.439 83.627 107.184 89.9279 113.484 94.4455C113.603 94.5644 113.722 94.6238 113.841 94.6833C114.138 94.8616 114.257 95.2182 114.257 95.5749L112.117 110.376Z" fill="#252362"/>
<path d="M162.584 327.817C155.51 330.849 146.534 332.097 138.331 332.513C126.265 333.108 115.922 331.919 115.922 331.919L132.03 241.745C118.715 244.42 101.953 246.441 86.9138 247.154C72.4694 242.339 57.3711 231.164 83.169 206.377C106.827 206.912 150.636 208.22 155.451 210.657C157.234 211.548 159.017 213.153 160.384 215.234C165.318 219.633 167.22 233.839 167.517 250.78C168.052 284.068 162.584 327.817 162.584 327.817Z" fill="#252362"/>
<path d="M131.198 332.93C122.52 332.93 115.922 332.157 115.862 332.157H115.624L115.684 331.919L131.733 242.043C118.418 244.718 101.715 246.679 86.9138 247.393H86.8543H86.7949C76.5708 243.945 70.6266 239.011 69.2595 232.77C67.6545 225.518 72.2316 216.542 82.9906 206.259L83.05 206.199H83.1689C108.135 206.734 150.755 208.042 155.51 210.479C157.353 211.43 159.195 213.095 160.503 215.056C164.902 219.039 167.339 231.046 167.696 250.721C168.29 283.652 162.881 327.402 162.821 327.818V327.937L162.703 327.996C156.58 330.612 148.377 332.217 138.331 332.752C135.835 332.93 133.457 332.93 131.198 332.93ZM116.159 331.741C117.824 331.919 127.394 332.87 138.272 332.276C148.199 331.741 156.283 330.196 162.346 327.639C162.702 324.905 167.815 282.761 167.22 250.721C166.863 231.105 164.486 219.217 160.206 215.353L160.146 215.294C158.839 213.392 157.115 211.727 155.272 210.836C150.576 208.458 108.135 207.15 83.2284 206.615C72.6477 216.78 68.0706 225.518 69.6756 232.651C71.0427 238.774 76.8086 243.529 86.9138 246.917C101.834 246.204 118.656 244.183 131.971 241.508L132.328 241.448L132.268 241.805L116.159 331.741Z" fill="#252362"/>
<path d="M135.002 333.168C134.705 333.168 134.467 332.989 134.408 332.692C134.349 332.395 134.467 332.098 134.765 331.979C138.034 330.493 141.006 329.007 143.503 327.58C143.503 327.58 147.366 325.262 150.814 322.409C152.954 320.685 156.461 313.849 159.968 299.88C162.465 289.953 165.675 273.309 166.863 250.721C166.863 250.365 167.161 250.127 167.517 250.127C167.874 250.127 168.112 250.424 168.112 250.721C168.766 283.712 162.702 327.461 162.643 327.877C162.584 328.115 162.465 328.293 162.227 328.353C155.391 331.028 146.237 332.633 135.002 333.168ZM166.626 268.851C165.08 282.523 162.94 293.044 161.157 300.177C158.125 312.244 154.559 320.923 151.587 323.36C148.08 326.272 144.157 328.65 144.097 328.65C142.314 329.661 140.412 330.671 138.272 331.682C147.664 331.028 155.451 329.601 161.454 327.342C161.93 323.835 165.615 295.957 166.626 268.851Z" fill="white"/>
<path d="M107.005 253.932H100.823V334.357H107.005V253.932Z" fill="white"/>
<path d="M107.005 334.892H100.823C100.526 334.892 100.288 334.654 100.288 334.357V253.931C100.288 253.634 100.526 253.396 100.823 253.396H107.005C107.302 253.396 107.54 253.634 107.54 253.931V334.357C107.54 334.654 107.302 334.892 107.005 334.892ZM101.358 333.822H106.47V254.466H101.358V333.822Z" fill="#252362"/>
<path d="M60.7592 279.67L177.028 271.527V253.932L62.483 264.334L60.7592 279.67Z" fill="white"/>
<path d="M60.7592 280.205C60.6403 280.205 60.462 280.145 60.4025 280.027C60.2836 279.908 60.2242 279.729 60.2836 279.61L62.0075 264.274C62.0075 264.037 62.2452 263.858 62.483 263.799L176.969 253.396C177.147 253.396 177.266 253.456 177.385 253.515C177.504 253.634 177.563 253.753 177.563 253.931V271.467C177.563 271.764 177.325 272.002 177.087 272.002L60.7592 280.205ZM62.9585 264.809L61.3536 279.075L176.493 270.991V254.526L62.9585 264.809Z" fill="#252362"/>
<path d="M69.3784 255.178C69.3784 255.178 69.8539 238.831 99.575 233.184C129.237 227.478 172.332 236.87 179.227 244.3C186.182 251.73 194.801 257.674 166.388 263.084C137.915 268.552 113.425 271.465 100.11 269.503C86.7355 267.542 71.3994 266.293 69.3784 255.178Z" fill="white"/>
<path d="M109.977 270.693C106.114 270.693 102.785 270.515 99.991 270.099C98.921 269.92 97.8511 269.802 96.7811 269.623C84.0011 267.781 70.7455 265.938 68.8433 255.298C68.8433 255.238 68.8433 255.238 68.8433 255.179C68.8433 255 69.0216 250.84 72.9448 245.965C76.5114 241.507 84.0011 235.622 99.5155 232.65C112.771 230.094 130.425 230.332 148.08 233.304C163.416 235.86 176.136 240.14 179.703 243.944C180.238 244.539 180.832 245.133 181.367 245.668C184.518 248.937 187.549 252.028 186.539 255.06C185.409 258.567 179.287 261.182 166.507 263.62C141.898 268.375 122.995 270.693 109.977 270.693ZM69.9727 255.179C71.756 264.987 84.536 266.77 96.9594 268.553C98.0294 268.732 99.0994 268.85 100.169 269.029C112.355 270.812 134.586 268.672 166.269 262.609C178.217 260.35 184.458 257.735 185.409 254.763C186.182 252.326 183.388 249.472 180.476 246.441C179.941 245.846 179.346 245.311 178.811 244.717C172.332 237.822 129.89 227.954 99.6938 233.78C71.5777 239.129 70.0322 254.168 69.9727 255.179Z" fill="#252362"/>
<path d="M243.187 346.244L223.334 301.663L204.966 300.652L219.708 338.22C220.243 339.349 222.799 344.64 229.04 347.077C236.114 349.811 242.296 346.72 243.187 346.244Z" fill="white"/>
<path d="M235.103 349.097C233.142 349.097 231.002 348.8 228.743 347.908C222.68 345.53 219.886 340.597 218.935 338.635V338.576L204.193 301.008C204.074 300.711 204.134 300.414 204.312 300.176C204.49 299.938 204.788 299.819 205.085 299.819L223.452 300.83C223.809 300.83 224.106 301.068 224.225 301.365L244.079 346.006C244.257 346.422 244.079 346.957 243.663 347.135C242.474 347.611 239.205 349.097 235.103 349.097ZM220.54 337.862C221.372 339.705 223.928 344.104 229.337 346.244C234.925 348.443 239.858 346.779 242.058 345.828L222.739 302.494L206.274 301.603L220.54 337.862Z" fill="#252362"/>
<path d="M217.033 331.861C217.627 336.794 221.194 339.945 224.285 339.529C227.197 339.113 228.802 335.724 228.921 335.368C228.564 334.357 225.354 325.203 228.148 323.004C228.445 322.766 228.862 322.647 229.694 322.409C231.358 321.993 234.865 321.042 236.946 322.707C238.253 323.717 238.491 325.738 239.026 329.84C239.739 335.189 239.442 340.183 239.323 340.183C239.323 340.183 239.323 340.123 239.264 340.064C244.138 341.906 249.31 343.749 254.778 345.473C261.02 347.434 267.023 348.98 272.67 350.288C272.73 351.179 272.789 352.071 272.849 352.963C272.968 354.508 273.087 356.113 273.205 357.658H206.927C210.316 349.039 213.644 340.42 217.033 331.861Z" fill="white"/>
<path d="M273.265 358.548H206.927C206.63 358.548 206.333 358.429 206.214 358.191C206.036 357.953 206.036 357.656 206.095 357.359L216.2 331.561C216.319 331.204 216.735 330.967 217.151 331.026C217.568 331.085 217.865 331.383 217.924 331.799C218.221 334.236 219.351 336.376 220.956 337.683C221.966 338.456 223.155 338.872 224.166 338.694C226.187 338.397 227.554 336.197 227.97 335.365C226.959 332.512 224.641 324.725 227.613 322.347C228.089 321.991 228.564 321.872 229.397 321.634L229.515 321.575C231.358 321.099 235.103 320.148 237.54 321.991C239.086 323.239 239.383 325.379 239.918 329.659C240.274 332.512 240.393 335.187 240.393 336.911C240.393 338.1 240.393 338.932 240.334 339.467C245.208 341.309 250.201 343.033 255.135 344.579C261.02 346.421 266.964 348.026 272.968 349.394C273.324 349.453 273.621 349.81 273.621 350.166L273.859 353.376C273.978 354.803 274.038 356.17 274.156 357.597C274.156 357.834 274.097 358.072 273.919 358.25C273.74 358.429 273.503 358.548 273.265 358.548ZM208.235 356.764H272.314C272.254 355.694 272.135 354.565 272.076 353.495L271.898 350.939C266.132 349.572 260.306 348.026 254.6 346.243C249.547 344.698 244.435 342.914 239.502 341.012C239.442 341.012 239.442 341.012 239.383 341.012C239.323 341.012 238.551 341.012 238.491 340.121C238.491 339.942 238.491 339.764 238.61 339.586C238.729 338.397 238.848 334.295 238.253 329.897C237.778 326.211 237.481 324.131 236.53 323.358C234.806 321.991 231.596 322.823 230.05 323.239L229.932 323.298C229.278 323.477 228.98 323.536 228.802 323.655C227.257 324.903 228.148 330.313 229.813 335.068C229.872 335.306 229.872 335.544 229.813 335.722C229.515 336.435 227.792 339.942 224.463 340.358C222.977 340.537 221.312 340.061 219.945 338.991C218.638 337.981 217.568 336.495 216.914 334.771L208.235 356.764Z" fill="#252362"/>
<path d="M206.927 352.961V357.657H273.265C273.146 356.111 273.027 354.506 272.908 352.961H206.927Z" fill="white"/>
<path d="M273.265 358.549H206.927C206.452 358.549 206.036 358.133 206.036 357.658V352.962C206.036 352.486 206.452 352.07 206.927 352.07H272.908C273.384 352.07 273.74 352.427 273.8 352.902L273.859 353.437C273.978 354.805 274.038 356.231 274.156 357.598C274.156 357.836 274.097 358.074 273.919 358.252C273.74 358.431 273.503 358.549 273.265 358.549ZM207.819 356.766H272.314C272.254 355.815 272.195 354.805 272.135 353.854H207.819V356.766Z" fill="#252362"/>
<path d="M213.347 222.546C211.861 218.088 207.879 214.997 203.183 214.58C188.084 213.332 175.661 212.262 166.745 211.489C139.223 209.052 108.254 206.14 108.254 206.14C105.519 206.675 102.725 207.15 99.9316 207.626C91.0153 209.112 82.3962 210.182 74.1337 210.895C72.6477 214.164 62.1859 238.298 72.7071 249.414C76.2142 253.099 80.7318 254.05 85.7249 254.823C110.453 258.627 131.317 255.833 141.838 254.823C152.419 253.812 167.993 253.099 187.43 255.12C194.504 277.946 201.518 300.771 208.592 323.597C210.316 324.727 219.054 330.255 230.348 327.877C238.67 326.153 243.722 321.101 245.505 319.139C237.183 301.188 234.449 285.673 231.061 275.509C225.176 257.854 219.232 240.2 213.347 222.546Z" fill="#252362"/>
<path d="M224.641 329.006C216.795 329.006 210.791 325.737 208.295 324.013L208.116 323.894L208.057 323.716L187.014 255.536C171.678 253.931 156.461 253.872 141.838 255.298C140.887 255.417 139.817 255.476 138.688 255.595C127.275 256.784 108.135 258.746 85.606 255.298C80.4346 254.525 75.8575 253.515 72.291 249.77C61.8292 238.773 71.5777 215.294 73.5987 210.657L73.7176 210.36H74.0148C82.6339 209.587 91.3125 208.458 99.8127 207.091C102.606 206.615 105.4 206.139 108.135 205.604H108.253H108.313C109.621 205.723 139.936 208.577 166.745 210.954C178.752 212.024 190.997 213.035 203.183 214.045C208.057 214.461 212.218 217.731 213.763 222.367C219.648 239.903 225.592 257.735 231.477 275.33C232.488 278.362 233.439 281.809 234.509 285.792C237.005 294.946 240.096 306.359 245.921 318.901L246.04 319.198L245.803 319.436C243.425 322.052 238.253 326.688 230.348 328.352C228.386 328.828 226.484 329.006 224.641 329.006ZM209.008 323.3C212.158 325.321 220.124 329.541 230.229 327.401C237.6 325.856 242.474 321.636 244.911 319.02C239.145 306.478 236.054 295.184 233.617 286.03C232.547 282.047 231.596 278.659 230.585 275.627C224.701 258.032 218.756 240.2 212.872 222.664C211.445 218.385 207.641 215.412 203.123 215.056C190.938 214.045 178.692 212.975 166.685 211.965C140.174 209.647 110.215 206.793 108.253 206.615C105.519 207.15 102.725 207.626 99.991 208.101C91.5503 209.528 82.9906 210.598 74.4309 211.37C72.1721 216.423 63.1964 238.714 73.0638 249.057C76.452 252.623 80.8507 253.515 85.7844 254.288C108.194 257.735 127.216 255.774 138.628 254.585C139.758 254.466 140.828 254.347 141.779 254.288C156.58 252.861 171.916 252.92 187.49 254.585L187.847 254.644L187.965 254.941L209.008 323.3Z" fill="white"/>
<path d="M155.688 139.029C155.034 145.687 152.835 157.219 150.874 167.027C149.447 174.279 148.199 180.579 147.901 183.314C147.783 184.443 147.604 185.691 147.485 187.059C146.95 192.884 146.772 200.552 147.723 209.706C146.237 212.559 143.087 218.087 137.737 223.794C133.398 228.43 127.632 233.126 120.083 236.752C93.8685 249.176 68.6651 237.109 65.3958 235.444C66.8818 228.43 68.249 221.773 69.4973 215.472C72.4099 201.146 74.8471 188.485 76.8681 177.548C78.1164 170.89 79.1863 164.827 80.1374 159.418C80.4941 157.575 80.7913 155.792 81.0885 154.128C82.099 148.302 83.169 142.001 84.5956 135.998C87.5677 123.574 92.1447 112.518 101.061 109.784C101.299 109.724 101.537 109.665 101.953 109.546C103.023 109.368 105.103 109.308 110.096 109.784C128.583 111.508 150.22 113.35 155.451 125.536C156.283 127.557 156.639 129.459 155.688 139.029Z" fill="#77CBD8"/>
<path d="M95.0575 242.993C79.9592 242.993 68.1302 237.584 65.0392 236.038C64.742 235.919 64.6231 235.622 64.6825 235.325C66.0497 228.786 67.4169 222.069 68.784 215.352C71.4589 202.156 73.896 189.436 76.1548 177.428C77.2842 171.246 78.4136 165.183 79.4242 159.299C79.7808 157.456 80.078 155.673 80.3752 154.008L80.5536 153.057C81.5641 147.41 82.5746 141.525 83.9418 135.878C86.3195 125.892 90.7182 112.28 100.823 109.189C101.061 109.129 101.358 109.01 101.834 108.951C102.785 108.832 104.687 108.713 110.156 109.189L110.81 109.248C129.534 110.972 150.695 112.934 156.045 125.298C156.937 127.438 157.293 129.459 156.342 139.088C155.629 146.043 153.192 158.764 151.527 167.145L151.29 168.453C149.982 175.11 148.853 180.817 148.555 183.373C148.377 184.621 148.258 185.869 148.139 187.117C147.485 194.429 147.604 202.037 148.377 209.646C148.377 209.765 148.377 209.884 148.318 210.003C145.643 215.174 142.195 219.989 138.212 224.209C133.041 229.737 127.037 234.136 120.32 237.287C111.582 241.507 102.904 242.993 95.0575 242.993ZM66.1091 235.028C71.6967 237.762 95.3547 247.689 119.785 236.098C126.324 233.007 132.209 228.668 137.261 223.318C141.125 219.216 144.454 214.58 147.069 209.587C146.297 201.919 146.178 194.31 146.832 186.999C146.95 185.75 147.069 184.502 147.248 183.254C147.545 180.638 148.674 174.932 149.982 168.274L150.22 166.967C151.884 158.585 154.321 145.924 155.035 139.029C155.926 129.696 155.688 127.794 154.856 125.892C149.804 114.241 129.058 112.339 110.75 110.615L110.096 110.556C106.054 110.199 103.439 110.08 102.072 110.318C101.715 110.378 101.477 110.437 101.299 110.497C94.0469 112.696 88.9943 120.899 85.3089 136.235C83.9418 141.882 82.9313 147.707 81.9802 153.354L81.8019 154.305C81.5046 156.029 81.2074 157.753 80.8508 159.596C79.8403 165.481 78.7109 171.544 77.5815 177.726C75.3821 189.673 72.8855 202.454 70.2106 215.65C68.784 222.129 67.4763 228.667 66.1091 235.028Z" fill="#252362"/>
<path d="M110.096 110.497V103.424L138.688 106.871L135.003 113.41C135.003 113.351 122.817 118.344 110.096 110.497Z" fill="#77CBD8"/>
<path d="M125.611 115.549C121.093 115.549 115.446 114.598 109.74 111.032C109.561 110.913 109.442 110.675 109.442 110.437V103.364C109.442 103.186 109.502 103.007 109.68 102.888C109.799 102.769 110.037 102.71 110.215 102.71L138.807 106.158C139.045 106.158 139.223 106.336 139.342 106.514C139.461 106.693 139.461 106.93 139.342 107.168L135.656 113.707C135.597 113.826 135.478 113.945 135.3 114.004C135.181 114.004 131.317 115.549 125.611 115.549ZM110.75 110.14C122.044 116.857 132.922 113.469 134.527 112.875L137.618 107.406L110.75 104.196V110.14Z" fill="#252362"/>
<path d="M187.49 255.656C187.312 255.656 187.133 255.596 187.014 255.418C186.777 255.121 186.836 254.764 187.133 254.526C187.193 254.467 194.326 248.939 196.585 245.788C196.763 245.491 197.179 245.432 197.476 245.61C197.773 245.788 197.833 246.204 197.654 246.502C195.336 249.83 188.263 255.299 187.965 255.537C187.728 255.656 187.609 255.656 187.49 255.656Z" fill="white"/>
<path d="M199.022 222.071C198.843 222.071 198.724 222.011 198.606 221.893C196.287 219.812 175.483 217.672 162.049 216.781C161.692 216.781 161.454 216.483 161.454 216.127C161.454 215.77 161.751 215.532 162.108 215.532C165.556 215.77 196.05 217.969 199.378 220.941C199.616 221.179 199.676 221.595 199.438 221.833C199.378 222.011 199.2 222.071 199.022 222.071Z" fill="white"/>
<path d="M210.851 233.601C210.791 233.601 210.732 233.601 210.672 233.541C210.316 233.423 210.137 233.066 210.256 232.769C210.553 231.877 207.522 229.143 204.55 227.241C204.253 227.062 204.193 226.646 204.371 226.349C204.55 226.052 204.966 225.992 205.263 226.171C206.927 227.241 212.218 230.926 211.445 233.185C211.386 233.423 211.148 233.601 210.851 233.601Z" fill="white"/>
<path d="M206.273 296.195C206.036 296.195 205.738 296.017 205.679 295.779L196.109 267.782C195.99 267.425 196.168 267.069 196.525 266.95C196.882 266.831 197.238 267.009 197.357 267.366L206.927 295.363C207.046 295.72 206.868 296.076 206.511 296.195C206.392 296.195 206.333 296.195 206.273 296.195Z" fill="white"/>
<path d="M210.851 308.44C210.553 308.44 210.316 308.262 210.256 308.024L207.284 298.81C207.165 298.454 207.344 298.097 207.7 298.038C208.057 297.919 208.414 298.097 208.473 298.454L211.445 307.667C211.564 308.024 211.386 308.381 211.029 308.44C211.029 308.381 210.91 308.44 210.851 308.44Z" fill="white"/>
<path d="M87.8648 158.23L86.7354 157.992C89.3509 144.915 94.5818 124.526 94.6412 124.348L95.7706 124.645C95.7112 124.883 90.4208 145.212 87.8648 158.23Z" fill="#252362"/>
<path d="M86.712 161.245L84.7372 167.166L85.865 167.542L87.8398 161.622L86.712 161.245Z" fill="#252362"/>
<path d="M117.467 158.349C117.051 158.349 116.635 158.23 116.278 157.933C115.387 157.22 115.149 155.615 115.268 153.772C113.425 154.01 111.761 154.723 111.226 156.031L110.156 155.555C110.928 153.772 113.128 152.821 115.387 152.583C115.743 149.492 116.754 146.104 117.051 145.034L118.18 145.391C117.527 147.531 116.873 150.206 116.575 152.524C116.932 152.524 117.289 152.524 117.645 152.583C119.904 152.762 121.39 153.594 121.628 154.723C121.866 155.674 121.152 156.685 119.548 157.636C118.715 158.111 118.061 158.349 117.467 158.349ZM116.457 153.772C116.338 155.377 116.457 156.625 116.992 157.101C117.467 157.458 118.299 157.101 118.953 156.685C120.201 155.912 120.558 155.318 120.499 155.02C120.38 154.545 119.31 153.951 117.527 153.832C117.17 153.772 116.813 153.772 116.457 153.772Z" fill="#252362"/>
<path d="M77.4635 218.452L74.102 232.988L75.2603 233.256L78.6217 218.72L77.4635 218.452Z" fill="#252362"/>
<path d="M238.907 103.899C248.953 99.1437 253.352 93.9723 255.492 89.9302C256.264 88.5036 258.345 84.0454 259.831 84.4021C260.544 84.5804 260.841 85.8287 261.02 86.542C261.911 90.168 259.771 93.4967 259.058 94.5667C261.852 92.6051 264.586 90.6435 267.38 88.6225C268.628 87.6119 269.758 86.9581 270.531 86.4825C272.789 85.2343 273.384 85.472 273.681 85.6504C274.275 86.007 274.454 86.8392 274.454 86.8986C274.751 88.5036 272.849 90.4652 269.877 92.0701L274.87 89.098C275.108 89.1574 275.999 89.3952 276.475 90.2868C277.01 91.2379 276.653 92.3079 276.475 92.8429C275.643 95.2205 273.087 96.1716 272.373 96.4688C272.135 96.5877 271.898 96.6472 271.719 96.6472C273.622 94.9828 275.702 94.5072 276.891 95.3989C277.01 95.4583 277.545 95.9338 277.664 96.6472C277.901 97.9549 276.713 99.6193 274.632 100.511C275.702 100.392 277.01 100.333 277.248 100.868C277.664 101.938 273.8 104.731 273.265 105.088C272.017 105.98 268.331 108.417 260.188 110.616C257.275 111.389 257.215 111.21 255.016 111.864C251.212 113.053 248.24 114.539 246.278 115.669C245.743 115.609 242.117 115.015 239.918 111.448C237.897 108.06 238.788 104.494 238.907 103.899Z" fill="white"/>
<path d="M246.397 116.381H246.338C245.624 116.263 241.82 115.609 239.561 111.864C237.421 108.416 238.135 104.79 238.372 103.78C238.432 103.601 238.551 103.483 238.729 103.364C246.754 99.5594 252.282 94.9229 255.016 89.692C255.076 89.5731 255.135 89.3948 255.254 89.2759C256.74 86.3038 258.404 83.51 260.069 83.9261C261.139 84.2233 261.495 85.6499 261.674 86.4821C262.209 88.7409 261.674 90.8808 260.96 92.6046L267.083 88.2654C268.093 87.4332 269.223 86.7199 270.352 86.1254C272.73 84.8177 273.562 84.9366 274.097 85.2932C274.929 85.7688 275.167 86.7793 275.167 86.9576C275.286 87.4926 275.167 88.087 274.87 88.6815C274.929 88.6815 274.989 88.6815 275.048 88.6815C275.583 88.8003 276.475 89.157 277.01 90.1675C277.664 91.3564 277.248 92.6641 277.069 93.1991C276.891 93.734 276.653 94.1501 276.356 94.6257C276.713 94.7446 277.01 94.8634 277.307 95.1012C277.545 95.2795 278.139 95.8145 278.317 96.7656C278.496 97.895 277.961 99.1433 276.831 100.094C277.307 100.213 277.723 100.451 277.901 100.867C278.08 101.283 278.555 102.413 273.74 105.801C270.649 108 266.191 109.902 260.485 111.388C259.118 111.745 258.404 111.923 257.75 112.042C257.037 112.221 256.502 112.28 255.373 112.637C252.401 113.588 249.488 114.836 246.754 116.381C246.575 116.322 246.456 116.381 246.397 116.381ZM239.442 104.315C239.205 105.504 238.848 108.416 240.572 111.21C242.414 114.242 245.327 114.955 246.278 115.133C249.012 113.588 251.925 112.28 254.957 111.388C256.146 111.032 256.74 110.913 257.453 110.734C258.107 110.616 258.761 110.437 260.128 110.081C263.932 109.07 269.282 107.287 273.027 104.671C275.583 102.829 276.653 101.58 276.772 101.164C276.653 101.105 276.178 100.986 274.81 101.164C274.513 101.224 274.216 101.045 274.156 100.748C274.097 100.451 274.216 100.154 274.513 100.035C276.475 99.1433 277.307 97.7167 277.188 96.825C277.129 96.3495 276.713 95.9928 276.653 95.9334C276.356 95.6956 275.88 95.5767 275.405 95.6362C274.691 96.2306 273.8 96.7061 272.73 97.0628C272.492 97.1222 272.254 97.2411 272.017 97.3006C271.719 97.36 271.482 97.2411 271.303 97.0034C271.184 96.7656 271.244 96.4684 271.422 96.2306C272.552 95.2201 273.74 94.6257 274.81 94.4473C275.405 93.9124 275.761 93.3179 275.999 92.6641C276.118 92.248 276.415 91.3563 276.059 90.5836C275.821 90.1081 275.405 89.8703 275.048 89.8109L271.838 91.713C271.363 92.0102 270.828 92.3074 270.293 92.6046C269.996 92.783 269.639 92.6641 269.461 92.3669C269.282 92.0697 269.401 91.713 269.698 91.5347L271.125 90.7025C273.027 89.3948 274.157 88.0276 273.978 87.0171C273.919 86.8387 273.8 86.3632 273.503 86.1849C273.384 86.1254 272.849 86.0066 270.947 87.0171C269.877 87.6115 268.866 88.2654 267.856 89.0975L259.534 95.0418C259.296 95.2201 258.939 95.1606 258.761 94.9823C258.523 94.804 258.523 94.4473 258.702 94.2096C259.712 92.7235 261.317 89.7514 260.604 86.6604C260.366 85.5905 260.128 85.0555 259.831 84.996C259.593 84.9366 258.702 85.2338 256.383 89.7514C256.324 89.9297 256.205 90.0486 256.146 90.2269C253.173 95.6956 247.586 100.451 239.442 104.315Z" fill="#252362"/>
<path d="M250.974 113.707C247.764 118.403 242.949 124.823 236.173 131.599C236.054 131.718 235.935 131.837 235.816 131.956C229.397 138.316 224.998 142.774 217.568 146.579C216.26 147.232 215.012 147.827 213.763 148.302C206.749 151.156 199.913 151.809 190.462 152.879C184.399 153.533 179.941 154.009 175.126 153.89C173.759 153.83 172.392 153.771 170.965 153.652C168.468 153.414 162.405 152.879 155.807 151.156C146.534 148.778 136.132 144.082 133.041 134.75C132.565 133.323 131.674 129.994 132.625 124.942C133.873 118.225 139.758 113.291 146.594 113.291H146.713C148.852 113.291 150.874 113.469 152.716 113.767C158.482 114.658 162.762 116.679 165.14 117.63C165.556 117.809 166.031 117.987 166.507 118.165C169.657 119.354 173.64 120.365 178.574 120.9C183.804 121.435 190.165 121.435 197.773 120.305C203.718 116.857 209.602 113.35 215.547 109.903C222.68 105.742 229.753 101.581 236.886 97.4199C241.582 102.829 246.278 108.298 250.974 113.707Z" fill="#77CBD8"/>
<path d="M176.493 154.603C176.018 154.603 175.542 154.603 175.066 154.603C173.699 154.544 172.332 154.484 170.846 154.365C168.29 154.128 162.227 153.593 155.569 151.869C142.73 148.54 134.943 142.893 132.328 135.047C131.377 132.075 131.198 128.568 131.852 124.942C133.16 117.868 139.342 112.756 146.475 112.697H146.594C148.615 112.697 150.695 112.875 152.716 113.172C157.888 114.004 161.93 115.669 164.367 116.679C164.724 116.798 165.021 116.917 165.259 117.036C165.675 117.214 166.091 117.392 166.566 117.571C170.192 118.879 174.175 119.83 178.455 120.246C184.161 120.84 190.521 120.662 197.357 119.711C203.242 116.263 209.127 112.815 215.012 109.368C222.145 105.207 229.278 101.046 236.351 96.8849C236.649 96.7066 237.005 96.7661 237.184 97.0038L251.271 113.291C251.45 113.529 251.509 113.885 251.331 114.123C246.991 120.543 241.939 126.606 236.47 132.134C236.411 132.194 236.292 132.312 236.232 132.372L236.173 132.431C229.813 138.732 225.236 143.309 217.746 147.173C216.498 147.827 215.19 148.421 213.882 148.956C206.927 151.75 200.211 152.463 190.938 153.474L190.343 153.533C184.993 154.128 180.832 154.603 176.493 154.603ZM146.594 113.945C140.055 113.945 134.468 118.641 133.279 125.061C132.625 128.508 132.803 131.777 133.695 134.512C136.726 143.725 147.485 148.243 155.986 150.442C162.524 152.166 168.528 152.701 171.024 152.939C172.451 153.058 173.759 153.117 175.126 153.177C179.941 153.296 184.28 152.82 190.343 152.166L190.938 152.107C200.092 151.096 206.69 150.383 213.526 147.649C214.774 147.114 216.022 146.579 217.27 145.925C224.582 142.18 228.862 137.9 235.341 131.421L235.4 131.361C235.46 131.302 235.579 131.183 235.638 131.124C240.988 125.774 245.803 119.948 250.082 113.707L236.708 98.1927C229.753 102.294 222.799 106.336 215.844 110.438C209.9 113.885 204.015 117.392 198.071 120.84C198.011 120.9 197.892 120.9 197.833 120.9C190.878 121.91 184.339 122.088 178.455 121.494C174.115 121.018 169.954 120.127 166.269 118.7C165.734 118.522 165.318 118.344 164.902 118.165C164.605 118.046 164.307 117.927 164.01 117.809C161.514 116.739 157.709 115.193 152.657 114.361C150.695 114.064 148.734 113.885 146.713 113.885H146.594V113.945Z" fill="#252362"/>
<path d="M197.119 148.243C186.36 148.243 173.521 146.639 172.689 146.52L172.867 145.331C173.164 145.39 203.896 149.254 210.078 145.212L210.732 146.222C208.413 147.768 203.064 148.243 197.119 148.243Z" fill="#252362"/>
<path d="M215.071 143.369L214.774 142.239L214.952 142.834L214.774 142.239C214.774 142.239 217.686 141.407 223.096 136.771L223.868 137.662C218.162 142.477 215.19 143.309 215.071 143.369Z" fill="#252362"/>
<path d="M199.973 130.884C198.724 128.923 197.06 120.72 197.001 120.422L198.13 120.185C198.606 122.503 200.032 128.804 200.983 130.29L199.973 130.884Z" fill="#252362"/>
<path d="M212.337 126.129L211.861 125.059C211.921 125.059 215.963 123.156 220.064 120.779C219.47 120.422 219.113 120.006 218.935 119.53C217.984 117.391 219.945 114.121 222.323 112.338C224.582 110.614 226.9 110.376 228.445 111.684C229.099 112.219 229.397 112.873 229.397 113.586C229.397 115.013 228.089 116.618 225.533 118.639C224.879 119.174 224.106 119.649 223.333 120.184C223.868 120.125 224.403 120.065 224.998 119.947C236.886 117.628 238.372 111.387 238.432 111.327L239.561 111.565C239.502 111.862 237.956 118.579 225.236 121.076C223.631 121.373 222.442 121.433 221.55 121.254C217.151 123.929 212.574 126.01 212.337 126.129ZM226.068 112.041C224.82 112.041 223.571 112.873 222.977 113.289C220.777 115.013 219.351 117.688 219.945 119.114C220.183 119.59 220.599 119.887 221.312 120.065C222.561 119.293 223.75 118.52 224.82 117.688C227.613 115.548 228.208 114.3 228.208 113.586C228.208 113.23 228.029 112.873 227.673 112.576C227.138 112.16 226.603 112.041 226.068 112.041Z" fill="#252362"/>
<path d="M171.976 128.806C171.619 128.806 171.262 128.687 171.024 128.509C170.371 128.033 170.192 127.141 170.549 126.369C170.608 126.19 170.787 125.953 171.084 125.655C168.587 124.942 164.308 124.407 160.384 124.169L160.444 122.98C162.762 123.099 169.122 123.575 172.392 124.883C173.58 124.467 175.542 124.407 178.574 125.239L178.276 126.369C176.374 125.834 175.007 125.715 173.937 125.774C174.115 125.953 174.234 126.131 174.294 126.309C174.413 126.666 174.472 127.26 173.759 127.914C173.164 128.568 172.511 128.806 171.976 128.806ZM172.511 126.131C172.035 126.309 171.797 126.606 171.678 126.844C171.559 127.141 171.559 127.379 171.738 127.558C171.976 127.736 172.451 127.617 173.046 127.082C173.224 126.963 173.283 126.785 173.283 126.725C173.164 126.488 172.927 126.309 172.511 126.131Z" fill="#252362"/>
<path d="M141.482 84.9354C141.184 81.3689 138.153 76.0191 138.153 75.9597L139.163 75.3652C139.282 75.603 142.314 80.9528 142.671 84.8165L141.482 84.9354Z" fill="#252362"/>
<path d="M141.719 52.4221C132.803 43.6247 125.076 45.4674 123.946 47.3101C122.757 49.1528 117.764 52.7787 117.764 52.7787C117.764 52.7787 108.075 48.38 104.984 57.5341C102.012 66.3315 99.3373 75.129 102.963 81.0137C104.33 86.8391 108.313 91.8322 113.128 95.2799H113.187C116.159 94.626 116.873 88.0874 116.992 87.4335C114.257 87.0174 112.177 85.353 111.88 83.332C111.642 81.8459 112.415 80.5382 112.652 80.1816C113.544 78.6361 114.495 77.9822 115.446 77.8039C116.278 77.6256 117.17 77.8039 118.002 78.22C119.25 78.8738 119.964 79.8249 120.201 80.241C120.439 75.0101 122.163 72.2163 123.709 70.6708C125.195 69.1253 126.205 69.1253 130.96 66.0343C132.803 64.8455 134.23 63.9539 135.24 63.2406C135.121 63.0028 135.062 62.8245 134.943 62.6461C135.419 62.6461 135.894 62.7056 136.37 62.765C136.31 62.7056 150.636 61.2195 141.719 52.4221Z" fill="#2D1959"/>
<path d="M113.128 95.5183H113.068L113.009 95.4589C107.719 91.6546 104.093 86.602 102.785 81.0739C99.2184 75.2485 101.596 66.9266 104.806 57.4159C105.698 54.8004 107.184 53.0172 109.264 52.1256C112.89 50.5801 116.992 52.1256 117.764 52.4822C118.478 51.9472 122.757 48.7373 123.768 47.1324C124.244 46.3597 125.611 45.7652 127.275 45.5869C129.415 45.3491 135.121 45.5275 141.957 52.2444C144.454 54.6816 145.405 56.8215 144.751 58.6047C143.503 62.1118 136.667 62.8251 136.37 62.8846C136.013 62.8251 135.656 62.8251 135.359 62.7657C135.419 62.8251 135.419 62.944 135.478 63.0629L135.538 63.2412L135.359 63.3601C134.289 64.1329 132.863 65.0245 131.079 66.2133C129.058 67.5211 127.691 68.2938 126.681 68.8288C125.373 69.5421 124.719 69.9582 123.887 70.7904C121.806 72.9303 120.677 76.0807 120.499 80.2417L120.439 81.0144L119.904 80.3011C119.666 79.9445 119.072 78.9934 117.824 78.399C117.051 77.9829 116.219 77.864 115.387 78.0423C114.376 78.2206 113.484 78.9934 112.712 80.3011C112.058 81.3711 111.82 82.3816 111.998 83.3327C112.296 85.2348 114.317 86.8398 116.932 87.2558L117.17 87.3153V87.5531C117.051 88.8013 116.278 94.9239 113.187 95.5777C113.187 95.5183 113.128 95.5183 113.128 95.5183ZM112.652 51.9472C111.582 51.9472 110.453 52.1255 109.383 52.6011C107.421 53.4333 105.995 55.1571 105.163 57.6537C102.012 67.0455 99.6345 75.2485 103.142 80.955V81.0144C104.449 86.3642 107.956 91.4168 113.128 95.1022C115.684 94.4483 116.457 89.0391 116.635 87.6719C113.96 87.1964 111.88 85.4726 111.523 83.3921C111.345 82.3816 111.642 81.2522 112.296 80.0634C113.128 78.6367 114.138 77.7451 115.268 77.5668C116.159 77.3885 117.11 77.5668 118.002 77.9829C118.894 78.399 119.488 79.0528 119.904 79.5284C120.201 75.6052 121.39 72.5736 123.411 70.4932C124.303 69.6015 125.016 69.1854 126.324 68.4721C127.334 67.9372 128.642 67.1644 130.723 65.8567C132.447 64.7273 133.814 63.8951 134.824 63.1223C134.765 62.944 134.705 62.8251 134.646 62.7062L134.468 62.3496H134.824C135.3 62.3496 135.775 62.409 136.251 62.4685C136.726 62.409 143.087 61.6363 144.157 58.4859C144.692 56.8809 143.8 54.9193 141.482 52.6011C134.824 46.003 129.237 45.8247 127.216 46.0625C125.373 46.2408 124.362 46.8946 124.065 47.4296C122.876 49.2723 118.002 52.8389 117.824 53.0172L117.705 53.0766L117.586 53.0172C117.586 52.9577 115.327 51.9472 112.652 51.9472Z" fill="#2D1959"/>
<path d="M138.688 100.689C135.835 100.689 133.1 99.7384 132.328 99.5006V101.7C128.761 99.2629 126.383 96.1719 126.383 96.1719C131.079 98.7873 138.45 100.63 138.688 100.689Z" fill="#252362"/>
<path d="M132.565 102.116L132.209 101.879C128.642 99.4415 126.205 96.3505 126.205 96.291L125.492 95.3994L126.502 95.9938C131.198 98.6687 138.688 100.511 138.747 100.511L140.768 100.987H138.688C136.251 100.987 133.873 100.333 132.565 99.8576V102.116ZM127.334 96.8855C128.285 97.9554 129.95 99.6793 132.09 101.165V99.0848L132.387 99.2037C133.16 99.5009 134.467 99.8576 135.954 100.155C133.635 99.5009 130.188 98.3715 127.334 96.8855Z" fill="#252362"/>
<path d="M83.2283 234.91C83.05 234.91 82.8717 234.91 82.6933 234.91C80.6723 234.672 78.8891 233.186 77.403 230.273C76.2736 228.074 74.7281 225.577 73.1826 222.902C71.8154 220.584 70.3888 218.266 69.0217 215.769C68.8433 215.472 68.9622 215.175 69.2594 214.996C69.5566 214.818 69.8539 214.937 70.0322 215.234C71.3993 217.671 72.826 220.049 74.1931 222.308C75.7981 224.983 77.2841 227.479 78.4729 229.738C79.8401 232.294 81.2667 233.602 82.9311 233.78C86.8543 234.196 92.0852 228.074 98.1483 221C99.0399 219.93 99.991 218.86 100.942 217.731C92.0852 214.878 85.9032 210.301 83.8822 205.189C82.6339 201.979 82.9906 198.59 84.9522 195.202C87.6865 190.506 92.0258 188.129 97.0783 188.545C102.904 189.02 108.551 193.241 110.631 198.59C112.414 203.286 111.285 208.161 107.362 212.262C105.995 213.689 104.568 215.234 102.904 217.136C110.928 219.455 119.607 219.99 126.264 218.504C131.02 217.434 134.408 217.731 136.37 219.276C137.677 220.287 138.331 221.832 138.331 223.853C138.331 224.151 138.093 224.388 137.796 224.448C137.499 224.448 137.261 224.21 137.261 223.913C137.261 222.248 136.726 221 135.716 220.227C134.051 218.92 130.96 218.682 126.562 219.692C119.607 221.238 110.453 220.703 102.131 218.206C101.061 219.455 99.991 220.643 98.9805 221.832C92.6202 229.025 87.627 234.91 83.2283 234.91ZM95.8895 189.615C91.7286 189.615 88.162 191.755 85.8438 195.737C84.0605 198.828 83.7039 201.86 84.8333 204.713C86.7354 209.647 92.8579 213.986 101.655 216.72C103.498 214.64 105.044 212.916 106.47 211.43C110.037 207.685 111.107 203.227 109.502 198.947C107.6 193.954 102.309 190.031 96.9 189.615C96.6028 189.615 96.2462 189.615 95.8895 189.615Z" fill="white"/>
<path d="M136.073 188.663C130.544 188.663 119.548 184.68 110.275 176.061C102.844 169.166 88.2811 172.079 77.106 178.023C76.8088 178.142 76.5116 178.082 76.3332 177.785C76.2143 177.488 76.2738 177.191 76.571 177.012C88.1028 170.89 103.261 167.918 111.047 175.229C121.093 184.561 133.041 188.306 137.499 187.355C138.391 187.177 139.758 187.058 141.482 186.999C143.324 186.88 145.346 186.761 147.426 186.464C152.538 185.75 155.57 184.264 156.877 181.946C157.947 179.984 157.709 177.369 156.223 174.159C155.153 171.781 153.251 169.523 150.517 167.442C146.95 164.648 142.136 162.271 136.845 160.606C138.51 166.55 137.915 170.89 135.121 172.376C131.971 174.04 128.642 175.407 125.195 174.218C122.044 173.148 119.31 169.998 116.932 164.589C115.862 162.092 116.516 160.547 117.229 159.715C119.964 156.624 127.988 157.099 135.121 159.001C133.16 153.414 129.712 148.004 125.967 144.676C123.174 142.239 120.023 141.347 116.457 142.06C110.75 143.19 104.925 148.421 101.537 155.435C98.3862 161.914 88.6377 163.935 79.8403 159.952C79.5431 159.833 79.4242 159.477 79.5431 159.239C79.662 158.942 80.0186 158.823 80.2564 158.942C87.4489 162.211 97.2568 161.617 100.526 154.959C104.033 147.707 110.215 142.239 116.219 140.99C120.083 140.218 123.649 141.228 126.681 143.844C130.723 147.41 134.468 153.354 136.429 159.358C142.136 161.022 147.367 163.578 151.171 166.55C154.024 168.75 156.045 171.187 157.175 173.683C158.779 177.25 159.017 180.222 157.769 182.481C156.342 185.096 152.954 186.761 147.485 187.533C145.346 187.831 143.265 187.95 141.422 188.068C139.817 188.187 138.45 188.247 137.618 188.425C137.261 188.603 136.726 188.663 136.073 188.663ZM124.838 158.585C121.628 158.585 119.191 159.239 118.121 160.487C117.348 161.379 117.289 162.627 118.002 164.173C120.261 169.285 122.758 172.197 125.611 173.208C128.642 174.278 131.733 172.97 134.646 171.425C136.964 170.176 137.321 165.956 135.597 160.309C131.614 159.18 127.87 158.585 124.838 158.585Z" fill="white"/>
<path d="M97.3162 136.948C94.7007 136.948 91.9664 136.829 89.4104 136.71C87.746 136.65 86.1411 136.591 84.5361 136.531C84.2389 136.531 84.0012 136.294 84.0012 135.937C84.0012 135.64 84.2389 135.402 84.5361 135.402C86.1411 135.462 87.6866 135.521 89.4104 135.58C92.0259 135.699 94.7007 135.818 97.3162 135.818C107.421 135.818 115.327 130.29 116.932 125.178C117.883 122.087 116.694 119.234 113.425 117.034C109.621 114.478 105.579 111.863 101.715 110.08C101.537 110.02 101.358 109.783 101.358 109.545C101.358 109.248 101.596 109.01 101.893 109.01C101.953 109.01 102.072 109.01 102.131 109.069C106.114 110.912 110.156 113.527 114.019 116.143C117.705 118.639 119.072 121.968 118.002 125.535C116.278 131.122 108.075 136.948 97.3162 136.948Z" fill="white"/>
<path d="M236.173 132.193C235.995 132.193 235.757 132.074 235.697 131.895C233.32 127.259 229.218 122.325 224.701 118.759C219.886 114.954 217.033 112.458 215.13 110.259C213.288 108.178 212.218 106.335 211.742 104.433C210.91 101.045 211.683 97.954 212.337 95.933C212.456 95.6357 212.753 95.4574 213.05 95.5763C213.347 95.6952 213.525 95.9924 213.407 96.2896C212.753 98.1323 212.039 100.986 212.812 104.136C213.228 105.86 214.239 107.584 215.963 109.545C217.805 111.626 220.659 114.122 225.414 117.867C230.05 121.493 234.271 126.546 236.708 131.36C236.827 131.658 236.767 131.955 236.47 132.133C236.351 132.193 236.232 132.193 236.173 132.193Z" fill="white"/>
<path d="M175.126 154.425C175.066 154.425 175.007 154.425 174.948 154.425C174.65 154.306 174.472 154.009 174.591 153.712C174.948 152.582 175.245 151.393 175.542 150.205C176.909 144.914 178.395 138.911 186.123 139.624C189.392 139.921 192.959 139.624 196.525 138.732C194.088 134.75 193.85 130.173 196.05 127.141C198.011 124.526 201.28 123.693 205.085 124.882C209.721 126.309 210.672 128.449 210.613 129.994C210.553 133.442 205.441 137.306 198.308 139.446C201.459 143.488 206.927 146.46 213.823 147.827C214.12 147.886 214.298 148.184 214.239 148.481C214.179 148.778 213.882 148.956 213.585 148.897C206.214 147.47 200.389 144.201 197.12 139.743C193.375 140.694 189.511 141.051 186.004 140.753C179.227 140.159 177.92 145.211 176.612 150.502C176.315 151.691 176.018 152.939 175.601 154.068C175.542 154.306 175.364 154.425 175.126 154.425ZM201.875 125.477C199.794 125.477 198.071 126.249 196.941 127.795C194.98 130.47 195.277 134.69 197.654 138.376C204.371 136.473 209.483 132.848 209.483 129.875C209.543 127.795 206.927 126.547 204.728 125.893C203.777 125.596 202.767 125.477 201.875 125.477Z" fill="white"/>
<path d="M153.608 132.254C153.37 132.254 153.192 132.254 152.954 132.194C149.328 131.778 145.702 127.796 145.643 124.17C145.583 121.435 147.545 119.474 148.674 118.285L148.852 118.106C150.16 116.799 151.29 115.253 152.3 113.47C152.478 113.173 152.776 113.113 153.073 113.232C153.37 113.411 153.429 113.708 153.311 114.005C152.3 115.848 151.052 117.512 149.685 118.879L149.506 119.058C148.496 120.127 146.713 121.851 146.772 124.11C146.831 127.142 150.101 130.708 153.132 131.065C153.311 131.065 153.489 131.065 153.667 131.065C158.244 131.065 162.584 123.813 166.031 117.928L166.091 117.809C166.269 117.571 166.566 117.453 166.863 117.631C167.101 117.809 167.22 118.106 167.042 118.404L166.982 118.523C163.059 125.002 158.779 132.194 153.608 132.254Z" fill="white"/>
<path d="M155.807 151.69C155.45 151.69 155.213 151.393 155.272 151.096C155.629 143.547 166.388 134.63 173.343 132.074C178.633 130.113 178.573 124.228 178.038 120.899C177.979 120.602 178.217 120.305 178.514 120.245C178.811 120.186 179.108 120.424 179.168 120.721C180.119 127.081 178.217 131.48 173.759 133.085C166.982 135.582 156.758 144.201 156.461 151.096C156.342 151.453 156.104 151.69 155.807 151.69Z" fill="white"/>
<path d="M43.2833 154.009C43.2833 154.009 50.4758 170.593 84.3578 170.593C118.18 170.593 136.667 164.411 140.768 168.87C144.87 173.328 150.16 182.244 136.191 199.78C122.282 217.315 102.072 224.032 82.634 221.773C63.1964 219.574 45.4232 188.129 45.4232 188.129C45.4232 188.129 33.7131 149.789 43.2833 154.009Z" fill="white"/>
<path d="M89.9454 222.784C87.5082 222.784 85.0711 222.665 82.5745 222.368C74.3715 221.417 65.5146 215.413 56.3011 204.535C49.4653 196.451 44.9477 188.545 44.9477 188.486C44.9477 188.426 44.8882 188.426 44.8882 188.367C43.9371 185.276 35.7341 157.933 40.3706 153.772C40.9056 153.296 41.9161 152.88 43.521 153.534C43.6399 153.593 43.7588 153.712 43.8183 153.831C43.8183 153.89 45.661 157.933 51.5457 161.915C56.955 165.601 67.0601 170.059 84.3578 170.059C99.9911 170.059 112.414 168.751 121.509 167.74C132.684 166.552 138.807 165.898 141.184 168.513C148.615 176.597 147.129 186.94 136.667 200.136C125.076 214.759 108.313 222.784 89.9454 222.784ZM45.9582 187.951C46.7904 189.377 64.1475 219.158 82.6934 221.238C103.498 223.616 122.876 215.651 135.716 199.423C150.695 180.521 142.849 172.02 140.293 169.227C138.272 167.027 131.614 167.74 121.569 168.81C112.474 169.762 99.9911 171.129 84.2984 171.129C66.644 171.129 56.3011 166.552 50.773 162.747C45.3638 159.062 43.2833 155.377 42.8672 154.425C41.7378 154.009 41.2622 154.366 41.1434 154.544C37.6957 157.635 43.4616 179.629 45.9582 187.951Z" fill="#252362"/>
<path d="M113.663 181.946V281.393L119.369 388.27H127.751L120.618 278.956V181.946H113.663Z" fill="white"/>
<path d="M127.751 388.806H119.369C119.072 388.806 118.834 388.568 118.834 388.33L113.128 281.453V182.007C113.128 181.709 113.366 181.472 113.663 181.472H120.618C120.915 181.472 121.152 181.709 121.152 182.007V278.957L128.345 388.271C128.345 388.39 128.286 388.568 128.226 388.687C128.048 388.746 127.929 388.806 127.751 388.806ZM119.845 387.736H127.216L120.083 278.957C120.083 278.957 120.083 278.957 120.083 278.897V182.482H114.198V281.394L119.845 387.736Z" fill="#252362"/>
<path d="M43.1643 171.067C43.1643 171.067 68.665 256.664 69.3783 260.112C70.0916 263.559 40.9055 364.73 40.9055 364.73H32.227L56.0038 259.577L36.2096 173.98L43.1643 171.067Z" fill="white"/>
<path d="M40.9651 365.324H32.2865C32.1082 365.324 31.9893 365.264 31.8704 365.146C31.7515 365.027 31.7515 364.848 31.7515 364.67L55.4689 259.636L35.7341 174.158C35.6747 173.92 35.7936 173.682 36.0314 173.564L42.9861 170.591C43.105 170.532 43.2833 170.532 43.4022 170.591C43.5211 170.651 43.6399 170.77 43.6994 170.948C44.7693 174.455 69.2001 256.604 69.9134 260.052C70.6861 263.559 44.4721 354.565 41.4406 364.967C41.3812 365.146 41.2028 365.324 40.9651 365.324ZM32.9404 364.254H40.549C52.1996 323.833 69.319 263.024 68.9029 260.23C68.1896 256.961 45.0666 179.27 42.8672 171.78L36.8635 174.336L56.5389 259.517C56.5389 259.576 56.5389 259.695 56.5389 259.755L32.9404 364.254Z" fill="#252362"/>
</g>
</svg>
