<svg width="427" height="324" viewBox="0 0 427 324" fill="none" xmlns="http://www.w3.org/2000/svg">
<path d="M398.365 287.062C432.452 292.842 441.331 303.569 384.718 311.793C318.093 321.447 242.232 309.886 196.524 315.964C150.876 322.043 95.5736 325.44 64.8237 323.414C4.2774 319.361 -8.05835 278.123 40.1523 269.899C83.8934 262.45 218.454 288.909 250.634 287.419C283.649 285.87 356.769 280.03 398.365 287.062Z" fill="#141414" fill-opacity="0.2"/>
<path d="M312.373 43.0289C312.552 43.0289 312.671 42.9693 312.79 42.8501L317.557 38.0827C317.796 37.8443 317.796 37.4867 317.557 37.2484C317.319 37.01 316.961 37.01 316.723 37.2484L312.611 41.3603L309.572 34.1495C309.512 33.9708 309.334 33.8516 309.155 33.792C308.976 33.7324 308.738 33.792 308.618 33.9112L304.924 37.3675L300.991 29.0245C300.931 28.8458 300.752 28.7266 300.514 28.667C300.335 28.667 300.097 28.7266 299.977 28.8458L296.402 33.0173C296.163 33.2556 296.223 33.6728 296.461 33.8516C296.7 34.0899 297.117 34.0303 297.296 33.792L300.275 30.3356L304.149 38.619C304.209 38.7978 304.387 38.917 304.566 38.9766C304.745 39.0361 304.924 38.9766 305.102 38.7978L308.738 35.3414L311.777 42.6117C311.836 42.7905 312.015 42.9097 312.194 42.9693C312.254 43.0289 312.313 43.0289 312.373 43.0289Z" fill="#2E3433"/>
<path d="M91.8796 75.981C91.9392 75.8618 91.9988 75.683 91.9392 75.5043L90.1514 69.0086C90.0918 68.7107 89.7342 68.5319 89.4363 68.5915C89.1383 68.6511 88.9595 69.0086 89.0191 69.3066L90.5686 74.9679L82.8215 74.0144C82.6427 74.0144 82.4043 74.074 82.2851 74.1932C82.166 74.3124 82.1064 74.5508 82.1659 74.7296L83.3578 79.6162L74.1805 78.9011C74.0018 78.9011 73.7634 78.9606 73.6442 79.1394C73.525 79.3182 73.4654 79.497 73.5846 79.6758L75.432 84.8603C75.5511 85.1583 75.9087 85.3371 76.2067 85.2179C76.5046 85.0987 76.6834 84.7412 76.5642 84.4432L75.0148 80.1525L84.1325 80.8676C84.3113 80.8676 84.4901 80.808 84.6093 80.6888C84.7285 80.5697 84.788 80.3313 84.7284 80.1525L83.5366 75.2659L91.3433 76.2194C91.522 76.2194 91.7604 76.1598 91.8796 76.0406C91.82 76.0406 91.82 75.981 91.8796 75.981Z" fill="#2E3433"/>
<path d="M126.98 101.071C129.304 101.071 131.151 99.2231 131.151 96.899C131.151 94.5749 129.304 92.7275 126.98 92.7275C124.656 92.7275 122.808 94.5749 122.808 96.899C122.808 99.2231 124.656 101.071 126.98 101.071ZM126.98 93.9194C128.648 93.9194 129.96 95.2304 129.96 96.899C129.96 98.5676 128.648 99.8787 126.98 99.8787C125.311 99.8787 124 98.5676 124 96.899C124 95.29 125.311 93.9194 126.98 93.9194Z" fill="#2E3433"/>
<path d="M363.324 110.07C365.648 110.07 367.496 108.222 367.496 105.898C367.496 103.574 365.648 101.727 363.324 101.727C361 101.727 359.153 103.574 359.153 105.898C359.153 108.222 361 110.07 363.324 110.07ZM363.324 102.918C364.993 102.918 366.304 104.229 366.304 105.898C366.304 107.567 364.993 108.878 363.324 108.878C361.656 108.878 360.345 107.567 360.345 105.898C360.345 104.289 361.656 102.918 363.324 102.918Z" fill="#2E3433"/>
<path d="M412.072 69.7851L415.29 67.6994L412.072 65.6732C411.774 65.4945 411.714 65.1369 411.893 64.8389C412.072 64.541 412.429 64.4814 412.727 64.6602L416.422 66.9843L420.117 64.6006C420.415 64.4218 420.772 64.4814 420.951 64.7793C421.13 65.0773 421.07 65.4349 420.772 65.6136L417.554 67.6994L420.772 69.7255C421.07 69.9043 421.13 70.2619 420.951 70.5599C420.832 70.7386 420.653 70.8578 420.474 70.8578C420.355 70.8578 420.236 70.8578 420.176 70.7386L416.481 68.4145L412.787 70.7982C412.668 70.8578 412.548 70.9174 412.489 70.9174C412.31 70.9174 412.131 70.7982 412.012 70.6194C411.714 70.3215 411.774 69.9639 412.072 69.7851Z" fill="#2E3433"/>
<path d="M180.076 35.3398L183.294 33.2541L180.076 31.2279C179.778 31.0491 179.719 30.6916 179.897 30.3936C180.076 30.0957 180.434 30.0361 180.732 30.2148L184.427 32.539L188.121 30.1552C188.419 29.9765 188.777 30.0361 188.956 30.334C189.134 30.632 189.075 30.9895 188.777 31.1683L185.559 33.2541L188.777 35.2802C189.075 35.459 189.134 35.8166 188.956 36.1145C188.836 36.2933 188.658 36.4125 188.479 36.4125C188.36 36.4125 188.24 36.4125 188.181 36.2933L184.486 33.9692L180.791 36.3529C180.672 36.4125 180.553 36.4721 180.493 36.4721C180.315 36.4721 180.136 36.3529 180.017 36.1741C179.719 35.8762 179.838 35.5186 180.076 35.3398Z" fill="#2E3433"/>
<path d="M301.348 98.2693C301.408 98.2693 301.468 98.2693 301.468 98.2693C313.029 98.0906 321.133 83.3711 328.94 69.1284C335.435 57.2695 341.633 46.066 348.308 46.6023C352.539 46.9599 361.12 51.6677 377.866 72.406C387.937 84.9205 396.28 97.435 396.339 97.5542L397.71 97.0775C396.339 95.0513 364.219 46.7215 348.427 45.5297C340.56 44.9338 334.482 55.9584 327.45 68.7709C320.18 82.0005 311.896 97.0775 301.408 97.1967C301.348 97.1967 301.348 97.1967 301.289 97.1967C296.462 97.1967 291.456 92.3697 286.093 82.4176C281.206 73.4191 276.796 61.6197 272.505 50.1779C265.652 31.9425 259.693 16.21 253.138 14.1242C251.946 13.7667 250.694 13.7667 249.443 14.1838C241.636 16.6271 233.055 33.3727 224.772 49.582C221.256 56.3756 217.978 62.8116 215.058 67.4598C211.006 73.9555 209.158 74.3726 208.562 74.2534C201.65 72.8828 151.294 32.2405 125.669 10.9658L124.536 11.7405C127.576 14.2434 199.087 73.5383 208.145 75.3857C212.495 76.2796 217.62 66.8043 226.202 49.9991C234.008 34.7434 242.828 17.521 250.039 15.2565C250.933 14.9585 251.767 14.9585 252.542 15.1969C258.442 17.0443 264.58 33.3131 271.016 50.5355C279.955 73.9555 289.132 98.2693 301.348 98.2693Z" fill="#2E3433"/>
<path d="M134.668 28.4247L136.098 27.9479L125.431 11.3215L142.713 19.9029L143.547 18.9494L121.676 8.10352L134.668 28.4247Z" fill="#2E3433"/>
<path d="M262.315 111.2C262.494 111.2 262.613 111.14 262.732 111.021L267.5 106.254C267.738 106.015 267.738 105.658 267.5 105.419C267.261 105.181 266.904 105.181 266.665 105.419L262.553 109.531L259.514 102.32C259.455 102.142 259.276 102.022 259.097 101.963C258.918 101.903 258.68 101.963 258.561 102.082L254.866 105.538L250.933 97.1954C250.873 97.0167 250.695 96.8975 250.456 96.8379C250.277 96.8379 250.039 96.8975 249.92 97.0167L246.344 101.188C246.106 101.427 246.165 101.844 246.404 102.022C246.642 102.261 247.059 102.201 247.238 101.963L250.218 98.5065L254.091 106.79C254.151 106.969 254.33 107.088 254.508 107.147C254.687 107.207 254.866 107.147 255.045 106.969L258.68 103.512L261.719 110.783C261.779 110.961 261.958 111.081 262.136 111.14C262.256 111.2 262.256 111.2 262.315 111.2Z" fill="#2E3433"/>
<path d="M336.92 103.988C336.562 106.55 335.728 108.994 334.417 111.08C333.762 112.093 333.046 113.106 332.212 113.94C331.378 114.774 330.484 115.549 329.53 116.264C328.279 117.158 326.908 117.873 325.478 118.409C323.214 119.244 320.711 119.661 318.148 119.482C317.731 119.482 317.374 119.423 316.956 119.363C314.513 119.065 312.308 118.29 310.282 117.098C309.15 116.443 308.137 115.668 307.183 114.834C303.071 111.08 300.807 105.418 301.522 99.4589C301.76 97.552 302.297 95.8238 303.071 94.1552C304.144 91.8906 305.693 89.8645 307.541 88.2555C308.673 87.2424 309.984 86.4081 311.355 85.7526C313.44 84.7395 315.824 84.084 318.267 83.9648C319.34 83.9052 320.413 83.9648 321.485 84.084C331.318 85.3354 338.171 94.2743 336.92 103.988Z" fill="#FFAF30" stroke="#2E3433" stroke-width="1.5" stroke-miterlimit="10"/>
<path d="M327.695 112.823C333.824 108.16 335.012 99.4112 330.349 93.2824C325.686 87.1536 316.937 85.9655 310.808 90.6287C304.68 95.292 303.491 104.041 308.155 110.169C312.818 116.298 321.567 117.486 327.695 112.823Z" fill="#FFAF30"/>
<path fill-rule="evenodd" clip-rule="evenodd" d="M321.068 95.1929C319.76 94.9999 318.547 95.9013 318.354 97.2092C318.231 98.0372 318.668 98.8348 319.696 99.4562C320.037 99.6619 320.339 99.804 320.7 99.9733C320.947 100.089 321.22 100.218 321.552 100.388C322.257 100.75 323.085 101.249 323.731 102.072C324.671 103.268 325.111 104.824 324.884 106.358C324.424 109.475 321.524 111.63 318.406 111.17C316.76 110.927 315.38 110.004 314.513 108.723C314.066 108.063 314.239 107.165 314.9 106.717C315.56 106.27 316.458 106.443 316.905 107.104C317.335 107.74 318.013 108.192 318.828 108.312C320.367 108.539 321.8 107.475 322.027 105.936C322.133 105.213 321.926 104.45 321.46 103.858L321.458 103.856C321.199 103.525 320.817 103.258 320.232 102.958C320.083 102.881 319.89 102.789 319.675 102.687C319.212 102.466 318.648 102.198 318.203 101.929L318.202 101.929C316.587 100.953 315.143 99.1759 315.496 96.7875C315.922 93.9013 318.604 91.9093 321.49 92.3351C322.935 92.5484 324.151 93.3304 324.955 94.4056C325.433 95.0444 325.302 95.9496 324.663 96.4273C324.025 96.9051 323.119 96.7745 322.642 96.1357C322.27 95.6393 321.72 95.289 321.068 95.1929Z" fill="#2E3433"/>
<path fill-rule="evenodd" clip-rule="evenodd" d="M321.872 89.7714C322.661 89.8878 323.207 90.6219 323.09 91.4111L322.712 93.9746C322.596 94.7637 321.861 95.3091 321.072 95.1926C320.283 95.0762 319.738 94.3421 319.854 93.5529L320.233 90.9894C320.349 90.2003 321.083 89.6549 321.872 89.7714Z" fill="#2E3433"/>
<path fill-rule="evenodd" clip-rule="evenodd" d="M319.111 108.484C319.9 108.601 320.445 109.335 320.329 110.124L319.867 113.256C319.75 114.045 319.016 114.591 318.227 114.474C317.438 114.358 316.893 113.624 317.009 112.835L317.471 109.702C317.588 108.913 318.322 108.368 319.111 108.484Z" fill="#2E3433"/>
<path d="M297.129 66.1491C297.367 67.6985 297.248 69.1883 296.831 70.559C296.652 71.2741 296.354 71.9296 296.056 72.5255C295.758 73.1215 295.341 73.7174 294.924 74.2537C294.328 74.9688 293.673 75.5648 292.958 76.1011C291.825 76.9354 290.455 77.5909 288.965 77.8889C288.726 77.9485 288.488 78.0081 288.25 78.0081C286.819 78.2465 285.449 78.1273 284.138 77.8293C283.423 77.6505 282.708 77.3526 281.992 77.0546C279.072 75.5648 276.867 72.7043 276.331 69.2479C276.152 68.1157 276.152 67.043 276.331 66.0299C276.569 64.5401 277.106 63.1695 277.94 61.9776C278.417 61.2029 279.013 60.5474 279.668 59.9514C280.681 58.998 281.933 58.2828 283.303 57.8061C283.899 57.6273 284.495 57.4485 285.151 57.3294C290.931 56.4951 296.235 60.4282 297.129 66.1491Z" fill="#FFAF30" stroke="#2E3433" stroke-width="1.5" stroke-miterlimit="10"/>
<path d="M294.865 66.5027C295.52 70.9722 292.421 75.2033 287.952 75.8588C283.482 76.5143 279.251 73.4155 278.596 68.946C277.94 64.4765 281.039 60.2454 285.509 59.5899C289.978 58.8748 294.209 61.9736 294.865 66.5027Z" fill="#FFAF30"/>
<path d="M289.799 67.5796C289.382 67.2221 288.846 67.0433 288.25 66.9837V66.8645C289.203 66.3282 289.62 65.5535 289.442 64.6C289.382 64.1828 289.203 63.8253 288.965 63.5273C288.786 63.2889 288.488 63.1102 288.131 62.991C288.011 62.9314 287.833 62.8718 287.594 62.8718L287.296 61.0244L286.164 61.2032L286.402 62.8718C286.164 62.8718 285.866 62.9314 285.568 62.991H285.509L285.27 61.3224L284.138 61.5011L284.376 63.1698L282.291 63.4677C282.231 63.4677 282.231 63.5273 282.231 63.5273L282.291 63.8849C282.291 63.9445 282.35 63.9445 282.35 63.9445L283.542 63.8849C283.602 63.8849 283.602 63.8849 283.602 63.9445L284.793 71.9895C284.793 72.0491 284.793 72.0491 284.734 72.0491L283.542 72.3471C283.482 72.3471 283.482 72.4066 283.482 72.4066L283.542 72.7642C283.542 72.8238 283.602 72.8238 283.602 72.8238L285.687 72.5258L285.926 74.3136L287.058 74.1348L286.82 72.3471L287.177 72.2875C287.356 72.2875 287.535 72.2279 287.654 72.2279L287.892 74.0156L289.025 73.8369L288.727 71.8703C289.501 71.5723 289.978 71.1552 290.276 70.5593C290.514 70.0825 290.574 69.6058 290.514 69.0694C290.634 68.5331 290.336 67.9968 289.799 67.5796ZM286.104 63.5869C286.283 63.5869 286.402 63.5869 286.581 63.5869C286.939 63.5869 287.237 63.6465 287.475 63.8253C287.594 63.8849 287.713 64.0041 287.833 64.1232C288.011 64.3616 288.19 64.6596 288.25 65.0171C288.309 65.3747 288.25 65.7322 288.131 66.0302C288.011 66.2686 287.892 66.4474 287.654 66.6261C287.475 66.7453 287.296 66.8645 287.058 66.9837C286.82 67.1029 286.522 67.1625 286.224 67.2221C286.164 67.2221 286.105 67.2221 285.985 67.2817L285.568 67.3412C285.509 67.3412 285.509 67.3413 285.509 67.2817L285.032 63.9445C285.032 63.8849 285.032 63.8849 285.091 63.8849L285.628 63.8253H285.747L286.104 63.5869ZM288.846 71.0956C288.607 71.334 288.19 71.5127 287.773 71.6319C287.594 71.6915 287.356 71.7511 287.118 71.7511L286.879 71.8107L286.224 71.9299C286.164 71.9299 286.164 71.9299 286.164 71.8703L285.568 67.8776C285.568 67.818 285.568 67.818 285.628 67.818L286.224 67.6988C286.224 67.6988 286.224 67.6988 286.283 67.6988C286.581 67.6392 286.879 67.6392 287.177 67.6392C287.654 67.6392 288.071 67.7584 288.429 67.9372C288.965 68.2351 289.263 68.7715 289.382 69.5462C289.442 70.1421 289.263 70.6785 288.846 71.0956Z" fill="#2E3433"/>
<path d="M361.044 32.8365C360.448 34.2668 359.554 35.4586 358.482 36.4717C357.945 36.9484 357.35 37.3656 356.754 37.7827C356.158 38.1403 355.502 38.4383 354.906 38.6766C354.072 38.9746 353.178 39.1534 352.284 39.2726C350.854 39.3918 349.364 39.213 347.934 38.7362C347.696 38.6766 347.517 38.5575 347.278 38.4979C345.967 37.9615 344.775 37.1272 343.882 36.1737C343.345 35.6374 342.868 35.0415 342.451 34.3859C340.723 31.5851 340.306 28.0095 341.677 24.7319C342.094 23.7188 342.69 22.7654 343.405 21.9906C344.358 20.8584 345.55 19.9645 346.861 19.3686C347.696 19.011 348.53 18.713 349.424 18.5343C350.794 18.2959 352.225 18.2959 353.595 18.5938C354.191 18.713 354.787 18.9514 355.383 19.1898C360.806 21.3351 363.309 27.4732 361.044 32.8365Z" fill="#FFAF30" stroke="#2E3433" stroke-width="1.5" stroke-miterlimit="10"/>
<path d="M352.78 36.821C357.257 36.0552 360.265 31.8052 359.5 27.3283C358.734 22.8513 354.484 19.8428 350.007 20.6086C345.53 21.3743 342.521 25.6244 343.287 30.1013C344.053 34.5783 348.303 37.5868 352.78 36.821Z" fill="#FFAF30"/>
<path d="M354.073 30.2111C353.894 29.6747 353.536 29.2576 353.059 28.9L353.119 28.7808C354.251 28.7808 354.966 28.3637 355.324 27.5294C355.503 27.1122 355.562 26.7547 355.503 26.3971C355.443 26.0992 355.324 25.8012 355.086 25.5032C354.966 25.384 354.847 25.2649 354.728 25.1457L355.443 23.4175L354.371 22.9407L353.715 24.4902C353.477 24.371 353.238 24.2518 352.94 24.1326H352.881L353.536 22.5832L352.464 22.1064L351.808 23.6559L349.901 22.8216C349.841 22.8216 349.841 22.8216 349.782 22.8812L349.663 23.2387C349.663 23.2983 349.663 23.2983 349.722 23.3579L350.795 23.9538C350.855 23.9538 350.855 24.0134 350.855 24.073L347.696 31.5817C347.696 31.6413 347.637 31.6413 347.577 31.6413L346.445 31.2837C346.385 31.2837 346.385 31.2837 346.325 31.3433L346.206 31.7009C346.206 31.7605 346.206 31.7605 346.266 31.8201L348.173 32.6544L347.458 34.323L348.53 34.7997L349.246 33.1311L349.603 33.2503C349.782 33.3099 349.901 33.3695 350.08 33.4291L349.365 35.0977L350.437 35.5744L351.212 33.7866C351.987 33.9058 352.642 33.7866 353.179 33.4887C353.655 33.1907 353.953 32.8332 354.132 32.3564C354.311 31.4625 354.311 30.8666 354.073 30.2111ZM353 24.9073C353.119 24.9669 353.298 25.0265 353.417 25.1457C353.715 25.3245 353.894 25.5628 354.073 25.8012C354.132 25.9204 354.192 26.0992 354.251 26.2183C354.311 26.5163 354.251 26.8143 354.132 27.1718C354.013 27.5294 353.775 27.7678 353.536 27.9465C353.357 28.0657 353.119 28.1849 352.881 28.1849C352.702 28.1849 352.464 28.1849 352.225 28.1849C351.987 28.1253 351.689 28.0657 351.391 27.9465C351.331 27.9465 351.272 27.8869 351.153 27.8869L350.735 27.7082C350.676 27.7082 350.676 27.6486 350.676 27.589L351.987 24.4902C351.987 24.4306 352.046 24.4306 352.106 24.4306L352.583 24.6689L352.702 24.7285L353 24.9073ZM351.45 32.714C351.093 32.7736 350.676 32.714 350.199 32.5948C350.02 32.5352 349.782 32.4756 349.603 32.3564L349.365 32.2968L348.769 32.0584C348.709 32.0584 348.709 31.9989 348.709 31.9393L350.259 28.2445C350.259 28.1849 350.318 28.1849 350.378 28.1849L350.974 28.4233C350.974 28.4233 350.974 28.4233 351.033 28.4233C351.331 28.5425 351.57 28.6617 351.808 28.8404C352.225 29.0788 352.523 29.3768 352.702 29.7343C353 30.2707 353 30.8666 352.702 31.5817C352.464 32.2372 352.046 32.5948 351.45 32.714Z" fill="#2E3433"/>
<path d="M425.182 164.594C425.182 164.594 425.182 164.534 425.182 164.475V164.594Z" fill="#DBE0E6" stroke="#2E3433" stroke-width="1.6611" stroke-miterlimit="10" stroke-linecap="round" stroke-linejoin="round"/>
<path d="M425.182 164.479C425.182 164.419 425.182 164.359 425.182 164.239C425.122 164.299 425.182 164.359 425.182 164.479Z" fill="#DBE0E6" stroke="#2E3433" stroke-width="1.6611" stroke-miterlimit="10" stroke-linecap="round" stroke-linejoin="round"/>
<path d="M392.287 256.43V256.549C393.598 256.489 394.432 256.43 394.79 256.37C394.015 256.43 393.121 256.43 392.287 256.43Z" fill="#DBE0E6" stroke="#2E3433" stroke-width="1.6611" stroke-miterlimit="10" stroke-linecap="round" stroke-linejoin="round"/>
<path d="M1.05966 163.879C2.07272 158.099 14.5872 159.589 20.9041 166.025C32.2267 177.526 42.2979 221.327 44.6816 242.304C45.2776 247.786 45.3967 251.66 44.8008 253.09C43.9069 255.354 38.8415 256.308 33.8357 256.367V256.487L29.843 289.322H36.9941C36.9941 289.322 49.2703 261.194 49.5086 261.194H213.091C213.091 261.194 377.21 261.195 377.448 261.135L389.188 289.442H396.279L392.287 256.606V256.487C387.34 256.427 382.215 255.474 381.322 253.209C380.785 251.838 380.845 247.905 381.441 242.423C383.765 221.446 393.896 177.645 405.218 166.144C409.032 162.27 415.051 160.185 419.461 160.363C419.58 160.363 419.699 160.363 419.819 160.363C419.997 160.363 420.117 160.363 420.295 160.423C420.414 160.423 420.593 160.483 420.712 160.483C420.891 160.483 421.07 160.542 421.249 160.602C421.368 160.602 421.487 160.661 421.606 160.661C421.726 160.661 421.785 160.721 421.845 160.721C421.964 160.781 422.083 160.781 422.202 160.84C422.441 160.9 422.619 161.019 422.798 161.079C422.917 161.138 422.977 161.198 423.096 161.257C423.275 161.317 423.394 161.436 423.513 161.555C423.632 161.615 423.692 161.674 423.811 161.794C423.871 161.794 423.871 161.853 423.93 161.853C423.99 161.913 424.109 162.032 424.169 162.092C424.228 162.151 424.288 162.211 424.348 162.27C424.407 162.33 424.467 162.39 424.526 162.449C424.586 162.568 424.646 162.628 424.705 162.747C424.765 162.807 424.765 162.866 424.824 162.985C424.884 163.045 424.884 163.105 424.884 163.164C424.884 163.224 424.944 163.283 424.944 163.403C424.944 163.462 425.003 163.522 425.003 163.641C425.003 163.701 425.003 163.701 425.063 163.76C425.063 163.879 425.122 163.999 425.122 164.118C425.003 162.985 424.288 160.125 420.891 157.622C417.852 155.417 397.412 145.286 385.016 139.387C377.448 155.298 363.92 172.759 358.736 203.032L359.272 203.389C359.272 203.389 368.569 207.918 373.277 210.66H372.919C376.614 210.66 379.653 213.639 379.653 217.394V223.889C379.653 227.584 376.673 230.623 372.919 230.623H372.204C376.316 230.623 379.593 233.961 379.593 238.013V249.574C379.593 252.554 377.865 255.176 375.422 256.487C374.945 256.725 374.409 256.963 373.872 257.083C373.217 257.261 372.561 257.381 371.846 257.381H213.031V257.321H54.2761C53.5609 257.321 52.9054 257.202 52.2499 257.023C51.7136 256.904 51.1772 256.665 50.7005 256.427C48.1976 255.116 46.4694 252.554 46.4694 249.514V237.953C46.4694 233.841 49.8066 230.564 53.8589 230.564H53.1438C49.449 230.564 46.4098 227.584 46.4098 223.83V217.394C46.4098 213.699 49.449 210.66 53.1438 210.66H52.7862C57.4941 207.859 66.7906 203.389 66.7906 203.389L67.3269 203.032C62.1423 172.759 48.6147 155.298 41.0464 139.387C28.6511 145.286 8.21078 155.417 5.17154 157.622C1.95352 159.946 1.23843 162.688 1.05966 163.879Z" fill="#DBE0E6" stroke="#2E3433" stroke-width="1.6611" stroke-miterlimit="10" stroke-linecap="round" stroke-linejoin="round"/>
<path d="M213.091 137.063V206.072L352.538 206.131C354.683 206.131 358.795 205.774 358.795 205.774C363.98 175.501 377.507 158.04 385.076 142.129C386.148 139.864 387.102 137.659 387.936 135.395C390.558 128.124 382.156 121.927 374.468 121.927H229.3C220.659 121.688 213.091 127.826 213.091 137.063Z" fill="white" stroke="#2E3433" stroke-width="1.6611" stroke-miterlimit="10" stroke-linecap="round" stroke-linejoin="round"/>
<path d="M46.4698 217.396V223.892C46.4698 227.586 49.4494 230.626 53.2037 230.626L213.091 230.685H372.919C376.614 230.685 379.653 227.706 379.653 223.951V217.456C379.653 213.761 376.614 210.722 372.919 210.722H340.918C289.251 210.722 213.091 210.722 213.091 210.722C213.091 210.722 136.932 210.662 85.2647 210.662H53.2037C49.509 210.662 46.4698 213.642 46.4698 217.396Z" fill="white" stroke="#2E3433" stroke-width="1.6611" stroke-miterlimit="10" stroke-linecap="round" stroke-linejoin="round"/>
<path d="M46.4698 237.955V249.516C46.4698 252.496 48.1979 255.118 50.7008 256.429C51.1776 256.667 51.7139 256.905 52.2502 257.025C52.9058 257.203 53.5613 257.323 54.2764 257.323L213.091 257.382H371.906C372.621 257.382 373.277 257.263 373.932 257.084C374.469 256.965 375.005 256.727 375.482 256.488C377.985 255.177 379.653 252.615 379.653 249.576V238.015C379.653 233.903 376.316 230.625 372.264 230.625H213.091L53.9189 230.565C49.8069 230.565 46.4698 233.903 46.4698 237.955Z" fill="white" stroke="#2E3433" stroke-width="1.6611" stroke-miterlimit="10" stroke-linecap="round" stroke-linejoin="round"/>
<path d="M52.8458 210.661H85.2643C136.931 210.661 213.091 210.72 213.091 210.72C213.091 210.72 289.251 210.72 340.918 210.72H373.336C368.628 207.919 359.332 203.45 359.332 203.45L213.091 203.39H66.8501C66.8501 203.331 57.5536 207.86 52.8458 210.661Z" fill="#DBE0E6" stroke="#2E3433" stroke-width="1.6611" stroke-miterlimit="10" stroke-linecap="round" stroke-linejoin="round"/>
<path d="M381.322 253.148C382.216 255.413 387.281 256.366 392.287 256.426C393.121 256.426 394.015 256.426 394.849 256.426C394.909 256.426 394.909 256.426 394.968 256.426C398.186 256.307 401.047 255.83 402.179 255.115C410.463 249.99 407.602 234.317 425.003 166.381C425.182 165.726 425.242 165.189 425.182 164.653V164.534C425.182 164.414 425.182 164.295 425.122 164.176C425.122 164.057 425.063 163.938 425.063 163.819C425.063 163.759 425.063 163.759 425.003 163.699C425.003 163.64 424.944 163.521 424.944 163.461C424.944 163.401 424.884 163.342 424.884 163.223C424.884 163.163 424.824 163.103 424.824 163.044C424.765 162.984 424.765 162.865 424.705 162.805C424.646 162.686 424.586 162.627 424.526 162.507C424.467 162.448 424.407 162.388 424.348 162.329C424.288 162.269 424.229 162.21 424.169 162.15C424.109 162.09 423.99 161.971 423.931 161.912C423.871 161.852 423.871 161.852 423.811 161.852C423.692 161.792 423.633 161.673 423.513 161.614C423.394 161.494 423.215 161.435 423.096 161.316C422.977 161.256 422.917 161.196 422.798 161.137C422.62 161.018 422.381 160.958 422.202 160.899C422.083 160.839 421.964 160.839 421.845 160.779C421.785 160.779 421.666 160.72 421.606 160.72C421.487 160.66 421.368 160.66 421.249 160.66C421.07 160.601 420.891 160.601 420.713 160.541C420.593 160.541 420.415 160.481 420.295 160.481C420.117 160.481 419.997 160.422 419.819 160.422C419.699 160.422 419.58 160.422 419.461 160.422C415.051 160.243 409.032 162.329 405.218 166.202C393.896 177.704 383.825 221.504 381.441 242.481C380.845 247.844 380.785 251.778 381.322 253.148Z" fill="white" stroke="#2E3433" stroke-width="1.6611" stroke-miterlimit="10" stroke-linecap="round" stroke-linejoin="round"/>
<path d="M31.2138 256.371C31.5118 256.371 32.4057 256.431 33.8359 256.55V256.431C33.0016 256.431 32.1077 256.371 31.2138 256.371Z" fill="#DBE0E6" stroke="#2E3433" stroke-width="1.6611" stroke-miterlimit="10" stroke-linecap="round" stroke-linejoin="round"/>
<path d="M1 164.537V164.417C1 164.477 1 164.537 1 164.537Z" fill="#DBE0E6" stroke="#2E3433" stroke-width="1.6611" stroke-miterlimit="10" stroke-linecap="round" stroke-linejoin="round"/>
<path d="M38.2454 132.655C39.0201 134.86 39.9736 137.125 41.1059 139.389C48.7338 155.301 62.2017 172.761 67.3863 203.035C67.3863 203.035 71.4386 203.392 73.6436 203.392H213.091V134.384C213.091 125.147 205.523 119.009 196.941 119.187H51.773C44.0259 119.187 35.6233 125.385 38.2454 132.655Z" fill="white" stroke="#2E3433" stroke-width="1.6611" stroke-miterlimit="10" stroke-linecap="round" stroke-linejoin="round"/>
<path d="M1.00005 164.42V164.539C1.00005 165.075 1.05968 165.611 1.17886 166.267C18.58 234.203 15.7195 249.935 24.0029 255.001C25.1352 255.716 27.936 256.193 31.0944 256.312C31.0944 256.312 31.154 256.312 31.2136 256.312C32.0479 256.371 32.9418 256.371 33.8357 256.312C38.7819 256.252 43.8473 255.299 44.8008 253.034C45.3371 251.663 45.2776 247.73 44.6816 242.248C42.3575 221.271 32.2267 177.47 20.9041 165.969C14.5276 159.473 2.07275 157.984 1.05967 163.824C1.05967 163.883 1.05965 164.002 1.00005 164.062C1.00005 164.241 1.00005 164.3 1.00005 164.42Z" fill="white" stroke="#2E3433" stroke-width="1.6611" stroke-miterlimit="10" stroke-linecap="round" stroke-linejoin="round"/>
<path d="M98.2614 156.294L119.343 178.6L108.861 188.506L87.7798 166.2L98.2614 156.294Z" fill="#635BFF" stroke="#2E3433" stroke-width="1.5" stroke-miterlimit="10"/>
<path d="M91.9987 169.96L106.063 184.799C107.135 185.931 108.983 185.872 110.234 184.68L115.3 179.495C116.491 178.244 116.551 176.337 115.478 175.205L101.414 160.366C100.342 159.234 98.4943 159.293 97.2429 160.485L92.1775 165.67C90.9856 166.862 90.926 168.828 91.9987 169.96Z" fill="#E4E6EB"/>
<path d="M103.594 177.826C100.666 177.745 98.359 175.305 98.4407 172.377C98.5225 169.449 100.962 167.141 103.89 167.223C106.818 167.305 109.126 169.745 109.044 172.673C108.962 175.601 106.522 177.908 103.594 177.826Z" fill="#96999E" stroke="#2E3433" stroke-width="1.5" stroke-miterlimit="10"/>
<path d="M101.711 171.268C101.949 171.149 102.188 171.149 102.426 171.149C102.664 171.149 102.962 171.209 103.201 171.328C103.32 171.388 103.618 171.566 104.035 171.805L105.942 170.017C105.704 169.838 105.465 169.779 105.167 169.779C104.929 169.779 104.631 169.898 104.333 170.077L103.797 169.302C104.273 168.944 104.75 168.825 105.287 168.885C105.704 168.944 106.061 169.123 106.478 169.481L106.776 169.183L107.134 169.54L106.836 169.838C107.194 170.315 107.372 170.732 107.432 171.149C107.432 171.745 107.253 172.282 106.776 172.699C106.538 172.937 106.24 173.116 105.942 173.175C105.644 173.235 105.346 173.235 104.989 173.175C104.571 173.056 104.214 172.877 103.916 172.639L101.83 174.606C102.128 174.844 102.426 174.963 102.843 174.904C103.141 174.904 103.499 174.725 103.856 174.427L104.333 175.202C103.975 175.5 103.618 175.678 103.201 175.738C102.843 175.798 102.486 175.798 102.188 175.678C101.89 175.559 101.592 175.38 101.234 175.082L100.579 175.678L100.221 175.321L100.877 174.725C100.46 174.248 100.281 173.712 100.281 173.116C100.34 172.52 100.579 172.043 100.996 171.626C101.234 171.507 101.473 171.388 101.711 171.268ZM104.512 172.103C104.869 172.341 105.227 172.401 105.465 172.401C105.704 172.401 106.002 172.282 106.18 172.043C106.419 171.805 106.538 171.566 106.538 171.268C106.538 170.971 106.478 170.673 106.3 170.375L104.512 172.103ZM101.175 173.354C101.115 173.712 101.234 174.01 101.413 174.308L103.38 172.401C102.962 172.162 102.605 172.043 102.307 172.043C102.069 172.043 101.83 172.162 101.592 172.401C101.353 172.699 101.175 172.997 101.175 173.354Z" fill="white"/>
<path d="M109.578 178.718C108.803 179.492 108.744 180.684 109.519 181.518C110.293 182.293 111.485 182.353 112.319 181.578C113.094 180.803 113.154 179.611 112.379 178.777C111.664 178.002 110.412 178.002 109.578 178.718Z" fill="#E4E6EB"/>
<path d="M95.574 163.94C94.7993 164.715 94.7397 165.907 95.5145 166.741C96.2892 167.516 97.481 167.575 98.3153 166.8C99.09 166.026 99.1496 164.834 98.3749 164C97.6002 163.165 96.3487 163.165 95.574 163.94Z" fill="#E4E6EB"/>
<path d="M91.9001 156.722L116.566 174.982L107.985 186.573L83.3193 168.312L91.9001 156.722Z" fill="#635BFF" stroke="#2E3433" stroke-width="1.5" stroke-miterlimit="10"/>
<path d="M88.1251 171.208L104.573 183.365C105.824 184.319 107.672 183.902 108.625 182.531L112.677 176.512C113.631 175.082 113.392 173.175 112.081 172.221L95.6338 160.064C94.3824 159.111 92.535 159.528 91.5815 160.899L87.5292 166.918C86.5757 168.348 86.8141 170.314 88.1251 171.208Z" fill="#E4E6EB"/>
<path d="M94.8441 172.34C94.5014 169.431 96.5818 166.795 99.4908 166.452C102.4 166.11 105.036 168.19 105.378 171.099C105.721 174.008 103.641 176.644 100.732 176.987C97.8229 177.329 95.1869 175.249 94.8441 172.34Z" fill="#96999E" stroke="#2E3433" stroke-width="1.5" stroke-miterlimit="10"/>
<path d="M97.8975 170.852C98.1359 170.733 98.3743 170.613 98.6127 170.613C98.851 170.554 99.149 170.613 99.4469 170.673C99.6257 170.733 99.9237 170.792 100.341 170.971L101.89 168.885C101.592 168.766 101.354 168.706 101.116 168.766C100.877 168.826 100.639 168.945 100.341 169.243L99.6853 168.587C100.102 168.17 100.52 167.932 101.056 167.932C101.473 167.932 101.89 168.051 102.307 168.289L102.546 167.932L102.963 168.23L102.725 168.587C103.142 169.004 103.44 169.362 103.499 169.779C103.618 170.375 103.499 170.911 103.142 171.448C102.903 171.746 102.665 171.924 102.367 172.103C102.069 172.222 101.771 172.282 101.413 172.222C100.996 172.163 100.579 172.044 100.222 171.865L98.4935 174.189C98.7914 174.368 99.149 174.427 99.5661 174.308C99.8641 174.248 100.162 174.01 100.52 173.653L101.175 174.308C100.877 174.666 100.52 174.904 100.162 175.023C99.8045 175.142 99.4469 175.202 99.149 175.142C98.851 175.083 98.4935 174.964 98.0763 174.725L97.54 175.44L97.1228 175.142L97.6592 174.427C97.1824 174.01 96.8845 173.533 96.8249 172.997C96.7653 172.401 96.8845 171.865 97.3016 171.388C97.4804 171.15 97.6592 170.971 97.8975 170.852ZM100.818 171.15C101.235 171.269 101.533 171.328 101.831 171.269C102.069 171.209 102.307 171.03 102.486 170.792C102.665 170.554 102.725 170.256 102.725 169.958C102.725 169.66 102.546 169.362 102.307 169.123L100.818 171.15ZM97.7188 172.997C97.7188 173.355 97.8975 173.653 98.1359 173.891L99.7449 171.686C99.2682 171.507 98.9106 171.448 98.6722 171.567C98.4339 171.626 98.1955 171.805 98.0167 172.044C97.7784 172.282 97.7188 172.639 97.7188 172.997Z" fill="white"/>
<path d="M107.015 176.81C106.36 177.704 106.539 178.896 107.433 179.551C108.326 180.207 109.518 180.028 110.174 179.134C110.829 178.24 110.651 177.048 109.757 176.393C108.863 175.737 107.611 175.916 107.015 176.81Z" fill="#E4E6EB"/>
<path d="M90.5674 164.654C89.9119 165.548 90.0906 166.74 90.9845 167.396C91.8784 168.051 93.0703 167.872 93.7258 166.978C94.3813 166.084 94.2025 164.893 93.3086 164.237C92.4147 163.582 91.2229 163.82 90.5674 164.654Z" fill="#E4E6EB"/>
<path d="M170.363 305.295C170.423 306.189 170.661 307.083 171.257 308.096C175.429 315.486 188.897 317.989 191.042 314.651C191.459 313.996 191.578 313.102 191.221 311.97C191.161 311.672 191.042 311.374 190.982 311.076C188.897 302.733 187.288 290.159 186.751 286.941C186.215 283.604 186.751 269.718 186.751 269.718C173.82 266.5 173.522 267.573 173.402 268.05C171.555 275.559 172.211 286.822 172.27 289.146C172.747 299.038 170.184 302.077 170.363 305.295Z" fill="white" stroke="#2E3433" stroke-width="1.6611" stroke-miterlimit="10" stroke-linecap="round" stroke-linejoin="round"/>
<path d="M219.348 191.532C219.348 191.532 294.614 178.184 304.327 191.532C314.041 204.881 266.545 218.886 258.739 218.826C250.932 218.826 211.005 223.653 211.005 223.653L219.348 191.532Z" fill="#2E3433"/>
<path d="M206.476 224.486C208.204 229.074 208.025 235.987 208.681 241.35C208.8 242.423 208.979 243.436 209.217 244.33C210.588 249.813 214.7 253.269 217.441 253.269C219.586 253.269 216.964 249.872 216.666 245.045C216.607 243.615 216.726 242.125 217.202 240.456C219.467 233.365 224.234 230.624 233.173 226.452C242.112 222.34 229.061 213.401 229.061 213.401C229.061 213.401 224.95 215.487 214.64 213.401C204.39 211.435 204.39 219.003 206.476 224.486Z" fill="white" stroke="#2E3433" stroke-width="1.6611" stroke-miterlimit="10" stroke-linecap="round" stroke-linejoin="round"/>
<path d="M162.914 242.72C164.583 257.142 165.894 267.987 166.549 273.232C169.708 273.947 173.82 274.721 178.706 275.019C183.891 275.317 188.42 275.079 191.876 274.662C192.115 274.602 192.413 274.602 192.651 274.543C194.498 256.248 196.286 238.012 198.134 219.717C202.663 218.466 209.039 216.559 216.309 213.52C227.751 208.752 233.472 206.428 234.485 202.495C236.154 196.238 226.738 187.597 215.058 186.584C206.357 185.809 199.683 189.623 198.074 190.576C194.915 191.768 190.923 193.377 186.513 195.463C183.474 196.953 180.196 198.681 176.799 200.707C173.224 202.852 170.065 204.759 167.682 206.905C159.756 214.056 160.709 223.71 162.914 242.72Z" fill="#96999E" stroke="#2E3433" stroke-width="1.5" stroke-miterlimit="10"/>
<path d="M191.876 274.66C192.114 274.6 192.412 274.6 192.651 274.541C194.498 256.782 196.286 238.964 198.133 221.205C202.662 220.013 209.039 218.106 216.309 215.186C227.155 210.836 232.459 208.572 234.485 204.46C234.723 203.983 236.63 199.871 233.889 195.878C229.419 189.383 216.845 189.025 215.057 189.025C206.655 188.787 196.405 190.813 194.021 192.124C190.863 193.256 186.572 195.64 182.162 197.726C191.697 197.845 215.653 198.202 218.216 200.765C219.765 203.983 211.124 210.002 203.496 213.577C200.159 215.127 198.789 215.484 196.822 217.034C190.565 221.92 191.161 228.893 191.339 232.111C192.055 241.586 191.995 255.888 191.876 274.66Z" fill="#2E3433"/>
<path d="M92.8915 153.451L95.2156 151.127L103.022 143.141L123.105 118.172C125.012 115.788 127.872 114.358 130.912 114.12L191.398 110.544L180.433 130.09L135.083 130.925C126.681 137.48 118.218 143.976 109.816 150.531H109.756C109.28 152.497 107.909 157.98 107.373 160.006C107.075 161.198 106.419 162.747 105.764 164.178L103.082 160.9C103.082 160.781 103.082 160.602 103.082 160.483C103.082 160.483 103.022 160.602 102.903 160.721C101.771 162.688 94.6793 175.202 94.3217 175.083C93.9642 174.904 92.8319 175.143 92.8915 173.057L98.8508 162.509L91.938 172.818C91.938 172.818 89.7331 173.295 90.5078 170.316C90.5078 170.316 87.6473 171.15 87.9453 168.051L92.5339 158.695L87.7069 165.846C87.4685 166.204 86.9322 166.382 86.5746 166.144C86.5151 166.084 86.4555 166.025 86.3959 166.025C85.3828 164.773 87.9453 161.019 92.8915 153.451Z" fill="white" stroke="#2E3433" stroke-width="1.6611" stroke-miterlimit="10" stroke-linecap="round" stroke-linejoin="round"/>
<path d="M108.982 135.691L118.814 143.617L116.312 145.524L106.24 139.088L108.982 135.691Z" fill="#2E3433"/>
<path d="M106.002 140.46C106.062 143.023 108.147 145.049 110.71 144.989C113.272 144.93 115.299 142.844 115.239 140.281C115.179 137.719 113.094 135.693 110.531 135.752C107.969 135.752 105.942 137.898 106.002 140.46Z" fill="white" stroke="#2E3433" stroke-width="1.3512" stroke-miterlimit="10" stroke-linecap="round" stroke-linejoin="round"/>
<path d="M241.219 108.996C247.476 112.572 252.601 115.73 256.475 118.173C256.475 118.173 268.274 125.622 283.709 141.117C284.841 142.249 286.986 144.454 286.748 147.195C286.509 150.115 283.589 152.678 280.908 153.452C275.306 155.121 269.168 149.638 265.533 146.48C258.382 140.342 247.953 132.118 232.757 122.285C235.558 117.875 238.358 113.406 241.219 108.996Z" fill="white" stroke="#2E3433" stroke-width="1.5" stroke-miterlimit="10" stroke-linecap="round" stroke-linejoin="round"/>
<path d="M139.256 110.187C152.783 109.353 166.251 108.459 179.779 107.624C179.898 107.624 179.958 107.624 180.077 107.565C184.546 106.909 190.327 106.254 196.644 105.777C204.033 105.241 212.138 105.002 219.527 105.539C219.646 105.539 219.766 105.539 219.944 105.598C224.95 104.824 232.697 104.347 241.219 107.207C245.927 108.757 249.562 110.902 254.568 114.478C261.361 119.305 270.837 126.873 281.265 138.136C278.822 140.937 273.101 146.777 263.626 150.054C260.229 151.246 257.071 151.842 254.151 152.14C250.754 152.498 247.834 152.319 245.629 152.081L253.316 185.274C253.316 185.274 253.316 185.274 253.257 185.274C246.761 187.777 239.372 190.101 231.088 191.948C222.686 193.855 214.7 194.928 207.311 195.464C198.67 196.12 190.863 195.941 184.129 195.524C183.891 193.855 183.652 192.187 183.414 190.518C181.149 175.262 178.944 160.066 176.68 144.81H145.275C143.725 141.771 142.235 138.136 141.043 133.905C138.362 124.31 138.6 115.908 139.256 110.187Z" fill="#635BFF" stroke="#2E3433" stroke-width="1.5" stroke-miterlimit="10"/>
<path d="M239.073 129.433C239.073 129.433 239.43 130.505 241.099 137.656L245.211 151.84C247.475 152.197 249.68 152.555 254.209 152.078L239.073 129.433Z" fill="#2E3433"/>
<path d="M226.618 208.514C226.678 211.136 226.857 213.996 227.214 217.036C227.274 217.274 227.274 217.572 227.334 217.81C227.87 222.041 228.764 225.855 229.658 229.193C236.451 228.001 296.342 217.393 305.519 204.938C306.413 203.687 308.499 200.886 308.678 197.489C308.678 196.893 308.678 196.297 308.559 195.701C307.665 190.576 302.003 187.716 300.096 186.762C283.41 178.3 259.097 190.1 248.489 195.284C242.291 198.145 234.723 202.435 226.618 208.514Z" fill="#96999E" stroke="#2E3433" stroke-width="1.5" stroke-miterlimit="10"/>
<path d="M170.363 305.294C170.422 306.188 170.661 307.082 171.257 308.095C175.428 315.484 188.896 317.987 191.041 314.65C191.459 313.995 191.578 313.101 191.22 311.968C191.161 311.67 191.041 311.372 190.982 311.074C187.227 311.611 180.911 310.657 170.363 305.294Z" fill="#2E3433"/>
<path d="M208.681 241.351C208.8 242.423 208.979 243.436 209.217 244.33C210.588 249.813 214.7 253.269 217.441 253.269C219.586 253.269 216.964 249.872 216.666 245.045C214.819 244.688 212.197 243.675 208.681 241.351Z" fill="#2E3433"/>
<path d="M227.334 217.75C227.87 221.981 228.764 225.795 229.658 229.132C236.452 227.94 296.343 217.333 305.52 204.878C306.414 203.626 308.499 200.826 308.678 197.429C305.639 202.077 297.356 210.301 275.962 215.247C245.629 222.279 236.213 227.046 227.334 217.75Z" fill="#2E3433"/>
<path d="M196.285 107.445C196.285 111.319 201.589 114.418 208.144 114.418C214.7 114.418 219.944 111.319 219.944 107.445C219.944 106.79 219.765 106.134 219.467 105.538C212.078 104.942 204.033 105.24 196.643 105.777C196.405 106.313 196.285 106.849 196.285 107.445Z" fill="#2E3433"/>
<path d="M223.639 178.181C225.069 176.751 226.857 175.321 226.857 175.321L242.291 166.382C245.807 165.488 249.383 164.594 252.899 163.7C259.156 156.907 274.948 140.519 281.205 140.519C289.072 140.519 289.846 153.808 284.9 156.609C275.783 162.091 266.605 167.633 257.488 173.116C255.938 174.963 254.389 176.751 252.839 178.598C249.562 180.505 246.344 182.412 243.066 184.26C242.947 185.154 242.291 190.577 240.623 190.755C240.206 190.815 239.252 190.577 239.014 189.921C238.895 189.563 238.954 189.265 239.014 189.087C239.61 187.001 239.431 184.736 239.848 182.591L243.9 178.539C242.291 179.909 240.623 181.22 239.014 182.591C238.775 183.187 238.477 184.021 238.179 185.034C237.345 188.014 237.584 189.206 236.57 189.921C235.796 190.457 234.663 190.457 234.127 189.921C233.591 189.385 233.889 188.372 234.127 187.478C234.544 185.988 235.081 183.902 235.736 180.982C236.809 179.611 237.882 178.3 239.014 176.93L234.127 181.816C233.293 183.068 232.757 184.26 232.518 185.094C231.803 187.239 231.922 188.67 230.909 189.146C230.492 189.385 229.836 189.385 229.3 189.146C229.3 189.146 228.823 188.908 228.466 188.312C227.87 187.299 228.883 183.783 230.909 179.373L235.796 174.486C233.65 175.559 231.445 176.632 229.3 177.764C229.3 177.764 227.81 179.254 226.142 180.625C223.043 180.982 223.639 178.181 223.639 178.181Z" fill="white" stroke="#2E3433" stroke-width="1.6611" stroke-miterlimit="10" stroke-linecap="round" stroke-linejoin="round"/>
<path d="M317.021 148.15L301.527 188.375C301.467 188.554 301.288 188.673 301.109 188.673L239.252 191.295C238.895 191.295 238.656 190.818 238.835 190.401L256.355 150.057C256.415 149.878 256.594 149.759 256.772 149.759L316.604 147.256C316.961 147.256 317.2 147.733 317.021 148.15Z" fill="#2E3433"/>
<path d="M209.098 192.609L210.409 188.378L216.547 188.14L217.62 192.49L209.098 192.609Z" fill="#2E3433"/>
<path d="M216.606 192.302L217.917 188.071L224.055 187.833L225.128 192.183L216.606 192.302Z" fill="#2E3433"/>
<path d="M224.473 192.006L225.784 187.775L231.922 187.477L232.995 191.827L224.473 192.006Z" fill="#2E3433"/>
<path d="M232.101 191.652L233.412 187.421L239.55 187.183L240.622 191.533L232.101 191.652Z" fill="#2E3433"/>
<path d="M301.708 193.814L206.386 197.834L206.133 191.821L301.455 187.8L301.708 193.814Z" fill="#2E3433"/>
<path d="M145.214 111.258C145.274 110.484 145.333 110.066 145.333 110.066L144.738 110.007C144.738 110.007 144.678 110.424 144.618 111.199L145.214 111.258Z" fill="#2E3433"/>
<path d="M150.22 142.189L150.697 141.831C150.28 141.235 149.922 140.58 149.505 139.924L148.969 140.222C149.386 140.878 149.803 141.593 150.22 142.189ZM148.015 138.136L148.552 137.898C148.254 137.242 147.956 136.527 147.717 135.812L147.181 135.991C147.419 136.766 147.717 137.481 148.015 138.136ZM146.406 133.846L147.002 133.667C146.764 132.952 146.585 132.237 146.406 131.462L145.81 131.581C145.989 132.415 146.168 133.13 146.406 133.846ZM145.274 129.436L145.87 129.317C145.751 128.601 145.572 127.827 145.512 127.112L144.917 127.171C145.036 127.946 145.155 128.661 145.274 129.436ZM144.619 124.907L145.214 124.847C145.155 124.132 145.095 123.357 145.036 122.583L144.44 122.642C144.499 123.357 144.559 124.132 144.619 124.907ZM144.321 120.318H144.917C144.917 119.603 144.857 118.828 144.857 118.173V118.054H144.261V118.173C144.261 118.828 144.261 119.543 144.321 120.318ZM144.917 115.729C144.917 114.895 144.976 114.12 145.036 113.465L144.44 113.405C144.38 114.061 144.38 114.835 144.321 115.67L144.917 115.729Z" fill="#2E3433"/>
<path d="M152.366 144.987L152.783 144.57C152.545 144.272 152.247 143.974 152.009 143.676L151.532 144.033C151.83 144.391 152.128 144.689 152.366 144.987Z" fill="#2E3433"/>
<path d="M249.68 147.193C250.455 147.193 251.289 147.133 252.064 147.014L252.005 146.418C251.23 146.478 250.455 146.537 249.68 146.597V147.193ZM254.448 146.656C255.223 146.537 255.997 146.359 256.772 146.12L256.593 145.524C255.818 145.703 255.044 145.882 254.269 146.061L254.448 146.656ZM259.156 145.465C259.93 145.226 260.645 144.928 261.42 144.63L261.182 144.094C260.467 144.392 259.692 144.69 258.977 144.928L259.156 145.465ZM263.566 143.617C264.281 143.26 264.996 142.902 265.711 142.485L265.413 141.949C264.698 142.366 264.042 142.723 263.327 143.081L263.566 143.617ZM267.737 141.293C268.393 140.876 269.048 140.399 269.704 139.923L269.346 139.446C268.691 139.923 268.035 140.34 267.38 140.757L267.737 141.293ZM271.611 138.433C272.207 137.956 272.862 137.42 273.458 136.883L273.041 136.466C272.445 137.002 271.849 137.539 271.253 138.016L271.611 138.433ZM275.186 135.215C276.259 134.142 276.795 133.427 276.795 133.427L276.318 133.069C276.318 133.069 275.782 133.784 274.709 134.798L275.186 135.215Z" fill="#2E3433"/>
<path d="M230.075 131.698C225.903 131.46 221.732 131.281 217.56 131.162C213.389 131.102 209.217 131.102 204.986 131.281C202.901 131.34 200.815 131.519 198.67 131.817C197.597 131.996 196.584 132.115 195.511 132.473C195.213 132.532 194.975 132.651 194.677 132.771C194.379 132.949 194.14 133.009 193.843 133.247C193.723 133.367 193.485 133.486 193.306 133.784C193.187 133.962 193.127 134.26 193.247 134.558C193.306 134.737 193.366 134.797 193.425 134.856C193.485 134.916 193.545 135.035 193.604 135.095C194.021 135.452 194.319 135.512 194.617 135.572C195.749 135.869 196.822 135.989 197.835 136.048C198.908 136.167 199.921 136.227 200.994 136.287C203.079 136.406 205.165 136.465 207.251 136.525C211.422 136.644 215.594 136.704 219.706 136.942C221.732 137.061 223.877 137.18 225.725 137.717C225.963 137.776 226.142 137.836 226.261 137.955L226.321 138.015C226.261 137.955 226.261 137.896 226.261 137.836C226.321 137.717 226.261 137.896 226.082 138.015C225.963 138.134 225.725 138.253 225.546 138.372C224.712 138.849 223.758 139.207 222.805 139.505C218.871 140.756 214.76 141.59 210.707 142.305C208.681 142.663 206.595 143.021 204.569 143.319C203.556 143.438 202.483 143.557 201.47 143.676C200.457 143.736 199.385 143.855 198.372 143.676L198.312 143.795C199.325 144.034 200.398 143.914 201.47 143.914C202.543 143.855 203.556 143.795 204.569 143.676C206.655 143.497 208.741 143.199 210.767 142.901C214.879 142.246 218.991 141.531 223.043 140.339C224.056 140.041 225.01 139.683 225.963 139.207C226.38 138.968 226.917 138.67 227.095 138.074C227.155 137.776 226.917 137.478 226.678 137.359C226.44 137.24 226.201 137.121 225.963 137.061C223.937 136.465 221.851 136.406 219.765 136.227C215.594 135.929 211.422 135.869 207.251 135.75C205.165 135.691 203.079 135.631 200.994 135.512C198.908 135.393 196.822 135.333 194.796 134.856C194.558 134.797 194.319 134.678 194.14 134.558C193.962 134.439 194.081 134.201 194.319 134.082C194.498 133.903 194.796 133.843 194.975 133.724L195.69 133.486C196.703 133.188 197.716 133.009 198.729 132.83C200.815 132.532 202.841 132.353 204.927 132.234C213.27 131.758 221.613 131.817 229.956 131.996L230.075 131.698Z" fill="#2E3433"/>
<path d="M150.518 144.75H176.679C178.943 160.244 181.208 175.798 183.472 191.292C184.903 189.266 182.698 155.894 182.042 144.75C181.923 142.843 181.863 141.591 181.863 141.234C181.863 140.578 179.539 140.578 176.143 140.876C168.455 141.591 155.404 143.856 150.518 144.75Z" fill="#2E3433"/>
<path d="M197.835 107.743C207.489 117.874 216.547 110.961 216.547 110.961C216.606 108.935 216.606 106.849 216.666 104.763C216.725 100.83 216.845 96.9566 216.904 93.0234C216.964 90.8185 217.023 88.6731 217.023 86.4682C212.494 84.3825 207.965 82.2967 203.436 80.1514L197.835 107.743Z" fill="white"/>
<path d="M202.9 89.5075C203.973 93.679 219.706 100.771 222.804 100.294C225.903 99.8171 231.505 87.243 231.147 82.416C230.909 79.3767 231.505 72.6427 231.982 68.1137C229.658 65.9683 224.533 62.9291 216.13 64.4785C209.634 65.6704 205.344 76.3971 205.344 76.3971C205.344 76.3971 201.828 85.3956 202.9 89.5075Z" fill="white"/>
<path d="M219.169 67.0989C225.486 71.4491 233.65 70.0785 236.987 65.3707C239.55 61.8547 239.192 56.6701 236.093 53.035C232.995 49.3998 227.631 48.0292 222.923 49.6978C221.612 48.0888 219.229 45.705 215.534 44.4536C206.059 41.176 193.425 47.314 193.127 52.737C193.067 53.7501 193.425 55.0611 194.974 56.6701C192.889 56.6105 190.684 56.9085 189.194 58.2791C184.546 62.3314 187.942 74.1308 194.855 80.8648C199.384 85.2747 199.861 84.6787 202.841 85.3343C203.377 82.4738 204.986 75.3823 206.476 76.157C207.131 75.2035 208.383 71.8663 209.098 70.9128C211.72 67.9332 214.64 66.5625 219.169 67.0989Z" fill="#2E3433"/>
<path d="M205.94 78.0637C206.178 78.6 206.416 79.3152 206.536 80.2686C206.774 81.7585 206.476 82.8907 206.297 83.9038C205.94 85.5128 205.582 87.1814 204.509 87.4198C204.211 87.4794 203.913 87.4198 203.735 87.3602C203.139 87.0026 195.511 81.6393 196.762 76.0376C196.822 75.68 197.477 73.0579 199.325 72.5812C201.291 72.0448 204.092 74.1306 205.94 78.0637Z" fill="white"/>
<path d="M216.905 111.377C217.024 111.258 217.083 111.139 217.083 110.96L217.322 99.5181C219.229 100.293 222.03 101.187 223.341 100.948H223.4C226.976 100.293 232.518 87.54 232.16 82.5342C231.922 79.4353 232.577 72.2842 232.995 68.2915C232.995 68.1127 232.935 67.9935 232.816 67.8743C231.028 66.2057 225.843 62.5706 216.487 64.12C211.064 65.0139 208.74 69.4237 206.595 73.6548C206.297 74.3104 205.939 74.9063 205.582 75.5618C203.556 72.463 200.516 71.6883 199.146 71.9862C197.001 72.5226 196.285 75.3234 196.166 75.8598C195.213 80.1505 199.027 84.2028 201.53 86.3481L197.179 107.623C197.12 107.802 197.179 107.921 197.298 108.099C202.602 113.701 207.787 114.238 211.482 113.522C214.759 112.927 216.845 111.437 216.905 111.377ZM202.781 86.2885C202.841 86.1097 202.721 85.931 202.602 85.8118C200.278 83.9048 196.464 80.0313 197.358 76.1577C197.418 75.8598 198.014 73.4761 199.503 73.0589C200.457 72.8205 203.496 73.5952 205.165 76.9324C205.284 77.1112 205.463 77.2304 205.641 77.2304C205.88 77.2304 206.059 77.1112 206.178 76.9324C206.714 75.979 207.191 75.0255 207.668 74.072C209.813 69.9005 211.899 65.9078 216.726 65.1331C225.248 63.7624 230.015 66.8613 231.862 68.4703C231.386 73.3569 230.849 79.6737 231.028 82.6533C231.386 87.3612 225.903 99.4585 223.162 99.9353C223.162 99.9353 223.162 99.9353 223.102 99.9353C222.447 100.054 220.421 99.6373 216.905 98.2667C216.726 98.2071 216.547 98.2071 216.368 98.3263C216.189 98.4455 216.13 98.5646 216.13 98.7434L215.891 110.722C214.521 111.675 206.774 116.264 198.371 107.623L202.781 86.2885Z" fill="#2E3433"/>
<path d="M204.569 91.4746C204.51 92.9644 204.867 94.4543 206.238 97.1359C209.158 102.916 215.594 104.525 216.667 104.823C216.726 100.89 216.845 102.201 216.965 98.2682C216.13 97.851 209.754 96.0037 204.569 91.4746Z" fill="#2E3433"/>
<path d="M196.285 55.3582C196.285 55.3582 187.883 48.1475 181.327 53.3917C181.327 53.3917 186.393 49.2202 194.795 56.4309C203.198 63.6416 196.285 55.3582 196.285 55.3582Z" fill="#2E3433"/>
<path d="M191.756 56.3144C191.756 56.3144 182.877 58.4002 183.711 64.8362C183.711 64.8362 182.996 59.8304 191.876 57.7447C200.755 55.6589 191.756 56.3144 191.756 56.3144Z" fill="#2E3433"/>
<path d="M231.743 51.4883C232.816 52.0246 233.889 52.6802 234.783 53.3953C235.736 54.1104 236.57 54.9447 237.226 55.8386C237.881 56.7921 238.418 57.7455 238.835 58.8182C239.252 59.8909 239.55 60.9636 239.49 61.9766C239.49 63.0493 239.192 64.0624 238.597 64.8967C238.001 65.7906 237.047 66.4461 236.034 66.9824C235.021 67.5188 233.829 67.8763 232.637 68.0551C231.445 68.2935 230.194 68.2935 229.002 68.2935V68.3531C231.445 68.7106 234.008 68.4723 236.272 67.4592C237.405 66.9228 238.418 66.2077 239.133 65.2543C239.848 64.3008 240.265 63.1089 240.206 61.9766C240.206 60.7848 239.848 59.6525 239.431 58.5799C238.954 57.5072 238.418 56.4345 237.643 55.5406C236.153 53.6932 234.008 52.3226 231.743 51.4287V51.4883Z" fill="#2E3433"/>
<path d="M219.348 92.7244C216.726 92.0093 217.024 88.1953 217.024 88.1953C217.024 88.1953 219.169 90.7578 223.102 91.7709" fill="#2E3433"/>
</svg>
